<svg id="Layer_1" data-name="Layer 1" xmlns="http://www.w3.org/2000/svg" xmlns:xlink="http://www.w3.org/1999/xlink" width="1003" height="462.4" viewBox="0 0 1003 462.4"><defs><style>.cls-1,.cls-4{fill:none;}.cls-2{fill:#ccc;}.cls-3{fill:#6e7b7c;}.cls-4{stroke:#815a32;}.cls-10,.cls-11,.cls-12,.cls-13,.cls-14,.cls-15,.cls-16,.cls-17,.cls-18,.cls-19,.cls-20,.cls-4,.cls-6,.cls-7,.cls-8,.cls-9{stroke-miterlimit:10;}.cls-5{fill:#e9b17a;}.cls-6,.cls-7{fill:#b49677;}.cls-10,.cls-11,.cls-12,.cls-13,.cls-14,.cls-15,.cls-16,.cls-17,.cls-18,.cls-19,.cls-20,.cls-6,.cls-7,.cls-8,.cls-9{stroke:#000;}.cls-10,.cls-11,.cls-12,.cls-13,.cls-14,.cls-15,.cls-16,.cls-17,.cls-18,.cls-19,.cls-20,.cls-6,.cls-8,.cls-9{stroke-width:3px;}.cls-7{stroke-width:2px;}.cls-8{fill:#e2b180;}.cls-9{fill:#545f70;}.cls-10{fill:url(#New_Pattern_3);}.cls-11{fill:#df2500;}.cls-12{fill:url(#New_Pattern_2);}.cls-13{fill:#bb7533;}.cls-14{fill:#1c2424;}.cls-15{fill:#e89e2c;}.cls-16{fill:#3b3633;}.cls-17{fill:#bfbeba;}.cls-18{fill:#c2c1c8;}.cls-19{fill:#4a4b57;}.cls-20{fill:#323d3e;}</style><pattern id="New_Pattern_3" data-name="New Pattern 3" width="18" height="21" patternTransform="translate(6.3 3.2) scale(0.67)" patternUnits="userSpaceOnUse" viewBox="0 0 18 21"><rect class="cls-1" width="18" height="21"/><line class="cls-4" x1="15.5" y1="21" x2="20.5" y2="21"/><line class="cls-4" x1="6.5" y1="21" x2="11.5" y2="21"/><line class="cls-4" x1="-2.5" y1="21" x2="2.5" y2="21"/><rect class="cls-5" x="13.5" width="9" height="21"/><line class="cls-4" x1="15.5" y1="10.5" x2="20.5" y2="10.5"/><line class="cls-4" x1="15.5" x2="20.5"/><line class="cls-4" x1="15.5" y1="21" x2="20.5" y2="21"/><line class="cls-4" x1="15.5" y1="15.8" x2="20.5" y2="15.8"/><line class="cls-4" x1="15.5" y1="5.3" x2="20.5" y2="5.3"/><rect class="cls-5" x="4.5" width="9" height="21"/><line class="cls-4" x1="6.5" y1="10.5" x2="11.5" y2="10.5"/><line class="cls-4" x1="6.5" x2="11.5"/><line class="cls-4" x1="6.5" y1="21" x2="11.5" y2="21"/><line class="cls-4" x1="6.5" y1="15.8" x2="11.5" y2="15.8"/><line class="cls-4" x1="6.5" y1="5.3" x2="11.5" y2="5.3"/><rect class="cls-5" x="-4.5" width="9" height="21"/><line class="cls-4" x1="-2.5" y1="10.5" x2="2.5" y2="10.5"/><line class="cls-4" x1="-2.5" x2="2.5"/><line class="cls-4" x1="-2.5" y1="21" x2="2.5" y2="21"/><line class="cls-4" x1="-2.5" y1="15.8" x2="2.5" y2="15.8"/><line class="cls-4" x1="-2.5" y1="5.3" x2="2.5" y2="5.3"/><line class="cls-4" x1="15.5" x2="20.5"/><line class="cls-4" x1="6.5" x2="11.5"/><line class="cls-4" x1="-2.5" x2="2.5"/></pattern><pattern id="New_Pattern_2" data-name="New Pattern 2" width="342" height="296" patternTransform="translate(222.3 167.9) scale(0.67)" patternUnits="userSpaceOnUse" viewBox="0 0 342 296"><rect class="cls-1" width="342" height="296"/><rect class="cls-2" x="228.4" y="271.5" width="114" height="148"/><path class="cls-3" d="M318.6,282.5c.8,5.5-7.2,6.1-10.9,5.2s-7-2.7-8.2-6c-2.2-5.9,1.8-10.9,9.1-10.5,3.9.3,8.8-.9,9.7,4.6C318.4,276.5,318.5,282,318.6,282.5Z"/><path class="cls-3" d="M272.6,302.7c-2.8,5.3-7.8,2.8-9.5.6a9.2,9.2,0,0,1-1.2-8.6c2.3-6.2,7.6-9.3,11.5-6.1,2.2,1.8,5.7,2.5,3,7.8C276.1,297.1,272.8,302.2,272.6,302.7Z"/><path class="cls-3" d="M287.6,287.7c-2,4-6.8,1.5-8.5-.5s-2.8-4.5-2.1-7.1c1.4-4.8,5.9-6.7,9.8-3.7,2.2,1.6,5.5,2.6,3.6,6.7C290.2,283.6,287.8,287.4,287.6,287.7Z"/><path class="cls-3" d="M296.2,300.7c-.9,1.9-3.2.7-4-.2a3.5,3.5,0,0,1-1-3.4c.7-2.3,2.8-3.2,4.7-1.8s2.5,1.3,1.7,3.2Z"/><path class="cls-3" d="M337.7,293c-1.8,5.1-6.3,3.7-7.9,2.1a8.4,8.4,0,0,1-1.8-7.4c1.3-5.9,5.5-9.5,9.1-7.3,2,1.2,5,1.3,3.3,6.5Z"/><path class="cls-3" d="M264.3,275.6c4.1,1.1,3,5.4,1.7,7a6.7,6.7,0,0,1-6,2.6c-4.8-.5-7.7-3.9-5.9-7.5.9-2,1-4.8,5.2-3.8Z"/><path class="cls-3" d="M237.2,281.8c4-3.7,7.3-.5,8,1.7a8,8,0,0,1-1.7,7.4c-3.8,4.7-9.1,6-11.4,2.4-1.2-1.9-3.9-3.4,0-7.2Z"/><rect class="cls-2" x="114.4" y="222.1" width="114" height="148"/><path class="cls-3" d="M196.7,304.9c-5.2,4.1-9-.4-9.6-3.2a9.9,9.9,0,0,1,2.7-9.1c5.1-5.3,11.8-6.1,14.2-1.4,1.4,2.7,4.5,4.8-.6,9C202.7,300.8,197.2,304.5,196.7,304.9Z"/><path class="cls-3" d="M121.9,298.5c-3.4-2.6-.8-6.1,1-7.2a7.1,7.1,0,0,1,6.5-.1c4.3,2.3,5.6,6.6,2.7,9.2s-2.8,4.1-6.2,1.5C125.4,301.6,122.2,298.7,121.9,298.5Z"/><path class="cls-3" d="M146.5,289.6c-5,2.2-7-2-6.9-4.3a8.1,8.1,0,0,1,4.1-6.4c5.2-3.1,10.7-2.5,11.6,1.7.4,2.2,2.5,4.5-2.5,6.7Z"/><path class="cls-3" d="M121,282.7c-6.4-1.6-5.2-7.4-3.4-9.6a9.8,9.8,0,0,1,8.8-3.4c7.4.7,12.1,5.5,9.9,10.3-1.3,2.7-1,6.6-7.5,5.1Z"/><path class="cls-3" d="M204.6,233.2c.8,5.5-7.2,6.1-10.9,5.2s-7-2.7-8.2-6c-2.2-6,1.8-11,9.1-10.5,3.9.3,8.8-.9,9.7,4.5C204.4,227.1,204.5,232.7,204.6,233.2Z"/><path class="cls-3" d="M186.6,264.1c.7,4.6-5.9,5.1-9,4.4s-5.8-2.3-6.8-5c-1.8-4.9,1.5-9.1,7.5-8.7,3.3.2,7.3-.8,8.1,3.8C186.5,259.1,186.6,263.8,186.6,264.1Z"/><path class="cls-3" d="M196.1,271.5c3.4,2.6.8,6.1-1,7.2a7.1,7.1,0,0,1-6.5.1c-4.3-2.3-5.6-6.6-2.7-9.2s2.8-4.1,6.2-1.5C192.6,268.4,195.8,271.3,196.1,271.5Z"/><path class="cls-3" d="M171.5,270.4c5-2.2,7,2,6.9,4.3a8.1,8.1,0,0,1-4.1,6.4c-5.2,3.1-10.7,2.5-11.6-1.7-.4-2.2-2.5-4.5,2.5-6.7Z"/><path class="cls-3" d="M169,295.3c6.4,1.6,5.2,7.4,3.4,9.6a9.8,9.8,0,0,1-8.8,3.4c-7.4-.7-12.1-5.5-9.9-10.3,1.3-2.7,1-6.6,7.5-5.1Z"/><path class="cls-3" d="M158.6,253.4c-2.8,5.2-7.8,2.8-9.5.6a9.2,9.2,0,0,1-1.2-8.6c2.3-6.3,7.6-9.3,11.5-6.1,2.2,1.7,5.7,2.5,3,7.8C162.1,247.8,158.8,252.9,158.6,253.4Z"/><path class="cls-3" d="M173.6,238.4c-2,4-6.8,1.4-8.5-.5s-2.8-4.5-2.1-7.1c1.4-4.9,5.9-6.8,9.8-3.7,2.2,1.6,5.5,2.6,3.6,6.6C176.2,234.3,173.8,238.1,173.6,238.4Z"/><path class="cls-3" d="M182.2,251.4c-.9,1.9-3.2.7-4-.2a3.6,3.6,0,0,1-1-3.4c.7-2.3,2.8-3.2,4.7-1.8s2.5,1.3,1.7,3.2C183.4,249.4,182.3,251.2,182.2,251.4Z"/><path class="cls-3" d="M168.2,255.4c-.9,1.9-3.2.7-4-.2a3.6,3.6,0,0,1-1-3.4c.7-2.3,2.8-3.2,4.7-1.8s2.5,1.3,1.7,3.2C169.4,253.4,168.3,255.2,168.2,255.4Z"/><path class="cls-3" d="M185.1,292.7c1.2-1.4-.9-2.9-2-3.4s-2.4-.5-3.3.2-1.4,3.2.6,4.4,2.2,1.8,3.4.5Z"/><path class="cls-3" d="M157.2,273.4c-.9,1.9-3.2.7-4-.2a3.6,3.6,0,0,1-1-3.4c.7-2.3,2.8-3.2,4.7-1.8s2.5,1.3,1.7,3.2C158.4,271.4,157.3,273.2,157.2,273.4Z"/><path class="cls-3" d="M209.9,301c-3.7-2.7.4-7.8,3-9.6s5.6-2.7,8.3-1.5c4.8,2,5.6,7.3,1.2,11.4-2.4,2.2-4.4,5.8-8.3,3.3C213.6,304.3,210.2,301.2,209.9,301Z"/><path class="cls-3" d="M208,286.8c-4.2.8-5-3.6-4.5-5.6a6.8,6.8,0,0,1,4.4-4.8c4.6-1.6,8.6.4,8.5,4.3,0,2.2,1.1,4.8-3.1,5.6Z"/><path class="cls-3" d="M223.7,243.7c-1.8,5.1-6.3,3.7-7.9,2a8.2,8.2,0,0,1-1.8-7.4c1.3-5.9,5.5-9.4,9.1-7.2,2,1.2,5,1.3,3.3,6.4Z"/><path class="cls-3" d="M206.9,265c-5.6,3.6-9-1.3-9.4-4.1a10,10,0,0,1,3.6-8.8c5.6-4.8,12.3-5,14.3,0,1.1,2.7,4,5.1-1.5,8.8Z"/><path class="cls-3" d="M150.3,226.3c4.1,1.1,3,5.4,1.7,7a7,7,0,0,1-6,2.6c-4.8-.5-7.7-4-5.9-7.6.9-1.9,1-4.7,5.2-3.7Z"/><path class="cls-3" d="M123.2,232.5c4-3.8,7.3-.5,8,1.7a8.1,8.1,0,0,1-1.7,7.4c-3.8,4.7-9.1,6-11.4,2.4-1.2-2-3.9-3.4,0-7.2Z"/><path class="cls-3" d="M134.2,250.7c6.5-1,7.6,4.8,6.8,7.6a10.4,10.4,0,0,1-6.9,6.5c-7.1,2-13.3-.6-13-6,.1-2.9-1.6-6.4,5-7.4C126.9,251.2,133.6,250.7,134.2,250.7Z"/><rect class="cls-2" x="0.4" y="172.8" width="114" height="148"/><path class="cls-3" d="M42.4,299.5c-.8-5.5,7.2-6.1,10.9-5.2s7,2.7,8.2,6c2.2,5.9-1.8,10.9-9.1,10.5-3.9-.3-8.8.9-9.7-4.6C42.6,305.5,42.5,300,42.4,299.5Z"/><path class="cls-3" d="M70.4,276.5c-.7-4.5,5.9-5,9-4.3s5.8,2.3,6.8,5c1.8,4.9-1.5,9-7.5,8.7-3.3-.3-7.3.7-8.1-3.8C70.5,281.5,70.4,276.9,70.4,276.5Z"/><path class="cls-3" d="M54.9,275.1c-3.4-2.5-.8-6.1,1-7.1a6.8,6.8,0,0,1,6.5-.1c4.3,2.3,5.6,6.5,2.7,9.2s-2.8,4-6.2,1.5C58.4,278.3,55.2,275.4,54.9,275.1Z"/><path class="cls-3" d="M85.5,270.3c-5,2.2-7-2-6.9-4.3a8.1,8.1,0,0,1,4.1-6.4c5.2-3.1,10.7-2.5,11.6,1.6.4,2.3,2.5,4.6-2.5,6.8Z"/><path class="cls-3" d="M82.7,255.6c-5.2,4.1-9-.4-9.6-3.3a9.8,9.8,0,0,1,2.7-9c5.1-5.3,11.8-6.2,14.2-1.4,1.4,2.6,4.5,4.8-.6,9Z"/><path class="cls-3" d="M74.8,289.3c.9-1.9,3.2-.7,4,.2a3.5,3.5,0,0,1,1,3.4c-.7,2.3-2.8,3.2-4.7,1.8s-2.5-1.3-1.7-3.2Z"/><path class="cls-3" d="M56.8,283.3c.9-1.9,3.2-.7,4,.2a3.5,3.5,0,0,1,1,3.4c-.7,2.3-2.8,3.2-4.7,1.8s-2.5-1.3-1.7-3.2Z"/><path class="cls-3" d="M93.9,294c-1.2,1.3.9,2.9,2,3.3a3.8,3.8,0,0,0,3.3-.1c1.6-1.2,1.4-3.3-.6-4.4s-2.2-1.8-3.4-.5A19.2,19.2,0,0,0,93.9,294Z"/><path class="cls-3" d="M105.8,285.3c.9-1.9,3.2-.7,4,.2a3.5,3.5,0,0,1,1,3.4c-.7,2.3-2.8,3.2-4.7,1.8s-2.5-1.3-1.7-3.2Z"/><path class="cls-3" d="M3.4,279.5c-.8-5.5,7.2-6.1,10.9-5.2s7,2.7,8.2,6c2.2,5.9-1.8,10.9-9.1,10.5-3.9-.3-8.8.9-9.7-4.6C3.6,285.5,3.5,280,3.4,279.5Z"/><path class="cls-3" d="M17.4,256.5c-.7-4.5,5.9-5,9-4.3s5.8,2.3,6.8,5c1.8,4.9-1.5,9-7.5,8.7-3.3-.3-7.3.7-8.1-3.8C17.5,261.5,17.4,256.9,17.4,256.5Z"/><path class="cls-3" d="M7.9,249.1c-3.4-2.5-.8-6.1,1-7.1a6.8,6.8,0,0,1,6.5-.1c4.3,2.3,5.6,6.5,2.7,9.2s-2.8,4-6.2,1.5C11.4,252.3,8.2,249.4,7.9,249.1Z"/><path class="cls-3" d="M32.5,240.3c-5,2.2-7-2-6.9-4.3a8.1,8.1,0,0,1,4.1-6.4c5.2-3.1,10.7-2.5,11.6,1.6.4,2.3,2.5,4.6-2.5,6.8Z"/><path class="cls-3" d="M7,233.3c-6.4-1.5-5.2-7.3-3.4-9.6a10.3,10.3,0,0,1,8.8-3.4c7.4.8,12.1,5.5,9.9,10.4-1.3,2.7-1,6.5-7.5,5C14,235.6,7.6,233.5,7,233.3Z"/><path class="cls-3" d="M35.4,279.3c2.8-5.3,7.8-2.8,9.5-.6a9.2,9.2,0,0,1,1.2,8.6c-2.3,6.2-7.6,9.3-11.5,6.1-2.2-1.8-5.7-2.5-3-7.8C31.9,284.9,35.2,279.8,35.4,279.3Z"/><path class="cls-3" d="M18.4,296.3c2-4,6.8-1.5,8.5.5s2.8,4.5,2.1,7.1c-1.4,4.8-5.9,6.7-9.8,3.7-2.2-1.6-5.5-2.6-3.6-6.7C15.8,300.4,18.2,296.6,18.4,296.3Z"/><path class="cls-3" d="M21.8,269.3c.9-1.9,3.2-.7,4,.2a3.5,3.5,0,0,1,1,3.4c-.7,2.3-2.8,3.2-4.7,1.8s-2.5-1.3-1.7-3.2Z"/><path class="cls-3" d="M35.8,265.3c.9-1.9,3.2-.7,4,.2a3.5,3.5,0,0,1,1,3.4c-.7,2.3-2.8,3.2-4.7,1.8s-2.5-1.3-1.7-3.2Z"/><path class="cls-3" d="M62.9,258c-1.2,1.3.9,2.9,2,3.3a3.8,3.8,0,0,0,3.3-.1c1.6-1.2,1.4-3.3-.6-4.4s-2.2-1.8-3.4-.5A19.2,19.2,0,0,0,62.9,258Z"/><path class="cls-3" d="M46.8,265.3c.9-1.9,3.2-.7,4,.2a3.5,3.5,0,0,1,1,3.4c-.7,2.3-2.8,3.2-4.7,1.8s-2.5-1.3-1.7-3.2Z"/><path class="cls-3" d="M90.6,183.9c.8,5.4-7.2,6-10.9,5.2s-7-2.8-8.2-6c-2.2-6,1.8-11,9.1-10.5,3.9.2,8.8-1,9.7,4.5C90.4,177.8,90.5,183.4,90.6,183.9Z"/><path class="cls-3" d="M72.6,214.8c.7,4.5-5.9,5-9,4.3s-5.8-2.2-6.8-4.9c-1.8-5,1.5-9.1,7.5-8.7,3.3.2,7.3-.8,8.1,3.7C72.5,209.8,72.6,214.4,72.6,214.8Z"/><path class="cls-3" d="M82.1,222.2c3.4,2.6.8,6.1-1,7.1a6.5,6.5,0,0,1-6.5.1c-4.3-2.2-5.6-6.5-2.7-9.2s2.8-4,6.2-1.5C78.6,219,81.8,222,82.1,222.2Z"/><path class="cls-3" d="M57.5,221c5-2.1,7,2.1,6.9,4.4a8.1,8.1,0,0,1-4.1,6.4c-5.2,3-10.7,2.4-11.6-1.7-.4-2.3-2.5-4.5,2.5-6.8Z"/><path class="cls-3" d="M55,246c6.4,1.6,5.2,7.4,3.4,9.6a10,10,0,0,1-8.8,3.4c-7.4-.8-12.1-5.5-9.9-10.4,1.3-2.6,1-6.5,7.5-5Z"/><path class="cls-3" d="M44.6,204c-2.8,5.3-7.8,2.8-9.5.7a9.3,9.3,0,0,1-1.2-8.6c2.3-6.3,7.6-9.3,11.5-6.2,2.2,1.8,5.7,2.5,3,7.9C48.1,198.4,44.8,203.6,44.6,204Z"/><path class="cls-3" d="M59.6,189.1c-2,4-6.8,1.4-8.5-.6a7.9,7.9,0,0,1-2.1-7.1c1.4-4.8,5.9-6.7,9.8-3.7,2.2,1.7,5.5,2.7,3.6,6.7C62.2,184.9,59.8,188.7,59.6,189.1Z"/><path class="cls-3" d="M68.2,202.1c-.9,1.9-3.2.6-4-.3a3.5,3.5,0,0,1-1-3.4c.7-2.3,2.8-3.2,4.7-1.7s2.5,1.2,1.7,3.2C69.4,200.1,68.3,201.9,68.2,202.1Z"/><path class="cls-3" d="M54.2,206.1c-.9,1.9-3.2.6-4-.3a3.5,3.5,0,0,1-1-3.4c.7-2.3,2.8-3.2,4.7-1.7s2.5,1.2,1.7,3.2C55.4,204.1,54.3,205.9,54.2,206.1Z"/><path class="cls-3" d="M71.1,243.3c1.2-1.3-.9-2.9-2-3.3a3.5,3.5,0,0,0-3.3.2c-1.6,1.2-1.4,3.2.6,4.4s2.2,1.8,3.4.5Z"/><path class="cls-3" d="M43.2,224.1c-.9,1.9-3.2.6-4-.3a3.5,3.5,0,0,1-1-3.4c.7-2.3,2.8-3.2,4.7-1.7s2.5,1.2,1.7,3.2C44.4,222.1,43.3,223.9,43.2,224.1Z"/><path class="cls-3" d="M94.9,275.1c-4.6-3.2.5-9.4,3.6-11.5s6.8-3.3,10-1.9c5.9,2.5,6.8,8.8,1.4,13.8-2.9,2.7-5.3,7.1-9.9,4C99.4,279.1,95.2,275.4,94.9,275.1Z"/><path class="cls-3" d="M95.9,251.6c-3.7-2.6.4-7.8,3-9.5s5.6-2.7,8.3-1.6c4.8,2.1,5.6,7.3,1.2,11.5-2.4,2.2-4.4,5.8-8.3,3.3Z"/><path class="cls-3" d="M94,237.5c-4.2.7-5-3.6-4.5-5.7a6.9,6.9,0,0,1,4.4-4.8c4.6-1.5,8.6.4,8.5,4.4,0,2.2,1.1,4.8-3.1,5.6Z"/><path class="cls-3" d="M109.7,194.3c-1.8,5.1-6.3,3.8-7.9,2.1A8.3,8.3,0,0,1,100,189c1.3-5.9,5.5-9.4,9.1-7.2,2,1.2,5,1.2,3.3,6.4Z"/><path class="cls-3" d="M92.9,215.6c-5.6,3.6-9-1.2-9.4-4.1a9.9,9.9,0,0,1,3.6-8.7c5.6-4.8,12.3-5.1,14.3-.1,1.1,2.7,4,5.2-1.5,8.9Z"/><path class="cls-3" d="M36.3,177c4.1,1.1,3,5.3,1.7,7a6.9,6.9,0,0,1-6,2.5c-4.8-.5-7.7-3.9-5.9-7.5.9-2,1-4.8,5.2-3.7Z"/><path class="cls-3" d="M9.2,183.1c4-3.7,7.3-.5,8,1.7a8.2,8.2,0,0,1-1.7,7.5c-3.8,4.7-9.1,5.9-11.4,2.4-1.2-2-3.9-3.4,0-7.2C4.6,187,8.9,183.5,9.2,183.1Z"/><path class="cls-3" d="M20.2,201.3c6.5-.9,7.6,4.9,6.8,7.6a10,10,0,0,1-6.9,6.5c-7.1,2.1-13.3-.5-13-5.9.1-2.9-1.6-6.4,5-7.5Z"/><rect class="cls-2" x="-113.6" y="271.5" width="114" height="148"/><rect class="cls-2" x="228.4" y="123.5" width="114" height="148"/><path class="cls-3" d="M270.4,250.1c-.8-5.4,7.2-6,10.9-5.2s7,2.8,8.2,6c2.2,6-1.8,11-9.1,10.5-3.9-.2-8.8,1-9.7-4.5C270.6,256.2,270.5,250.6,270.4,250.1Z"/><path class="cls-3" d="M298.4,227.2c-.7-4.5,5.9-5,9-4.3s5.8,2.2,6.8,4.9c1.8,5-1.5,9.1-7.5,8.7-3.3-.2-7.3.8-8.1-3.7C298.5,232.2,298.4,227.6,298.4,227.2Z"/><path class="cls-3" d="M282.9,225.8c-3.4-2.6-.8-6.1,1-7.1a6.5,6.5,0,0,1,6.5-.1c4.3,2.2,5.6,6.5,2.7,9.2s-2.8,4-6.2,1.5C286.4,229,283.2,226,282.9,225.8Z"/><path class="cls-3" d="M313.5,221c-5,2.1-7-2.1-6.9-4.4a8.1,8.1,0,0,1,4.1-6.4c5.2-3,10.7-2.4,11.6,1.7.4,2.3,2.5,4.5-2.5,6.8Z"/><path class="cls-3" d="M310.7,206.2c-5.2,4.1-9-.4-9.6-3.2a9.8,9.8,0,0,1,2.7-9c5.1-5.3,11.8-6.2,14.2-1.4,1.4,2.6,4.5,4.8-.6,9Z"/><path class="cls-3" d="M330.4,252c2.8-5.3,7.8-2.8,9.5-.6a9,9,0,0,1,1.2,8.5c-2.3,6.3-7.6,9.3-11.5,6.2-2.2-1.8-5.7-2.5-3-7.9C326.9,257.6,330.2,252.4,330.4,252Z"/><path class="cls-3" d="M311.4,252.9c2-4,6.8-1.4,8.5.6a7.9,7.9,0,0,1,2.1,7.1c-1.4,4.8-5.9,6.7-9.8,3.7-2.2-1.7-5.5-2.7-3.6-6.7C308.8,257.1,311.2,253.3,311.4,252.9Z"/><path class="cls-3" d="M302.8,239.9c.9-1.9,3.2-.6,4,.3a3.5,3.5,0,0,1,1,3.4c-.7,2.3-2.8,3.2-4.7,1.7s-2.5-1.2-1.7-3.2C301.6,241.9,302.7,240.1,302.8,239.9Z"/><path class="cls-3" d="M284.8,233.9c.9-1.9,3.2-.6,4,.3a3.5,3.5,0,0,1,1,3.4c-.7,2.3-2.8,3.2-4.7,1.7s-2.5-1.2-1.7-3.2C283.6,235.9,284.7,234.1,284.8,233.9Z"/><path class="cls-3" d="M321.9,244.7c-1.2,1.3.9,2.9,2,3.3a3.5,3.5,0,0,0,3.3-.2c1.6-1.2,1.4-3.2-.6-4.4s-2.2-1.8-3.4-.5Z"/><path class="cls-3" d="M333.8,235.9c.9-1.9,3.2-.6,4,.3a3.5,3.5,0,0,1,1,3.4c-.7,2.3-2.8,3.2-4.7,1.7s-2.5-1.2-1.7-3.2C332.6,237.9,333.7,236.1,333.8,235.9Z"/><path class="cls-3" d="M231.4,230.1c-.8-5.4,7.2-6,10.9-5.2s7,2.8,8.2,6c2.2,6-1.8,11-9.1,10.5-3.9-.2-8.8,1-9.7-4.5C231.6,236.2,231.5,230.6,231.4,230.1Z"/><path class="cls-3" d="M245.4,207.2c-.7-4.5,5.9-5,9-4.3s5.8,2.2,6.8,4.9c1.8,5-1.5,9.1-7.5,8.7-3.3-.2-7.3.8-8.1-3.7C245.5,212.2,245.4,207.6,245.4,207.2Z"/><path class="cls-3" d="M235.9,199.8c-3.4-2.6-.8-6.1,1-7.1a6.5,6.5,0,0,1,6.5-.1c4.3,2.2,5.6,6.5,2.7,9.2s-2.8,4-6.2,1.5C239.4,203,236.2,200,235.9,199.8Z"/><path class="cls-3" d="M260.5,191c-5,2.1-7-2.1-6.9-4.4a8.1,8.1,0,0,1,4.1-6.4c5.2-3,10.7-2.4,11.6,1.7.4,2.3,2.5,4.5-2.5,6.8Z"/><path class="cls-3" d="M235,184c-6.4-1.6-5.2-7.4-3.4-9.6a10,10,0,0,1,8.8-3.4c7.4.8,12.1,5.5,9.9,10.4-1.3,2.6-1,6.5-7.5,5Z"/><path class="cls-3" d="M263.4,230c2.8-5.3,7.8-2.8,9.5-.6a9,9,0,0,1,1.2,8.5c-2.3,6.3-7.6,9.3-11.5,6.2-2.2-1.8-5.7-2.5-3-7.9C259.9,235.6,263.2,230.4,263.4,230Z"/><path class="cls-3" d="M246.4,246.9c2-4,6.8-1.4,8.5.6a7.9,7.9,0,0,1,2.1,7.1c-1.4,4.8-5.9,6.7-9.8,3.7-2.2-1.7-5.5-2.7-3.6-6.7C243.8,251.1,246.2,247.3,246.4,246.9Z"/><path class="cls-3" d="M249.8,219.9c.9-1.9,3.2-.6,4,.3a3.5,3.5,0,0,1,1,3.4c-.7,2.3-2.8,3.2-4.7,1.7s-2.5-1.2-1.7-3.2C248.6,221.9,249.7,220.1,249.8,219.9Z"/><path class="cls-3" d="M263.8,215.9c.9-1.9,3.2-.6,4,.3a3.5,3.5,0,0,1,1,3.4c-.7,2.3-2.8,3.2-4.7,1.7s-2.5-1.2-1.7-3.2C262.6,217.9,263.7,216.1,263.8,215.9Z"/><path class="cls-3" d="M290.9,208.7c-1.2,1.3.9,2.9,2,3.3a3.5,3.5,0,0,0,3.3-.2c1.6-1.2,1.4-3.2-.6-4.4s-2.2-1.8-3.4-.5Z"/><path class="cls-3" d="M274.8,215.9c.9-1.9,3.2-.6,4,.3a3.5,3.5,0,0,1,1,3.4c-.7,2.3-2.8,3.2-4.7,1.7s-2.5-1.2-1.7-3.2C273.6,217.9,274.7,216.1,274.8,215.9Z"/><path class="cls-3" d="M318.6,134.5c.8,5.5-7.2,6.1-10.9,5.2s-7-2.7-8.2-6c-2.2-5.9,1.8-10.9,9.1-10.5,3.9.3,8.8-.9,9.7,4.6C318.4,128.5,318.5,134,318.6,134.5Z"/><path class="cls-3" d="M300.6,165.5c.7,4.5-5.9,5-9,4.3s-5.8-2.3-6.8-5c-1.8-4.9,1.5-9,7.5-8.7,3.3.3,7.3-.7,8.1,3.8C300.5,160.5,300.6,165.1,300.6,165.5Z"/><path class="cls-3" d="M310.1,172.9c3.4,2.5.8,6.1-1,7.1a6.8,6.8,0,0,1-6.5.1c-4.3-2.3-5.6-6.5-2.7-9.2s2.8-4,6.2-1.5C306.6,169.7,309.8,172.6,310.1,172.9Z"/><path class="cls-3" d="M285.5,171.7c5-2.2,7,2,6.9,4.3a8.1,8.1,0,0,1-4.1,6.4c-5.2,3.1-10.7,2.5-11.6-1.6-.4-2.3-2.5-4.6,2.5-6.8Z"/><path class="cls-3" d="M283,196.7c6.4,1.5,5.2,7.3,3.4,9.6a10.3,10.3,0,0,1-8.8,3.4c-7.4-.8-12.1-5.5-9.9-10.4,1.3-2.7,1-6.5,7.5-5C276,194.4,282.4,196.5,283,196.7Z"/><path class="cls-3" d="M272.6,154.7c-2.8,5.3-7.8,2.8-9.5.6a9.2,9.2,0,0,1-1.2-8.6c2.3-6.2,7.6-9.3,11.5-6.1,2.2,1.8,5.7,2.5,3,7.8C276.1,149.1,272.8,154.2,272.6,154.7Z"/><path class="cls-3" d="M287.6,139.7c-2,4-6.8,1.5-8.5-.5s-2.8-4.5-2.1-7.1c1.4-4.8,5.9-6.7,9.8-3.7,2.2,1.6,5.5,2.6,3.6,6.7C290.2,135.6,287.8,139.4,287.6,139.7Z"/><path class="cls-3" d="M296.2,152.7c-.9,1.9-3.2.7-4-.2a3.5,3.5,0,0,1-1-3.4c.7-2.3,2.8-3.2,4.7-1.8s2.5,1.3,1.7,3.2Z"/><path class="cls-3" d="M282.2,156.7c-.9,1.9-3.2.7-4-.2a3.5,3.5,0,0,1-1-3.4c.7-2.3,2.8-3.2,4.7-1.8s2.5,1.3,1.7,3.2Z"/><path class="cls-3" d="M299.1,194c1.2-1.3-.9-2.9-2-3.3a3.8,3.8,0,0,0-3.3.1c-1.6,1.2-1.4,3.3.6,4.4s2.2,1.8,3.4.5A19.2,19.2,0,0,0,299.1,194Z"/><path class="cls-3" d="M271.2,174.7c-.9,1.9-3.2.7-4-.2a3.5,3.5,0,0,1-1-3.4c.7-2.3,2.8-3.2,4.7-1.8s2.5,1.3,1.7,3.2Z"/><path class="cls-3" d="M322.9,225.7c-4.6-3.1.5-9.4,3.6-11.5s6.8-3.2,10-1.8c5.9,2.5,6.8,8.8,1.4,13.8-2.9,2.7-5.3,7-9.9,4C327.4,229.8,323.2,226,322.9,225.7Z"/><path class="cls-3" d="M323.9,202.3c-3.7-2.6.4-7.8,3-9.5s5.6-2.7,8.3-1.6c4.8,2.1,5.6,7.3,1.2,11.4-2.4,2.3-4.4,5.9-8.3,3.3C327.6,205.6,324.2,202.5,323.9,202.3Z"/><path class="cls-3" d="M322,188.2c-4.2.7-5-3.6-4.5-5.7a6.8,6.8,0,0,1,4.4-4.8c4.6-1.5,8.6.4,8.5,4.4,0,2.2,1.1,4.7-3.1,5.5Z"/><path class="cls-3" d="M337.7,145c-1.8,5.1-6.3,3.7-7.9,2.1a8.4,8.4,0,0,1-1.8-7.4c1.3-5.9,5.5-9.5,9.1-7.3,2,1.2,5,1.3,3.3,6.5Z"/><path class="cls-3" d="M320.9,166.3c-5.6,3.6-9-1.2-9.4-4.1a10.1,10.1,0,0,1,3.6-8.8c5.6-4.8,12.3-5,14.3,0,1.1,2.7,4,5.2-1.5,8.9Z"/><path class="cls-3" d="M230.1,260.5c-1.6-3.8,2-5.6,4-5.5a6.1,6.1,0,0,1,5.2,3c2.3,3.9,1.5,8.2-2,9-2,.5-4,2.1-5.6-1.7Z"/><path class="cls-3" d="M264.3,127.6c4.1,1.1,3,5.4,1.7,7a6.7,6.7,0,0,1-6,2.6c-4.8-.5-7.7-3.9-5.9-7.5.9-2,1-4.8,5.2-3.8Z"/><path class="cls-3" d="M237.2,133.8c4-3.7,7.3-.5,8,1.7a8,8,0,0,1-1.7,7.4c-3.8,4.7-9.1,6-11.4,2.4-1.2-1.9-3.9-3.4,0-7.2Z"/><path class="cls-3" d="M248.2,152c6.5-1,7.6,4.8,6.8,7.6a10,10,0,0,1-6.9,6.5c-7.1,2-13.3-.5-13-5.9.1-3-1.6-6.4,5-7.5Z"/><rect class="cls-2" x="114.4" y="74.1" width="114" height="148"/><path class="cls-3" d="M156.4,200.8c-.8-5.5,7.2-6.1,10.9-5.2s7,2.7,8.2,6c2.2,6-1.8,11-9.1,10.5-3.9-.3-8.8.9-9.7-4.5C156.6,206.9,156.5,201.3,156.4,200.8Z"/><path class="cls-3" d="M184.4,177.9c-.7-4.6,5.9-5.1,9-4.4s5.8,2.3,6.8,5c1.8,4.9-1.5,9.1-7.5,8.7-3.3-.2-7.3.8-8.1-3.8C184.5,182.9,184.4,178.2,184.4,177.9Z"/><path class="cls-3" d="M168.9,176.5c-3.4-2.6-.8-6.1,1-7.2a7.1,7.1,0,0,1,6.5-.1c4.3,2.3,5.6,6.6,2.7,9.2s-2.8,4.1-6.2,1.5C172.4,179.6,169.2,176.7,168.9,176.5Z"/><path class="cls-3" d="M199.5,171.6c-5,2.2-7-2-6.9-4.3a8.1,8.1,0,0,1,4.1-6.4c5.2-3.1,10.7-2.5,11.6,1.7.4,2.2,2.5,4.5-2.5,6.7Z"/><path class="cls-3" d="M196.7,156.9c-5.2,4.1-9-.4-9.6-3.2a9.9,9.9,0,0,1,2.7-9.1c5.1-5.3,11.8-6.1,14.2-1.4,1.4,2.7,4.5,4.8-.6,9C202.7,152.8,197.2,156.5,196.7,156.9Z"/><path class="cls-3" d="M216.4,202.6c2.8-5.2,7.8-2.8,9.5-.6a9.2,9.2,0,0,1,1.2,8.6c-2.3,6.3-7.6,9.3-11.5,6.1-2.2-1.7-5.7-2.5-3-7.8C212.9,208.2,216.2,203.1,216.4,202.6Z"/><path class="cls-3" d="M197.4,203.6c2-4,6.8-1.4,8.5.5s2.8,4.5,2.1,7.1c-1.4,4.9-5.9,6.8-9.8,3.7-2.2-1.6-5.5-2.6-3.6-6.6C194.8,207.7,197.2,203.9,197.4,203.6Z"/><path class="cls-3" d="M188.8,190.6c.9-1.9,3.2-.7,4,.2a3.6,3.6,0,0,1,1,3.4c-.7,2.3-2.8,3.2-4.7,1.8s-2.5-1.3-1.7-3.2C187.6,192.6,188.7,190.8,188.8,190.6Z"/><path class="cls-3" d="M170.8,184.6c.9-1.9,3.2-.7,4,.2a3.6,3.6,0,0,1,1,3.4c-.7,2.3-2.8,3.2-4.7,1.8s-2.5-1.3-1.7-3.2C169.6,186.6,170.7,184.8,170.8,184.6Z"/><path class="cls-3" d="M207.9,195.3c-1.2,1.4.9,2.9,2,3.4s2.4.5,3.3-.2,1.4-3.2-.6-4.4-2.2-1.8-3.4-.5Z"/><path class="cls-3" d="M219.8,186.6c.9-1.9,3.2-.7,4,.2a3.6,3.6,0,0,1,1,3.4c-.7,2.3-2.8,3.2-4.7,1.8s-2.5-1.3-1.7-3.2C218.6,188.6,219.7,186.8,219.8,186.6Z"/><path class="cls-3" d="M117.4,180.8c-.8-5.5,7.2-6.1,10.9-5.2s7,2.7,8.2,6c2.2,6-1.8,11-9.1,10.5-3.9-.3-8.8.9-9.7-4.5C117.6,186.9,117.5,181.3,117.4,180.8Z"/><path class="cls-3" d="M131.4,157.9c-.7-4.6,5.9-5.1,9-4.4s5.8,2.3,6.8,5c1.8,4.9-1.5,9.1-7.5,8.7-3.3-.2-7.3.8-8.1-3.8C131.5,162.9,131.4,158.2,131.4,157.9Z"/><path class="cls-3" d="M121.9,150.5c-3.4-2.6-.8-6.1,1-7.2a7.1,7.1,0,0,1,6.5-.1c4.3,2.3,5.6,6.6,2.7,9.2s-2.8,4.1-6.2,1.5C125.4,153.6,122.2,150.7,121.9,150.5Z"/><path class="cls-3" d="M146.5,141.6c-5,2.2-7-2-6.9-4.3a8.1,8.1,0,0,1,4.1-6.4c5.2-3.1,10.7-2.5,11.6,1.7.4,2.2,2.5,4.5-2.5,6.7Z"/><path class="cls-3" d="M121,134.7c-6.4-1.6-5.2-7.4-3.4-9.6a9.8,9.8,0,0,1,8.8-3.4c7.4.7,12.1,5.5,9.9,10.3-1.3,2.7-1,6.6-7.5,5.1Z"/><path class="cls-3" d="M149.4,180.6c2.8-5.2,7.8-2.8,9.5-.6a9.2,9.2,0,0,1,1.2,8.6c-2.3,6.3-7.6,9.3-11.5,6.1-2.2-1.7-5.7-2.5-3-7.8C145.9,186.2,149.2,181.1,149.4,180.6Z"/><path class="cls-3" d="M132.4,197.6c2-4,6.8-1.4,8.5.5s2.8,4.5,2.1,7.1c-1.4,4.9-5.9,6.8-9.8,3.7-2.2-1.6-5.5-2.6-3.6-6.6C129.8,201.7,132.2,197.9,132.4,197.6Z"/><path class="cls-3" d="M135.8,170.6c.9-1.9,3.2-.7,4,.2a3.6,3.6,0,0,1,1,3.4c-.7,2.3-2.8,3.2-4.7,1.8s-2.5-1.3-1.7-3.2C134.6,172.6,135.7,170.8,135.8,170.6Z"/><path class="cls-3" d="M149.8,166.6c.9-1.9,3.2-.7,4,.2a3.6,3.6,0,0,1,1,3.4c-.7,2.3-2.8,3.2-4.7,1.8s-2.5-1.3-1.7-3.2C148.6,168.6,149.7,166.8,149.8,166.6Z"/><path class="cls-3" d="M176.9,159.3c-1.2,1.4.9,2.9,2,3.4s2.4.5,3.3-.2,1.4-3.2-.6-4.4-2.2-1.8-3.4-.5Z"/><path class="cls-3" d="M160.8,166.6c.9-1.9,3.2-.7,4,.2a3.6,3.6,0,0,1,1,3.4c-.7,2.3-2.8,3.2-4.7,1.8s-2.5-1.3-1.7-3.2C159.6,168.6,160.7,166.8,160.8,166.6Z"/><path class="cls-3" d="M204.6,85.2c.8,5.5-7.2,6.1-10.9,5.2s-7-2.7-8.2-6c-2.2-6,1.8-11,9.1-10.5,3.9.3,8.8-.9,9.7,4.5C204.4,79.1,204.5,84.7,204.6,85.2Z"/><path class="cls-3" d="M186.6,116.1c.7,4.6-5.9,5.1-9,4.4s-5.8-2.3-6.8-5c-1.8-4.9,1.5-9.1,7.5-8.7,3.3.2,7.3-.8,8.1,3.8C186.5,111.1,186.6,115.8,186.6,116.1Z"/><path class="cls-3" d="M196.1,123.5c3.4,2.6.8,6.1-1,7.2a7.1,7.1,0,0,1-6.5.1c-4.3-2.3-5.6-6.6-2.7-9.2s2.8-4.1,6.2-1.5C192.6,120.4,195.8,123.3,196.1,123.5Z"/><path class="cls-3" d="M171.5,122.4c5-2.2,7,2,6.9,4.3a8.1,8.1,0,0,1-4.1,6.4c-5.2,3.1-10.7,2.5-11.6-1.7-.4-2.2-2.5-4.5,2.5-6.7Z"/><path class="cls-3" d="M169,147.3c6.4,1.6,5.2,7.4,3.4,9.6a9.8,9.8,0,0,1-8.8,3.4c-7.4-.7-12.1-5.5-9.9-10.3,1.3-2.7,1-6.6,7.5-5.1Z"/><path class="cls-3" d="M158.6,105.4c-2.8,5.2-7.8,2.8-9.5.6a9.2,9.2,0,0,1-1.2-8.6c2.3-6.3,7.6-9.3,11.5-6.1,2.2,1.7,5.7,2.5,3,7.8C162.1,99.8,158.8,104.9,158.6,105.4Z"/><path class="cls-3" d="M173.6,90.4c-2,4-6.8,1.4-8.5-.5s-2.8-4.5-2.1-7.1c1.4-4.9,5.9-6.8,9.8-3.7,2.2,1.6,5.5,2.6,3.6,6.6C176.2,86.3,173.8,90.1,173.6,90.4Z"/><path class="cls-3" d="M182.2,103.4c-.9,1.9-3.2.7-4-.2a3.6,3.6,0,0,1-1-3.4c.7-2.3,2.8-3.2,4.7-1.8s2.5,1.3,1.7,3.2C183.4,101.4,182.3,103.2,182.2,103.4Z"/><path class="cls-3" d="M168.2,107.4c-.9,1.9-3.2.7-4-.2a3.6,3.6,0,0,1-1-3.4c.7-2.3,2.8-3.2,4.7-1.8s2.5,1.3,1.7,3.2C169.4,105.4,168.3,107.2,168.2,107.4Z"/><path class="cls-3" d="M185.1,144.7c1.2-1.4-.9-2.9-2-3.4s-2.4-.5-3.3.2-1.4,3.2.6,4.4,2.2,1.8,3.4.5Z"/><path class="cls-3" d="M157.2,125.4c-.9,1.9-3.2.7-4-.2a3.6,3.6,0,0,1-1-3.4c.7-2.3,2.8-3.2,4.7-1.8s2.5,1.3,1.7,3.2C158.4,123.4,157.3,125.2,157.2,125.4Z"/><path class="cls-3" d="M208.9,176.4c-4.6-3.2.5-9.4,3.6-11.5s6.8-3.2,10-1.9c5.9,2.5,6.8,8.9,1.4,13.8-2.9,2.7-5.3,7.1-9.9,4C213.4,180.4,209.2,176.7,208.9,176.4Z"/><path class="cls-3" d="M209.9,153c-3.7-2.7.4-7.8,3-9.6s5.6-2.7,8.3-1.5c4.8,2,5.6,7.3,1.2,11.4-2.4,2.2-4.4,5.8-8.3,3.3C213.6,156.3,210.2,153.2,209.9,153Z"/><path class="cls-3" d="M208,138.8c-4.2.8-5-3.6-4.5-5.6a6.8,6.8,0,0,1,4.4-4.8c4.6-1.6,8.6.4,8.5,4.3,0,2.2,1.1,4.8-3.1,5.6Z"/><path class="cls-3" d="M223.7,95.7c-1.8,5.1-6.3,3.7-7.9,2a8.2,8.2,0,0,1-1.8-7.4c1.3-5.9,5.5-9.4,9.1-7.2,2,1.2,5,1.3,3.3,6.4Z"/><path class="cls-3" d="M206.9,117c-5.6,3.6-9-1.3-9.4-4.1a10,10,0,0,1,3.6-8.8c5.6-4.8,12.3-5,14.3,0,1.1,2.7,4,5.1-1.5,8.8Z"/><path class="cls-3" d="M116.1,211.2c-1.6-3.9,2-5.6,4-5.6a6.3,6.3,0,0,1,5.2,3c2.3,4,1.5,8.2-2,9.1-2,.4-4,2.1-5.6-1.7Z"/><path class="cls-3" d="M150.3,78.3c4.1,1.1,3,5.4,1.7,7a7,7,0,0,1-6,2.6c-4.8-.5-7.7-4-5.9-7.6.9-1.9,1-4.7,5.2-3.7Z"/><path class="cls-3" d="M123.2,84.5c4-3.8,7.3-.5,8,1.7a8.1,8.1,0,0,1-1.7,7.4c-3.8,4.7-9.1,6-11.4,2.4-1.2-2-3.9-3.4,0-7.2Z"/><path class="cls-3" d="M134.2,102.7c6.5-1,7.6,4.8,6.8,7.6a10.4,10.4,0,0,1-6.9,6.5c-7.1,2-13.3-.6-13-6,.1-2.9-1.6-6.4,5-7.4C126.9,103.2,133.6,102.7,134.2,102.7Z"/><rect class="cls-2" x="0.4" y="24.8" width="114" height="148"/><path class="cls-3" d="M42.4,151.5c-.8-5.5,7.2-6.1,10.9-5.2s7,2.7,8.2,6c2.2,5.9-1.8,10.9-9.1,10.5-3.9-.3-8.8.9-9.7-4.6C42.6,157.5,42.5,152,42.4,151.5Z"/><path class="cls-3" d="M70.4,128.5c-.7-4.5,5.9-5,9-4.3s5.8,2.3,6.8,5c1.8,4.9-1.5,9-7.5,8.7-3.3-.3-7.3.7-8.1-3.8C70.5,133.5,70.4,128.9,70.4,128.5Z"/><path class="cls-3" d="M54.9,127.1c-3.4-2.5-.8-6.1,1-7.1a6.8,6.8,0,0,1,6.5-.1c4.3,2.3,5.6,6.5,2.7,9.2s-2.8,4-6.2,1.5C58.4,130.3,55.2,127.4,54.9,127.1Z"/><path class="cls-3" d="M85.5,122.3c-5,2.2-7-2-6.9-4.3a8.1,8.1,0,0,1,4.1-6.4c5.2-3.1,10.7-2.5,11.6,1.6.4,2.3,2.5,4.6-2.5,6.8Z"/><path class="cls-3" d="M82.7,107.6c-5.2,4.1-9-.4-9.6-3.3a9.8,9.8,0,0,1,2.7-9C80.9,90,87.6,89.1,90,93.9c1.4,2.6,4.5,4.8-.6,9Z"/><path class="cls-3" d="M102.4,153.3c2.8-5.3,7.8-2.8,9.5-.6a9.2,9.2,0,0,1,1.2,8.6c-2.3,6.2-7.6,9.3-11.5,6.1-2.2-1.8-5.7-2.5-3-7.8C98.9,158.9,102.2,153.8,102.4,153.3Z"/><path class="cls-3" d="M83.4,154.3c2-4,6.8-1.5,8.5.5s2.8,4.5,2.1,7.1c-1.4,4.8-5.9,6.7-9.8,3.7-2.2-1.6-5.5-2.6-3.6-6.7C80.8,158.4,83.2,154.6,83.4,154.3Z"/><path class="cls-3" d="M74.8,141.3c.9-1.9,3.2-.7,4,.2a3.5,3.5,0,0,1,1,3.4c-.7,2.3-2.8,3.2-4.7,1.8s-2.5-1.3-1.7-3.2Z"/><path class="cls-3" d="M56.8,135.3c.9-1.9,3.2-.7,4,.2a3.5,3.5,0,0,1,1,3.4c-.7,2.3-2.8,3.2-4.7,1.8s-2.5-1.3-1.7-3.2Z"/><path class="cls-3" d="M93.9,146c-1.2,1.3.9,2.9,2,3.3a3.8,3.8,0,0,0,3.3-.1c1.6-1.2,1.4-3.3-.6-4.4s-2.2-1.8-3.4-.5A19.2,19.2,0,0,0,93.9,146Z"/><path class="cls-3" d="M105.8,137.3c.9-1.9,3.2-.7,4,.2a3.5,3.5,0,0,1,1,3.4c-.7,2.3-2.8,3.2-4.7,1.8s-2.5-1.3-1.7-3.2Z"/><path class="cls-3" d="M3.4,131.5c-.8-5.5,7.2-6.1,10.9-5.2s7,2.7,8.2,6c2.2,5.9-1.8,10.9-9.1,10.5-3.9-.3-8.8.9-9.7-4.6C3.6,137.5,3.5,132,3.4,131.5Z"/><path class="cls-3" d="M17.4,108.5c-.7-4.5,5.9-5,9-4.3s5.8,2.3,6.8,5c1.8,4.9-1.5,9-7.5,8.7-3.3-.3-7.3.7-8.1-3.8C17.5,113.5,17.4,108.9,17.4,108.5Z"/><path class="cls-3" d="M7.9,101.1c-3.4-2.5-.8-6.1,1-7.1a6.8,6.8,0,0,1,6.5-.1c4.3,2.3,5.6,6.5,2.7,9.2s-2.8,4-6.2,1.5C11.4,104.3,8.2,101.4,7.9,101.1Z"/><path class="cls-3" d="M32.5,92.3c-5,2.2-7-2-6.9-4.3a8.1,8.1,0,0,1,4.1-6.4c5.2-3.1,10.7-2.5,11.6,1.6.4,2.3,2.5,4.6-2.5,6.8Z"/><path class="cls-3" d="M7,85.3C.6,83.8,1.8,78,3.6,75.7a10.3,10.3,0,0,1,8.8-3.4c7.4.8,12.1,5.5,9.9,10.4-1.3,2.7-1,6.5-7.5,5C14,87.6,7.6,85.5,7,85.3Z"/><path class="cls-3" d="M35.4,131.3c2.8-5.3,7.8-2.8,9.5-.6a9.2,9.2,0,0,1,1.2,8.6c-2.3,6.2-7.6,9.3-11.5,6.1-2.2-1.8-5.7-2.5-3-7.8C31.9,136.9,35.2,131.8,35.4,131.3Z"/><path class="cls-3" d="M18.4,148.3c2-4,6.8-1.5,8.5.5s2.8,4.5,2.1,7.1c-1.4,4.8-5.9,6.7-9.8,3.7-2.2-1.6-5.5-2.6-3.6-6.7C15.8,152.4,18.2,148.6,18.4,148.3Z"/><path class="cls-3" d="M21.8,121.3c.9-1.9,3.2-.7,4,.2a3.5,3.5,0,0,1,1,3.4c-.7,2.3-2.8,3.2-4.7,1.8s-2.5-1.3-1.7-3.2Z"/><path class="cls-3" d="M35.8,117.3c.9-1.9,3.2-.7,4,.2a3.5,3.5,0,0,1,1,3.4c-.7,2.3-2.8,3.2-4.7,1.8s-2.5-1.3-1.7-3.2Z"/><path class="cls-3" d="M62.9,110c-1.2,1.3.9,2.9,2,3.3a3.8,3.8,0,0,0,3.3-.1c1.6-1.2,1.4-3.3-.6-4.4s-2.2-1.8-3.4-.5A19.2,19.2,0,0,0,62.9,110Z"/><path class="cls-3" d="M46.8,117.3c.9-1.9,3.2-.7,4,.2a3.5,3.5,0,0,1,1,3.4c-.7,2.3-2.8,3.2-4.7,1.8s-2.5-1.3-1.7-3.2Z"/><path class="cls-3" d="M90.6,35.9c.8,5.4-7.2,6-10.9,5.2s-7-2.8-8.2-6c-2.2-6,1.8-11,9.1-10.5,3.9.2,8.8-1,9.7,4.5C90.4,29.8,90.5,35.4,90.6,35.9Z"/><path class="cls-3" d="M72.6,66.8c.7,4.5-5.9,5-9,4.3s-5.8-2.2-6.8-4.9c-1.8-5,1.5-9.1,7.5-8.7,3.3.2,7.3-.8,8.1,3.7C72.5,61.8,72.6,66.4,72.6,66.8Z"/><path class="cls-3" d="M82.1,74.2c3.4,2.6.8,6.1-1,7.1a6.5,6.5,0,0,1-6.5.1c-4.3-2.2-5.6-6.5-2.7-9.2s2.8-4,6.2-1.5C78.6,71,81.8,74,82.1,74.2Z"/><path class="cls-3" d="M57.5,73c5-2.1,7,2.1,6.9,4.4a8.1,8.1,0,0,1-4.1,6.4c-5.2,3-10.7,2.4-11.6-1.7-.4-2.3-2.5-4.5,2.5-6.8Z"/><path class="cls-3" d="M55,98c6.4,1.6,5.2,7.4,3.4,9.6a10,10,0,0,1-8.8,3.4c-7.4-.8-12.1-5.5-9.9-10.4,1.3-2.6,1-6.5,7.5-5Z"/><path class="cls-3" d="M44.6,56c-2.8,5.3-7.8,2.8-9.5.7a9.3,9.3,0,0,1-1.2-8.6c2.3-6.3,7.6-9.3,11.5-6.2,2.2,1.8,5.7,2.5,3,7.9C48.1,50.4,44.8,55.6,44.6,56Z"/><path class="cls-3" d="M59.6,41.1c-2,4-6.8,1.4-8.5-.6A7.9,7.9,0,0,1,49,33.4c1.4-4.8,5.9-6.7,9.8-3.7,2.2,1.7,5.5,2.7,3.6,6.7C62.2,36.9,59.8,40.7,59.6,41.1Z"/><path class="cls-3" d="M68.2,54.1c-.9,1.9-3.2.6-4-.3a3.5,3.5,0,0,1-1-3.4c.7-2.3,2.8-3.2,4.7-1.7s2.5,1.2,1.7,3.2C69.4,52.1,68.3,53.9,68.2,54.1Z"/><path class="cls-3" d="M54.2,58.1c-.9,1.9-3.2.6-4-.3a3.5,3.5,0,0,1-1-3.4c.7-2.3,2.8-3.2,4.7-1.7s2.5,1.2,1.7,3.2C55.4,56.1,54.3,57.9,54.2,58.1Z"/><path class="cls-3" d="M71.1,95.3c1.2-1.3-.9-2.9-2-3.3a3.5,3.5,0,0,0-3.3.2c-1.6,1.2-1.4,3.2.6,4.4s2.2,1.8,3.4.5Z"/><path class="cls-3" d="M43.2,76.1c-.9,1.9-3.2.6-4-.3a3.5,3.5,0,0,1-1-3.4c.7-2.3,2.8-3.2,4.7-1.7s2.5,1.2,1.7,3.2C44.4,74.1,43.3,75.9,43.2,76.1Z"/><path class="cls-3" d="M94.9,127.1c-4.6-3.2.5-9.4,3.6-11.5s6.8-3.3,10-1.9c5.9,2.5,6.8,8.8,1.4,13.8-2.9,2.7-5.3,7.1-9.9,4C99.4,131.1,95.2,127.4,94.9,127.1Z"/><path class="cls-3" d="M95.9,103.6c-3.7-2.6.4-7.8,3-9.5s5.6-2.7,8.3-1.6c4.8,2.1,5.6,7.3,1.2,11.5-2.4,2.2-4.4,5.8-8.3,3.3Z"/><path class="cls-3" d="M94,89.5c-4.2.7-5-3.6-4.5-5.7A6.9,6.9,0,0,1,93.9,79c4.6-1.5,8.6.4,8.5,4.4,0,2.2,1.1,4.8-3.1,5.6Z"/><path class="cls-3" d="M109.7,46.3c-1.8,5.1-6.3,3.8-7.9,2.1A8.3,8.3,0,0,1,100,41c1.3-5.9,5.5-9.4,9.1-7.2,2,1.2,5,1.2,3.3,6.4Z"/><path class="cls-3" d="M92.9,67.6c-5.6,3.6-9-1.2-9.4-4.1a9.9,9.9,0,0,1,3.6-8.7c5.6-4.8,12.3-5.1,14.3-.1,1.1,2.7,4,5.2-1.5,8.9Z"/><path class="cls-3" d="M2.1,161.8c-1.6-3.8,2-5.5,4-5.5a6.1,6.1,0,0,1,5.2,3c2.3,3.9,1.5,8.2-2,9s-4,2.2-5.6-1.6C3.5,166.2,2.2,162.2,2.1,161.8Z"/><path class="cls-3" d="M36.3,29c4.1,1.1,3,5.3,1.7,7a6.9,6.9,0,0,1-6,2.5c-4.8-.5-7.7-3.9-5.9-7.5.9-2,1-4.8,5.2-3.7Z"/><path class="cls-3" d="M9.2,35.1c4-3.7,7.3-.5,8,1.7a8.2,8.2,0,0,1-1.7,7.5C11.7,49,6.4,50.2,4.1,46.7c-1.2-2-3.9-3.4,0-7.2C4.6,39,8.9,35.5,9.2,35.1Z"/><path class="cls-3" d="M20.2,53.3c6.5-.9,7.6,4.9,6.8,7.6a10,10,0,0,1-6.9,6.5c-7.1,2.1-13.3-.5-13-5.9.1-2.9-1.6-6.4,5-7.5Z"/><rect class="cls-2" x="-113.6" y="123.5" width="114" height="148"/><rect class="cls-2" x="228.4" y="-24.5" width="114" height="148"/><path class="cls-3" d="M270.4,102.1c-.8-5.4,7.2-6,10.9-5.2s7,2.8,8.2,6c2.2,6-1.8,11-9.1,10.5-3.9-.2-8.8,1-9.7-4.5C270.6,108.2,270.5,102.6,270.4,102.1Z"/><path class="cls-3" d="M298.4,79.2c-.7-4.5,5.9-5,9-4.3s5.8,2.2,6.8,4.9c1.8,5-1.5,9.1-7.5,8.7-3.3-.2-7.3.8-8.1-3.7C298.5,84.2,298.4,79.6,298.4,79.2Z"/><path class="cls-3" d="M282.9,77.8c-3.4-2.6-.8-6.1,1-7.1a6.5,6.5,0,0,1,6.5-.1c4.3,2.2,5.6,6.5,2.7,9.2s-2.8,4-6.2,1.5C286.4,81,283.2,78,282.9,77.8Z"/><path class="cls-3" d="M313.5,73c-5,2.1-7-2.1-6.9-4.4a8.1,8.1,0,0,1,4.1-6.4c5.2-3,10.7-2.4,11.6,1.7.4,2.3,2.5,4.5-2.5,6.8Z"/><path class="cls-3" d="M310.7,58.2c-5.2,4.1-9-.4-9.6-3.2a9.8,9.8,0,0,1,2.7-9c5.1-5.3,11.8-6.2,14.2-1.4,1.4,2.6,4.5,4.8-.6,9Z"/><path class="cls-3" d="M330.4,104c2.8-5.3,7.8-2.8,9.5-.6a9,9,0,0,1,1.2,8.5c-2.3,6.3-7.6,9.3-11.5,6.2-2.2-1.8-5.7-2.5-3-7.9C326.9,109.6,330.2,104.4,330.4,104Z"/><path class="cls-3" d="M311.4,104.9c2-4,6.8-1.4,8.5.6a7.9,7.9,0,0,1,2.1,7.1c-1.4,4.8-5.9,6.7-9.8,3.7-2.2-1.7-5.5-2.7-3.6-6.7C308.8,109.1,311.2,105.3,311.4,104.9Z"/><path class="cls-3" d="M302.8,91.9c.9-1.9,3.2-.6,4,.3a3.5,3.5,0,0,1,1,3.4c-.7,2.3-2.8,3.2-4.7,1.7s-2.5-1.2-1.7-3.2C301.6,93.9,302.7,92.1,302.8,91.9Z"/><path class="cls-3" d="M284.8,85.9c.9-1.9,3.2-.6,4,.3a3.5,3.5,0,0,1,1,3.4c-.7,2.3-2.8,3.2-4.7,1.7s-2.5-1.2-1.7-3.2C283.6,87.9,284.7,86.1,284.8,85.9Z"/><path class="cls-3" d="M321.9,96.7c-1.2,1.3.9,2.9,2,3.3a3.5,3.5,0,0,0,3.3-.2c1.6-1.2,1.4-3.2-.6-4.4s-2.2-1.8-3.4-.5Z"/><path class="cls-3" d="M333.8,87.9c.9-1.9,3.2-.6,4,.3a3.5,3.5,0,0,1,1,3.4c-.7,2.3-2.8,3.2-4.7,1.7s-2.5-1.2-1.7-3.2C332.6,89.9,333.7,88.1,333.8,87.9Z"/><path class="cls-3" d="M231.4,82.1c-.8-5.4,7.2-6,10.9-5.2s7,2.8,8.2,6c2.2,6-1.8,11-9.1,10.5-3.9-.2-8.8,1-9.7-4.5C231.6,88.2,231.5,82.6,231.4,82.1Z"/><path class="cls-3" d="M245.4,59.2c-.7-4.5,5.9-5,9-4.3s5.8,2.2,6.8,4.9c1.8,5-1.5,9.1-7.5,8.7-3.3-.2-7.3.8-8.1-3.7C245.5,64.2,245.4,59.6,245.4,59.2Z"/><path class="cls-3" d="M235.9,51.8c-3.4-2.6-.8-6.1,1-7.1a6.5,6.5,0,0,1,6.5-.1c4.3,2.2,5.6,6.5,2.7,9.2s-2.8,4-6.2,1.5C239.4,55,236.2,52,235.9,51.8Z"/><path class="cls-3" d="M260.5,43c-5,2.1-7-2.1-6.9-4.4a8.1,8.1,0,0,1,4.1-6.4c5.2-3,10.7-2.4,11.6,1.7.4,2.3,2.5,4.5-2.5,6.8Z"/><path class="cls-3" d="M235,36c-6.4-1.6-5.2-7.4-3.4-9.6a10,10,0,0,1,8.8-3.4c7.4.8,12.1,5.5,9.9,10.4-1.3,2.6-1,6.5-7.5,5Z"/><path class="cls-3" d="M263.4,82c2.8-5.3,7.8-2.8,9.5-.6a9,9,0,0,1,1.2,8.5c-2.3,6.3-7.6,9.3-11.5,6.2-2.2-1.8-5.7-2.5-3-7.9C259.9,87.6,263.2,82.4,263.4,82Z"/><path class="cls-3" d="M246.4,98.9c2-4,6.8-1.4,8.5.6a7.9,7.9,0,0,1,2.1,7.1c-1.4,4.8-5.9,6.7-9.8,3.7-2.2-1.7-5.5-2.7-3.6-6.7C243.8,103.1,246.2,99.3,246.4,98.9Z"/><path class="cls-3" d="M249.8,71.9c.9-1.9,3.2-.6,4,.3a3.5,3.5,0,0,1,1,3.4c-.7,2.3-2.8,3.2-4.7,1.7s-2.5-1.2-1.7-3.2C248.6,73.9,249.7,72.1,249.8,71.9Z"/><path class="cls-3" d="M263.8,67.9c.9-1.9,3.2-.6,4,.3a3.5,3.5,0,0,1,1,3.4c-.7,2.3-2.8,3.2-4.7,1.7s-2.5-1.2-1.7-3.2C262.6,69.9,263.7,68.1,263.8,67.9Z"/><path class="cls-3" d="M290.9,60.7c-1.2,1.3.9,2.9,2,3.3a3.5,3.5,0,0,0,3.3-.2c1.6-1.2,1.4-3.2-.6-4.4s-2.2-1.8-3.4-.5Z"/><path class="cls-3" d="M274.8,67.9c.9-1.9,3.2-.6,4,.3a3.5,3.5,0,0,1,1,3.4c-.7,2.3-2.8,3.2-4.7,1.7s-2.5-1.2-1.7-3.2C273.6,69.9,274.7,68.1,274.8,67.9Z"/><path class="cls-3" d="M300.6,17.5c.7,4.5-5.9,5-9,4.3s-5.8-2.3-6.8-5c-1.8-4.9,1.5-9,7.5-8.7,3.3.3,7.3-.7,8.1,3.8C300.5,12.5,300.6,17.1,300.6,17.5Z"/><path class="cls-3" d="M310.1,24.9c3.4,2.5.8,6.1-1,7.1a6.8,6.8,0,0,1-6.5.1c-4.3-2.3-5.6-6.5-2.7-9.2s2.8-4,6.2-1.5C306.6,21.7,309.8,24.6,310.1,24.9Z"/><path class="cls-3" d="M285.5,23.7c5-2.2,7,2,6.9,4.3a8.1,8.1,0,0,1-4.1,6.4c-5.2,3.1-10.7,2.5-11.6-1.6-.4-2.3-2.5-4.6,2.5-6.8Z"/><path class="cls-3" d="M283,48.7c6.4,1.5,5.2,7.3,3.4,9.6a10.3,10.3,0,0,1-8.8,3.4c-7.4-.8-12.1-5.5-9.9-10.4,1.3-2.7,1-6.5,7.5-5C276,46.4,282.4,48.5,283,48.7Z"/><path class="cls-3" d="M272.6,6.7c-2.8,5.3-7.8,2.8-9.5.6a9.2,9.2,0,0,1-1.2-8.6c2.3-6.2,7.6-9.3,11.5-6.1,2.2,1.8,5.7,2.5,3,7.8C276.1,1.1,272.8,6.2,272.6,6.7Z"/><path class="cls-3" d="M296.2,4.7c-.9,1.9-3.2.7-4-.2a3.5,3.5,0,0,1-1-3.4c.7-2.3,2.8-3.2,4.7-1.8s2.5,1.3,1.7,3.2Z"/><path class="cls-3" d="M282.2,8.7c-.9,1.9-3.2.7-4-.2a3.5,3.5,0,0,1-1-3.4c.7-2.3,2.8-3.2,4.7-1.8s2.5,1.3,1.7,3.2Z"/><path class="cls-3" d="M299.1,46c1.2-1.3-.9-2.9-2-3.3a3.8,3.8,0,0,0-3.3.1c-1.6,1.2-1.4,3.3.6,4.4s2.2,1.8,3.4.5A19.2,19.2,0,0,0,299.1,46Z"/><path class="cls-3" d="M271.2,26.7c-.9,1.9-3.2.7-4-.2a3.5,3.5,0,0,1-1-3.4c.7-2.3,2.8-3.2,4.7-1.8s2.5,1.3,1.7,3.2Z"/><path class="cls-3" d="M322.9,77.7c-4.6-3.1.5-9.4,3.6-11.5s6.8-3.2,10-1.8c5.9,2.5,6.8,8.8,1.4,13.8-2.9,2.7-5.3,7-9.9,4C327.4,81.8,323.2,78,322.9,77.7Z"/><path class="cls-3" d="M323.9,54.3c-3.7-2.6.4-7.8,3-9.5s5.6-2.7,8.3-1.6c4.8,2.1,5.6,7.3,1.2,11.4-2.4,2.3-4.4,5.9-8.3,3.3C327.6,57.6,324.2,54.5,323.9,54.3Z"/><path class="cls-3" d="M322,40.2c-4.2.7-5-3.6-4.5-5.7a6.8,6.8,0,0,1,4.4-4.8c4.6-1.5,8.6.4,8.5,4.4,0,2.2,1.1,4.7-3.1,5.5Z"/><path class="cls-3" d="M337.7-3c-1.8,5.1-6.3,3.7-7.9,2.1A8.4,8.4,0,0,1,328-8.3c1.3-5.9,5.5-9.5,9.1-7.3,2,1.2,5,1.3,3.3,6.5Z"/><path class="cls-3" d="M320.9,18.3c-5.6,3.6-9-1.2-9.4-4.1a10.1,10.1,0,0,1,3.6-8.8c5.6-4.8,12.3-5,14.3,0,1.1,2.7,4,5.2-1.5,8.9C327.2,14.8,321.3,18,320.9,18.3Z"/><path class="cls-3" d="M230.1,112.5c-1.6-3.8,2-5.6,4-5.5a6.1,6.1,0,0,1,5.2,3c2.3,3.9,1.5,8.2-2,9-2,.5-4,2.1-5.6-1.7Z"/><path class="cls-3" d="M248.2,4c6.5-1,7.6,4.8,6.8,7.6a10,10,0,0,1-6.9,6.5c-7.1,2-13.3-.5-13-5.9.1-3-1.6-6.4,5-7.5Z"/><rect class="cls-2" x="114.4" y="-73.9" width="114" height="148"/><path class="cls-3" d="M156.4,52.8c-.8-5.5,7.2-6.1,10.9-5.2s7,2.7,8.2,6c2.2,6-1.8,11-9.1,10.5-3.9-.3-8.8.9-9.7-4.5C156.6,58.9,156.5,53.3,156.4,52.8Z"/><path class="cls-3" d="M184.4,29.9c-.7-4.6,5.9-5.1,9-4.4s5.8,2.3,6.8,5c1.8,4.9-1.5,9.1-7.5,8.7-3.3-.2-7.3.8-8.1-3.8C184.5,34.9,184.4,30.2,184.4,29.9Z"/><path class="cls-3" d="M168.9,28.5c-3.4-2.6-.8-6.1,1-7.2a7.1,7.1,0,0,1,6.5-.1c4.3,2.3,5.6,6.6,2.7,9.2s-2.8,4.1-6.2,1.5C172.4,31.6,169.2,28.7,168.9,28.5Z"/><path class="cls-3" d="M199.5,23.6c-5,2.2-7-2-6.9-4.3a8.1,8.1,0,0,1,4.1-6.4c5.2-3.1,10.7-2.5,11.6,1.7.4,2.2,2.5,4.5-2.5,6.7Z"/><path class="cls-3" d="M196.7,8.9c-5.2,4.1-9-.4-9.6-3.2a9.9,9.9,0,0,1,2.7-9.1c5.1-5.3,11.8-6.1,14.2-1.4,1.4,2.7,4.5,4.8-.6,9C202.7,4.8,197.2,8.5,196.7,8.9Z"/><path class="cls-3" d="M216.4,54.6c2.8-5.2,7.8-2.8,9.5-.6a9.2,9.2,0,0,1,1.2,8.6c-2.3,6.3-7.6,9.3-11.5,6.1-2.2-1.7-5.7-2.5-3-7.8C212.9,60.2,216.2,55.1,216.4,54.6Z"/><path class="cls-3" d="M197.4,55.6c2-4,6.8-1.4,8.5.5s2.8,4.5,2.1,7.1c-1.4,4.9-5.9,6.8-9.8,3.7-2.2-1.6-5.5-2.6-3.6-6.6C194.8,59.7,197.2,55.9,197.4,55.6Z"/><path class="cls-3" d="M188.8,42.6c.9-1.9,3.2-.7,4,.2a3.6,3.6,0,0,1,1,3.4c-.7,2.3-2.8,3.2-4.7,1.8s-2.5-1.3-1.7-3.2C187.6,44.6,188.7,42.8,188.8,42.6Z"/><path class="cls-3" d="M170.8,36.6c.9-1.9,3.2-.7,4,.2a3.6,3.6,0,0,1,1,3.4c-.7,2.3-2.8,3.2-4.7,1.8s-2.5-1.3-1.7-3.2C169.6,38.6,170.7,36.8,170.8,36.6Z"/><path class="cls-3" d="M207.9,47.3c-1.2,1.4.9,2.9,2,3.4s2.4.5,3.3-.2,1.4-3.2-.6-4.4-2.2-1.8-3.4-.5Z"/><path class="cls-3" d="M219.8,38.6c.9-1.9,3.2-.7,4,.2a3.6,3.6,0,0,1,1,3.4c-.7,2.3-2.8,3.2-4.7,1.8s-2.5-1.3-1.7-3.2C218.6,40.6,219.7,38.8,219.8,38.6Z"/><path class="cls-3" d="M117.4,32.8c-.8-5.5,7.2-6.1,10.9-5.2s7,2.7,8.2,6c2.2,6-1.8,11-9.1,10.5-3.9-.3-8.8.9-9.7-4.5C117.6,38.9,117.5,33.3,117.4,32.8Z"/><path class="cls-3" d="M131.4,9.9c-.7-4.6,5.9-5.1,9-4.4s5.8,2.3,6.8,5c1.8,4.9-1.5,9.1-7.5,8.7-3.3-.2-7.3.8-8.1-3.8C131.5,14.9,131.4,10.2,131.4,9.9Z"/><path class="cls-3" d="M121.9,2.5c-3.4-2.6-.8-6.1,1-7.2a7.1,7.1,0,0,1,6.5-.1c4.3,2.3,5.6,6.6,2.7,9.2s-2.8,4.1-6.2,1.5C125.4,5.6,122.2,2.7,121.9,2.5Z"/><path class="cls-3" d="M149.4,32.6c2.8-5.2,7.8-2.8,9.5-.6a9.2,9.2,0,0,1,1.2,8.6c-2.3,6.3-7.6,9.3-11.5,6.1-2.2-1.7-5.7-2.5-3-7.8C145.9,38.2,149.2,33.1,149.4,32.6Z"/><path class="cls-3" d="M132.4,49.6c2-4,6.8-1.4,8.5.5s2.8,4.5,2.1,7.1c-1.4,4.9-5.9,6.8-9.8,3.7-2.2-1.6-5.5-2.6-3.6-6.6C129.8,53.7,132.2,49.9,132.4,49.6Z"/><path class="cls-3" d="M135.8,22.6c.9-1.9,3.2-.7,4,.2a3.6,3.6,0,0,1,1,3.4c-.7,2.3-2.8,3.2-4.7,1.8s-2.5-1.3-1.7-3.2C134.6,24.6,135.7,22.8,135.8,22.6Z"/><path class="cls-3" d="M149.8,18.6c.9-1.9,3.2-.7,4,.2a3.6,3.6,0,0,1,1,3.4c-.7,2.3-2.8,3.2-4.7,1.8s-2.5-1.3-1.7-3.2C148.6,20.6,149.7,18.8,149.8,18.6Z"/><path class="cls-3" d="M176.9,11.3c-1.2,1.4.9,2.9,2,3.4s2.4.5,3.3-.2,1.4-3.2-.6-4.4-2.2-1.8-3.4-.5Z"/><path class="cls-3" d="M160.8,18.6c.9-1.9,3.2-.7,4,.2a3.6,3.6,0,0,1,1,3.4c-.7,2.3-2.8,3.2-4.7,1.8s-2.5-1.3-1.7-3.2C159.6,20.6,160.7,18.8,160.8,18.6Z"/><path class="cls-3" d="M169-.7c6.4,1.6,5.2,7.4,3.4,9.6a9.8,9.8,0,0,1-8.8,3.4c-7.4-.7-12.1-5.5-9.9-10.3,1.3-2.7,1-6.6,7.5-5.1Z"/><path class="cls-3" d="M208.9,28.4c-4.6-3.2.5-9.4,3.6-11.5s6.8-3.2,10-1.9c5.9,2.5,6.8,8.9,1.4,13.8-2.9,2.7-5.3,7.1-9.9,4C213.4,32.4,209.2,28.7,208.9,28.4Z"/><path class="cls-3" d="M209.9,5c-3.7-2.7.4-7.8,3-9.6s5.6-2.7,8.3-1.5c4.8,2,5.6,7.3,1.2,11.4-2.4,2.2-4.4,5.8-8.3,3.3C213.6,8.3,210.2,5.2,209.9,5Z"/><path class="cls-3" d="M116.1,63.2c-1.6-3.9,2-5.6,4-5.6a6.3,6.3,0,0,1,5.2,3c2.3,4,1.5,8.2-2,9.1-2,.4-4,2.1-5.6-1.7C117.5,67.5,116.2,63.5,116.1,63.2Z"/><rect class="cls-2" x="0.4" y="-123.2" width="114" height="148"/><path class="cls-3" d="M42.4,3.5C41.6-2,49.6-2.6,53.3-1.7s7,2.7,8.2,6c2.2,5.9-1.8,10.9-9.1,10.5-3.9-.3-8.8.9-9.7-4.6C42.6,9.5,42.5,4,42.4,3.5Z"/><path class="cls-3" d="M102.4,5.3c2.8-5.3,7.8-2.8,9.5-.6a9.2,9.2,0,0,1,1.2,8.6c-2.3,6.2-7.6,9.3-11.5,6.1-2.2-1.8-5.7-2.5-3-7.8C98.9,10.9,102.2,5.8,102.4,5.3Z"/><path class="cls-3" d="M83.4,6.3c2-4,6.8-1.5,8.5.5s2.8,4.5,2.1,7.1c-1.4,4.8-5.9,6.7-9.8,3.7C82,16,78.7,15,80.6,10.9,80.8,10.4,83.2,6.6,83.4,6.3Z"/><path class="cls-3" d="M93.9-2c-1.2,1.3.9,2.9,2,3.3a3.8,3.8,0,0,0,3.3-.1c1.6-1.2,1.4-3.3-.6-4.4S96.4-5,95.2-3.7A19.2,19.2,0,0,0,93.9-2Z"/><path class="cls-3" d="M18.4.3c2-4,6.8-1.5,8.5.5S29.7,5.3,29,7.9c-1.4,4.8-5.9,6.7-9.8,3.7C17,10,13.7,9,15.6,4.9,15.8,4.4,18.2.6,18.4.3Z"/><path class="cls-3" d="M2.1,13.8c-1.6-3.8,2-5.5,4-5.5a6.1,6.1,0,0,1,5.2,3c2.3,3.9,1.5,8.2-2,9s-4,2.2-5.6-1.6C3.5,18.2,2.2,14.2,2.1,13.8Z"/><rect class="cls-2" x="-113.6" y="-24.5" width="114" height="148"/></pattern></defs><title>Atmos Safari Illustration</title><path class="cls-6" d="M535.4,706.5c-2.8,3.4-7,4.8-12,3.9s-34.3-23.3-37.4-26.1-1.6-5.7-1.2-9.2c-4-1.9-9.5-4.9-14.2-7.7-9.1-5.4-10.5-31.5-10.5-42.7l3,11.5s14.1,21,22.9,33.5C490.2,672.4,538,703.3,535.4,706.5Z" transform="translate(-458.5 -317.5)"/><path class="cls-6" d="M535.2,707.3s-5.1,8.7-2.1,10.8,25.7,13.4,29.9,13.4a9.7,9.7,0,0,0,9.1-5.6C573.8,722.3,535.2,707.3,535.2,707.3Z" transform="translate(-458.5 -317.5)"/><path class="cls-6" d="M573.3,726.2s-3.4,8.7-.4,10.2,25.3,8.6,29.1,8a8.9,8.9,0,0,0,7.5-6.4C610.6,734.5,573.3,726.2,573.3,726.2Z" transform="translate(-458.5 -317.5)"/><path class="cls-6" d="M611,736.9s-3,7.3-.4,8.5,22.1,7.1,25.4,6.5a7.5,7.5,0,0,0,6.6-5.4C643.6,743.6,611,736.9,611,736.9Z" transform="translate(-458.5 -317.5)"/><path class="cls-6" d="M876.7,757s-2,13.5-5.5,16-26.6,1.9-30.8,1.1c-2.4-.5-5.2-6-7.1-10.5-15.3-.3-32.7-.8-50.3-1.4-.5,3.7-1.4,8.2-3.2,9.5s-30,1-33.8.2-4-7.4-4.5-11.4c-13.5-.6-26.2-1.4-37.3-2.2-1.9,4.2-4.9,8.5-7,9.2s-25.2-5.7-28.2-7.3-.9-12.8-.9-12.8l10.8.2c33.7-35.6,156.5-22.4,193.1,9.3.1.1.2.1.2.2Z" transform="translate(-458.5 -317.5)"/><path class="cls-6" d="M896.4,757.5s8.3,22,12.5,20.6c1.5-.5,29.7.1,35.6-1.2S954.6,759,954.6,759Z" transform="translate(-458.5 -317.5)"/><path class="cls-6" d="M958.5,758.1s3.6,19.2,10.1,19.6c1.2.1,21.4,1.1,25.9-.3s7.4-17.8,7.4-17.8Z" transform="translate(-458.5 -317.5)"/><path class="cls-6" d="M1005.8,757.8s4.9,19.3,13.8,19.7c1.7,0,29.5,1,35.6-.3s10.3-17.9,10.3-17.9Z" transform="translate(-458.5 -317.5)"/><path class="cls-6" d="M1065.5,757.3s3.6,19.3,10.1,19.7c1.2.1,21.4,1,25.9-.3s7.4-17.9,7.4-17.9Z" transform="translate(-458.5 -317.5)"/><path class="cls-6" d="M1108.9,758.8s8.5,18.4,14.4,18.6c10.6.3,34.5,1.9,42.6,0,5.7-1.4,12.8-20.1,12.8-20.1l-69.8,1.5" transform="translate(-458.5 -317.5)"/><path class="cls-7" d="M1176.8,756.3s9.5,18.4,16,18.6c11.8.3,38.5,1.9,47.5,0,6.5-1.4,14.4-20.1,14.4-20.1l-77.9,1.5" transform="translate(-458.5 -317.5)"/><path class="cls-6" d="M1253.1,750.4s9.5,18.4,16.1,18.6c11.8.3,124.3-7.1,133.5-8,16-1.6,58.2-9.9,55.7-57.3l-205.3,46.7" transform="translate(-458.5 -317.5)"/><path class="cls-8" d="M1155.9,433.7s-11.7-99.1-55.7-113.8-223.9,138-223.9,138Z" transform="translate(-458.5 -317.5)"/><path class="cls-9" d="M998.8,364.6s.6,22.9,6.7,25.1c26.5,9.5,54.3-38.5,104.9-40.4,20-.7-28.2-28.8-28.2-28.8C1080.4,318,1017.4,346.9,998.8,364.6Z" transform="translate(-458.5 -317.5)"/><path class="cls-10" d="M488.6,565.4s-16.9,2.1,23.2,15.9,158.9,4.4,173.1,9.3c20.1,6.9,41.3,4.5,68.1,32.1s53.6-27.6,53.6-41.4c0-6.9,13.4-20.7,20.1-20.7s123.6,52.5,134,41.4c16.1-17.2-82.3-78.3-127.3-76-29.3,1.6-75.2-28-124-12C668.9,527.4,533.1,548.7,488.6,565.4Z" transform="translate(-458.5 -317.5)"/><path class="cls-11" d="M1141.3,427.6" transform="translate(-458.5 -317.5)"/><path class="cls-8" d="M871.1,452s76.7-32.1,104.5-46.7c20.1-10.7,31.3-46,79.6-49.6,54.8-4.2,105,99.2,167.3,100.5,45.7,1,66.5-7.6,104.9-46.6s49-40.7,66.9-36.5c14.9,3.4-66.9,149.4-66.9,149.4L871.1,452h0" transform="translate(-458.5 -317.5)"/><path class="cls-12" d="M1141.3,427.6s42.3,49.5,103.6,41.9,103.3-76.2,115.6-88.4,53.1-29.1,68.4,57.1-246,71.6-246,71.6L1085.5,453Z" transform="translate(-458.5 -317.5)"/><path class="cls-13" d="M658.4,526.6s3.7,12.8,58.7,15,72.6,59.5,74.6,64.4,105.6-14.1,105.6-14.1-53.6-55.8-56.2-64.3-52.5-7.3-52.5-7.3-79.9,6.6-78.7-4.3C710.3,511.4,658.4,526.6,658.4,526.6Z" transform="translate(-458.5 -317.5)"/><path class="cls-13" d="M989.1,408.3c1.8-6.7,99.5,55.5,113.1,43.6,17.5-15.2,39.1-24.3,39.1-24.3s-67.1-70-97.9-64.1S989.1,408.3,989.1,408.3Z" transform="translate(-458.5 -317.5)"/><path class="cls-14" d="M1078.2,427a17.5,17.5,0,0,1-18.1-16.9h0a18,18,0,0,1-8,2.2,17.5,17.5,0,1,1,16.9-18h0a17.7,17.7,0,0,1,8-2.2,17.5,17.5,0,0,1,1.2,34.9Z" transform="translate(-458.5 -317.5)"/><rect x="1042.7" y="386.8" width="16.9" height="16.88" transform="translate(-120.1 -790.1) rotate(30)"/><rect x="1069.3" y="401.1" width="16.9" height="16.88" transform="translate(-109.4 -801.4) rotate(30)"/><path class="cls-13" d="M956.9,592.9s-52.1-62.2-122.1-65.6-134.3-2.7-125.2-14.2,258.9-92.7,279.5-104.8,176,97.5,288,81.8c29.5-4.1-84.2,84.2-84.2,84.2Z" transform="translate(-458.5 -317.5)"/><path class="cls-15" d="M1032.7,456.4c11.5-4.6-39.1,71,49.9,56.8,28.3-4.5,192.6-21.9,192.6-21.9s-15.2,27.7-34.1,34.6c-44,16.2-178.1,31.9-224.6,31.9C982.3,557.8,927,499,1032.7,456.4Z" transform="translate(-458.5 -317.5)"/><path class="cls-16" d="M1458.5,604c-1.5,14.7-4.1,26-7.7,31.3a12.6,12.6,0,0,1-1.3,1.7c-3.7,3.6-18.6,5.9-39.6,6.4a556.7,556.7,0,0,1-55.7-1.7,627.4,627.4,0,0,1-66.8-8.8c-57.7-10.9-108.7-30.8-108.7-62,0-7.5,8.1-20.7,27.9-37.2a300.5,300.5,0,0,1,38.3-26.2c11-6.5,23.7-13.2,38-19.9,10.7-5.1,22.4-10.2,35.1-15.4q14.9-6,31.5-12t36.9-12.3c7.3-2.4,14.9-4.7,22.7-6.9l7.4-2.2c19.1-5.4,31.4,24.1,37.9,62a370.6,370.6,0,0,1,4.8,43.2C1460.5,565.7,1460.2,587.1,1458.5,604Z" transform="translate(-458.5 -317.5)"/><path class="cls-12" d="M1458.4,590.4c0,18.3-1.2,43.9-4.1,48.3-13.1,19.6-469.9,16.1-478.7,16.1,0,3.1-30.5,11.7-67.1,19.6-24.6,5.3-40,10.8-62.7,13.7-8.6,1.1-16.4,1.9-23.2,2.2-13.8.8-28,1.2-42.2,1.4-20.4.1-40.9-.3-61-1s-40.5-1.7-59.3-2.6l-34.2-1.5-25.1-1.2c-38.2-2.1-41.2-4.2-55.6-6.4-3.4-.5-7.3-1-12.5-1.4-16.7-1.6-29.9-4.3-40.1-8.1-18.5-6.8-27.6-17.3-30.9-31.8a65.7,65.7,0,0,1-1.7-15.9c0-44,21.7-56.4,28.6-56.4s5,7.6,30.8,13.1c11.8,2.6,29.5,4.7,56.6,5.4,6.7.2,14,.3,22,.3,14.2,0,27,.4,38.6,1,22.9,1.3,40.9,3.7,55.3,6.7,22.3,4.7,36,10.8,46,16.3,14.1,7.8,20.9,14.4,34,14.4,27.2,0,25.3-63.6,56.2-63.6a86.1,86.1,0,0,1,17.4,2.4c13.7,2.9,31,8.3,48.4,13.8s33.9,10.7,48.2,14.1c9.2,2.2,5.1,3.2,11.1,3.2a6.7,6.7,0,0,1,4.1,1.5c-.1-.4-.3-.8-.4-1.1-2.6-7.1,444.3-40,466.3-38.5C1434.8,555.2,1458.4,575,1458.4,590.4Z" transform="translate(-458.5 -317.5)"/><path class="cls-17" d="M1458.2,701.7c.1,2.6.1,5,.1,7.2,0,15.4-37.7,29-52.8,31.5-150.8,25.6-458.3,18-611.3,17.7-157.5-.4-256-32.5-322.3-101.2-4.6-4.7,39.4,15.5,64.3,20.1,61.6,11.1,158.5,11.2,284.4,10.6,72.3-.4,230-58.7,309.7-58.7,61.5,0,185.4-23.5,245.8-11.7,14.2,2.7,38,21.9,52.1,24.9,10.3,2.2,27.9-7.4,27.9-1.5s.2,10.9.4,17.1c0,1.2-1.5,1.3-2.5,2.7l-1.3-.2L1335,666.1l-126.8,4.8L1088,675.5l-99.1-1.7a4.4,4.4,0,0,0-4.4,4.4,4.5,4.5,0,0,0,4.4,4.5h103.2l116.1-2.9,127.5-4.8,117-5.9a4.1,4.1,0,0,0,2.4-.8c1,1.4,1.9,2.6,2,4.2.2,5.5.4,9.8.6,15.1.1,1-.6,2.3-1.2,3.6a4.4,4.4,0,0,0-2.5-.8l-126.3,3.2a4.8,4.8,0,0,0-3.1,1.2,4.4,4.4,0,0,0-1.3,3.2c0,2.4,2,4.4,4.4,5.1l126.3-3.1a8.1,8.1,0,0,0,2.7-1.6A6.7,6.7,0,0,1,1458.2,701.7Z" transform="translate(-458.5 -317.5)"/><path class="cls-17" d="M1456.7,698.3a8.1,8.1,0,0,1-2.7,1.6L1327.7,703c-2.4-.7-4.4-2.7-4.4-5.1a4.4,4.4,0,0,1,1.3-3.2,4.8,4.8,0,0,1,3.1-1.2l126.3-3.2a4.4,4.4,0,0,1,2.5.8,9.2,9.2,0,0,0-1.4,3.6A9.5,9.5,0,0,0,1456.7,698.3Z" transform="translate(-458.5 -317.5)"/><path class="cls-17" d="M1455.1,668.2a3.6,3.6,0,0,1-2.3.8l-112,5.9L1218.6,679l-115.1,3.1-115.8.6a4.4,4.4,0,0,1-4.2-4.5,4.8,4.8,0,0,1,1.2-3.1,4.2,4.2,0,0,1,3-1.3l115.8-.6,115.1-3,121.5-4.1,112.7-5.9,1.3.2a5.8,5.8,0,0,0-.7,3A8.6,8.6,0,0,0,1455.1,668.2Z" transform="translate(-458.5 -317.5)"/><path class="cls-17" d="M822.6,687.4s5.9,14.3,10.1,17.1c2.2,1.4,10.6,1.5,9.9-3.7s-6.2-13.6-6.2-13.6l-13.8.2h0" transform="translate(-458.5 -317.5)"/><path class="cls-17" d="M860.6,683.6s6.7,11.2,7.4,16.3-7.7,5.2-9.9,3.7c-4.1-2.7-10.7-17.8-10.7-17.8Z" transform="translate(-458.5 -317.5)"/><rect class="cls-17" x="440.6" y="393.3" width="168.8" height="8.81" rx="4.4" ry="4.4"/><path class="cls-18" d="M1300.9,708.9c.2,10.1-7.4,18.5-16.8,18.6l-171.2,3.1c-9.5.2-17.3-7.9-17.5-18s7.4-18.5,16.8-18.7l171.2-3.1C1292.9,690.7,1300.7,698.7,1300.9,708.9Z" transform="translate(-458.5 -317.5)"/><path class="cls-19" d="M1293.3,707a16.4,16.4,0,0,1-16.2,16.6l-164.9,2.9a16.3,16.3,0,1,1-.6-32.6l164.9-2.9A16.4,16.4,0,0,1,1293.3,707Z" transform="translate(-458.5 -317.5)"/><path class="cls-20" d="M732.3,504.7c4.3,8.1,33.2,17.4,34.3,4.6.9-10.2,3.1-27.7-5.1-24.2C755.6,487.6,728.6,497.5,732.3,504.7Z" transform="translate(-458.5 -317.5)"/><path class="cls-20" d="M773.3,481.5c-3.4,3.2,23.1,24.8,30.1,22.1,9.5-3.7,13.7-13.9,14.9-19.6s-7-9.8-10.9-10.8C800.5,471.5,778.2,477,773.3,481.5Z" transform="translate(-458.5 -317.5)"/><path class="cls-20" d="M818.8,467c-4,5.4,25.3,22.4,35.6,15.4S847,454,843.7,453.8,826.6,456.3,818.8,467Z" transform="translate(-458.5 -317.5)"/><path class="cls-20" d="M857.2,451.3c-4.5,6,28.9,17.7,43.1,15.4s-12.5-24-18.5-25.9S861.1,446.3,857.2,451.3Z" transform="translate(-458.5 -317.5)"/><path class="cls-20" d="M897.4,434.7c-2.3,4.9,23.7,31.3,34.9,28.2s1.7-40.7-9.2-42.1C917.9,420.1,901.3,426.3,897.4,434.7Z" transform="translate(-458.5 -317.5)"/></svg>