<svg id="Illustration" xmlns="http://www.w3.org/2000/svg" xmlns:xlink="http://www.w3.org/1999/xlink" width="1003" height="462.4" viewBox="0 0 1003 462.4"><defs><style>.cls-1,.cls-11,.cls-4{fill:none;}.cls-2{fill:#e4eef5;}.cls-3{fill:#182534;}.cls-4{stroke:#babac9;stroke-width:2px;}.cls-11,.cls-12,.cls-13,.cls-14,.cls-15,.cls-16,.cls-17,.cls-18,.cls-19,.cls-20,.cls-21,.cls-22,.cls-23,.cls-24,.cls-25,.cls-26,.cls-27,.cls-28,.cls-29,.cls-4,.cls-7,.cls-8,.cls-9{stroke-miterlimit:10;}.cls-5{fill:#f2f1f8;}.cls-6,.cls-7{fill:#a91d2a;}.cls-11,.cls-12,.cls-13,.cls-14,.cls-15,.cls-16,.cls-17,.cls-18,.cls-19,.cls-20,.cls-21,.cls-22,.cls-23,.cls-24,.cls-25,.cls-26,.cls-27,.cls-28,.cls-29,.cls-7,.cls-8,.cls-9{stroke:#000;stroke-width:3px;}.cls-8{fill:#da7a89;}.cls-9{fill:#00a1e4;}.cls-10{fill:#27384f;}.cls-12{fill:#d4d7ec;}.cls-13{fill:#ff4a64;}.cls-14{fill:url(#New_Pattern_3);}.cls-15{fill:#df2500;}.cls-16{fill:#f2f2fd;}.cls-17{fill:#d0cdd9;}.cls-18{fill:#cccfd7;}.cls-19{fill:#dadbdd;}.cls-20{fill:#dbdce2;}.cls-21{fill:#00a4d3;}.cls-22{fill:#d86e7a;}.cls-23{fill:#722a49;}.cls-24{fill:url(#New_Pattern);}.cls-25{fill:#c2c1c8;}.cls-26{fill:#d1d0d7;}.cls-27{fill:#a65e57;}.cls-28{fill:#88898f;}.cls-29{fill:#efeef1;}</style><pattern id="New_Pattern_3" data-name="New Pattern 3" width="18" height="21" patternTransform="translate(7 13.2) scale(0.67)" patternUnits="userSpaceOnUse" viewBox="0 0 18 21"><rect class="cls-1" width="18" height="21"/><line class="cls-4" x1="15.6" y1="21" x2="20.6" y2="21"/><line class="cls-4" x1="6.6" y1="21" x2="11.6" y2="21"/><line class="cls-4" x1="-2.4" y1="21" x2="2.6" y2="21"/><rect class="cls-5" x="13.5" width="9" height="21"/><line class="cls-4" x1="15.6" y1="10.5" x2="20.6" y2="10.5"/><line class="cls-4" x1="15.6" x2="20.6"/><line class="cls-4" x1="15.6" y1="21" x2="20.6" y2="21"/><rect class="cls-5" x="4.5" width="9" height="21"/><line class="cls-4" x1="6.6" y1="10.5" x2="11.6" y2="10.5"/><line class="cls-4" x1="6.6" x2="11.6"/><line class="cls-4" x1="6.6" y1="21" x2="11.6" y2="21"/><rect class="cls-5" x="-4.5" width="9" height="21"/><line class="cls-4" x1="-2.4" y1="10.5" x2="2.6" y2="10.5"/><line class="cls-4" x1="-2.4" x2="2.6"/><line class="cls-4" x1="-2.4" y1="21" x2="2.6" y2="21"/><line class="cls-4" x1="15.6" x2="20.6"/><line class="cls-4" x1="6.6" x2="11.6"/><line class="cls-4" x1="-2.4" x2="2.6"/></pattern><pattern id="New_Pattern" data-name="New Pattern" width="60" height="60" patternTransform="translate(11 9.2) scale(0.67)" patternUnits="userSpaceOnUse" viewBox="0 0 60 60"><rect class="cls-1" width="60" height="60"/><rect class="cls-2" width="60" height="60"/><path class="cls-3" d="M52.5,60H7.5A7.6,7.6,0,0,0,0,52.5V7.5A7.6,7.6,0,0,0,7.5,0h45A7.6,7.6,0,0,0,60,7.5v45A7.6,7.6,0,0,0,52.5,60Zm-15-30A7.5,7.5,0,1,0,30,37.5,7.6,7.6,0,0,0,37.5,30Z"/></pattern></defs><title>Parra AM1 Illustration</title><g id="Out_sole" data-name="Out sole"><path class="cls-6" d="M537.4,694.5c-2.8,3.4-7,4.8-12,3.9s-34.3-23.3-37.4-26.1-1.6-5.7-1.2-9.2c-4-1.9-9.5-4.9-14.2-7.7-9.1-5.4-10.5-31.5-10.5-42.7l3,11.5s14.1,21,22.9,33.5C492.2,660.4,540,691.3,537.4,694.5Z" transform="translate(-460.5 -305.5)"/><path class="cls-6" d="M537.2,695.3s-5.1,8.7-2.1,10.8,25.7,13.4,29.9,13.4a9.7,9.7,0,0,0,9.1-5.6C575.8,710.3,537.2,695.3,537.2,695.3Z" transform="translate(-460.5 -305.5)"/><path class="cls-6" d="M575.3,714.2s-3.4,8.7-.4,10.2,25.3,8.6,29.1,8a8.9,8.9,0,0,0,7.5-6.4C612.6,722.5,575.3,714.2,575.3,714.2Z" transform="translate(-460.5 -305.5)"/><path class="cls-6" d="M613,724.9s-3,7.3-.4,8.5,22.1,7.1,25.4,6.5a7.5,7.5,0,0,0,6.6-5.4C645.6,731.6,613,724.9,613,724.9Z" transform="translate(-460.5 -305.5)"/><path class="cls-6" d="M878.7,745s-2,13.5-5.5,16-26.6,1.9-30.8,1.1c-2.4-.5-5.2-6-7.1-10.5-15.3-.3-32.7-.8-50.3-1.4-.5,3.7-1.4,8.2-3.2,9.5s-30,1-33.8.2-4-7.4-4.5-11.4c-13.5-.6-26.2-1.4-37.3-2.2-1.9,4.2-4.9,8.5-7,9.2s-25.2-5.7-28.2-7.3-.9-12.8-.9-12.8l10.8.2c33.7-35.6,156.5-22.4,193.1,9.3.1.1.2.1.2.2Z" transform="translate(-460.5 -305.5)"/><path class="cls-6" d="M898.4,745.5s8.3,22,12.5,20.6c1.5-.5,29.7.1,35.6-1.2S956.6,747,956.6,747Z" transform="translate(-460.5 -305.5)"/><path class="cls-6" d="M960.5,746.1s3.6,19.2,10.1,19.6c1.2.1,21.4,1.1,25.9-.3s7.4-17.8,7.4-17.8Z" transform="translate(-460.5 -305.5)"/><path class="cls-6" d="M1007.8,745.8s4.9,19.3,13.8,19.7c1.7,0,29.5,1,35.6-.3s10.3-17.9,10.3-17.9Z" transform="translate(-460.5 -305.5)"/><path class="cls-6" d="M1067.5,745.3s3.6,19.3,10.1,19.7c1.2.1,21.4,1,25.9-.3s7.4-17.9,7.4-17.9Z" transform="translate(-460.5 -305.5)"/><path class="cls-6" d="M1110.9,746.8s8.5,18.4,14.4,18.6c10.6.3,34.5,1.9,42.6,0,5.8-1.4,12.8-20.1,12.8-20.1l-69.8,1.5" transform="translate(-460.5 -305.5)"/><path class="cls-6" d="M1178.8,744.3s9.5,18.4,16,18.6c11.8.3,38.5,1.9,47.5,0,6.5-1.4,14.4-20.1,14.4-20.1l-77.9,1.5" transform="translate(-460.5 -305.5)"/><path class="cls-6" d="M1255.1,738.4s9.5,18.4,16.1,18.6c11.8.3,124.3-7.1,133.5-8,16-1.6,58.2-9.9,55.7-57.3l-205.3,46.7" transform="translate(-460.5 -305.5)"/><path class="cls-7" d="M537.4,694.5c-2.8,3.4-7,4.8-12,3.9s-34.3-23.3-37.4-26.1-1.6-5.7-1.2-9.2c-4-1.9-9.5-4.9-14.2-7.7-9.1-5.4-10.5-31.5-10.5-42.7l3,11.5s14.1,21,22.9,33.5C492.2,660.4,540,691.3,537.4,694.5Z" transform="translate(-460.5 -305.5)"/><path class="cls-7" d="M537.2,695.3s-5.1,8.7-2.1,10.8,25.7,13.4,29.9,13.4a9.7,9.7,0,0,0,9.1-5.6C575.8,710.3,537.2,695.3,537.2,695.3Z" transform="translate(-460.5 -305.5)"/><path class="cls-7" d="M575.3,714.2s-3.4,8.7-.4,10.2,25.3,8.6,29.1,8a8.9,8.9,0,0,0,7.5-6.4C612.6,722.5,575.3,714.2,575.3,714.2Z" transform="translate(-460.5 -305.5)"/><path class="cls-7" d="M613,724.9s-3,7.3-.4,8.5,22.1,7.1,25.4,6.5a7.5,7.5,0,0,0,6.6-5.4C645.6,731.6,613,724.9,613,724.9Z" transform="translate(-460.5 -305.5)"/><path class="cls-8" d="M878.7,745s-2,13.5-5.5,16-26.6,1.9-30.8,1.1c-2.4-.5-5.2-6-7.1-10.5-15.3-.3-32.7-.8-50.3-1.4-.5,3.7-1.4,8.2-3.2,9.5s-30,1-33.8.2-4-7.4-4.5-11.4c-13.5-.6-26.2-1.4-37.3-2.2-1.9,4.2-4.9,8.5-7,9.2s-25.2-5.7-28.2-7.3-.9-12.8-.9-12.8l10.8.2c33.7-35.6,156.5-22.4,193.1,9.3.1.1.2.1.2.2Z" transform="translate(-460.5 -305.5)"/><path class="cls-9" d="M898.4,745.5s8.3,22,12.5,20.6c1.5-.5,29.7.1,35.6-1.2S956.6,747,956.6,747Z" transform="translate(-460.5 -305.5)"/><path class="cls-9" d="M960.5,746.1s3.6,19.2,10.1,19.6c1.2.1,21.4,1.1,25.9-.3s7.4-17.8,7.4-17.8Z" transform="translate(-460.5 -305.5)"/><path class="cls-9" d="M1007.8,745.8s4.9,19.3,13.8,19.7c1.7,0,29.5,1,35.6-.3s10.3-17.9,10.3-17.9Z" transform="translate(-460.5 -305.5)"/><path class="cls-9" d="M1067.5,745.3s3.6,19.3,10.1,19.7c1.2.1,21.4,1,25.9-.3s7.4-17.9,7.4-17.9Z" transform="translate(-460.5 -305.5)"/><path class="cls-10" d="M1110.9,746.8s8.5,18.4,14.4,18.6c10.6.3,34.5,1.9,42.6,0,5.8-1.4,12.8-20.1,12.8-20.1l-69.8,1.5" transform="translate(-460.5 -305.5)"/><path class="cls-10" d="M1178.8,744.3s9.5,18.4,16,18.6c11.8.3,38.5,1.9,47.5,0,6.5-1.4,14.4-20.1,14.4-20.1l-77.9,1.5" transform="translate(-460.5 -305.5)"/><path class="cls-10" d="M1255.1,738.4s9.5,18.4,16.1,18.6c11.8.3,124.3-7.1,133.5-8,16-1.6,58.2-9.9,55.7-57.3l-205.3,46.7" transform="translate(-460.5 -305.5)"/><path class="cls-11" d="M537.4,694.5c-2.8,3.4-7,4.8-12,3.9s-34.3-23.3-37.4-26.1-1.6-5.7-1.2-9.2c-4-1.9-9.5-4.9-14.2-7.7-9.1-5.4-10.5-31.5-10.5-42.7l3,11.5s14.1,21,22.9,33.5C492.2,660.4,540,691.3,537.4,694.5Z" transform="translate(-460.5 -305.5)"/><path class="cls-11" d="M537.2,695.3s-5.1,8.7-2.1,10.8,25.7,13.4,29.9,13.4a9.7,9.7,0,0,0,9.1-5.6C575.8,710.3,537.2,695.3,537.2,695.3Z" transform="translate(-460.5 -305.5)"/><path class="cls-11" d="M575.3,714.2s-3.4,8.7-.4,10.2,25.3,8.6,29.1,8a8.9,8.9,0,0,0,7.5-6.4C612.6,722.5,575.3,714.2,575.3,714.2Z" transform="translate(-460.5 -305.5)"/><path class="cls-11" d="M613,724.9s-3,7.3-.4,8.5,22.1,7.1,25.4,6.5a7.5,7.5,0,0,0,6.6-5.4C645.6,731.6,613,724.9,613,724.9Z" transform="translate(-460.5 -305.5)"/><path class="cls-11" d="M878.7,745s-2,13.5-5.5,16-26.6,1.9-30.8,1.1c-2.4-.5-5.2-6-7.1-10.5-15.3-.3-32.7-.8-50.3-1.4-.5,3.7-1.4,8.2-3.2,9.5s-30,1-33.8.2-4-7.4-4.5-11.4c-13.5-.6-26.2-1.4-37.3-2.2-1.9,4.2-4.9,8.5-7,9.2s-25.2-5.7-28.2-7.3-.9-12.8-.9-12.8l10.8.2c33.7-35.6,156.5-22.4,193.1,9.3.1.1.2.1.2.2Z" transform="translate(-460.5 -305.5)"/><path class="cls-11" d="M898.4,745.5s8.3,22,12.5,20.6c1.5-.5,29.7.1,35.6-1.2S956.6,747,956.6,747Z" transform="translate(-460.5 -305.5)"/><path class="cls-11" d="M960.5,746.1s3.6,19.2,10.1,19.6c1.2.1,21.4,1.1,25.9-.3s7.4-17.8,7.4-17.8Z" transform="translate(-460.5 -305.5)"/><path class="cls-11" d="M1007.8,745.8s4.9,19.3,13.8,19.7c1.7,0,29.5,1,35.6-.3s10.3-17.9,10.3-17.9Z" transform="translate(-460.5 -305.5)"/><path class="cls-11" d="M1067.5,745.3s3.6,19.3,10.1,19.7c1.2.1,21.4,1,25.9-.3s7.4-17.9,7.4-17.9Z" transform="translate(-460.5 -305.5)"/><path class="cls-11" d="M1110.9,746.8s8.5,18.4,14.4,18.6c10.6.3,34.5,1.9,42.6,0,5.8-1.4,12.8-20.1,12.8-20.1l-69.8,1.5" transform="translate(-460.5 -305.5)"/><path class="cls-11" d="M1178.8,744.3s9.5,18.4,16,18.6c11.8.3,38.5,1.9,47.5,0,6.5-1.4,14.4-20.1,14.4-20.1l-77.9,1.5" transform="translate(-460.5 -305.5)"/><path class="cls-11" d="M1255.1,738.4s9.5,18.4,16.1,18.6c11.8.3,124.3-7.1,133.5-8,16-1.6,58.2-9.9,55.7-57.3l-205.3,46.7" transform="translate(-460.5 -305.5)"/></g><g id="Tongue"><path class="cls-12" d="M1157.9,421.7s-11.7-99.1-55.7-113.8-223.9,138-223.9,138Z" transform="translate(-460.5 -305.5)"/><path class="cls-13" d="M1000.8,352.6s.6,22.9,6.7,25.1c26.5,9.5,54.3-38.5,104.9-40.4,20-.7-28.2-28.8-28.2-28.8C1082.4,306,1019.4,334.9,1000.8,352.6Z" transform="translate(-460.5 -305.5)"/></g><g id="Toebox"><path class="cls-14" d="M490.6,553.4s-16.9,2.1,23.2,15.9,158.9,4.4,173.1,9.3c20.1,6.9,41.3,4.5,68.1,32.1s53.6-27.6,53.6-41.4c0-6.9,13.4-20.7,20.1-20.7s123.6,52.5,134,41.4c16.1-17.2-82.3-78.3-127.3-76-29.3,1.6-75.2-28-124-12C670.9,515.4,535.1,536.7,490.6,553.4Z" transform="translate(-460.5 -305.5)"/></g><g id="Heel"><path class="cls-15" d="M1143.3,415.6" transform="translate(-460.5 -305.5)"/><path class="cls-16" d="M873.1,440s76.7-32.1,104.5-46.8c20.1-10.6,31.3-45.9,79.6-49.5,54.8-4.2,105,99.2,167.3,100.5,45.7,1,66.5-7.6,104.9-46.6s49-40.7,66.9-36.5c14.9,3.4-66.9,149.4-66.9,149.4L873.1,440h0" transform="translate(-460.5 -305.5)"/><path class="cls-17" d="M1143.3,415.6s42.3,49.5,103.6,41.9,103.3-76.2,115.6-88.4,53.1-29.1,68.4,57.1-246,71.6-246,71.6L1087.5,441Z" transform="translate(-460.5 -305.5)"/></g><g id="Toebox_detail" data-name="Toebox detail"><path class="cls-18" d="M660.4,514.6s3.7,12.8,58.7,15,72.6,59.5,74.6,64.4,105.6-14.1,105.6-14.1-53.6-55.8-56.2-64.3-52.5-7.3-52.5-7.3-79.9,6.6-78.7-4.3C712.3,499.4,660.4,514.6,660.4,514.6Z" transform="translate(-460.5 -305.5)"/></g><g id="Upper_Eyelets" data-name="Upper/Eyelets"><path class="cls-19" d="M991.1,396.3c1.8-6.7,96.3,37.3,113.1,43.6,18.9,7.2,39.1-24.3,39.1-24.3s-67.1-70-97.9-64.1S991.1,396.3,991.1,396.3Z" transform="translate(-460.5 -305.5)"/></g><g id="Eyelets"><path class="cls-15" d="M1080.2,415a17.5,17.5,0,0,1-18.1-16.9h0a18,18,0,0,1-8,2.2,17.5,17.5,0,1,1,16.9-18h0a17.7,17.7,0,0,1,8-2.2,17.5,17.5,0,0,1,1.2,34.9Z" transform="translate(-460.5 -305.5)"/><rect x="1044.7" y="374.8" width="16.9" height="16.88" transform="translate(-127.8 -780.7) rotate(30)"/><rect x="1071.3" y="389.1" width="16.9" height="16.88" transform="matrix(0.87, 0.5, -0.5, 0.87, -117.08, -792.05)"/></g><g id="Upper"><path class="cls-20" d="M958.9,580.9s-52.1-62.2-122.1-65.6-134.3-2.7-125.2-14.2,258.9-92.7,279.5-104.8,176,97.5,288,81.8c29.5-4.1-84.2,84.2-84.2,84.2Z" transform="translate(-460.5 -305.5)"/></g><g id="Swoosh"><path class="cls-21" d="M1034.7,444.4c11.5-4.6-39.1,71,49.9,56.8,28.3-4.5,192.6-21.9,192.6-21.9s-15.2,27.7-34.1,34.6c-44,16.2-178.1,31.9-224.6,31.9C984.3,545.8,929,487,1034.7,444.4Z" transform="translate(-460.5 -305.5)"/></g><g id="Heelcup"><path class="cls-22" d="M1246.9,495.5l109.3,134.2a556.7,556.7,0,0,0,55.7,1.7l-127-155.8C1270.6,482.3,1257.9,489,1246.9,495.5Z" transform="translate(-460.5 -305.5)"/><path class="cls-22" d="M1320,460.2l132.8,163.1c3.6-5.3,6.2-16.6,7.7-31.3l-109-143.8Q1334.9,454.2,1320,460.2Z" transform="translate(-460.5 -305.5)"/><path class="cls-22" d="M1180.7,558.9c0,31.2,50.9,51.1,108.7,62l-80.8-99.2C1188.8,538.2,1180.7,551.4,1180.7,558.9Z" transform="translate(-460.5 -305.5)"/><path class="cls-22" d="M1456.4,488.8,1411.1,429c-7.8,2.2-15.4,4.5-22.7,6.9l72.8,96.1A370.6,370.6,0,0,0,1456.4,488.8Z" transform="translate(-460.5 -305.5)"/><path class="cls-23" d="M1208.6,521.7l80.8,99.2a627.4,627.4,0,0,0,66.8,8.8L1246.9,495.5A300.5,300.5,0,0,0,1208.6,521.7Z" transform="translate(-460.5 -305.5)"/><path class="cls-23" d="M1284.9,475.6l127,155.8c21-.5,35.9-2.8,39.6-6.4a7.6,7.6,0,0,0,1.3-1.7L1320,460.2C1307.3,465.4,1295.6,470.5,1284.9,475.6Z" transform="translate(-460.5 -305.5)"/><path class="cls-23" d="M1461.2,532l-72.8-96.1q-19.5,6.2-36.9,12.3l109,143.8C1462.2,575.1,1462.5,553.7,1461.2,532Z" transform="translate(-460.5 -305.5)"/><path class="cls-23" d="M1418.5,426.8l-7.4,2.2,45.3,59.8C1449.9,450.9,1437.6,421.4,1418.5,426.8Z" transform="translate(-460.5 -305.5)"/></g><g id="Dots"><path class="cls-24" d="M958.9,580.9c-2.6-7.1,444.3-40,466.3-38.5,11.6.8,35.2,20.6,35.2,36,0,18.3-1.2,43.9-4.1,48.3-13.1,19.6-469.9,16.1-478.7,16.1C977.6,642.8,968.7,607.4,958.9,580.9Z" transform="translate(-460.5 -305.5)"/></g><g id="Mid_sole" data-name="Mid sole"><path class="cls-25" d="M1460.2,689.7c.1,2.6.1,5,.1,7.2,0,15.4-37.7,29-52.8,31.5-150.8,25.6-458.3,18-611.3,17.7-157.5-.4-256-32.5-322.3-101.2-4.6-4.7,39.4,15.6,64.3,20.1,61.6,11.1,158.5,11.2,284.4,10.6,72.3-.4,230-58.7,309.7-58.7,61.5,0,185.4-23.5,245.8-11.7,14.2,2.7,38,21.9,52.1,24.9,10.3,2.2,27.9-7.4,27.9-1.5s.2,10.9.4,17.1c0,1.2-1.5,1.3-2.5,2.7l-1.3-.2L1337,654.1l-126.8,4.8L1090,663.5l-99.1-1.7a4.4,4.4,0,0,0-4.4,4.4,4.5,4.5,0,0,0,4.4,4.5h103.2l116.1-2.9,127.5-4.8,117-5.9a4.1,4.1,0,0,0,2.4-.8c1,1.4,1.9,2.6,2,4.2.2,5.5.4,9.8.7,15.1a10.6,10.6,0,0,1-1.3,3.6,4.4,4.4,0,0,0-2.5-.8l-126.3,3.2a4.8,4.8,0,0,0-3.1,1.2,4.4,4.4,0,0,0-1.3,3.2c0,2.4,2,4.4,4.4,5.1l126.3-3.1a8.1,8.1,0,0,0,2.7-1.6A6.7,6.7,0,0,1,1460.2,689.7Z" transform="translate(-460.5 -305.5)"/><path class="cls-25" d="M1458.7,686.3a8.1,8.1,0,0,1-2.7,1.6L1329.7,691c-2.4-.7-4.4-2.7-4.4-5.1a4.4,4.4,0,0,1,1.3-3.2,4.8,4.8,0,0,1,3.1-1.2l126.3-3.2a4.4,4.4,0,0,1,2.5.8,9.2,9.2,0,0,0-1.4,3.6A9.5,9.5,0,0,0,1458.7,686.3Z" transform="translate(-460.5 -305.5)"/><path class="cls-26" d="M1457.1,656.2a3.6,3.6,0,0,1-2.3.8l-112,5.9L1220.6,667l-115.1,3.1-115.8.6a4.4,4.4,0,0,1-4.2-4.5,4.8,4.8,0,0,1,1.2-3.1,4.2,4.2,0,0,1,3-1.3l115.8-.5,115.1-3.1,121.5-4.1,112.7-5.9,1.3.2a5.8,5.8,0,0,0-.7,3A8.6,8.6,0,0,0,1457.1,656.2Z" transform="translate(-460.5 -305.5)"/><path class="cls-26" d="M824.6,678.3s5.9,14.4,10.1,17.1c2.2,1.5,10.6,1.5,9.9-3.7s-6.6-14.5-6.6-14.5l-13.4,1.1h0" transform="translate(-460.5 -305.5)"/><path class="cls-26" d="M850,674.5s6,14.4,10.1,17.1c2.2,1.5,10.7,1.5,9.9-3.7s-6.5-14.5-6.5-14.5L850,674.5h0" transform="translate(-460.5 -305.5)"/><rect class="cls-26" x="440.6" y="393.3" width="168.8" height="8.81" rx="4.4" ry="4.4"/><path class="cls-25" d="M1302.9,696.9c.2,10.1-7.4,18.5-16.8,18.6l-171.2,3.1c-9.5.2-17.3-7.9-17.5-18s7.4-18.5,16.8-18.7l171.2-3.1C1294.9,678.7,1302.7,686.7,1302.9,696.9Z" transform="translate(-460.5 -305.5)"/><path class="cls-27" d="M1295.3,695a16.4,16.4,0,0,1-16.2,16.6l-164.9,2.9a16.3,16.3,0,1,1-.6-32.6l164.9-2.9A16.4,16.4,0,0,1,1295.3,695Z" transform="translate(-460.5 -305.5)"/></g><g id="Toe_Guard" data-name="Toe Guard"><path class="cls-28" d="M521.4,566.5l-57.7,59.2c3.3,14.5,12.4,25,30.9,31.8L578,571.9C550.9,571.2,533.2,569.1,521.4,566.5Z" transform="translate(-460.5 -305.5)"/><path class="cls-28" d="M895.9,563.2,782.4,679.7c14.2-.2,28.4-.6,42.2-1.4,6.8-.3,14.6-1.1,23.2-2.2l96.3-98.8C929.8,573.9,912.8,568.5,895.9,563.2Z" transform="translate(-460.5 -305.5)"/><path class="cls-28" d="M830.1,547c-30.9,0-29,63.6-56.2,63.6-13.1,0-19.9-6.6-34-14.4l-77.8,79.9c18.8.9,38.8,1.9,59.3,2.6L847.5,549.4A86.1,86.1,0,0,0,830.1,547Z" transform="translate(-460.5 -305.5)"/><path class="cls-28" d="M638.6,573.2,547.2,667c14.4,2.2,17.4,4.3,55.6,6.4l91.1-93.5C679.5,576.9,661.5,574.5,638.6,573.2Z" transform="translate(-460.5 -305.5)"/><path class="cls-28" d="M977.6,642.8c0-11.2-2.9-28.2-7.4-41.6l-59.7,61.2C947.1,654.5,977.6,645.9,977.6,642.8Z" transform="translate(-460.5 -305.5)"/><path class="cls-18" d="M490.6,553.4c-6.9,0-28.6,12.4-28.6,56.4a65.7,65.7,0,0,0,1.7,15.9l57.7-59.2C495.6,561,497.7,553.4,490.6,553.4Z" transform="translate(-460.5 -305.5)"/><path class="cls-18" d="M600,572.2c-8,0-15.3-.1-22-.3l-83.4,85.6c10.2,3.8,23.4,6.5,40.1,8,5.1.5,9.1,1,12.5,1.5l91.4-93.8C627.1,572.6,614.2,572.2,600,572.2Z" transform="translate(-460.5 -305.5)"/><path class="cls-18" d="M693.9,579.9l-91.1,93.5,25.1,1.2,34.2,1.5,77.8-79.9C729.9,590.7,716.2,584.6,693.9,579.9Z" transform="translate(-460.5 -305.5)"/><path class="cls-18" d="M847.5,549.4,721.4,678.7c20.1.7,40.6,1.1,61,1L895.9,563.2C878.5,557.7,861.2,552.3,847.5,549.4Z" transform="translate(-460.5 -305.5)"/><path class="cls-18" d="M955.2,580.5c-6,0-1.9-1-11.1-3.2l-96.3,98.8c22.7-2.9,38.1-8.4,62.7-13.7l59.7-61.2C966.2,589.5,960.9,580.5,955.2,580.5Z" transform="translate(-460.5 -305.5)"/></g><g id="Laces"><path class="cls-29" d="M734.3,492.7c4.3,8.1,33.2,17.4,34.3,4.6.9-10.2,3.1-27.7-5.1-24.2C757.6,475.6,730.6,485.5,734.3,492.7Z" transform="translate(-460.5 -305.5)"/><path class="cls-29" d="M775.3,469.5c-3.4,3.2,23.1,24.8,30.1,22.1,9.5-3.7,13.7-13.9,14.9-19.6s-7-9.8-10.9-10.8C802.5,459.5,780.2,465,775.3,469.5Z" transform="translate(-460.5 -305.5)"/><path class="cls-29" d="M820.8,455c-4,5.4,25.3,22.4,35.6,15.4S849,442,845.7,441.8,828.6,444.3,820.8,455Z" transform="translate(-460.5 -305.5)"/><path class="cls-29" d="M859.2,439.3c-4.5,6,28.9,17.7,43.1,15.4s-12.5-24-18.5-25.9S863.1,434.3,859.2,439.3Z" transform="translate(-460.5 -305.5)"/><path class="cls-29" d="M899.4,422.7c-2.3,4.9,23.7,31.3,34.9,28.2s1.7-40.7-9.2-42.1C920,408.1,903.3,414.3,899.4,422.7Z" transform="translate(-460.5 -305.5)"/></g></svg>