<svg id="Illustration" xmlns="http://www.w3.org/2000/svg" xmlns:xlink="http://www.w3.org/1999/xlink" width="1003" height="381.6" viewBox="0 0 1003 381.6"><defs><style>.cls-1,.cls-11,.cls-12,.cls-13,.cls-15,.cls-16,.cls-6{fill:none;}.cls-2,.cls-4{fill:#ede6e1;}.cls-2{stroke:#ccc;}.cls-11,.cls-12,.cls-13,.cls-14,.cls-15,.cls-16,.cls-17,.cls-18,.cls-19,.cls-2,.cls-3,.cls-4,.cls-5,.cls-6{stroke-miterlimit:10;}.cls-3{fill:#7e786b;}.cls-14,.cls-15,.cls-16,.cls-17,.cls-18,.cls-19,.cls-3,.cls-4,.cls-5{stroke:#000;}.cls-14,.cls-16,.cls-17,.cls-18,.cls-19,.cls-3,.cls-4,.cls-5{stroke-width:3px;}.cls-5{fill:#16171b;}.cls-11,.cls-12,.cls-13,.cls-6{stroke:#fff;}.cls-7{fill:#dc0006;}.cls-8{fill:#fff9fa;}.cls-9{fill:#373842;}.cls-10{fill:#f9fbfa;}.cls-11{stroke-dasharray:6.02 6.02;}.cls-12{stroke-dasharray:6.01 6.01;}.cls-13{stroke-dasharray:6;}.cls-14,.cls-20{fill:#f4f2ee;}.cls-15{stroke-width:0.75px;}.cls-17{fill:#f5f4f7;}.cls-18{fill:url(#New_Pattern);}.cls-19{fill:#a7a9ac;}</style><pattern id="New_Pattern" data-name="New Pattern" width="80" height="60" patternTransform="translate(68.3 82.2) scale(0.67)" patternUnits="userSpaceOnUse" viewBox="0 0 80 60"><rect class="cls-1" width="80" height="60"/><rect class="cls-2" x="80" y="59.6" width="80" height="60.4"/><polygon class="cls-2" points="85 57.1 75 62.1 85 67.1 95 62.1 85 57.1"/><rect class="cls-2" y="59.6" width="80" height="60.4"/><polygon class="cls-2" points="35 52.1 25 57.1 35 62.1 45 57.1 35 52.1"/><polygon class="cls-2" points="25 57.1 15 62.1 25 67.1 35 62.1 25 57.1"/><polygon class="cls-2" points="15 52.1 5 57.1 15 62.1 25 57.1 15 52.1"/><polygon class="cls-2" points="76 52.1 66 57.1 76 62.1 86 57.1 76 52.1"/><polygon class="cls-2" points="65 57.1 55 62.1 65 67.1 75 62.1 65 57.1"/><polygon class="cls-2" points="56 52.1 46 57.1 56 62.1 66 57.1 56 52.1"/><polygon class="cls-2" points="5 57.1 -5 62.1 5 67.1 15 62.1 5 57.1"/><polygon class="cls-2" points="86 57.1 76 62.1 86 67.1 96 62.1 86 57.1"/><rect class="cls-2" x="-80" y="59.6" width="80" height="60.4"/><polygon class="cls-2" points="-4 52.1 -14 57.1 -4 62.1 6 57.1 -4 52.1"/><polygon class="cls-2" points="6 57.1 -4 62.1 6 67.1 16 62.1 6 57.1"/><rect class="cls-2" x="80" y="-0.4" width="80" height="60.4"/><polygon class="cls-2" points="85 7.1 75 12.1 85 17.1 95 12.1 85 7.1"/><polygon class="cls-2" points="85 17.1 75 22.1 85 27.1 95 22.1 85 17.1"/><polygon class="cls-2" points="85 27.1 75 32.1 85 37.1 95 32.1 85 27.1"/><polygon class="cls-2" points="75 12.1 65 17.1 75 22.1 85 17.1 75 12.1"/><polygon class="cls-2" points="75 22.1 65 27.1 75 32.1 85 27.1 75 22.1"/><polygon class="cls-2" points="75 32.1 65 37.1 75 42.1 85 37.1 75 32.1"/><polygon class="cls-2" points="85 37.1 75 42.1 85 47.1 95 42.1 85 37.1"/><polygon class="cls-2" points="85 47.1 75 52.1 85 57.1 95 52.1 85 47.1"/><polygon class="cls-2" points="85 57.1 75 62.1 85 67.1 95 62.1 85 57.1"/><polygon class="cls-2" points="75 42.1 65 47.1 75 52.1 85 47.1 75 42.1"/><polygon class="cls-2" points="75 52.1 65 57.1 75 62.1 85 57.1 75 52.1"/><polygon class="cls-2" points="85 -2.9 75 2.1 85 7.1 95 2.1 85 -2.9"/><polygon class="cls-2" points="75 2.1 65 7.1 75 12.1 85 7.1 75 2.1"/><rect class="cls-2" y="-0.4" width="80" height="60.4"/><polygon class="cls-2" points="55 12.1 45 17.1 55 22.1 65 17.1 55 12.1"/><polygon class="cls-2" points="55 22.1 45 27.1 55 32.1 65 27.1 55 22.1"/><polygon class="cls-2" points="55 32.1 45 37.1 55 42.1 65 37.1 55 32.1"/><polygon class="cls-2" points="45 7.1 35 12.1 45 17.1 55 12.1 45 7.1"/><polygon class="cls-2" points="45 17.1 35 22.1 45 27.1 55 22.1 45 17.1"/><polygon class="cls-2" points="45 27.1 35 32.1 45 37.1 55 32.1 45 27.1"/><polygon class="cls-2" points="35 12.1 25 17.1 35 22.1 45 17.1 35 12.1"/><polygon class="cls-2" points="35 22.1 25 27.1 35 32.1 45 27.1 35 22.1"/><polygon class="cls-2" points="35 32.1 25 37.1 35 42.1 45 37.1 35 32.1"/><polygon class="cls-2" points="15 12.1 5 17.1 15 22.1 25 17.1 15 12.1"/><polygon class="cls-2" points="15 22.1 5 27.1 15 32.1 25 27.1 15 22.1"/><polygon class="cls-2" points="15 32.1 5 37.1 15 42.1 25 37.1 15 32.1"/><polygon class="cls-2" points="5 7.1 -5 12.1 5 17.1 15 12.1 5 7.1"/><polygon class="cls-2" points="5 17.1 -5 22.1 5 27.1 15 22.1 5 17.1"/><polygon class="cls-2" points="5 27.1 -5 32.1 5 37.1 15 32.1 5 27.1"/><polygon class="cls-2" points="-5 12.1 -15 17.1 -5 22.1 5 17.1 -5 12.1"/><polygon class="cls-2" points="-5 22.1 -15 27.1 -5 32.1 5 27.1 -5 22.1"/><polygon class="cls-2" points="-5 32.1 -15 37.1 -5 42.1 5 37.1 -5 32.1"/><polygon class="cls-2" points="35 -7.9 25 -2.9 35 2.1 45 -2.9 35 -7.9"/><polygon class="cls-2" points="35 2.1 25 7.1 35 12.1 45 7.1 35 2.1"/><polygon class="cls-2" points="25 -2.9 15 2.1 25 7.1 35 2.1 25 -2.9"/><polygon class="cls-2" points="15 -7.9 5 -2.9 15 2.1 25 -2.9 15 -7.9"/><polygon class="cls-2" points="15 2.1 5 7.1 15 12.1 25 7.1 15 2.1"/><polygon class="cls-2" points="76 -7.9 66 -2.9 76 2.1 86 -2.9 76 -7.9"/><polygon class="cls-2" points="75 2.1 65 7.1 75 12.1 85 7.1 75 2.1"/><polygon class="cls-2" points="65 -2.9 55 2.1 65 7.1 75 2.1 65 -2.9"/><polygon class="cls-2" points="56 -7.9 46 -2.9 56 2.1 66 -2.9 56 -7.9"/><polygon class="cls-2" points="55 2.1 45 7.1 55 12.1 65 7.1 55 2.1"/><polygon class="cls-2" points="55 42.1 45 47.1 55 52.1 65 47.1 55 42.1"/><polygon class="cls-2" points="55 52.1 45 57.1 55 62.1 65 57.1 55 52.1"/><polygon class="cls-2" points="45 37.1 35 42.1 45 47.1 55 42.1 45 37.1"/><polygon class="cls-2" points="45 47.1 35 52.1 45 57.1 55 52.1 45 47.1"/><polygon class="cls-2" points="45 57.1 35 62.1 45 67.1 55 62.1 45 57.1"/><polygon class="cls-2" points="35 42.1 25 47.1 35 52.1 45 47.1 35 42.1"/><polygon class="cls-2" points="35 52.1 25 57.1 35 62.1 45 57.1 35 52.1"/><polygon class="cls-2" points="15 42.1 5 47.1 15 52.1 25 47.1 15 42.1"/><polygon class="cls-2" points="15 52.1 5 57.1 15 62.1 25 57.1 15 52.1"/><polygon class="cls-2" points="5 37.1 -5 42.1 5 47.1 15 42.1 5 37.1"/><polygon class="cls-2" points="5 47.1 -5 52.1 5 57.1 15 52.1 5 47.1"/><polygon class="cls-2" points="5 57.1 -5 62.1 5 67.1 15 62.1 5 57.1"/><polygon class="cls-2" points="-5 42.1 -15 47.1 -5 52.1 5 47.1 -5 42.1"/><polygon class="cls-2" points="-5 52.1 -15 57.1 -5 62.1 5 57.1 -5 52.1"/><polygon class="cls-2" points="75 42.1 65 47.1 75 52.1 85 47.1 75 42.1"/><polygon class="cls-2" points="75 52.1 65 57.1 75 62.1 85 57.1 75 52.1"/><polygon class="cls-2" points="65 37.1 55 42.1 65 47.1 75 42.1 65 37.1"/><polygon class="cls-2" points="65 47.1 55 52.1 65 57.1 75 52.1 65 47.1"/><polygon class="cls-2" points="65 57.1 55 62.1 65 67.1 75 62.1 65 57.1"/><polygon class="cls-2" points="55 42.1 45 47.1 55 52.1 65 47.1 55 42.1"/><polygon class="cls-2" points="55 52.1 45 57.1 55 62.1 65 57.1 55 52.1"/><polygon class="cls-2" points="5 -2.9 -5 2.1 5 7.1 15 2.1 5 -2.9"/><polygon class="cls-2" points="-5 2.1 -15 7.1 -5 12.1 5 7.1 -5 2.1"/><polygon class="cls-2" points="65 7.1 55 12.1 65 17.1 75 12.1 65 7.1"/><polygon class="cls-2" points="65 17.1 55 22.1 65 27.1 75 22.1 65 17.1"/><polygon class="cls-2" points="65 27.1 55 32.1 65 37.1 75 32.1 65 27.1"/><polygon class="cls-2" points="25 57.1 15 62.1 25 67.1 35 62.1 25 57.1"/><polygon class="cls-2" points="75 32.1 65 37.1 75 42.1 85 37.1 75 32.1"/><polygon class="cls-2" points="85 37.1 75 42.1 85 47.1 95 42.1 85 37.1"/><polygon class="cls-2" points="85 47.1 75 52.1 85 57.1 95 52.1 85 47.1"/><polygon class="cls-2" points="75 22.1 65 27.1 75 32.1 85 27.1 75 22.1"/><polygon class="cls-2" points="75 12.1 65 17.1 75 22.1 85 17.1 75 12.1"/><polygon class="cls-2" points="85 7.1 75 12.1 85 17.1 95 12.1 85 7.1"/><polygon class="cls-2" points="86 -2.9 76 2.1 86 7.1 96 2.1 86 -2.9"/><polygon class="cls-2" points="85 17.1 75 22.1 85 27.1 95 22.1 85 17.1"/><polygon class="cls-2" points="85 27.1 75 32.1 85 37.1 95 32.1 85 27.1"/><rect class="cls-2" x="-80" y="-0.4" width="80" height="60.4"/><polygon class="cls-2" points="-4 -7.9 -14 -2.9 -4 2.1 6 -2.9 -4 -7.9"/><polygon class="cls-2" points="-5 2.1 -15 7.1 -5 12.1 5 7.1 -5 2.1"/><polygon class="cls-2" points="-5 42.1 -15 47.1 -5 52.1 5 47.1 -5 42.1"/><polygon class="cls-2" points="-5 52.1 -15 57.1 -5 62.1 5 57.1 -5 52.1"/><polygon class="cls-2" points="-5 32.1 -15 37.1 -5 42.1 5 37.1 -5 32.1"/><polygon class="cls-2" points="5 37.1 -5 42.1 5 47.1 15 42.1 5 37.1"/><polygon class="cls-2" points="5 47.1 -5 52.1 5 57.1 15 52.1 5 47.1"/><polygon class="cls-2" points="-5 22.1 -15 27.1 -5 32.1 5 27.1 -5 22.1"/><polygon class="cls-2" points="-5 12.1 -15 17.1 -5 22.1 5 17.1 -5 12.1"/><polygon class="cls-2" points="5 7.1 -5 12.1 5 17.1 15 12.1 5 7.1"/><polygon class="cls-2" points="6 -2.9 -4 2.1 6 7.1 16 2.1 6 -2.9"/><polygon class="cls-2" points="5 17.1 -5 22.1 5 27.1 15 22.1 5 17.1"/><polygon class="cls-2" points="5 27.1 -5 32.1 5 37.1 15 32.1 5 27.1"/><rect class="cls-2" x="80" y="-60.4" width="80" height="60.4"/><polygon class="cls-2" points="85 -2.9 75 2.1 85 7.1 95 2.1 85 -2.9"/><polygon class="cls-2" points="75 -7.9 65 -2.9 75 2.1 85 -2.9 75 -7.9"/><rect class="cls-2" y="-60.4" width="80" height="60.4"/><polygon class="cls-2" points="55 -7.9 45 -2.9 55 2.1 65 -2.9 55 -7.9"/><polygon class="cls-2" points="45 -2.9 35 2.1 45 7.1 55 2.1 45 -2.9"/><polygon class="cls-2" points="35 -7.9 25 -2.9 35 2.1 45 -2.9 35 -7.9"/><polygon class="cls-2" points="15 -7.9 5 -2.9 15 2.1 25 -2.9 15 -7.9"/><polygon class="cls-2" points="5 -2.9 -5 2.1 5 7.1 15 2.1 5 -2.9"/><polygon class="cls-2" points="-5 -7.9 -15 -2.9 -5 2.1 5 -2.9 -5 -7.9"/><polygon class="cls-2" points="75 -7.9 65 -2.9 75 2.1 85 -2.9 75 -7.9"/><polygon class="cls-2" points="65 -2.9 55 2.1 65 7.1 75 2.1 65 -2.9"/><polygon class="cls-2" points="55 -7.9 45 -2.9 55 2.1 65 -2.9 55 -7.9"/><polygon class="cls-2" points="25 -2.9 15 2.1 25 7.1 35 2.1 25 -2.9"/><rect class="cls-2" x="-80" y="-60.4" width="80" height="60.4"/><polygon class="cls-2" points="-5 -7.9 -15 -2.9 -5 2.1 5 -2.9 -5 -7.9"/></pattern></defs><title>CDG Converse Illustration</title><g id="Sock_Liner" data-name="Sock Liner"><path class="cls-3" d="M1383.7,556.2c-20.5,15.7-34.3,24.9-57.7,35.7-19,8.9-39.4,16.2-60.5,15.9s-42.8-5.7-60-17a180.8,180.8,0,0,1-29.6-24.9c-4.5-4.7-8.8-9.5-12.9-14.5-.8-.8-1.7-2.8-2.7-2.1s-1.1,4.6-1.3,5.5l-2.6,10.7c-.5,2-3.8,18.7-3,19.2,22.9,13.3,46,26.7,71.4,34.4,23.7,7.2,49.5,9.2,73.4,2.5,9.9-2.8,19.3-7,28.6-11.5s21.1-10.4,30.6-17.3C1371.9,582.2,1383.7,556.2,1383.7,556.2Z" transform="translate(-459.5 -463.5)"/></g><path id="Toe_Box" data-name="Toe Box" class="cls-4" d="M522.9,650.2s12.6-7.2,16-8.5c4.9-1.9,16.2-3,21.4-3.2,8.3-.2,20.6,1.9,28.8,3.2,6.1,1,18.4,3.1,24.5,4.3l20.3,4.2-31.5,31.2Z" transform="translate(-459.5 -463.5)"/><g id="Tongue"><path id="Tongue-2" data-name="Tongue" class="cls-5" d="M1062.4,502.4s107.2-40,109.9-37.3,10.1,71-9.6,109.9C1142,615.8,1062.4,502.4,1062.4,502.4Z" transform="translate(-459.5 -463.5)"/><line class="cls-6" x1="693.7" y1="93.9" x2="703.4" y2="107.4"/><path class="cls-6" d="M1155.7,551.9a39.4,39.4,0,0,1,6.3,6.5c2,2.6,3.4,6.2,4.4,8.3" transform="translate(-459.5 -463.5)"/><path class="cls-6" d="M1169.1,558.2a68.6,68.6,0,0,1-6.2-6,72.3,72.3,0,0,1-5.4-6.2" transform="translate(-459.5 -463.5)"/><path class="cls-6" d="M1158.9,539.6a59.8,59.8,0,0,0,5.7,5.4,71.3,71.3,0,0,0,6.5,4.8" transform="translate(-459.5 -463.5)"/><path class="cls-6" d="M1172.6,540.4s-8.9-7.8-12.8-6.2" transform="translate(-459.5 -463.5)"/><path class="cls-6" d="M1160.8,526.6s10.9,3.1,12.6,7" transform="translate(-459.5 -463.5)"/><path class="cls-6" d="M1151.4,559.5s-2.7,22.5,11.5,11.3c6.6-5.2,9.7-23.7,10.9-43.7-2.5-1.9-12.5-5.7-12.5-5.7C1159.8,538.7,1156.5,554.5,1151.4,559.5Z" transform="translate(-459.5 -463.5)"/><path class="cls-6" d="M1162.3,497.7c1.1-1.2,12.8,5.4,12,7" transform="translate(-459.5 -463.5)"/><path class="cls-6" d="M1162.3,492.7s8.7.5,12,1.7c-.4-13.7-1.5-24.3-2.7-26.9-2.8-6.5-11.4,2.1-11.4,2.1,2.3,10.7,2.7,33.2,1.1,51.8,0,0,10,3.8,12.5,5.7.2-2.8.3-5.7.4-8.5-2-3.1-12.5-2.7-12.5-2.7s10.5-.4,12.5,2.7c.1-1.2.1-2.3.1-3.5-1.7-2.5-12.2-6.8-12.2-6.8s10.5,4.3,12.2,6.8c.2-7.2.2-14.3,0-20.7C1171,493.2,1162.3,492.7,1162.3,492.7Zm-.1,10.8c2-1.2,12.1,4.3,12.1,4.3S1164.2,502.3,1162.2,503.5Z" transform="translate(-459.5 -463.5)"/><path class="cls-6" d="M1162,486.1s9.2-.6,12.1,2.8" transform="translate(-459.5 -463.5)"/><path class="cls-6" d="M1161.7,483.1s10-.8,12.1,1.7" transform="translate(-459.5 -463.5)"/><path class="cls-6" d="M1161.4,479s10.7-.6,12.2,2.7" transform="translate(-459.5 -463.5)"/><path class="cls-6" d="M1161,476.2s9.3-2.6,12.2,0" transform="translate(-459.5 -463.5)"/><path class="cls-6" d="M1160.7,474.1s7.3-6.6,12.2-.4" transform="translate(-459.5 -463.5)"/></g><g id="Upper"><path id="Canvas" class="cls-5" d="M596,676.4c-.3-7.4,9-16.2,15.3-19.3a321.6,321.6,0,0,1,36.5-15c25-8.7,50.7-15,76.2-22.1,99.1-27.5,194.7-66.2,289.8-105.4,27.2-11.2,58-22.5,85.1-11,30,12.7,42.6,47.4,63.9,71.9,27,31.2,70.3,46.3,111.3,42.1s79.2-26.2,106.2-57.4c5.9-6.8,14.7-14.7,22.4-10.1,2.3,1.4,3.9,3.7,5.4,6,31.6,49.5,51,108.6,47,167.2-140.5-.8-284.8,11.6-425.3,13.1S747.1,728.8,613,687.2c-5.5-1.7-11.3-3.7-14.8-8.2C596.4,676.7,596.1,678.4,596,676.4Z" transform="translate(-459.5 -463.5)"/><path id="Heart" class="cls-7" d="M982,717.7a10.5,10.5,0,0,1-3.6-4.2c-6.3-10.7-11.3-25.5-13.7-37.6-5.2-27.2,12.8-41.1,35.3-59.8,6.4-5.3,21.3-11.7,30.9-11.7,7.5,0,43.8,13.8,53.7,36.8,10.3-9.1,41.9-29.2,55.1-31.4s29.3,8.2,40.6,19.1,12.5,28.4,10.4,45.4c-2.9,22.9-8.5,30.9-14.7,45.3-.6,1.4.3,2.5-1,3.2a6.9,6.9,0,0,1-3.6.9L988,717.6Z" transform="translate(-459.5 -463.5)"/><g id="Left_Eye" data-name="Left Eye"><path class="cls-8" d="M1006.2,664.4c-.5,1.3,1.3,5.9,2.8,7.7a99.9,99.9,0,0,0,10.2,11.2,46.1,46.1,0,0,0,13.8,9.6c4.7,2,8.3,1.6,13.4,1.1l11.2-1.1a5.4,5.4,0,0,0,3.2-2.1c.3-.6-2.9-19.1-9.1-26.1a22.6,22.6,0,0,0-12.8-7.3,53.9,53.9,0,0,0-13.3.3C1021.1,658.3,1007.4,660.9,1006.2,664.4Z" transform="translate(-459.5 -463.5)"/><path class="cls-9" d="M1027.7,667.3c2.2-3.7,5.4-7.4,9.6-8.5,5.9-1.6,7.9.3,11.2,2.7s8,9,7.5,11.7-4.8,7.1-8,10.1-9.2,6.8-14.4,5.2-8.1-4.2-9.1-8.4S1025.6,670.8,1027.7,667.3Z" transform="translate(-459.5 -463.5)"/></g><g id="Right_Eye" data-name="Right Eye"><path class="cls-10" d="M1103.5,692.9c-1.4-2.7,9.8-35,31.7-36.9,5.6-.4,9.9-.4,15.2,1.7s16.8,6,17.8,8.9-5.9,13.8-10.3,18.9a33,33,0,0,1-10.7,8.5c-3,1.5-9.8,3.3-17.1,3.2C1119.9,697.1,1104.5,695.1,1103.5,692.9Z" transform="translate(-459.5 -463.5)"/><path class="cls-9" d="M1113.4,676.8a21.8,21.8,0,0,0,3,3.8l4.6,5a16.7,16.7,0,0,0,4.9,4.3c2,.9,4.9,2.2,6.9,1.4a13.2,13.2,0,0,0,4.3-2.1c3.7-3.2,6.8-7.7,9.6-11.7,4.4-6.6-1.1-13-2.1-13.9-3.2-2.9-7.5-7.5-10.7-7.5s-9.6,3.2-14.4,6.9a28.4,28.4,0,0,0-5.6,5.9,6.6,6.6,0,0,0-1.6,3.1,7.4,7.4,0,0,0,1,4.6C1113.3,676.7,1113.3,676.7,1113.4,676.8Z" transform="translate(-459.5 -463.5)"/></g></g><g id="Stitching"><path class="cls-6" d="M602.4,674.3l2.1-2.2" transform="translate(-459.5 -463.5)"/><path class="cls-11" d="M608.9,667.9a61.1,61.1,0,0,1,6.3-5.2,185.7,185.7,0,0,1,22.5-11.9c6-2.5,18.3-6.2,24.5-8.1,4.5-1.4,15.7-4.2,20.3-5.3,11.1-2.6,31.7-7.2,42.7-10.5s33.8-9.3,44.8-13.5c7.6-2.9,20.9-7.4,28.8-9.6,5.8-1.6,21.9-7,27.7-8.5,7.6-2,28.7-11.5,35.3-13.6,8.6-2.9,19.2-7.1,25.6-9.5s22.4-7.8,29.8-10.5,23.3-7.4,31-10.5l29.9-12.7c8.3-3.5,23.8-10.6,32-13.7s21.5-9.7,28.8-11.6a301.3,301.3,0,0,1,29.9-5.2,67.6,67.6,0,0,1,22.4,2.1c7.2,2.2,21.6,10.3,26.7,15.8s17.1,24.9,22.4,32.6,13.6,19.7,19.2,25.3c7.2,7.2,23.2,19.1,32,24.2s25.8,12.5,35.2,14.7c13.3,3.1,39.8,4.6,53.4,3.2,6.8-.7,21.1-2.8,27.7-5.3,8.9-3.3,25.3-12.6,33.1-17.9s26.1-18.1,35.2-24.2c5.5-3.6,19.6-13.4,27.1-18.7" transform="translate(-459.5 -463.5)"/><path class="cls-6" d="M1405.7,558.1l2.4-1.7" transform="translate(-459.5 -463.5)"/><path class="cls-6" d="M605.6,679.6l2.1-2.1" transform="translate(-459.5 -463.5)"/><path class="cls-12" d="M612.1,673.3a52.1,52.1,0,0,1,6.3-5.3,185.7,185.7,0,0,1,22.5-11.9c6-2.4,18.3-6.2,24.5-8.1,4.5-1.3,15.7-4.1,20.3-5.2,11.1-2.6,31.7-7.3,42.7-10.5s33.8-9.4,44.8-13.5c7.6-2.9,20.9-7.5,28.8-9.6,5.8-1.6,21.9-7.1,27.7-8.6,7.6-2,28.7-11.5,35.3-13.6,8.6-2.8,19.2-7.1,25.6-9.5s22.4-7.7,29.9-10.5,23.2-7.3,30.9-10.5l29.9-12.6c8.3-3.6,23.9-10.6,32-13.7s21.5-9.7,28.8-11.6a275.1,275.1,0,0,1,29.9-5.3c6.9-.6,16.8,2.5,22.4,4.2,7.2,2.2,21.6,18.9,26.7,24.4s17.1,22.7,22.4,30.5a189.8,189.8,0,0,0,19.2,23.1c7.2,7.2,23.2,17,32,22.1s25.8,8.2,35.2,10.4c13.3,3.2,39.8,4.6,53.4,3.2,6.8-.7,21.1-2.8,27.7-5.3,8.9-3.2,25.3-12.6,33.1-17.9s26.1-18.1,35.2-24.1c5.5-3.7,19.6-13.5,27.1-18.8" transform="translate(-459.5 -463.5)"/><path class="cls-6" d="M1408.9,563.4l2.4-1.7" transform="translate(-459.5 -463.5)"/><path class="cls-13" d="M643.5,648.1l5.4,9.6c1.4,2.6,4,7.8,5.3,10.7s2.5,8.1,3.2,10.7,1.1,11.7,1.1,11.7" transform="translate(-459.5 -463.5)"/><path class="cls-13" d="M652.1,646s4.2,10.5,6.4,14.9,5.3,9.4,6.4,12.8,2.1,12.8,2.1,17.1" transform="translate(-459.5 -463.5)"/><path class="cls-13" d="M643.5,526.5" transform="translate(-459.5 -463.5)"/><path class="cls-13" d="M646.7,687.6s9.7-4.7,12.8-6.4,12.7-7.6,17.1-9.6c14.2-6.5,29.7-8.7,44.8-11.7s32.8-7.6,49.1-11.8c24.1-6.1,39.8-8.5,64-13.9,8.2-1.6,33.5-8.6,41.7-10.2,16.2-3.3,23.4-6.4,39.3-11,40.1-11.6,69.4-19.5,108.9-33,7.5-2.5,25.7-9.4,33.2-11.9l38.4-11.8,27.7-6.4,11.8-3.2" transform="translate(-459.5 -463.5)"/><path class="cls-13" d="M653.1,694s9.7-4.7,12.8-6.4S678.6,680,683,678c14.2-6.5,29.7-8.7,44.8-11.7s32.8-7.6,49.1-11.8c24.1-6.1,39.8-8.5,64-13.9,8.2-1.6,33.5-8.6,41.7-10.2,16.2-3.3,23.4-6.4,39.3-11,40.1-11.6,69.4-19.5,108.9-33,7.5-2.5,25.7-9.4,33.2-11.9l38.4-11.8,27.8-6.4,13.8-2.1" transform="translate(-459.5 -463.5)"/><path class="cls-13" d="M901.8,718.5c-.9-4.4-1.7-9-2.6-13.4s-2.1-5.6-4.6-9c-3.8-5-6.8-8.2-12.1-11.4a66.5,66.5,0,0,0-16.5-7.5c-8.7-2.4-17.6-4.9-26.6-5.6-11.6-1-23.2,0-34.7,0L762,674.8c-21.4,1.3-42.7,5.2-64.1,7.5l-28.5,4.3L653,690.1" transform="translate(-459.5 -463.5)"/><path class="cls-13" d="M895.4,725c-.9-4.5-1.7-9-2.6-13.5s-2.1-5.6-4.6-9c-3.8-5-6.8-8.2-12.1-11.4s-8.5-5.9-14.4-7.5c-8.7-2.4-19.7-2.8-28.7-3.5-11.6-.9-23.2,0-34.7,0l-42.7,3.2c-21.4,1.4-42.7,3.1-64.1,5.4l-26.4,2.1-14.3,3.6" transform="translate(-459.5 -463.5)"/></g><g id="Layer_10" data-name="Layer 10"><path class="cls-14" d="M1447.2,718.9c3.2,0,6.3,2.1,9.5,2.1,1.9-42.6-7.7-92.1-27.5-129.9-6.3-12-23.3-45.6-31.7-41.3-6.9,3.4,19.6,37.4,26.5,49.7,8.3,14.8,16.5,39.6,20.9,64.9,3,18,2.3,38.4,1.9,56.7C1446.9,721.1,1447.1,718.9,1447.2,718.9Z" transform="translate(-459.5 -463.5)"/></g><g id="Mid_Sole" data-name="Mid Sole"><path class="cls-4" d="M1455.6,717.5c4-5.2,5.8,105.5.3,109.6-18.4,13.5-221,11.1-341.5,14.5-100.8,2.9-299,5.8-421.4-18.2-138.7-27.2-221.6-70.6-227.8-85.8s33.2-91.4,51.3-91.6c12.2-.2,21.4,6.6,33.1,10.4,57.2,18.4,115.2,35.5,174,46.1,10,1.8,97.6,10.1,107.7,10.7,88.6,5.3,230,4.9,326.6,4.3C1296.9,716.6,1451.7,722.6,1455.6,717.5Z" transform="translate(-459.5 -463.5)"/><path class="cls-4" d="M1448.2,741.2c-1.8,3.7-1.9,63.2,1.9,67.7,1.6,1.9,8.2,1.4,9.3-.8,2.8-6,1.5-64.4-.8-67.6S1449.2,739.3,1448.2,741.2Z" transform="translate(-459.5 -463.5)"/><path class="cls-15" d="M491.5,661.2" transform="translate(-459.5 -463.5)"/><path class="cls-16" d="M773.6,773s60.3,8.4,80.5,10.5c16.4,1.7,49.3,3.8,65.8,4,24.5.4,73.5-.9,98-1.6,20.2-.5,60.6-.6,80.8-.8s65.1-.4,86.3,0c57.3,1.2,115.3.1,173.6-4.8,22.4-1.9,89.6-5.6,89.6-5.6" transform="translate(-459.5 -463.5)"/><path class="cls-16" d="M773.6,739s58.4,9.8,104,12.5c22.8,1.4,90.7,5.7,121,5.7,33.3,0,133.3-.8,133.3-.8l128.5-1.6s98.5-2.1,131.3-3.3c13.9-.5,42.1-2.5,56.5-3.4" transform="translate(-459.5 -463.5)"/><path class="cls-17" d="M810.7,742.6" transform="translate(-459.5 -463.5)"/><path class="cls-18" d="M773.6,739c5.7.2-1.1,93.7-9.4,94.8-47.7,6.4-306.9-60.7-303.2-100.3,1.8-19.1,23.9-77.8,35.3-69.4C546.7,701.4,763.5,738.6,773.6,739Z" transform="translate(-459.5 -463.5)"/></g><g id="Laces"><path class="cls-19" d="M684.7,653.7a3.5,3.5,0,0,0,1.2,3c1.3,1.5,3.4,2.1,5.4,2.5a39.7,39.7,0,0,0,27.6-4.6,11.4,11.4,0,0,0,3.9-3.3,5.1,5.1,0,0,0,.8-4.9c-1.1-2.8-4.8-3.4-7.9-3.3S685.7,646.9,684.7,653.7Z" transform="translate(-459.5 -463.5)"/><path class="cls-14" d="M714,650.2c2.7-11.3,5.3-19.4,10.3-25.1,1.7-1.9,11.5-8.1,11.5-8.1s-25.4-5.1-38.1,6c-9.8,8.7-6.1,30.8-3.4,31.5S712.8,655.1,714,650.2Z" transform="translate(-459.5 -463.5)"/><path class="cls-19" d="M747.1,637.4c-.7,5.6,7.2,8.5,11.8,8.5a29.5,29.5,0,0,0,19.1-6.7c7.9-6.5,5.6-16.7-5.6-15.5a52.1,52.1,0,0,0-17.6,5.8c-2.5,1.3-5.8,3.2-7.1,5.8A11.5,11.5,0,0,0,747.1,637.4Z" transform="translate(-459.5 -463.5)"/><path class="cls-14" d="M750.2,633.4c2.6,3.3,7.5,9.4,16,6.2,3.1-1.2,9.6-5.4,9.6-11.2s-11.9-19.5-19.2-21.2-30.9,8.1-30.9,8.1,11.9,2.6,13.9,4C743.8,622.4,747.5,629.9,750.2,633.4Z" transform="translate(-459.5 -463.5)"/><path class="cls-19" d="M810.4,616.8c-.9,2.2-.3,4.7,2.4,7.1s6.2,2.9,9.6,2.9a32.8,32.8,0,0,0,23.5-10.4c2.5-2.7,4.6-6.5,3.3-10s-3.3-3.9-5.8-4.5a19,19,0,0,0-7.5.4C830.8,603.4,813.2,609.4,810.4,616.8Z" transform="translate(-459.5 -463.5)"/><path class="cls-14" d="M815.3,615.3l1.1,1.2a12.1,12.1,0,0,0,4.9,3.8c2.6.9,5.5.2,8.1-.6s5.4-1.8,7.6-3.6,3.9-4.4,3.7-7.2a13.7,13.7,0,0,0-2-5.2,102.1,102.1,0,0,0-10.2-14.2c-1.7-2-3.6-4.1-6.1-5.2s-7.5-1.5-11.1-.3-7,2.8-9.4,5.1-.5,6.1.9,8.5A99.3,99.3,0,0,0,815.3,615.3Z" transform="translate(-459.5 -463.5)"/><path class="cls-19" d="M871.3,596.6a11.7,11.7,0,0,0,1.7,5.8c2.5,4.5,7.4,7.2,12.5,7.7a23.8,23.8,0,0,0,14.5-3.6c4.8-2.9,9-7.5,9.6-13.1s-2.6-10.7-7.2-13.5a18.9,18.9,0,0,0-15.6-1.4C879.3,581,871.1,588.5,871.3,596.6Z" transform="translate(-459.5 -463.5)"/><path class="cls-14" d="M879,595.9l1.1,1.6a11.3,11.3,0,0,0,3.6,3.6c2.5,1.2,5.5.3,8.1-.8a18.5,18.5,0,0,0,5.8-3.7,10,10,0,0,0,3.1-6.4,14.2,14.2,0,0,0-1.7-6.4,88.7,88.7,0,0,0-11.3-18.7,9.7,9.7,0,0,0-3.9-3.4,8.6,8.6,0,0,0-5.9.2,30.8,30.8,0,0,0-9.8,5.2c-3,2.5-1,7.4.3,10.3A116.6,116.6,0,0,0,879,595.9Z" transform="translate(-459.5 -463.5)"/><path class="cls-19" d="M933.4,580.4a13.4,13.4,0,0,0,2.2,4.7c3.2,4.3,8.9,6.3,14.2,5.6a22.5,22.5,0,0,0,13.7-7.4c3-3.3,5.4-7.4,5.2-11.9s-3.7-9.2-8.1-11.1a17.6,17.6,0,0,0-14.2.4C939.4,563.9,931.9,572.4,933.4,580.4Z" transform="translate(-459.5 -463.5)"/><path class="cls-14" d="M941.2,579.3c7.5,7,24.4-2,17.6-14.8-3.8-7-20.4-22.5-26.1-23.1-3.2-.4-15.5,6.3-15.9,11.3C916.2,560.5,934.9,573.4,941.2,579.3Z" transform="translate(-459.5 -463.5)"/><path class="cls-19" d="M997.6,559a10.3,10.3,0,0,0,1.6,4.3c2.6,4,7.5,6.2,12.3,6.2a22.1,22.1,0,0,0,13.2-4.9,21.8,21.8,0,0,0,6.5-7.7,13.9,13.9,0,0,0,1.1-9.8,13.7,13.7,0,0,0-9.6-9.1,18.8,18.8,0,0,0-13.3,2C1003.3,543.4,996.5,551.5,997.6,559Z" transform="translate(-459.5 -463.5)"/><path class="cls-14" d="M1010.6,560.6c2.9,1.5,12.5-1.3,13.9-9.6s-18.1-27.7-24.5-34.1-26.4,5.6-21.4,10.6S1002.1,556.3,1010.6,560.6Z" transform="translate(-459.5 -463.5)"/><path class="cls-19" d="M1059.9,523.3a10.5,10.5,0,0,0-2,4.1c-1.1,4.7.7,9.7,4,13.2a22,22,0,0,0,12.7,6.1,21.1,21.1,0,0,0,10-.5,14.5,14.5,0,0,0,7.9-6,13.8,13.8,0,0,0-.1-13.2,18.4,18.4,0,0,0-10.6-8.3C1075.1,516.6,1064.5,517.3,1059.9,523.3Z" transform="translate(-459.5 -463.5)"/><ellipse cx="1074.7" cy="532.9" rx="5.3" ry="8.5" transform="translate(-293.4 852.6) rotate(-67.1)"/><path class="cls-20" d="M1388.5,556.6" transform="translate(-459.5 -463.5)"/></g></svg>