<svg id="Illustration" xmlns="http://www.w3.org/2000/svg" xmlns:xlink="http://www.w3.org/1999/xlink" width="1003" height="384.7" viewBox="0 0 1003 384.7"><defs><style>.cls-1,.cls-12,.cls-13,.cls-16,.cls-17,.cls-3{fill:none;}.cls-2{fill:#fff;stroke:#ccc;}.cls-10,.cls-11,.cls-12,.cls-13,.cls-14,.cls-15,.cls-16,.cls-17,.cls-18,.cls-2,.cls-3,.cls-5,.cls-6,.cls-7,.cls-8,.cls-9{stroke-miterlimit:10;}.cls-3{stroke:#145484;}.cls-12,.cls-13,.cls-3{stroke-width:2px;}.cls-4,.cls-9{fill:#1a77bc;}.cls-5{fill:#d40010;}.cls-10,.cls-11,.cls-14,.cls-15,.cls-16,.cls-17,.cls-18,.cls-5,.cls-6,.cls-7,.cls-8,.cls-9{stroke:#000;}.cls-10,.cls-11,.cls-14,.cls-15,.cls-17,.cls-18,.cls-5,.cls-6,.cls-7,.cls-8,.cls-9{stroke-width:3px;}.cls-6{fill:#b8b0b0;}.cls-7{fill:#eff6ee;}.cls-8{fill:url(#New_Pattern_3);}.cls-10{fill:#f91a29;}.cls-11{fill:#2b81c4;}.cls-12,.cls-13{stroke:#fff;}.cls-12{stroke-dasharray:8;}.cls-13{stroke-dasharray:8 9;}.cls-14{fill:#fefefe;}.cls-15{fill:#f5f4f7;}.cls-16{stroke-width:0.75px;}.cls-18{fill:url(#New_Pattern);}</style><pattern id="New_Pattern_3" data-name="New Pattern 3" width="18" height="21" patternTransform="translate(-458.4 -357.9) scale(0.67)" patternUnits="userSpaceOnUse" viewBox="0 0 18 21"><rect class="cls-1" width="18" height="21"/><line class="cls-3" x1="13.5" y1="21" x2="16.5" y2="21"/><line class="cls-3" x1="4.5" y1="21" x2="7.5" y2="21"/><line class="cls-3" x1="10.5" y1="21" x2="13.5" y2="21"/><line class="cls-3" x1="1.5" y1="21" x2="4.5" y2="21"/><rect class="cls-4" x="13.5" width="9" height="21"/><line class="cls-3" x1="13.5" y1="14" x2="16.5" y2="14"/><line class="cls-3" x1="13.5" y1="21" x2="16.5" y2="21"/><line class="cls-3" x1="13.5" x2="16.5"/><line class="cls-3" x1="13.5" y1="7" x2="16.5" y2="7"/><rect class="cls-4" x="4.5" width="9" height="21"/><line class="cls-3" x1="4.5" y1="14" x2="7.5" y2="14"/><line class="cls-3" x1="10.5" y1="14" x2="13.5" y2="14"/><line class="cls-3" x1="4.5" y1="21" x2="7.5" y2="21"/><line class="cls-3" x1="10.5" y1="21" x2="13.5" y2="21"/><line class="cls-3" x1="4.5" x2="7.5"/><line class="cls-3" x1="10.5" x2="13.5"/><line class="cls-3" x1="4.5" y1="7" x2="7.5" y2="7"/><line class="cls-3" x1="10.5" y1="7" x2="13.5" y2="7"/><rect class="cls-4" x="-4.5" width="9" height="21"/><line class="cls-3" x1="1.5" y1="14" x2="4.5" y2="14"/><line class="cls-3" x1="1.5" y1="21" x2="4.5" y2="21"/><line class="cls-3" x1="1.5" x2="4.5"/><line class="cls-3" x1="1.5" y1="7" x2="4.5" y2="7"/><line class="cls-3" x1="13.5" x2="16.5"/><line class="cls-3" x1="4.5" x2="7.5"/><line class="cls-3" x1="10.5" x2="13.5"/><line class="cls-3" x1="1.5" x2="4.5"/></pattern><pattern id="New_Pattern" data-name="New Pattern" width="80" height="60" patternTransform="translate(13.5 15.6) scale(0.67)" patternUnits="userSpaceOnUse" viewBox="0 0 80 60"><rect class="cls-1" width="80" height="60"/><rect class="cls-2" x="80" y="59.6" width="80" height="60.4"/><polygon class="cls-2" points="85 57.1 75 62.1 85 67.1 95 62.1 85 57.1"/><rect class="cls-2" y="59.6" width="80" height="60.4"/><polygon class="cls-2" points="35 52.1 25 57.1 35 62.1 45 57.1 35 52.1"/><polygon class="cls-2" points="25 57.1 15 62.1 25 67.1 35 62.1 25 57.1"/><polygon class="cls-2" points="15 52.1 5 57.1 15 62.1 25 57.1 15 52.1"/><polygon class="cls-2" points="76 52.1 66 57.1 76 62.1 86 57.1 76 52.1"/><polygon class="cls-2" points="65 57.1 55 62.1 65 67.1 75 62.1 65 57.1"/><polygon class="cls-2" points="56 52.1 46 57.1 56 62.1 66 57.1 56 52.1"/><polygon class="cls-2" points="5 57.1 -5 62.1 5 67.1 15 62.1 5 57.1"/><polygon class="cls-2" points="86 57.1 76 62.1 86 67.1 96 62.1 86 57.1"/><rect class="cls-2" x="-80" y="59.6" width="80" height="60.4"/><polygon class="cls-2" points="-4 52.1 -14 57.1 -4 62.1 6 57.1 -4 52.1"/><polygon class="cls-2" points="6 57.1 -4 62.1 6 67.1 16 62.1 6 57.1"/><rect class="cls-2" x="80" y="-0.4" width="80" height="60.4"/><polygon class="cls-2" points="85 7.1 75 12.1 85 17.1 95 12.1 85 7.1"/><polygon class="cls-2" points="85 17.1 75 22.1 85 27.1 95 22.1 85 17.1"/><polygon class="cls-2" points="85 27.1 75 32.1 85 37.1 95 32.1 85 27.1"/><polygon class="cls-2" points="75 12.1 65 17.1 75 22.1 85 17.1 75 12.1"/><polygon class="cls-2" points="75 22.1 65 27.1 75 32.1 85 27.1 75 22.1"/><polygon class="cls-2" points="75 32.1 65 37.1 75 42.1 85 37.1 75 32.1"/><polygon class="cls-2" points="85 37.1 75 42.1 85 47.1 95 42.1 85 37.1"/><polygon class="cls-2" points="85 47.1 75 52.1 85 57.1 95 52.1 85 47.1"/><polygon class="cls-2" points="85 57.1 75 62.1 85 67.1 95 62.1 85 57.1"/><polygon class="cls-2" points="75 42.1 65 47.1 75 52.1 85 47.1 75 42.1"/><polygon class="cls-2" points="75 52.1 65 57.1 75 62.1 85 57.1 75 52.1"/><polygon class="cls-2" points="85 -2.9 75 2.1 85 7.1 95 2.1 85 -2.9"/><polygon class="cls-2" points="75 2.1 65 7.1 75 12.1 85 7.1 75 2.1"/><rect class="cls-2" y="-0.4" width="80" height="60.4"/><polygon class="cls-2" points="55 12.1 45 17.1 55 22.1 65 17.1 55 12.1"/><polygon class="cls-2" points="55 22.1 45 27.1 55 32.1 65 27.1 55 22.1"/><polygon class="cls-2" points="55 32.1 45 37.1 55 42.1 65 37.1 55 32.1"/><polygon class="cls-2" points="45 7.1 35 12.1 45 17.1 55 12.1 45 7.1"/><polygon class="cls-2" points="45 17.1 35 22.1 45 27.1 55 22.1 45 17.1"/><polygon class="cls-2" points="45 27.1 35 32.1 45 37.1 55 32.1 45 27.1"/><polygon class="cls-2" points="35 12.1 25 17.1 35 22.1 45 17.1 35 12.1"/><polygon class="cls-2" points="35 22.1 25 27.1 35 32.1 45 27.1 35 22.1"/><polygon class="cls-2" points="35 32.1 25 37.1 35 42.1 45 37.1 35 32.1"/><polygon class="cls-2" points="15 12.1 5 17.1 15 22.1 25 17.1 15 12.1"/><polygon class="cls-2" points="15 22.1 5 27.1 15 32.1 25 27.1 15 22.1"/><polygon class="cls-2" points="15 32.1 5 37.1 15 42.1 25 37.1 15 32.1"/><polygon class="cls-2" points="5 7.1 -5 12.1 5 17.1 15 12.1 5 7.1"/><polygon class="cls-2" points="5 17.1 -5 22.1 5 27.1 15 22.1 5 17.1"/><polygon class="cls-2" points="5 27.1 -5 32.1 5 37.1 15 32.1 5 27.1"/><polygon class="cls-2" points="-5 12.1 -15 17.1 -5 22.1 5 17.1 -5 12.1"/><polygon class="cls-2" points="-5 22.1 -15 27.1 -5 32.1 5 27.1 -5 22.1"/><polygon class="cls-2" points="-5 32.1 -15 37.1 -5 42.1 5 37.1 -5 32.1"/><polygon class="cls-2" points="35 -7.9 25 -2.9 35 2.1 45 -2.9 35 -7.9"/><polygon class="cls-2" points="35 2.1 25 7.1 35 12.1 45 7.1 35 2.1"/><polygon class="cls-2" points="25 -2.9 15 2.1 25 7.1 35 2.1 25 -2.9"/><polygon class="cls-2" points="15 -7.9 5 -2.9 15 2.1 25 -2.9 15 -7.9"/><polygon class="cls-2" points="15 2.1 5 7.1 15 12.1 25 7.1 15 2.1"/><polygon class="cls-2" points="76 -7.9 66 -2.9 76 2.1 86 -2.9 76 -7.9"/><polygon class="cls-2" points="75 2.1 65 7.1 75 12.1 85 7.1 75 2.1"/><polygon class="cls-2" points="65 -2.9 55 2.1 65 7.1 75 2.1 65 -2.9"/><polygon class="cls-2" points="56 -7.9 46 -2.9 56 2.1 66 -2.9 56 -7.9"/><polygon class="cls-2" points="55 2.1 45 7.1 55 12.1 65 7.1 55 2.1"/><polygon class="cls-2" points="55 42.1 45 47.1 55 52.1 65 47.1 55 42.1"/><polygon class="cls-2" points="55 52.1 45 57.1 55 62.1 65 57.1 55 52.1"/><polygon class="cls-2" points="45 37.1 35 42.1 45 47.1 55 42.1 45 37.1"/><polygon class="cls-2" points="45 47.1 35 52.1 45 57.1 55 52.1 45 47.1"/><polygon class="cls-2" points="45 57.1 35 62.1 45 67.1 55 62.1 45 57.1"/><polygon class="cls-2" points="35 42.1 25 47.1 35 52.1 45 47.1 35 42.1"/><polygon class="cls-2" points="35 52.1 25 57.1 35 62.1 45 57.1 35 52.1"/><polygon class="cls-2" points="15 42.1 5 47.1 15 52.1 25 47.1 15 42.1"/><polygon class="cls-2" points="15 52.1 5 57.1 15 62.1 25 57.1 15 52.1"/><polygon class="cls-2" points="5 37.1 -5 42.1 5 47.1 15 42.1 5 37.1"/><polygon class="cls-2" points="5 47.1 -5 52.1 5 57.1 15 52.1 5 47.1"/><polygon class="cls-2" points="5 57.1 -5 62.1 5 67.1 15 62.1 5 57.1"/><polygon class="cls-2" points="-5 42.1 -15 47.1 -5 52.1 5 47.1 -5 42.1"/><polygon class="cls-2" points="-5 52.1 -15 57.1 -5 62.1 5 57.1 -5 52.1"/><polygon class="cls-2" points="75 42.1 65 47.1 75 52.1 85 47.1 75 42.1"/><polygon class="cls-2" points="75 52.1 65 57.1 75 62.1 85 57.1 75 52.1"/><polygon class="cls-2" points="65 37.1 55 42.1 65 47.1 75 42.1 65 37.1"/><polygon class="cls-2" points="65 47.1 55 52.1 65 57.1 75 52.1 65 47.1"/><polygon class="cls-2" points="65 57.1 55 62.1 65 67.1 75 62.1 65 57.1"/><polygon class="cls-2" points="55 42.1 45 47.1 55 52.1 65 47.1 55 42.1"/><polygon class="cls-2" points="55 52.1 45 57.1 55 62.1 65 57.1 55 52.1"/><polygon class="cls-2" points="5 -2.9 -5 2.1 5 7.1 15 2.1 5 -2.9"/><polygon class="cls-2" points="-5 2.1 -15 7.1 -5 12.1 5 7.1 -5 2.1"/><polygon class="cls-2" points="65 7.1 55 12.1 65 17.1 75 12.1 65 7.1"/><polygon class="cls-2" points="65 17.1 55 22.1 65 27.1 75 22.1 65 17.1"/><polygon class="cls-2" points="65 27.1 55 32.1 65 37.1 75 32.1 65 27.1"/><polygon class="cls-2" points="25 57.1 15 62.1 25 67.1 35 62.1 25 57.1"/><polygon class="cls-2" points="75 32.1 65 37.1 75 42.1 85 37.1 75 32.1"/><polygon class="cls-2" points="85 37.1 75 42.1 85 47.1 95 42.1 85 37.1"/><polygon class="cls-2" points="85 47.1 75 52.1 85 57.1 95 52.1 85 47.1"/><polygon class="cls-2" points="75 22.1 65 27.1 75 32.1 85 27.1 75 22.1"/><polygon class="cls-2" points="75 12.1 65 17.1 75 22.1 85 17.1 75 12.1"/><polygon class="cls-2" points="85 7.1 75 12.1 85 17.1 95 12.1 85 7.1"/><polygon class="cls-2" points="86 -2.9 76 2.1 86 7.1 96 2.1 86 -2.9"/><polygon class="cls-2" points="85 17.1 75 22.1 85 27.1 95 22.1 85 17.1"/><polygon class="cls-2" points="85 27.1 75 32.1 85 37.1 95 32.1 85 27.1"/><rect class="cls-2" x="-80" y="-0.4" width="80" height="60.4"/><polygon class="cls-2" points="-4 -7.9 -14 -2.9 -4 2.1 6 -2.9 -4 -7.9"/><polygon class="cls-2" points="-5 2.1 -15 7.1 -5 12.1 5 7.1 -5 2.1"/><polygon class="cls-2" points="-5 42.1 -15 47.1 -5 52.1 5 47.1 -5 42.1"/><polygon class="cls-2" points="-5 52.1 -15 57.1 -5 62.1 5 57.1 -5 52.1"/><polygon class="cls-2" points="-5 32.1 -15 37.1 -5 42.1 5 37.1 -5 32.1"/><polygon class="cls-2" points="5 37.1 -5 42.1 5 47.1 15 42.1 5 37.1"/><polygon class="cls-2" points="5 47.1 -5 52.1 5 57.1 15 52.1 5 47.1"/><polygon class="cls-2" points="-5 22.1 -15 27.1 -5 32.1 5 27.1 -5 22.1"/><polygon class="cls-2" points="-5 12.1 -15 17.1 -5 22.1 5 17.1 -5 12.1"/><polygon class="cls-2" points="5 7.1 -5 12.1 5 17.1 15 12.1 5 7.1"/><polygon class="cls-2" points="6 -2.9 -4 2.1 6 7.1 16 2.1 6 -2.9"/><polygon class="cls-2" points="5 17.1 -5 22.1 5 27.1 15 22.1 5 17.1"/><polygon class="cls-2" points="5 27.1 -5 32.1 5 37.1 15 32.1 5 27.1"/><rect class="cls-2" x="80" y="-60.4" width="80" height="60.4"/><polygon class="cls-2" points="85 -2.9 75 2.1 85 7.1 95 2.1 85 -2.9"/><polygon class="cls-2" points="75 -7.9 65 -2.9 75 2.1 85 -2.9 75 -7.9"/><rect class="cls-2" y="-60.4" width="80" height="60.4"/><polygon class="cls-2" points="55 -7.9 45 -2.9 55 2.1 65 -2.9 55 -7.9"/><polygon class="cls-2" points="45 -2.9 35 2.1 45 7.1 55 2.1 45 -2.9"/><polygon class="cls-2" points="35 -7.9 25 -2.9 35 2.1 45 -2.9 35 -7.9"/><polygon class="cls-2" points="15 -7.9 5 -2.9 15 2.1 25 -2.9 15 -7.9"/><polygon class="cls-2" points="5 -2.9 -5 2.1 5 7.1 15 2.1 5 -2.9"/><polygon class="cls-2" points="-5 -7.9 -15 -2.9 -5 2.1 5 -2.9 -5 -7.9"/><polygon class="cls-2" points="75 -7.9 65 -2.9 75 2.1 85 -2.9 75 -7.9"/><polygon class="cls-2" points="65 -2.9 55 2.1 65 7.1 75 2.1 65 -2.9"/><polygon class="cls-2" points="55 -7.9 45 -2.9 55 2.1 65 -2.9 55 -7.9"/><polygon class="cls-2" points="25 -2.9 15 2.1 25 7.1 35 2.1 25 -2.9"/><rect class="cls-2" x="-80" y="-60.4" width="80" height="60.4"/><polygon class="cls-2" points="-5 -7.9 -15 -2.9 -5 2.1 5 -2.9 -5 -7.9"/></pattern></defs><title>Le Fluer Illustration</title><g id="Tongue"><path class="cls-5" d="M1173.7,464.1s1.8-20.9,0-27.5c-4.4-16.8-12.9-20.1-18.2-26.1-7.1-8-22.5-23.1-29-31.6-2.9-3.7-8.1-13-12.7-13.8s-13.9,6.8-18.2,9.7-43,28.8-45.8,31.2c-4.6,4.3-19.3,16-19.3,16Z" transform="translate(-467.9 -363.6)"/></g><g id="Sock_Liner" data-name="Sock Liner"><path class="cls-6" d="M1297.5,489.7c31.2-7,49.8-19.5,58.4-24.9,1.1-.6,34.5-22.6,40.6-22.5,4.5,0-20.2,31.4-36.2,38.9s-34.8,9.8-52.5,14.2C1304.3,496.2,1285.1,492.5,1297.5,489.7Z" transform="translate(-467.9 -363.6)"/><path class="cls-7" d="M1226.1,485.7c24.1.8,60.6,11,99.7-1.6,23.3-7.4,45.8-18.8,62.8-36.4,2.1-2.1,4.4-4.5,7.4-4.8a7.3,7.3,0,0,1,3.8.8c3.3,1.9,4.4,6.3,3.3,9.9s-4.2,6.3-7.5,8.1-7,2.8-10.5,3.9c-12.9,4.3-24.7,11.3-37,17.1a161.3,161.3,0,0,1-42.8,13.4C1289,498.7,1241.2,493.2,1226.1,485.7Z" transform="translate(-467.9 -363.6)"/></g><g id="Upper"><path class="cls-5" d="M530.9,573.5c22.7-9.6,53.1-10,77.6-13.2,27.5-3.6,56.7,5,83.8-1,131.5-29.1,202.1-86.4,325.6-136.6,14.7-6,81.8-23.5,96.7-18.1,22.1,7.9,34.3,27.8,50.2,43.1,29.5,28.3,66.8,45.4,106.4,48s80.7-10.8,110.2-34.2c13.2-10.6,16.9-23,26-10.8,22.3,30.1,57.7,118.6,51.7,181.9-274.5,27.6-538.1,47.9-807.4-11.9-21.4-4.8-42.8-10-63.4-17.3C570.7,597.2,542.6,588.5,530.9,573.5Z" transform="translate(-467.9 -363.6)"/></g><g id="Le_Fleur" data-name="Le Fleur"><g id="One_Star" data-name="One Star"><polygon class="cls-8" points="559.6 252.7 489.7 252.7 498.7 186.9 552 188.3 559.6 252.7"/><path class="cls-9" d="M1165.9,576.6c-23.3-7.2-45.4-18.1-68.8-24.9s-49.4-9.3-71.9.4c1.8-13,2.4-28-6.7-37.5a22.8,22.8,0,0,0-37.8,7.8c-1.7,4.3-2,9-3.7,13.2s-5.6,8.2-10.1,7.8c-2.4-.2-4.4-1.5-6.5-2.6a30.9,30.9,0,0,0-29.2,1.7c-5.1,3.1-7.9,6.6-8.4,12.7s1.4,12.1,4.4,17.3c4.4,7.3,10.9,13,17.3,18.6a76.7,76.7,0,0,0-24.3,37.2c-1.8,6.1-2.2,13.8,3,17.3,2.8,1.9,6.3,1.9,9.5,1.9h46.6c2.1-8.2,9.1-17.6,17.1-14.8,5,1.7,7.4,7.4,11.9,10.3s7.8,2.4,11.9,2.5l45.9,1.8c5.6-8.9,4.1-20.9-1.1-30.1s-13.6-16-22.1-22.2c19.5-7.8,41.3-7.5,62-4.2s40.9,9.6,61.5,13.5c52,9.9,105.8,4.7,157.6-5.9,1.7-10.3,12.2-26.6,13.8-36.9l.2-.9C1287.2,583.4,1219.1,593.1,1165.9,576.6ZM1010,607l-16.9-13.3L978,607l6.6-19.6-17.2-11.5,19.6-.6,6.1-18.8,7.8,18.8,19,.6L1005,587.4Z" transform="translate(-467.9 -363.6)"/></g></g><g id="Heel_Cup" data-name="Heel Cup"><path class="cls-9" d="M1274.6,642.7c32.7-62.2,128.2-153.9,153.9-153.7,23.1,48.1,31.6,90.4,32.1,145.1C1397.7,655.4,1341.3,642.7,1274.6,642.7Z" transform="translate(-467.9 -363.6)"/></g><g id="Toe_Box" data-name="Toe Box"><path class="cls-10" d="M720.3,544.1c-2,.5-89.6,10.4-116.7,10.8-24.7.3-61.6-.6-84.4,9.1,11.8,14.9,39.8,24.4,57.4,30.6,13.2,4.7,53.7,14.9,67.3,18.3C655.5,596.4,690.9,566.5,720.3,544.1Z" transform="translate(-467.9 -363.6)"/></g><g id="Laces_Area" data-name="Laces Area"><path class="cls-11" d="M1091.5,400.2c-11.9.4-100.3,29.1-177.8,65-67.7,31.4-130.7,45-145.5,49.5-83,24.9-116.9,79.9-128.4,96.4,7.7,1.9,15.4,3.6,23.1,5.4,26.7,5.9,53.4,11.2,80.3,15.9,14.6-22.3,36.4-50.5,55.1-66.7s63.7-32.4,87.8-42.8,64.9-24.3,87.8-32.4c68.5-24.2,177.7-56.8,177.7-56.8S1130.2,398.6,1091.5,400.2Z" transform="translate(-467.9 -363.6)"/><ellipse cx="551.6" cy="81.7" rx="7.2" ry="5.7"/><ellipse cx="607.2" cy="61.3" rx="8.6" ry="5.8"/></g><g id="Stitching"><path class="cls-12" d="M736,629.2s16.4-25.9,22.6-34.5,13.7-18.9,22.3-26.7,33.6-22.9,42.2-27.3c10.9-5.7,49.7-22.5,56.7-25.3,9.9-3.8,54.5-20.4,72.7-26.5,13.5-4.6,40.4-15.1,53.9-19.5s59.1-17.8,71.4-21.6c24.9-7.8,65.6-23,65.6-23" transform="translate(-467.9 -363.6)"/><path class="cls-12" d="M649,615.8c2.2-9.6,12.6-26.5,19.6-34.5s17.4-17.4,26-25.3c7.1-6.4,32.9-19.1,41.4-23.5,10.9-5.6,50.5-16.6,57.5-19.3,9.9-3.9,54.7-16.6,72.9-22.7,13.5-4.5,39.4-18.2,52.9-22.6s36.8-16.3,49.1-20.1c24.9-7.8,41.2-17.5,73-26.8,0,0,33.5,36.7,45.3,48.3,15.9,15.8,49.5,45.4,66.9,59.5,15.6,12.7,49,36,67.8,43.2,8.1,3.1,35.8,3.8,44.5,3.6,11-.3,33.6-4.4,33.6-4.4s71.4-16.1,94.5-23.8c12.5-4.2,48.7-20.4,48.7-20.4" transform="translate(-467.9 -363.6)"/><path class="cls-12" d="M697.4,622.2l27.9-47.6-36-6.9s-25.1,30.7-29.7,44.1" transform="translate(-467.9 -363.6)"/><polyline class="cls-12" points="227.9 193 271.3 201.4 242.9 251.6"/><path class="cls-12" d="M1428.8,500.7s-41.7,29.1-56.6,42.1c-13.2,11.5-34.8,29-49.1,50.4-9.8,14.6-44.1,54.7-44.1,54.7" transform="translate(-467.9 -363.6)"/><path class="cls-12" d="M1328.3,573.5" transform="translate(-467.9 -363.6)"/><path class="cls-12" d="M970,643.8S985.7,620,993,620c9.9,0,26.5,23.8,26.5,23.8" transform="translate(-467.9 -363.6)"/><path class="cls-12" d="M928.6,643.8s.3-13.7,1.8-17.9c2.2-6.2,10.9-16.4,14.5-21.9l9.3-14.2-20.8-23.3c-6.9-7.8,1.6-20.3,8-22.4,4.5-1.5,14.3,1.5,18.8,3s13.8,7.1,17.8,4.8,4.6-17.7,7.5-23.1c2.1-3.8,8.4-10.5,12.3-12.5s10.3-1.8,13,0c4.7,3.1,8.7,20.7,8.7,20.7l-1.5,23.5s20.4-5,27.8-5.7a264.1,264.1,0,0,1,29.5-.2c9.5.6,31.7,5.9,40.8,8.8s24.4,10.1,32.7,13.4,29.7,9.7,39.8,12.3a211.6,211.6,0,0,0,22.3,3.7c8.5.9,25.5.3,33.9-.7,10.9-1.4,32.5-4.1,43.1-6.7,6.9-1.7,27.2-7.8,27.2-7.8" transform="translate(-467.9 -363.6)"/><path class="cls-12" d="M1308.3,589.8s-40.2,9.4-55.9,11.6c-10.5,1.5-30.5,2.2-42.6,2.2-10,0-29.9-2.7-39.8-4.5-13-2.3-51.4-12.4-51.4-12.4s-17.1-2.7-27.8-3.9c-8.2-1-24.7-1.3-32.8,0s-24.2,6.4-23.4,8.7c2.1,6.5,11.9,16,16.7,21.4,2.6,2.9,8.1,8.9,9,12.7,1.2,5.4-2.6,16.7-2.6,22.3" transform="translate(-467.9 -363.6)"/><path class="cls-13" d="M971.6,615.8c-1.6-1.3,4.7-20.5,2-26.6s-15.2-13.6-15.2-15.9S974,571,978,567.9s12.7-22,15.5-22,11.6,19.5,13.3,21.7,22.6,4.5,22.6,4.5c1.7,2.7-13,13.6-13.9,16.6s4.9,23.3,3,26.2-22.9-9.6-24.8-9.7S974.8,618.6,971.6,615.8Z" transform="translate(-467.9 -363.6)"/></g><g id="Laces"><path class="cls-14" d="M736,547.8c3.9.5,12.3-2.6,15.1-5.5s5.6-8,5.4-11.1-5.4-12.3-9.4-13.2c-7.1-1.6-25.3,6.6-25.8,13.9C721,537.3,730.6,547.1,736,547.8Z" transform="translate(-467.9 -363.6)"/><path class="cls-14" d="M761.4,515.2c-1.7-8.5,37.7-14.5,43.8-11.3,1.8,1,9.6,10.2,7.1,14.9-1.6,3-3.7,5.8-6.9,7a22,22,0,0,1-10.2.6c-6.3-1-12.3-3.3-18.5-5.1S761.6,516,761.4,515.2Z" transform="translate(-467.9 -363.6)"/><path class="cls-14" d="M811.9,501c-1.8-9.8,42.1-18.5,48.3-14.8,1.8,1.1,8.5,7.6,6.1,13-1.6,3.5-4.4,6.6-7.2,9.3s-7.2,2.4-10.6,1.8a101.3,101.3,0,0,1-17.1-4.1C825.2,504.2,812,501.9,811.9,501Z" transform="translate(-467.9 -363.6)"/><path class="cls-14" d="M868.8,482.3c-1.7-9.1,35.1-17.4,40.8-14,1.8,1,9.2,6.5,10.4,12.4.6,3.5-13.7,8.5-16.9,8.5-6,0-9.7-.7-15.9-1.9S868.9,483.2,868.8,482.3Z" transform="translate(-467.9 -363.6)"/><path class="cls-14" d="M912.3,464.5c0,1.3,8-2.1,9.8-2.1,15-.3,29.8,6.9,44.5,4.3,2.8-.5,5.8-1.5,7-4s.6-4.8-.3-7.1a24.6,24.6,0,0,0-8.4-11.4,20.2,20.2,0,0,0-13.4-4.2c-5.2.4-10,2.9-14.7,5.3a129.3,129.3,0,0,0-12.3,6.3C919.6,454.8,912.3,458.1,912.3,464.5Z" transform="translate(-467.9 -363.6)"/></g><g id="Mid_Sole" data-name="Mid Sole"><path class="cls-15" d="M1460.6,634.1c4-4.8,9.8,93.8,4.3,97.5-18.5,12.5-221.2,10.2-341.7,13.4-100.9,2.7-299.1,5.4-421.6-16.8C562.8,703.1,479.9,663,473.6,649s27.4-84.8,45.6-85c12.2-.2,27.2,6.6,38.9,10.1,57.2,17,131.4,37.3,190.3,47.1,10,1.7,80.4,11.7,90.5,12.7,87.8,8.6,231,11.2,327.6,10.6C1305.6,643.7,1456.6,638.8,1460.6,634.1Z" transform="translate(-467.9 -363.6)"/><path class="cls-15" d="M1457.2,652.4c-1.9,3.4-1.9,58.3,1.9,62.4,1.5,1.8,8.2,1.3,9.2-.7,2.9-5.5-.6-59.4-2.9-62.4S1458.2,650.6,1457.2,652.4Z" transform="translate(-467.9 -363.6)"/><path class="cls-16" d="M500,578.5" transform="translate(-467.9 -363.6)"/><path class="cls-17" d="M782.2,681.7s60.3,7.8,80.5,9.7c16.4,1.6,49.4,3.5,65.9,3.7,24.5.3,73.5-.8,98.1-1.5,20.2-.5,60.6-.6,80.8-.7s65.1-.4,86.3,0c57.3,1.1,115.4,0,173.8-4.5,22.3-1.7,89.6-5.1,89.6-5.1" transform="translate(-467.9 -363.6)"/><path class="cls-17" d="M782.2,650.3s58.4,9.1,104.1,11.6c22.7,1.2,90.7,5.2,121,5.2,33.4,0,133.4-.7,133.4-.7l128.5-1.5s98.6-1.9,131.5-3c13.8-.5,42-2.4,56.5-3.2" transform="translate(-467.9 -363.6)"/><path class="cls-15" d="M819.3,653.7" transform="translate(-467.9 -363.6)"/><path class="cls-18" d="M782.2,650.3c5.7.2-1.1,86.5-9.4,87.5-47.7,5.9-307-56-303.3-92.5,1.7-17.6,19.1-74.6,30.5-66.8C550.4,612.9,772.1,649.9,782.2,650.3Z" transform="translate(-467.9 -363.6)"/></g></svg>