<svg id="Illustration" xmlns="http://www.w3.org/2000/svg" xmlns:xlink="http://www.w3.org/1999/xlink" width="1003" height="420.3" viewBox="0 0 1003 420.3"><defs><style>.cls-1{fill:none;}.cls-2{fill:#b6b6b0;}.cls-3{fill:#d4d3cc;}.cls-4,.cls-9{fill:#969696;}.cls-5{fill:#b2b2b2;}.cls-10,.cls-11,.cls-12,.cls-13,.cls-14,.cls-15,.cls-16,.cls-17,.cls-18,.cls-19,.cls-20,.cls-21,.cls-22,.cls-23,.cls-24,.cls-25,.cls-26,.cls-27,.cls-28,.cls-29,.cls-30,.cls-31,.cls-32,.cls-33,.cls-34,.cls-5,.cls-6,.cls-7,.cls-8,.cls-9{stroke:#000;stroke-miterlimit:10;}.cls-10,.cls-30,.cls-31,.cls-32,.cls-33,.cls-34,.cls-5,.cls-6,.cls-7,.cls-8,.cls-9{stroke-width:3px;}.cls-6{fill:#7a7983;}.cls-7{fill:#dd5347;}.cls-8{fill:url(#New_Pattern_7);}.cls-10{fill:#ec6454;}.cls-11{fill:#c36e67;}.cls-11,.cls-12,.cls-13,.cls-14,.cls-15,.cls-16,.cls-17,.cls-18,.cls-19,.cls-20,.cls-21,.cls-22,.cls-23,.cls-24,.cls-25,.cls-26,.cls-27,.cls-28,.cls-29{stroke-width:0.75px;}.cls-12{fill:#b5aab2;}.cls-13{fill:#646864;}.cls-14{fill:#9f8a83;}.cls-15{fill:#df5a44;}.cls-16{fill:#fefefe;}.cls-17{fill:#636366;}.cls-18{fill:#313734;}.cls-19{fill:#646665;}.cls-20{fill:#272b29;}.cls-21{fill:#323636;}.cls-22{fill:#545959;}.cls-23{fill:#565958;}.cls-24{fill:#5c625c;}.cls-25{fill:#dddfdb;}.cls-26{fill:#666d67;}.cls-27{fill:#9ba29f;}.cls-28{fill:#d1d2ca;}.cls-29{fill:#a0a59f;}.cls-30{fill:#73787b;}.cls-31{fill:#e75040;}.cls-32{fill:#eef3f6;}.cls-33{fill:#f6f6f6;}.cls-34{fill:#fafbf8;}</style><pattern id="New_Pattern_7" data-name="New Pattern 7" width="14.4" height="15.88" patternTransform="translate(1.9 4.4) scale(0.8)" patternUnits="userSpaceOnUse" viewBox="0 0 14.4 15.9"><rect class="cls-1" width="14.4" height="15.88"/><ellipse class="cls-2" cx="14.4" cy="16" rx="4.4" ry="1" transform="translate(-7.2 16) rotate(-48)"/><ellipse class="cls-2" cy="16" rx="4.4" ry="1" transform="translate(-11.9 5.3) rotate(-48)"/><ellipse class="cls-2" cx="14.4" cy="15.9" rx="4.4" ry="1" transform="translate(-7.1 15.9) rotate(-48)"/><ellipse class="cls-2" cy="15.9" rx="4.4" ry="1" transform="translate(-11.8 5.3) rotate(-48)"/><ellipse class="cls-2" cx="14.4" cy="0.2" rx="4.4" ry="1" transform="translate(4.6 10.7) rotate(-48)"/><ellipse class="cls-2" cx="14.4" cy="15.9" rx="4.4" ry="1" transform="translate(-7.1 15.9) rotate(-48)"/><polygon class="cls-3" points="0 15.9 14.4 15.9 14.4 0 0 0 0 15.9"/><ellipse class="cls-2" cy="0.2" rx="4.4" ry="1" transform="translate(-0.1 0.1) rotate(-48)"/><ellipse class="cls-2" cx="14.4" cy="15.9" rx="4.4" ry="1" transform="translate(-7.1 15.9) rotate(-48)"/><ellipse class="cls-2" cy="15.9" rx="4.4" ry="1" transform="translate(-11.8 5.3) rotate(-48)"/><ellipse class="cls-2" cx="14.4" rx="4.4" ry="1" transform="translate(4.8 10.7) rotate(-48)"/><ellipse class="cls-2" cx="7.2" cy="8" rx="4.4" ry="1" transform="translate(-3.5 8) rotate(-48)"/><ellipse class="cls-2" cx="10.8" cy="4" rx="4.4" ry="1" transform="translate(0.6 9.3) rotate(-48)"/><ellipse class="cls-2" cx="3.6" cy="11.9" rx="4.4" ry="1" transform="translate(-7.7 6.6) rotate(-48)"/><ellipse class="cls-2" cy="15.9" rx="4.4" ry="1" transform="translate(-11.8 5.3) rotate(-48)"/><ellipse class="cls-2" rx="4.4" ry="1" transform="translate(0 0) rotate(-48)"/><ellipse class="cls-2" cx="14.4" rx="4.4" ry="1" transform="translate(4.7 10.7) rotate(-48)"/><polygon class="cls-3" points="0 0 14.4 0 14.4 -15.9 0 -15.9 0 0"/><ellipse class="cls-2" cx="14.4" rx="4.4" ry="1" transform="translate(4.7 10.7) rotate(-48)"/><ellipse class="cls-2" rx="4.4" ry="1" transform="translate(0 0) rotate(-48)"/><ellipse class="cls-2" rx="4.4" ry="1" transform="translate(0 0) rotate(-48)"/></pattern></defs><title>Pigeon Dunks</title><g id="Quarter_Panel" data-name="Quarter Panel"><path class="cls-4" d="M844,686.4s-147.8-143.9-123.7-164,225.8-91.6,225.8-91.6l223.4,241.1Z" transform="translate(-379.5 -346.8)"/></g><g id="Toe_Box" data-name="Toe Box"><path class="cls-5" d="M449.1,525.3c41.2-7.1,154.7-7.3,190.8-4.9,7.1.5,12.9,25.3,12.9,25.3l27.3,73.6-88.4-4.9L480.8,577.1l-43.8-31S435,527.7,449.1,525.3Z" transform="translate(-379.5 -346.8)"/><g id="Perferations"><ellipse cx="102.3" cy="191.3" rx="2.2" ry="1.4"/><ellipse cx="122" cy="200.5" rx="2.2" ry="1.4"/><ellipse cx="122" cy="182.7" rx="2.2" ry="1.4"/><ellipse cx="157.8" cy="200.5" rx="2.2" ry="1.4"/><ellipse cx="141.3" cy="211" rx="2.2" ry="1.4"/><ellipse cx="236" cy="202" rx="2.2" ry="1.4"/><ellipse cx="213.2" cy="215" rx="2.2" ry="1.4"/><ellipse cx="173.4" cy="211" rx="2.2" ry="1.4"/><ellipse cx="141.3" cy="191.3" rx="2.2" ry="1.4"/><ellipse cx="191.9" cy="182.7" rx="2.2" ry="1.4"/><ellipse cx="191.9" cy="202.1" rx="2.2" ry="1.4"/><ellipse cx="157.8" cy="181.9" rx="2.2" ry="1.4"/><ellipse cx="173.4" cy="191.3" rx="2.2" ry="1.4"/><ellipse cx="214" cy="192.3" rx="2.2" ry="1.4"/><ellipse cx="236" cy="182.7" rx="2.2" ry="1.4"/><ellipse cx="236" cy="221.3" rx="2.2" ry="1.4"/></g></g><path id="Mud_Guard" data-name="Mud Guard" class="cls-6" d="M451.1,524.9c-9.6.8-26,13.9-37,34.4-8.8,16.5-13.2,39.6-14,58.3,143.6,61,303.5,88.9,459.3,81.1-12.7-32.3-40.3-57.7-62.3-84.4s-42.5-58-42.4-92.7c-37,4.9-101.9,2.4-108.5,14.7-10.4,19.1,32.6,46.1,17.9,62.1s-48.6-15.9-62.7-19.7c-42.9-11.5-88.9-8.7-140.7-28.8C438.9,541.4,459.2,524.2,451.1,524.9Z" transform="translate(-379.5 -346.8)"/><g id="Eyestay"><path class="cls-6" d="M644.8,534.4c41.7,1,83.6-4,123.1-17.7,21.1-7.3,38.3-17.5,59.7-23.9,24.3-7.3,52.8-11.5,77.3-18.1s49-16.8,66.5-35.2l-40.7-41c-68,41.9-145.6,70.6-220.9,92C693.7,495.1,619.6,505,644.8,534.4Z" transform="translate(-379.5 -346.8)"/></g><g id="Sock_Liner" data-name="Sock Liner"><path id="Back" class="cls-7" d="M1330.3,392.5h.1c-14.2.3-27.3,7.6-38.7,16s-21.9,18.3-34.4,25.1c-24.5,13.3-54.4,13.3-81.2,6.2-14.9-4-29.1-10-42.8-16.8-6.9-3.4-13.6-7.1-20.4-10.8-1.9-1.1-5.1-3.6-7-.9s2.2,4.7,4.2,6.2a375.2,375.2,0,0,0,77.6,46.6l.7.3c14.1,6.3,29.3,11.8,44.7,10.1,12.8-1.3,24.5-7.5,35.2-14.6A195.1,195.1,0,0,0,1330.3,392.5Z" transform="translate(-379.5 -346.8)"/><path id="Main_Tongue" data-name="Main Tongue" class="cls-8" d="M1040.6,363.4c.2-.7,1.2-1.3,3.4-1.6a50.9,50.9,0,0,1,21.6,1.4c8.6,2.2,16.6,6,24.7,9.8l48,22.8c-6.9,1.9-12.6,6.5-18.6,10.3s-13.4,6.6-20.2,4.7c-4.2-1.1-7.7-4-11.1-6.7l-36.1-29.8-8.9-7.3C1041.6,365.5,1040.4,364.3,1040.6,363.4Z" transform="translate(-379.5 -346.8)"/><path id="Tongue_Rim" data-name="Tongue Rim" class="cls-9" d="M1118.6,424.2c3.6-.3,6.9-2.5,10-4.6,5.6-3.9,11.4-8,15.6-13.4a16.5,16.5,0,0,0,3.6-7.4c.3-2.8-.6-5.8-2.8-7.4a8.2,8.2,0,0,0-7.3-.8,22.8,22.8,0,0,0-6.6,3.7c-7.2,5.1-17.2,9.9-23.2,16.4-3.3,3.5-3.2,4.1.4,8.2,2.3,2.5,5.1,5.1,8.8,5.3A3.8,3.8,0,0,0,1118.6,424.2Z" transform="translate(-379.5 -346.8)"/><path id="Front" class="cls-10" d="M1322.4,395.7a13.6,13.6,0,0,1,3.5-2.4c3.2-1.5,7.3-1.4,9.7,1.1,4.3,4.5.1,11.8-4.1,16.4-22.3,24.6-46.3,50.2-78.1,59.6s-67.1.3-98.4-12.1a478.2,478.2,0,0,1-145-90.1c-2.9-2.6-17.8-13.7-17.8-13.7s15.4-8,23.9-5.8,13.3,5.5,20.2,9.3c23.6,13.1,44.3,30.7,65.4,47.5s42.9,33.3,67.7,43.8,53.4,14.7,79,6.3c28.6-9.4,50.1-32.7,69.8-55.5A43.7,43.7,0,0,1,1322.4,395.7Z" transform="translate(-379.5 -346.8)"/></g><g id="Heel_Cup" data-name="Heel Cup"><path class="cls-9" d="M996.7,354.1c9-4.8,29.3,7.8,37.4,13.6,25.9,18.4,76.6,60.5,103.2,78.1,33.5,22.3,89.8,33.5,114.5,24.8,7.5-2.6,28.6-12.4,28.6-12.4s36,4,45.5,7.6,39.4,5.6,42.9,20.1c5.2,21.7,11.1,49.7,11.3,74.2-84.6-18-171.4-43.3-253.8-69.4-10.5-3.3-21.1-6.8-30.6-12.5-13.1-7.8-23.3-19.6-33-31.3-17.3-20.8-33.7-42.4-49.1-64.6C1010.3,377.7,995.5,354.7,996.7,354.1Z" transform="translate(-379.5 -346.8)"/></g><g id="Upper"><path class="cls-6" d="M1126.9,675.9s-1.3-31.9-8-39.4c-42.1-46.6-128-132.8-166.4-180.8-10.2-12.7-34.5-48.2-27.3-58.6s57.9-41.8,70.7-43.4,52.6,46.9,69.9,62.7c20.9,19,68.4,50.2,92.4,65.1,31.1,19.1,78.2,40.5,136.6,51.4,26,4.8,76.6,11,84.4,20.9,4,5.1.5,33.5-2.4,46.6-3.6,16.2,0,60.1,0,60.1Z" transform="translate(-379.5 -346.8)"/><ellipse cx="603.3" cy="84.6" rx="7.2" ry="6.7"/><ellipse cx="636.2" cy="65.3" rx="7.2" ry="6.7"/><ellipse cx="614" cy="39" rx="7.8" ry="6.2"/></g><g id="Pigeon"><path class="cls-11" d="M1273.7,629.3c-4.4-1.1-2.3-3.3,1.1-3.1,1.4,0,10.1.4,9.9,2.4l9.1-6.8c2.1-1.1,4.1,3,4.1,3s-7.8,1.9-9.3,4.6,1.8,4.7-.5,5.2-2.6-.8-3.7-.6-4.3,1.4-6.5,1.8-7.6,1.3-10.1-.2-1.3-3,1.3-3.4c4.3-.6,8.1.4,12.3-1.1Z" transform="translate(-379.5 -346.8)"/><path class="cls-12" d="M1294.8,623.3c-1,1.2-3.2,1.8-4.6,2.5s-7.5,5.4-7.1,1.4c.1-1,5.3-4.3,6.2-5.2s1.5-2.3,2.7-2.3S1296.2,621.9,1294.8,623.3Z" transform="translate(-379.5 -346.8)"/><path class="cls-13" d="M1297.8,609.7c1.8,4.4,9.2,3.6,13.4,2.5s14.3-1.1,12.6-6.4-10-.3-14,1.1-4.8,1.5-6.5-1C1302,607.9,1296.6,606.9,1297.8,609.7Z" transform="translate(-379.5 -346.8)"/><path class="cls-14" d="M1265,562.4c-1.3,5.3-10.2,6.6-10.7,1.3.2-.2,1.1-.2.9-.7s-3.4-.7-3.8-4.4,10.2-6.2,10.2-2.5c0,1.9-.4,2.9.5,3.8S1263.8,561.2,1265,562.4Z" transform="translate(-379.5 -346.8)"/><path class="cls-15" d="M1265.9,558.2c3,7.8-6.3,2.4-6.3,2.4S1262.9,550.2,1265.9,558.2Z" transform="translate(-379.5 -346.8)"/><path class="cls-16" d="M1286.2,594.8h0l-.2-.2h.2Z" transform="translate(-379.5 -346.8)"/><path class="cls-16" d="M1286.2,594.8Z" transform="translate(-379.5 -346.8)"/><polygon class="cls-16" points="903.8 241 903.8 241 903.8 241 903.8 241"/><path class="cls-16" d="M1283.4,587.8h0Z" transform="translate(-379.5 -346.8)"/><path class="cls-16" d="M1272.7,564.7h-.5a.9.9,0,0,0,.1-.5Z" transform="translate(-379.5 -346.8)"/><path class="cls-17" d="M1272,558.7c-4.5.3-2.2,3.4-1.3,5.8,2.2,5.6-.4,9.4-3.9,14.1-2.1,3-6.2,7.9-8.3,2.7-.5-1.2-1.2-8.4-4.7-5.3-.3-1.9-.9-9,1.5-10.2-1.2.6,4.1,1.2,3.4,1.2a5.7,5.7,0,0,0,2.5-.8c1.9-1.1,4.7-4.8,4.3-7.1s-5-3.1-7.5-2.5-4.4,3.2-5.4,3c-3-.6-.1-6.2.9-7.5C1258.8,546,1269.2,553.3,1272,558.7Z" transform="translate(-379.5 -346.8)"/><path class="cls-18" d="M1351.2,613.1c-.1,1.9-14.7.3-17.3-1,1.7.2,7.2,1.9,7.9-.7s-6.7-.7-6.8-4.2,2.3-3.1-.1-5.6-4.9-1.8-7-2.9c-.4-.2-.4-1.1-.8-1.3a10.2,10.2,0,0,0-3.9-.2,16.6,16.6,0,0,0-6.7,2.5,14,14,0,0,0,1.4-6.6c5.8,4.2,20.2,3,21.6,4.4s1.6,4.8,3,8.1S1351.4,611,1351.2,613.1Z" transform="translate(-379.5 -346.8)"/><path class="cls-19" d="M1317,599.1c-1.1,1.8-4.6,6.5-5.4,3.8-.8-4.7,1.1-8.9,6.3-9.8C1317.9,593.1,1318,597.6,1317,599.1Z" transform="translate(-379.5 -346.8)"/><path class="cls-20" d="M1341.9,611.5c-.8,3-8.8.4-10.8.3a44.9,44.9,0,0,0-14.6,1.2,80.7,80.7,0,0,0-12.5,4.4c-3.6,1.5-5,2.1-7.8-.9-1-1-4.4-4.1-3.8-5.7s5.5-.5,6.8-.3c7.2.9,18.9,1.6,24.1-4.6-5.9-1.5-9.8,1.6-15.4,2.1-1.9.2-4.1-.2-4.7-2.4s1.9-3.3,2.9-5c2.8-4.6-6.7-10.3-4.3-13.9s14.1,4.4,16.1,6.4a8.8,8.8,0,0,0-6,9.9c3.4-2.2,5.6-8,9.7-7.3C1337.8,598.6,1342.9,607.7,1341.9,611.5Z" transform="translate(-379.5 -346.8)"/><path class="cls-21" d="M1270.9,558.8h0c-.1,0-.1,0-.1.1S1270.8,558.8,1270.9,558.8Z" transform="translate(-379.5 -346.8)"/><path class="cls-22" d="M1288.6,579.7c-1.7-.1-3.6.3-4.9-1.2A13.6,13.6,0,0,1,1288.6,579.7Z" transform="translate(-379.5 -346.8)"/><path class="cls-22" d="M1293.1,583.5h0a4.3,4.3,0,0,1-.1-.5l.4.5Z" transform="translate(-379.5 -346.8)"/><path class="cls-22" d="M1302.5,587.7l-1.2-1.2a15,15,0,0,0-5.6-2.9,7.1,7.1,0,0,1,6,2.6l.5.8Z" transform="translate(-379.5 -346.8)"/><path class="cls-23" d="M1306.7,586.7c-.8.9.3,3.3-3.1,5.8-3.2-4.5-10.7-11.8-15.7-13.3s-13.4.7-18.4,5-9.3,10.3-7,16.7,8.5,9,14,11.5a18.6,18.6,0,0,1-18.5-10.9c-.8-1.7-5.7-13.7-3.6-15.2s3.9,4.9,5,4.8,2.6-2,3.6-3.7c2-3.8,3.3-8.2,6.6-11.2s6.2-2.8,10.6-1.5C1289.5,577.3,1298.4,581.9,1306.7,586.7Z" transform="translate(-379.5 -346.8)"/><path class="cls-23" d="M1261.7,598.1a8,8,0,0,0,.9,3.3,12.8,12.8,0,0,1-1.1-2,4.1,4.1,0,0,1-.2-1.6Z" transform="translate(-379.5 -346.8)"/><path class="cls-23" d="M1275.4,611.6a11.9,11.9,0,0,1-3.5-1.5,35.9,35.9,0,0,1-5.3-3.9c2.6,1.9,5.8,3.2,8.4,5.1Z" transform="translate(-379.5 -346.8)"/><path class="cls-24" d="M1259,590.8h-.6a1.9,1.9,0,0,1-1.2-1.5A8.6,8.6,0,0,0,1259,590.8Z" transform="translate(-379.5 -346.8)"/><path class="cls-24" d="M1263.4,586.3l-.3.8a7.8,7.8,0,0,1-1.4,2.7v-.2C1262.4,588.5,1262.9,587.4,1263.4,586.3Z" transform="translate(-379.5 -346.8)"/><path class="cls-24" d="M1268.1,578.8h-.1a25.9,25.9,0,0,0-3.1,3.5l.6-1.4Z" transform="translate(-379.5 -346.8)"/><path class="cls-24" d="M1269.5,584.8c-1.6,2.2-2.8,4.8-4.3,7.1a5.5,5.5,0,0,0-2.5,1.4,42.1,42.1,0,0,1,6-7.7Z" transform="translate(-379.5 -346.8)"/><path class="cls-21" d="M1294.5,580.4c-2.5-1-17.6-6.9-20.3-5.8s-5.7,5.7-7.4,7.8-2.2,7.1-4.6,9.9c-6.9,7.9-11.1-7.5-8.3-16.9,1-3.2,3.7,1.3,4.3,3.6s2,4.4,5.2,2.5,7.9-8.7,7.6-13.4-3.5-6.6-1.6-9.7c3.4-4.9,3.9,8.9,4.6,10.3C1276.3,573.8,1292.6,575.2,1294.5,580.4Z" transform="translate(-379.5 -346.8)"/><path class="cls-25" d="M1304,603c-1.4,1.1.8,2.8-.7,3.9l-4.1,3.4c-1.7,1.5-1.4.6-3.8,1.9s-8.5,2-10.8-.7,6-4.1,8.1-5.5a29,29,0,0,0,5.9-5.7c2-3,2.5-6.4,4.4-9.5C1307.1,593.8,1308.7,599.2,1304,603Z" transform="translate(-379.5 -346.8)"/><path class="cls-23" d="M1318.5,612.5c-3.8,3.2-11.2,7.5-15.1,10.5-1.7,1.4-4,2.8-6,2a7.6,7.6,0,0,1-2.2-1.8c-4.6-4.5-27.3-12.2-27.3-12.2s15-.6,16.6-.5a26.9,26.9,0,0,1,5.7.7,9.8,9.8,0,0,1,4.8,3.1,7.6,7.6,0,0,0,3.7,3.4c1.1.4,1.9.9,3,.4A70.6,70.6,0,0,1,1318.5,612.5Z" transform="translate(-379.5 -346.8)"/><path class="cls-26" d="M1279.6,578.9l-.5.5h-1.3Z" transform="translate(-379.5 -346.8)"/><path class="cls-27" d="M1255.2,566.9c-.8,4.1-8.4,5.6-8.4,5.6s1.6-7.3,2.1-7.8S1252.8,567.4,1255.2,566.9Z" transform="translate(-379.5 -346.8)"/><path class="cls-28" d="M1255.9,565.9a1.8,1.8,0,0,1-.5.7,3.7,3.7,0,0,1-2.5.5l-2.4-.4a3.4,3.4,0,0,1-1.6-1.3c-.8-1.7,1.6-4.2,3-4.4s2.7,1,3.4,1.9a2.8,2.8,0,0,1,.7,1.7A2,2,0,0,1,1255.9,565.9Z" transform="translate(-379.5 -346.8)"/><path class="cls-29" d="M1302.5,587.7c-1-2.4-3.7-4.6-6-5.7s-13.2-5.4-19.5-2.6-18.5,14-14.4,22c2.5,5.1,7.4,9.3,11.9,10.7s12.4-2.7,16.6-5C1297.6,603.6,1306.5,596.4,1302.5,587.7Z" transform="translate(-379.5 -346.8)"/></g><g id="Sole"><path id="Mid_Sole" data-name="Mid Sole" class="cls-30" d="M1378,718.1l-13.7,10.8-15.2,6.6-20.1,5-53,5-34.6.8-36.2.8h-36.5l-37-.4-18.9-.4-8.4,10.8-45-.8-40.6-.9-41.4-.4-43.4-.8-41.3.8L879,745.9l-29.7-.4-43.8-.9-48.2-2.4-32.2-2.1-31.7,7.4-32.2-4.1-32.5-5.8L598.1,733l-28.5-21.5-67.9-22.8-79.1-30.3L392,639s-9.8-11.5-10.4-16.2,5.8-8.5,7.2-11.6,2.5-13,4.8-16.6,11-10.9,11.3-7.4c.8,10.7,2.4,18.2,31.3,31.5,13.3,6.1,54.7,20.7,54.7,20.7s66.5,20.8,89.2,25.7c24.4,5.2,73.9,12.2,98.8,14.1,27.1,2,108.5,3.3,108.5,3.3s94-1.9,125.3-3.3,92.2-6.8,123-8.3c37.5-1.9,112.7-2.9,150.3-4.2,31.1-1,93.6-1.4,124.5-5.8,11.6-1.6,35.4-5.1,45.8-10.7,5.1-2.8,14.8-13.1,19.7-12.1,3,.7.6,19.5.8,22.4C1378,675,1377.8,703.2,1378,718.1Z" transform="translate(-379.5 -346.8)"/><path id="Sole-2" data-name="Sole" class="cls-31" d="M1376,736.2c-4.1,6.7-21.6,15.4-29.3,17.3-17.8,4.3-53.1,10.4-71.1,10.8s-80.5,1.1-107.3,1.2c-20.1.1-60.3.2-80.4,0-48.4-.4-145.2-.9-193.6-1.6-35.8-.5-107.4.6-143.1-1.6-30.8-1.9-92.7-7-122.9-13.7-54.7-12-165.6-38.7-213.8-67.5-8.1-4.8-23.3-17.4-28.1-25.7-6.2-10.8-6.3-36-4-33.7s6.4,12.4,9.6,15.7c6.4,6.3,22.4,15.2,30.6,18.8,19.3,8.6,59.1,22.6,79.1,29.4,16.9,5.7,52,14,67.9,22.1,7.9,4,20.5,16.5,28.5,20.1s22.9,5,30.6,6,24.4,3.7,32.5,4.8,24.1,4.4,32.2,4,22.8-7.1,30.9-8,25.5,1.2,33.8,2c12,1.2,35.5,2,47.4,2.4s32.8.5,43.8.8c7.4.2,22.6-1.1,29.7,1.2,3.9,1.3,14.5,7.2,18.5,8,9.8,2.2,26.2.8,36.5.8h43.4l41.4.5c10.2.1,30.5.6,40.6.8s41.3,2.8,44.2,0,6.2-8.2,9.2-9.7,17.4-.4,22.1-.4c9.4,0,25.3.3,33.8.4s27.4,0,36.5,0,27.2.1,36.2,0,27.5-.3,36.2-.8c13.3-.8,39.5-2.6,52.2-4.8a170.1,170.1,0,0,0,19.3-4.8c3.9-1.4,11.7-4.3,15.2-6.5s13.7-10.4,13.7-10.4C1378.1,719.1,1378.6,731.9,1376,736.2Z" transform="translate(-379.5 -346.8)"/></g><g id="Layer_12" data-name="Layer 12"><path class="cls-32" d="M1331,473.6s-37,12.7-53,18.8c-91.1,35.1-183.9,66.7-280.7,79.4-19.6,2.6-41.5,4.1-57.3-7.8-10.7-8.1-16.7-21.2-19-34.4s.1-26.2,1.3-39.6c-13.4,7.6-23.3,12.9-33.9,21.6a193.7,193.7,0,0,0-27.5,28.3c-11.7,15-17.4,39.2-12.5,57.5a58.3,58.3,0,0,0,36,39.2c19.4,7,40.9,3,61.1-1.3a1881.6,1881.6,0,0,0,422.7-145.2C1359.6,480,1331,473.6,1331,473.6Z" transform="translate(-379.5 -346.8)"/></g><g id="Heel_Tab" data-name="Heel Tab"><path class="cls-33" d="M1279.2,458.6s89,42.3,91.2,34.5c6.4-22.5-28.4-98.3-33.4-93.1-7.6,8.1-18.1,19.8-25,26.5Z" transform="translate(-379.5 -346.8)"/></g><g id="Laces"><path class="cls-34" d="M679.1,520.1c9.4-2.3,13.5-6.1,14.6-10.9s-2.8-8.9-1-15.7-28.9,2.8-32.4,10.6S672.3,521.7,679.1,520.1Z" transform="translate(-379.5 -346.8)"/><path class="cls-34" d="M723.5,502.4c.8,3.3,2.3,9.4,9.5,9.8s14.9-7,16.4-9.6,7.8-26.7,15.1-30.8-23.7,3.3-29.9,7S722.7,499.3,723.5,502.4Z" transform="translate(-379.5 -346.8)"/><path class="cls-34" d="M783,483.9c.8,3.2,5.3,9.1,11.2,6.9s15-10.1,16.6-12.3-.5-19.3,3.8-23-8.6-3.2-19.8,3.2S779.7,472,783,483.9Z" transform="translate(-379.5 -346.8)"/><path class="cls-34" d="M838.1,459.5c1.5,4.9,5.9,12.3,17.2,11.2s15-12.7,15-18.7-4.3-19.3,7.5-25.2-24.4,2.4-31.1,6.7S834.6,447.6,838.1,459.5Z" transform="translate(-379.5 -346.8)"/><path class="cls-34" d="M917,403.5c.1,1.9,3.6-.9,8-1.5,6.9-.9,19.8,7.7,30,6s22.6-4.2,12.9-28.7C961.6,363.3,915.7,376.9,917,403.5Z" transform="translate(-379.5 -346.8)"/><path class="cls-34" d="M886.9,423.4c1.3,6.7-2.4,22,7.4,26.2S916.9,437.7,919,434s1.8-28.5-1.9-33S885.2,415.4,886.9,423.4Z" transform="translate(-379.5 -346.8)"/></g></svg>