<svg id="Illustration" xmlns="http://www.w3.org/2000/svg" xmlns:xlink="http://www.w3.org/1999/xlink" width="1003" height="420.3" viewBox="0 0 1003 420.3"><defs><style>.cls-1{fill:none;}.cls-2{fill:#282831;}.cls-3{fill:#0c090e;}.cls-4{fill:#5ba7a8;}.cls-5,.cls-6{fill:#5eccc9;}.cls-10,.cls-12,.cls-13,.cls-15,.cls-16,.cls-17,.cls-18,.cls-19,.cls-6,.cls-7,.cls-8,.cls-9{stroke:#000;stroke-miterlimit:10;stroke-width:3px;}.cls-7{fill:url(#New_Pattern);}.cls-8{fill:url(#New_Pattern-3);}.cls-9{fill:#131519;}.cls-10{fill:url(#New_Pattern_7);}.cls-11{fill:#020406;}.cls-12{fill:#111019;}.cls-13{fill:url(#New_Pattern-5);}.cls-14{fill:#333;}.cls-15{fill:#e7e6e9;}.cls-16{fill:#17181c;}.cls-17{fill:#eef3f6;}.cls-18{fill:url(#New_Pattern-7);}.cls-19{fill:#101216;}</style><pattern id="New_Pattern" data-name="New Pattern" width="119" height="138.9" patternTransform="translate(37.8 34.1) rotate(36) scale(0.8)" patternUnits="userSpaceOnUse" viewBox="0 0 119 138.9"><rect class="cls-1" width="119" height="138.9"/><rect class="cls-2" x="59" y="105" width="120" height="70.97"/><g id="Un01e8.tif"><path class="cls-3" d="M109.2,152.1a50.8,50.8,0,0,0,6.7-.7,3.6,3.6,0,0,0,3.1-2.7c1.1-3.9,1.1-7.8,1.7-11.7a4.3,4.3,0,0,0-.1-1.6c-.3-1.3-.8-1.8-2.4-2.1l-4.1-.7a12.4,12.4,0,0,0-4.7.1,8.3,8.3,0,0,1-3.5.1,3.5,3.5,0,0,0-3.3.7,4.7,4.7,0,0,1-.9.6,1.3,1.3,0,0,0-.7,1.5c.2,1.5.4,3,.7,4.5a54.3,54.3,0,0,1,.4,8,4.9,4.9,0,0,0,.1,1.2c.3,1.7,1.7,2.4,3.6,2.6A18.8,18.8,0,0,0,109.2,152.1Z"/><path class="cls-3" d="M96.5,143.6a22,22,0,0,0-1.3-8.6,1.6,1.6,0,0,1,0-.7c0-1.6-1.7-2.7-4.2-2.8l-1.2-.2a7.2,7.2,0,0,0-2.5-.3,44.1,44.1,0,0,1-8.9,0c-2.2-.2-3.4.4-3.6,1.7a15.7,15.7,0,0,0,.4,5.3c.2,2,.6,4.1,1,6.1a22.1,22.1,0,0,0,1.3,4.7c.5,1.1,1.8,1.7,3.6,1.5a25.7,25.7,0,0,1,6.8.5c3.3.7,6.1,0,7.8-1.8a3.1,3.1,0,0,0,1-2.6C96.7,145.5,96.6,144.7,96.5,143.6Z"/><path class="cls-3" d="M138.9,113.2c-.3,2.6,0,5.1-.2,7.7a22.8,22.8,0,0,0-.2,2.6c0,.4-.2.4-.7.4H121.4c-.5,0-.7-.1-.8-.4a25.7,25.7,0,0,1-2.6-11.4,3.7,3.7,0,0,1,.6-2.2h0a5.4,5.4,0,0,1,1.8-1.1h.2a1.1,1.1,0,0,1,.8-.1c1.8-.4,3.5.2,5.2-.1h.4a3.2,3.2,0,0,1,1.4-.1c.1-.1.2-.1.4,0h1.7c1.2.1,2.3-.1,3.5.1h1.7c.1.1.2.1.2.2s.9-.1,1.3.2h.2c.1-.1.2-.1.2,0h0c.7.1,1.1.3,1.3.8h.2C139.7,111.1,139,112.1,138.9,113.2Zm-10.4-3.9h0Zm.3.4Zm.1-1.1Zm1.7,0h0Z"/><path class="cls-3" d="M92.8,112.3"/><path class="cls-3" d="M115,124.1H92.3c-.9,0-1.2-.2-1.3-.7l-2.7-9a15.2,15.2,0,0,1-.6-4.7h.2c0-.1,0-.2.1-.2s1-.9,1.9-.8l2.7.2a2.8,2.8,0,0,1,1.3.1h.3l1-.2h3.2a3.6,3.6,0,0,1,2.3-.1h2.5l2.1.2a4.8,4.8,0,0,1,2.3.8,6.6,6.6,0,0,1,4.1,5.2,25.1,25.1,0,0,0,3.2,9.3Z"/><path class="cls-3" d="M51.6,138.8a17.7,17.7,0,0,1,0,4.6,10.9,10.9,0,0,0,.3,4.4c.4,1.4,1.9,2.2,4.1,2.4a63.7,63.7,0,0,0,7.6.2c2.8-.1,4.4-1.3,3.9-3a60.2,60.2,0,0,1-2.4-14.5c0-.5-.5-.7-1.2-.8a31.7,31.7,0,0,0-4.4-.2l-6,.3h-2c-.9-.1-1.2.2-1,.7A31.6,31.6,0,0,1,51.6,138.8Z"/><path class="cls-3" d="M102.4,121.2l9.2-.2c1,0,1.4-1.1,1.6-.5a30.1,30.1,0,0,1,1.6,3.1c.6,1.4-.1,2.2-2.2,2.9a24.5,24.5,0,0,1-8.6,1c-2.9,0-5.8-.2-8.7-.4s-3.9-2.5-4.3-3.6a6.4,6.4,0,0,1-.5-1.7c-.2-.5.7-.6,1.2-.6Z"/><path class="cls-3" d="M75.8,107.5h1.8a3,3,0,0,1,2.4.9c.8,1.2.8,2.5,1.1,3.8s1.3,4.4,1.9,6.7l.6,2.2H61.1c-.8.1-1.2,0-1.2-.7.1-4.1.1-8.2,0-12.4,0-.5.2-.7,1.1-.7,2.6.1,5.1-.2,7.7.2S73.4,107.7,75.8,107.5Z"/><path class="cls-3" d="M82.6,124.5a20.3,20.3,0,0,1-4.3-.2,32.5,32.5,0,0,0-6.3.3c-1.4.2-2.7,0-4,.1H66.2c-.4,0-.5-.1-.5-.3v-3.8c0-.4.3-.3.7-.3H82.7c.6,0,.8.1.9.4s.4,1.7.5,2.5S83.7,124.3,82.6,124.5Z"/><path class="cls-3" d="M66.4,120.8v3.5c.1.5-.3.6-1.3.5-2.7-.4-4.6-1.5-5-3.1s0-3.1,0-4.6-.1-.2,0-.2c1.6-.7,3.5-.1,5.2-.3s1.1.2,1.1.6Z"/></g><rect class="cls-2" x="-60" y="105" width="120" height="70.97"/><g id="Un01e8.tif-2" data-name="Un01e8.tif"><path class="cls-3" d="M-9.8,152.1a50.8,50.8,0,0,0,6.7-.7A3.6,3.6,0,0,0,0,148.7c1.1-3.9,1.1-7.8,1.7-11.7a4.3,4.3,0,0,0-.1-1.6c-.3-1.3-.8-1.8-2.4-2.1l-4.1-.7a12.4,12.4,0,0,0-4.7.1,8.3,8.3,0,0,1-3.5.1,3.5,3.5,0,0,0-3.3.7,4.7,4.7,0,0,1-.9.6,1.3,1.3,0,0,0-.7,1.5c.2,1.5.4,3,.7,4.5a54.3,54.3,0,0,1,.4,8,4.9,4.9,0,0,0,.1,1.2c.3,1.7,1.7,2.4,3.6,2.6A18.8,18.8,0,0,0-9.8,152.1Z"/><path class="cls-3" d="M19.9,113.2c-.3,2.6,0,5.1-.2,7.7a22.8,22.8,0,0,0-.2,2.6c0,.4-.2.4-.7.4H2.4c-.5,0-.7-.1-.8-.4A25.7,25.7,0,0,1-1,112.1a3.7,3.7,0,0,1,.6-2.2h0a5.4,5.4,0,0,1,1.8-1.1h.2a1.1,1.1,0,0,1,.8-.1c1.8-.4,3.5.2,5.2-.1H8a3.2,3.2,0,0,1,1.4-.1c.1-.1.2-.1.4,0h1.7c1.2.1,2.3-.1,3.5.1h1.7c.1.1.2.1.2.2s.9-.1,1.3.2h.2c.1-.1.2-.1.2,0h0c.7.1,1.1.3,1.3.8h.2C20.7,111.1,20,112.1,19.9,113.2ZM9.5,109.3h0Zm.3.4Zm.1-1.1Zm1.7,0h0Z"/><path class="cls-3" d="M23.5,137.9a17.6,17.6,0,0,1,1-3c.2-.5-.2-1-1.1-1.2l-2.4-.3a65.8,65.8,0,0,0-9.9.6c-3.1.6-5.1,2.1-5.4,4.1s-.5,6.1-1.7,9.1a1,1,0,0,0,.4,1.3,2.7,2.7,0,0,0,.8.7c1.8,1.4,1.9,1.4,4.7.9l8.2-1.1c1.6-.3,1.8-.5,1.8-1.4a12.4,12.4,0,0,1,2.1-5.4,6.5,6.5,0,0,0,1.3-3.4c.1-.1.2-.2,0-.3A1.2,1.2,0,0,1,23.5,137.9Z"/><path class="cls-3" d="M42.6,115.3a24.1,24.1,0,0,1-1.1,5.2c-.1.5-.1,2-.8,2.3s-3.1,0-4,0H27.5c-.8,0-3.7.3-4.2-.1s.1-1.7.1-2.2.1-3.5.1-5.2-.1-3.3,1-4.6,5.7-1.9,6.3-1.9a3.8,3.8,0,0,1,1.7.5c1,.4,2.1,0,3.1-.1a18.5,18.5,0,0,1,4.1-.2,6.9,6.9,0,0,1,2.2.3c.3.1.4,0,.7.2s.1.3.2.5A46.1,46.1,0,0,0,42.6,115.3Zm-13.1-5.8"/><path class="cls-3" d="M58,120.3c.3.7-.1.9-1.3.9H44.9c-1,.1-1.1-.1-1-.6a27.4,27.4,0,0,0,1.8-11.2c-.1-1.1.4-1.3,2.1-1.4a64.6,64.6,0,0,1,8.8,0c1.7.1,2.1.4,1.8,1.4s-.1,1-.2,1.5c-.2,2.2-.1,4.5-.1,6.7a3.8,3.8,0,0,1-.1,1Z"/><path class="cls-3" d="M36.3,141.2c0,3,.1,6,0,9,0,.6.4.8,1.8.8,3.9.2,7.3-.1,9.5-1.5.6-.4,1.1-.8.8-1.2-1.4-2.2-.3-4.4-.3-6.7a21.7,21.7,0,0,0-1.8-8.8c-.3-.7-1.3-1.3-3.3-1.4a56.6,56.6,0,0,0-5.8-.1c-1.3,0-.8.4-.8.7C36.3,135.1,36.3,138.1,36.3,141.2Z"/><path class="cls-3" d="M41.4,121.6a12.8,12.8,0,0,0-.5,3.8c0,1-.8,1.5-2.5,1.2a14.1,14.1,0,0,0-2.9-.1c-2.8.3-5.7,0-8.4.4a3.3,3.3,0,0,1-2-.5,2.9,2.9,0,0,1-1.9-3.4c.2-1.4.2-1.4,2.7-1.4H41.4Z"/><path class="cls-3" d="M38.2,141.2c0-3.1,0-6.2.1-9.3,0-.5-.3-.7-1.7-.6a45.7,45.7,0,0,0-5.2.5c-1.6.2-2.4.7-2.1,1.4a32.1,32.1,0,0,1,1.7,7.3,37.5,37.5,0,0,1,.2,6.7v1.1c-.1,2.4,1.4,2.3,5.6,2.7,1.1.1,1.5-.1,1.5-.6C38.2,147.3,38.2,144.3,38.2,141.2Z"/><path class="cls-3" d="M1.1,122.3H18.8c.4,0,.8-.1.8.4a13,13,0,0,1-.7,3.3,1.3,1.3,0,0,1-1.5.7,11,11,0,0,0-5.1,0c-1.4.3-2.9-.2-4.3.1s-2.3.4-3.5.6-1.8-.1-2.2-1.1l-.5-2C1.6,123.7,1.4,123,1.1,122.3Z"/><path class="cls-3" d="M50.1,124.8a29.1,29.1,0,0,0-5.1-.3c-.8,0-1.3-.1-1.3-.6a31.6,31.6,0,0,1,.3-3.2c.1-.3.3-.4.9-.4H57.4c.4,0,.6,0,.6.3a7.6,7.6,0,0,0,.2,3c.1.3-.4.4-.9.6s-2.7.4-4.1.6S51.1,124.8,50.1,124.8Z"/><path class="cls-3" d="M46.8,98.7"/></g><path class="cls-3" d="M52.1,138.8a17.7,17.7,0,0,1,0,4.6,10.9,10.9,0,0,0,.3,4.4c.4,1.4,1.9,2.2,4.1,2.4a63.7,63.7,0,0,0,7.6.2c2.8-.1,4.4-1.3,3.9-3a60.2,60.2,0,0,1-2.4-14.5c0-.5-.5-.7-1.2-.8a31.7,31.7,0,0,0-4.4-.2l-6,.3H52c-.9-.1-1.2.2-1,.7A31.6,31.6,0,0,1,52.1,138.8Z"/><rect class="cls-2" x="118.5" y="35.5" width="120" height="70.97"/><g id="Un01e8.tif-3" data-name="Un01e8.tif"><path class="cls-3" d="M111.1,69.3a17.7,17.7,0,0,1,0,4.6,11.4,11.4,0,0,0,.3,4.5c.4,1.4,1.9,2.2,4.1,2.3a63.5,63.5,0,0,0,7.6.3c2.8-.1,4.4-1.4,3.9-3.1a60.2,60.2,0,0,1-2.4-14.4c0-.5-.5-.7-1.2-.8a21.3,21.3,0,0,0-4.4-.2c-2-.1-4,.1-6,.2a6.7,6.7,0,0,1-2-.1c-.9,0-1.2.3-1,.8A29.3,29.3,0,0,1,111.1,69.3Z"/></g><rect class="cls-2" x="-0.5" y="35.5" width="120" height="70.97"/><g id="Un01e8.tif-4" data-name="Un01e8.tif"><path class="cls-3" d="M22.6,100.7c.6,1.3-5.5.5-6.6.6-3.8.2-6.9,3-10.8,1.2s-1.7-6.8-1.7-9.7c0-1.1-.8-3.9,0-4.9s7.3-.8,10.3-.9c6.8-.2,5.7,3,6.8,6.8C21.3,95.9,22.8,98.7,22.6,100.7Z"/><path class="cls-3" d="M49.7,82.7a50.8,50.8,0,0,0,6.7-.7,3.7,3.7,0,0,0,3.1-2.8c1.1-3.8,1.1-7.8,1.7-11.7a4.5,4.5,0,0,0-.1-1.6c-.3-1.3-.8-1.8-2.4-2.1l-4.1-.7a12.4,12.4,0,0,0-4.7.2,10.3,10.3,0,0,1-3.5,0,3.3,3.3,0,0,0-3.3.8l-.9.6a1.2,1.2,0,0,0-.7,1.4c.2,1.5.4,3,.7,4.5a54.9,54.9,0,0,1,.4,8.1,4.9,4.9,0,0,0,.1,1.2c.3,1.7,1.7,2.3,3.6,2.5A18.7,18.7,0,0,0,49.7,82.7Z"/><path class="cls-3" d="M65.8,100.3c-.1.7-.6,1.2-1.6,1.7l-.5.2h-.3l-6,.4H55.7a19.3,19.3,0,0,1-5.5-.7c-.2,0-.3-.1-.3-.2s-.2,0-.2-.1a5.3,5.3,0,0,1-2.9-4c-.3-1.7-1.2-3.3-1.6-4.9a5.3,5.3,0,0,1,.1-3.9c.7-1.1,2.1-1.7,4.4-1.8l3.6-.2a58.9,58.9,0,0,1,8.4,0c3.1.2,4.6,1.2,4,3s-.2,3.8,0,5.6A12.4,12.4,0,0,1,65.8,100.3ZM57.4,102h0Z"/><path class="cls-3" d="M95.3,86.8c-.3,2-.1,4.1-.5,6.2a35.7,35.7,0,0,1-1.9,6.1,2.9,2.9,0,0,0-.2.9c-.3.4,0,.9-.2,1.3a.1.1,0,0,1-.1.1v.2a3.6,3.6,0,0,1-2.3,1.2l-.3.2H87.2a4.2,4.2,0,0,1-2,.3H77.6c-1.7-.2-3.4-.5-4.1-1.4h-.2A2.9,2.9,0,0,1,72.2,99c.1-2.9-.9-5.8-.7-8.7s4.4-4.5,10.2-4.1a57.7,57.7,0,0,0,7.2-.1l4.8-.2C94.9,85.9,95.3,86.2,95.3,86.8Zm-8.7,16.1h0Z"/><path class="cls-3" d="M37,74.2a22.5,22.5,0,0,0-1.3-8.7c-.1-.2,0-.5,0-.7s-1.7-2.6-4.2-2.7a5.3,5.3,0,0,1-1.2-.3,7.1,7.1,0,0,0-2.5-.2,52.9,52.9,0,0,1-8.9-.1c-2.2-.1-3.4.4-3.6,1.7a16.4,16.4,0,0,0,.4,5.4c.2,2,.6,4,1,6A19.3,19.3,0,0,0,18,79.3c.5,1.1,1.8,1.7,3.6,1.6a19.4,19.4,0,0,1,6.8.5c3.3.6,6.1,0,7.8-1.8a3.2,3.2,0,0,0,1-2.7C37.2,76.1,37.1,75.2,37,74.2Z"/><path class="cls-3" d="M79.4,43.8c-.3,2.5,0,5.1-.2,7.7A21.1,21.1,0,0,0,79,54c0,.4-.2.5-.7.5H61.9c-.5,0-.7-.2-.8-.5a25.2,25.2,0,0,1-2.6-11.3,3.5,3.5,0,0,1,.6-2.2v-.2a5.2,5.2,0,0,1,1.8-1h.2a1.1,1.1,0,0,1,.8-.2c1.8-.4,3.5.3,5.2,0h.4a5.9,5.9,0,0,1,1.4-.2H71a20.6,20.6,0,0,1,3.5.2h1.9a5.1,5.1,0,0,1,1.3.2h.4v.2a1.3,1.3,0,0,1,1.3.7h.2C80.2,41.6,79.5,42.7,79.4,43.8ZM69,39.9Zm.3.4Zm.1-1.1h0a.6.6,0,0,0-.6,0h-.1a.1.1,0,0,0,.1-.1h.6Zm1.7-.1h0Z"/><path class="cls-3" d="M68.3,109.7Z"/><path class="cls-3" d="M33.3,42.9"/><path class="cls-3" d="M83,68.5a18.6,18.6,0,0,1,1-3.1c.2-.5-.2-.9-1.1-1.1a9.9,9.9,0,0,0-2.4-.3,47.1,47.1,0,0,0-9.9.6c-3.1.6-5.1,2.1-5.4,4.1s-.5,6.1-1.7,9.1a1,1,0,0,0,.4,1.3l.8.7c1.8,1.4,1.9,1.3,4.7.9l8.2-1.2c1.6-.2,1.8-.4,1.8-1.4a12.1,12.1,0,0,1,2.1-5.3,6.5,6.5,0,0,0,1.3-3.4c.1-.1.2-.3,0-.3A1.2,1.2,0,0,1,83,68.5Z"/><path class="cls-3" d="M115.5,103h-5a2.3,2.3,0,0,1-1.4-.1h-.3a4.6,4.6,0,0,1-2.6-.1h-2.5c-.2,0-.4,0-.4-.2h-1.1c-.6-.2-1.3-.3-1.5-.8h-.3c.1-.1-.2-.2-.1-.3s.4-2.3.7-3.4a27.4,27.4,0,0,0,1.4-7.9,5.7,5.7,0,0,1,.4-2.2c.4-.9,1.2-1.2,2.8-1a37.5,37.5,0,0,0,6.7,0h1.4c3,0,3.9.5,4.2,2.1s-.2,5.9,0,8.8a17.7,17.7,0,0,0,.5,3.2C118.7,102.2,117.8,102.8,115.5,103Z"/><path class="cls-3" d="M103.2,104.4h0Z"/><path class="cls-3" d="M55.5,54.7H32.8c-.9,0-1.2-.2-1.3-.7l-2.7-9a14.6,14.6,0,0,1-.6-4.6l.2-.2a.3.3,0,0,1,.1-.2c.2-.6,1-.8,1.9-.8l2.7.2a5.3,5.3,0,0,1,1.3.1h.3l1-.2a6.7,6.7,0,0,1,2,0h1.2a3,3,0,0,1,2.3-.2h2.5l2.1.2c.9.2,1.8.2,2.3.8a6.5,6.5,0,0,1,4.1,5.2,25.8,25.8,0,0,0,3.2,9.3C55.5,54.5,55.5,54.6,55.5,54.7Z"/><path class="cls-3" d="M102.1,45.8A22.9,22.9,0,0,1,101,51c-.1.5-.1,2-.8,2.3s-3.1.1-4,.1H87c-.8,0-3.7.2-4.2-.1s.1-1.8.1-2.2.1-3.5.1-5.3-.1-3.2,1-4.6,5.7-1.9,6.3-1.9,1.1.4,1.7.6,2.1,0,3.1-.1a18.4,18.4,0,0,1,4.1-.3l2.2.4c.3.1.4,0,.7.2s.1.3.2.4A47.8,47.8,0,0,0,102.1,45.8ZM89,40.1"/><path class="cls-3" d="M87.2,109.1Z"/><path class="cls-3" d="M-7.9,69.3a17.7,17.7,0,0,1,0,4.6,11.4,11.4,0,0,0,.3,4.5c.4,1.4,1.9,2.2,4.1,2.3a63.5,63.5,0,0,0,7.6.3c2.8-.1,4.4-1.4,3.9-3.1A60.2,60.2,0,0,1,5.6,63.5c0-.5-.5-.7-1.2-.8A21.3,21.3,0,0,0,0,62.5c-2-.1-4,.1-6,.2a6.7,6.7,0,0,1-2-.1c-.9,0-1.2.3-1,.8A29.3,29.3,0,0,1-7.9,69.3Z"/><path class="cls-3" d="M117.5,50.9c.3.6-.1.8-1.3.8H104.4c-1,0-1.1-.2-1-.6a27.9,27.9,0,0,0,1.8-11.3c-.1-1,.4-1.3,2.1-1.4a86.1,86.1,0,0,1,8.8,0c1.7.2,2.1.4,1.8,1.4s-.1,1-.2,1.5c-.2,2.3-.1,4.5-.1,6.8a4.6,4.6,0,0,1-.1,1Z"/><path class="cls-3" d="M42.9,51.8l9.2-.2c1-.1,1.4-1.1,1.6-.6s1.4,2.6,1.6,3.2-.1,2.2-2.2,2.9a30.3,30.3,0,0,1-8.6,1l-8.7-.4c-1.8-.1-3.9-2.6-4.3-3.7a4.8,4.8,0,0,1-.5-1.7c-.2-.5.7-.5,1.2-.5Z"/><path class="cls-3" d="M95.8,71.7c0,3.1.1,6.1,0,9.1,0,.5.4.7,1.8.8,3.9.1,7.3-.1,9.5-1.6.6-.4,1.1-.7.8-1.2-1.4-2.2-.3-4.4-.3-6.6a21,21,0,0,0-1.8-8.8c-.3-.8-1.3-1.3-3.3-1.5s-3.9,0-5.8,0-.8.4-.8.6C95.8,65.6,95.8,68.7,95.8,71.7Z"/><path class="cls-3" d="M100.9,52.2a12,12,0,0,0-.5,3.8c0,1-.8,1.4-2.5,1.2a14.1,14.1,0,0,0-2.9-.1c-2.8.2-5.7,0-8.4.4a3.3,3.3,0,0,1-2-.5,2.9,2.9,0,0,1-1.9-3.4c.2-1.5.2-1.5,2.7-1.5h15.5Z"/><path class="cls-3" d="M97.7,71.7c0-3,0-6.1.1-9.2,0-.6-.3-.8-1.7-.7l-5.2.5c-1.6.3-2.4.7-2.1,1.4a33,33,0,0,1,1.7,7.4,36.4,36.4,0,0,1,.2,6.6v1.2c-.1,2.4,1.4,2.2,5.6,2.6,1.1.1,1.5,0,1.5-.6C97.7,77.9,97.7,74.8,97.7,71.7Z"/><path class="cls-3" d="M60.6,52.9H78.3c.4,0,.8-.1.8.3a12.8,12.8,0,0,1-.7,3.4,1.2,1.2,0,0,1-1.5.6,11,11,0,0,0-5.1,0c-1.4.3-2.9-.1-4.3.2l-3.5.5c-1.3.2-1.8-.1-2.2-1.1s-.3-1.3-.5-1.9A15.9,15.9,0,0,0,60.6,52.9Z"/><path class="cls-3" d="M109.6,55.3c-1.7-.1-3.4-.3-5.1-.3s-1.3-.1-1.3-.5.1-2.2.3-3.3.3-.4.9-.3h12.5c.4,0,.6,0,.6.2a7.6,7.6,0,0,0,.2,3c.1.3-.4.5-.9.6s-2.7.4-4.1.6A16.1,16.1,0,0,1,109.6,55.3Z"/><path class="cls-3" d="M16.3,38h1.8a2.7,2.7,0,0,1,2.4,1c.8,1.2.8,2.5,1.1,3.7s1.3,4.5,1.9,6.7l.6,2.3H1.6C.8,51.7.4,51.6.4,51c.1-4.1.1-8.3,0-12.4,0-.6.2-.8,1.1-.7a49.5,49.5,0,0,1,7.7.1C11.5,37.8,13.9,38.3,16.3,38Z"/><path class="cls-3" d="M23.1,55a20.5,20.5,0,0,1-4.3-.1,32.7,32.7,0,0,0-6.3.2c-1.4.2-2.7,0-4,.1H6.7c-.4.1-.5,0-.5-.3V51.3c0-.4.3-.4.7-.4,2.7.1,5.4,0,8.2,0s5.4.1,8.1,0c.6,0,.8.2.9.5a18.4,18.4,0,0,1,.5,2.5C24.7,54.5,24.2,54.9,23.1,55Z"/><path class="cls-3" d="M6.9,51.4v3.5c.1.4-.3.5-1.3.4C2.9,55,1,53.9.6,52.2s0-3,0-4.6a.1.1,0,0,1,0-.2c1.6-.6,3.5-.1,5.2-.3s1.1.3,1.1.7Z"/><path class="cls-3" d="M68.3,109.7Z"/><path class="cls-3" d="M68.3,109.7Z"/><path class="cls-3" d="M68.5,107.6h-.7a.5.5,0,0,1,.6.1h.1Z"/><path class="cls-3" d="M68.3,102h0Z"/><path class="cls-3" d="M103.2,104.4H103v-.2c0,.1.1.1.1.2h.1Z"/><path class="cls-3" d="M68.3,102h0Z"/><path class="cls-3" d="M105.8,104.7a2,2,0,0,1-1.3.1h1.3Z"/><path class="cls-3" d="M106.3,29.2"/><path class="cls-3" d="M68.5,107.6h-.7a.5.5,0,0,1,.6.1h.1Z"/><path class="cls-3" d="M68.3,102h0Z"/><path class="cls-3" d="M91.3,105.1Z"/><path class="cls-3" d="M91.4,105.2h-.1C91.4,105.1,91.4,105.1,91.4,105.2Z"/><path class="cls-3" d="M103.1,104.4h0Z"/><path class="cls-3" d="M105.8,104.7a2,2,0,0,1-1.3.1h1.3Z"/><path class="cls-3" d="M67.8,107.5h0Z"/><path class="cls-3" d="M68.3,109.7Z"/><path class="cls-3" d="M68.5,107.6h0Z"/><path class="cls-3" d="M91.4,105.2h-.1C91.4,105.1,91.4,105.1,91.4,105.2Z"/></g><path class="cls-3" d="M41.7,92.1a15.6,15.6,0,0,1-1,5.9c-.1.2,0,.4-.1.5s-1.2,1.8-3.1,1.9l-1,.2a6.7,6.7,0,0,1-2,.1,53,53,0,0,0-6.9.1c-1.6.1-2.6-.3-2.8-1.2a11.6,11.6,0,0,1,.3-3.7c.2-1.4.5-2.8.8-4.1a20.7,20.7,0,0,1,1-3.3c.4-.8,1.4-1.2,2.8-1.1a18.5,18.5,0,0,0,5.3-.3,7.2,7.2,0,0,1,6.1,1.2,2.5,2.5,0,0,1,.8,1.9A17.6,17.6,0,0,1,41.7,92.1Z"/><path class="cls-3" d="M111.6,69.3a17.7,17.7,0,0,1,0,4.6,11.4,11.4,0,0,0,.3,4.5c.4,1.4,1.9,2.2,4.1,2.3a63.5,63.5,0,0,0,7.6.3c2.8-.1,4.4-1.4,3.9-3.1a60.2,60.2,0,0,1-2.4-14.4c0-.5-.5-.7-1.2-.8a21.3,21.3,0,0,0-4.4-.2c-2-.1-4,.1-6,.2a6.7,6.7,0,0,1-2-.1c-.9,0-1.2.3-1,.8A29.3,29.3,0,0,1,111.6,69.3Z"/><rect class="cls-2" x="-119.5" y="35.5" width="120" height="70.97"/><path class="cls-3" d="M-7.4,69.3a17.7,17.7,0,0,1,0,4.6,11.4,11.4,0,0,0,.3,4.5c.4,1.4,1.9,2.2,4.1,2.3a63.5,63.5,0,0,0,7.6.3c2.8-.1,4.4-1.4,3.9-3.1A60.2,60.2,0,0,1,6.1,63.5c0-.5-.5-.7-1.2-.8a21.3,21.3,0,0,0-4.4-.2c-2-.1-4,.1-6,.2a6.7,6.7,0,0,1-2-.1c-.9,0-1.2.3-1,.8A29.3,29.3,0,0,1-7.4,69.3Z"/><rect class="cls-2" x="59" y="-33.9" width="120" height="70.97"/><g id="Un01e8.tif-5" data-name="Un01e8.tif"><path class="cls-3" d="M82.1,31.3c.6,1.3-5.5.5-6.6.5-3.8.3-6.9,3-10.8,1.2S63,26.3,63,23.4c0-1.1-.8-3.9,0-4.9s7.3-.9,10.3-.9c6.8-.2,5.7,2.9,6.8,6.8C80.8,26.5,82.3,29.2,82.1,31.3Z"/><path class="cls-3" d="M109.2,13.2a30.5,30.5,0,0,0,6.7-.7A3.6,3.6,0,0,0,119,9.8c1.1-3.9,1.1-7.8,1.7-11.7a4.3,4.3,0,0,0-.1-1.6c-.3-1.3-.8-1.8-2.4-2.1l-4.1-.7a12.4,12.4,0,0,0-4.7.1,8.3,8.3,0,0,1-3.5.1,3.5,3.5,0,0,0-3.3.7,4.7,4.7,0,0,1-.9.6,1.3,1.3,0,0,0-.7,1.5c.2,1.5.4,3,.7,4.5a54.3,54.3,0,0,1,.4,8,4.9,4.9,0,0,0,.1,1.2c.3,1.7,1.7,2.4,3.6,2.6A18.8,18.8,0,0,0,109.2,13.2Z"/><path class="cls-3" d="M125.3,30.9a2.3,2.3,0,0,1-1.6,1.6c-.1.2-.3.2-.5.2l-.3.2-6,.4h-1.7a14.1,14.1,0,0,1-5.5-.7c-.2,0-.3-.1-.3-.2h-.2a5.5,5.5,0,0,1-2.9-4c-.3-1.7-1.2-3.3-1.6-4.9a5.3,5.3,0,0,1,.1-3.9c.7-1.2,2.1-1.8,4.4-1.8a21.9,21.9,0,0,0,3.6-.3,78.5,78.5,0,0,1,8.4.1c3.1.2,4.6,1.1,4,3s-.2,3.7,0,5.6A12.4,12.4,0,0,1,125.3,30.9Zm-8.4,1.6Z"/><path class="cls-3" d="M96.5,4.7a22,22,0,0,0-1.3-8.6c-.1-.2,0-.5,0-.7S93.5-7.2,91-7.4l-1.2-.2a7.2,7.2,0,0,0-2.5-.3,44.1,44.1,0,0,1-8.9,0c-2.2-.2-3.4.4-3.6,1.7a15.7,15.7,0,0,0,.4,5.3,59.7,59.7,0,0,0,1,6.1,22.1,22.1,0,0,0,1.3,4.7c.5,1.1,1.8,1.7,3.6,1.5a25.7,25.7,0,0,1,6.8.5c3.3.7,6.1,0,7.8-1.8a3.1,3.1,0,0,0,1-2.6C96.7,6.6,96.6,5.8,96.5,4.7Z"/><path class="cls-3" d="M51.6-.1a17.7,17.7,0,0,1,0,4.6,10.9,10.9,0,0,0,.3,4.4c.4,1.4,1.9,2.2,4.1,2.4a63.7,63.7,0,0,0,7.6.2c2.8-.1,4.4-1.3,3.9-3A60.2,60.2,0,0,1,65.1-6c0-.5-.5-.7-1.2-.8A31.7,31.7,0,0,0,59.5-7q-3,0-6,.3h-2c-.9,0-1.2.3-1,.7A31.6,31.6,0,0,1,51.6-.1Z"/></g><path class="cls-3" d="M101.2,22.6a16.1,16.1,0,0,1-1,6c-.1.1,0,.3-.1.5S98.9,30.9,97,31H96a4.6,4.6,0,0,1-2,.2,53,53,0,0,0-6.9,0c-1.6.1-2.6-.2-2.8-1.1a11.4,11.4,0,0,1,.3-3.7c.2-1.4.5-2.8.8-4.2a20.7,20.7,0,0,1,1-3.3c.4-.7,1.4-1.1,2.8-1a18.4,18.4,0,0,0,5.3-.4c2.5-.4,4.7,0,6.1,1.3a2.3,2.3,0,0,1,.8,1.8A13.7,13.7,0,0,1,101.2,22.6Z"/><rect class="cls-2" x="-60" y="-33.9" width="120" height="70.97"/><g id="Un01e8.tif-6" data-name="Un01e8.tif"><path class="cls-3" d="M-9.8,13.2a30.5,30.5,0,0,0,6.7-.7A3.6,3.6,0,0,0,0,9.8C1.1,5.9,1.1,2,1.7-1.9a4.3,4.3,0,0,0-.1-1.6C1.3-4.8.8-5.3-.8-5.6l-4.1-.7a12.4,12.4,0,0,0-4.7.1,8.3,8.3,0,0,1-3.5.1,3.5,3.5,0,0,0-3.3.7,4.7,4.7,0,0,1-.9.6A1.3,1.3,0,0,0-18-3.3c.2,1.5.4,3,.7,4.5a54.3,54.3,0,0,1,.4,8,4.9,4.9,0,0,0,.1,1.2c.3,1.7,1.7,2.4,3.6,2.6A18.8,18.8,0,0,0-9.8,13.2Z"/><path class="cls-3" d="M6.3,30.9a2.3,2.3,0,0,1-1.6,1.6c-.1.2-.3.2-.5.2l-.3.2-6,.4H-3.8a14.1,14.1,0,0,1-5.5-.7c-.2,0-.3-.1-.3-.2h-.2a5.5,5.5,0,0,1-2.9-4c-.3-1.7-1.2-3.3-1.6-4.9a5.3,5.3,0,0,1,.1-3.9c.7-1.2,2.1-1.8,4.4-1.8a21.9,21.9,0,0,0,3.6-.3,78.5,78.5,0,0,1,8.4.1c3.1.2,4.6,1.1,4,3s-.2,3.7,0,5.6A12.4,12.4,0,0,1,6.3,30.9Zm-8.4,1.6Z"/><path class="cls-3" d="M35.8,17.3c-.3,2.1-.1,4.2-.5,6.2a36.7,36.7,0,0,1-1.9,6.2,2.4,2.4,0,0,0-.2.8c-.3.5,0,.9-.2,1.4a.1.1,0,0,0-.1.1v.2a4.9,4.9,0,0,1-2.3,1.2H27.7a4.2,4.2,0,0,1-2,.3c-1.2,0-2.4.1-3.6,0H18.4l-.3-.2c-1.7-.2-3.4-.4-4.1-1.3h-.2V32a2.6,2.6,0,0,1-1.1-2.4c.1-3-.9-5.9-.7-8.8s4.4-4.5,10.2-4c2.4.1,4.8-.1,7.2-.2h4.8C35.4,16.5,35.8,16.8,35.8,17.3ZM27.1,33.4Z"/><path class="cls-3" d="M8.8,40.2Z"/><path class="cls-3" d="M23.5-.9a16,16,0,0,1,1-3.1c.2-.5-.2-1-1.1-1.2L21-5.5a65.8,65.8,0,0,0-9.9.6C8-4.3,6-2.8,5.7-.8S5.2,5.3,4,8.3a1,1,0,0,0,.4,1.3,2.7,2.7,0,0,0,.8.7c1.8,1.4,1.9,1.4,4.7.9l8.2-1.1c1.6-.3,1.8-.5,1.8-1.4A12.4,12.4,0,0,1,22,3.3,6.5,6.5,0,0,0,23.3-.1c.1-.1.2-.2,0-.3A.8.8,0,0,1,23.5-.9Z"/><path class="cls-3" d="M56,33.6a11.3,11.3,0,0,1-2.6-.1,7.4,7.4,0,0,1-2.1,0H51a3.3,3.3,0,0,1-1.4-.1H48.2a4,4,0,0,0,1.1,0,3.9,3.9,0,0,1-2.6-.1h0v.2H44.2c-.2.1-.4,0-.4-.1H42.7c-.6-.2-1.3-.3-1.5-.7l-.3-.2c.1-.1-.2-.1-.1-.2s.4-2.4.7-3.5a26.7,26.7,0,0,0,1.4-7.8,6.2,6.2,0,0,1,.4-2.3c.4-.8,1.2-1.1,2.8-.9a37.5,37.5,0,0,0,6.7,0h1.4c3-.1,3.9.5,4.2,2.1s-.2,5.8,0,8.8a19.2,19.2,0,0,0,.5,3.2C59.2,32.8,58.3,33.4,56,33.6Z"/><path class="cls-3" d="M43.7,34.9h-.1A.1.1,0,0,0,43.7,34.9Z"/><path class="cls-3" d="M27.7,39.6h0Z"/><path class="cls-3" d="M36.3,2.3c0,3,.1,6,0,9,0,.6.4.8,1.8.8,3.9.2,7.3-.1,9.5-1.5.6-.4,1.1-.8.8-1.2C47,7.2,48.1,5,48.1,2.7a21.7,21.7,0,0,0-1.8-8.8C46-6.8,45-7.4,43-7.5a56.6,56.6,0,0,0-5.8-.1c-1.3,0-.8.4-.8.7C36.3-3.8,36.3-.8,36.3,2.3Z"/><path class="cls-3" d="M38.2,2.3c0-3.1,0-6.2.1-9.3,0-.5-.3-.7-1.7-.6a45.7,45.7,0,0,0-5.2.5c-1.6.2-2.4.7-2.1,1.4A32.1,32.1,0,0,1,31,1.6a37.5,37.5,0,0,1,.2,6.7V9.5c-.1,2.4,1.4,2.2,5.6,2.6,1.1.1,1.5-.1,1.5-.6C38.2,8.4,38.2,5.4,38.2,2.3Z"/><path class="cls-3" d="M8.8,40.2Z"/><path class="cls-3" d="M8.8,40.2Z"/><path class="cls-3" d="M9,38.2H8.3a.5.5,0,0,1,.6.1H9Z"/><path class="cls-3" d="M8.8,32.5h0Z"/><path class="cls-3" d="M43.7,34.9h0c-.1.1-.2.1-.2,0h0v-.3h0c0,.1.1.2.1.3h0A.1.1,0,0,0,43.7,34.9Z"/><path class="cls-3" d="M8.8,32.5h0Z"/><path class="cls-3" d="M46.3,35.3c-.4,0-.9.2-1.3,0h1.3Z"/><path class="cls-3" d="M9,38.2H8.3a.5.5,0,0,1,.6.1H9Z"/><path class="cls-3" d="M8.8,32.5h0Z"/><path class="cls-3" d="M31.8,35.6Z"/><path class="cls-3" d="M31.9,35.7h-.1v-.2h0A.1.1,0,0,1,31.9,35.7Z"/><path class="cls-3" d="M43.6,35a.1.1,0,0,0,.1-.1h0c-.1.1-.2.1-.2,0Z"/><path class="cls-3" d="M46.3,35.3c-.4,0-.9.2-1.3,0h1.3Z"/><path class="cls-3" d="M8.3,38.1h0Z"/><path class="cls-3" d="M8.8,40.2Z"/><path class="cls-3" d="M9,38.2H9Z"/><path class="cls-3" d="M31.9,35.7h-.1v-.2h0A.1.1,0,0,1,31.9,35.7Z"/></g><path class="cls-3" d="M52.1-.1a17.7,17.7,0,0,1,0,4.6,10.9,10.9,0,0,0,.3,4.4c.4,1.4,1.9,2.2,4.1,2.4a63.7,63.7,0,0,0,7.6.2c2.8-.1,4.4-1.3,3.9-3A60.2,60.2,0,0,1,65.6-6c0-.5-.5-.7-1.2-.8A31.7,31.7,0,0,0,60-7q-3,0-6,.3H52c-.9,0-1.2.3-1,.7A31.6,31.6,0,0,1,52.1-.1Z"/></pattern><pattern id="New_Pattern-3" data-name="New Pattern" width="119" height="138.9" patternTransform="translate(130.2 87.1) rotate(176) scale(0.8)" patternUnits="userSpaceOnUse" viewBox="0 0 119 138.9"><rect class="cls-1" width="119" height="138.9"/><rect class="cls-2" x="59" y="105" width="120" height="70.97"/><g id="Un01e8.tif-7" data-name="Un01e8.tif"><path class="cls-3" d="M109.2,152.1a50.8,50.8,0,0,0,6.7-.7,3.6,3.6,0,0,0,3.1-2.7c1.1-3.9,1.1-7.8,1.7-11.7a4.3,4.3,0,0,0-.1-1.6c-.3-1.3-.8-1.8-2.4-2.1l-4.1-.7a12.4,12.4,0,0,0-4.7.1,8.3,8.3,0,0,1-3.5.1,3.5,3.5,0,0,0-3.3.7,4.7,4.7,0,0,1-.9.6,1.3,1.3,0,0,0-.7,1.5c.2,1.5.4,3,.7,4.5a54.3,54.3,0,0,1,.4,8,4.9,4.9,0,0,0,.1,1.2c.3,1.7,1.7,2.4,3.6,2.6A18.8,18.8,0,0,0,109.2,152.1Z"/><path class="cls-3" d="M96.5,143.6a22,22,0,0,0-1.3-8.6,1.6,1.6,0,0,1,0-.7c0-1.6-1.7-2.7-4.2-2.8l-1.2-.2a7.2,7.2,0,0,0-2.5-.3,44.1,44.1,0,0,1-8.9,0c-2.2-.2-3.4.4-3.6,1.7a15.7,15.7,0,0,0,.4,5.3c.2,2,.6,4.1,1,6.1a22.1,22.1,0,0,0,1.3,4.7c.5,1.1,1.8,1.7,3.6,1.5a25.7,25.7,0,0,1,6.8.5c3.3.7,6.1,0,7.8-1.8a3.1,3.1,0,0,0,1-2.6C96.7,145.5,96.6,144.7,96.5,143.6Z"/><path class="cls-3" d="M138.9,113.2c-.3,2.6,0,5.1-.2,7.7a22.8,22.8,0,0,0-.2,2.6c0,.4-.2.4-.7.4H121.4c-.5,0-.7-.1-.8-.4a25.7,25.7,0,0,1-2.6-11.4,3.7,3.7,0,0,1,.6-2.2h0a5.4,5.4,0,0,1,1.8-1.1h.2a1.1,1.1,0,0,1,.8-.1c1.8-.4,3.5.2,5.2-.1h.4a3.2,3.2,0,0,1,1.4-.1c.1-.1.2-.1.4,0h1.7c1.2.1,2.3-.1,3.5.1h1.7c.1.1.2.1.2.2s.9-.1,1.3.2h.2c.1-.1.2-.1.2,0h0c.7.1,1.1.3,1.3.8h.2C139.7,111.1,139,112.1,138.9,113.2Zm-10.4-3.9h0Zm.3.4Zm.1-1.1Zm1.7,0h0Z"/><path class="cls-3" d="M92.8,112.3"/><path class="cls-3" d="M115,124.1H92.3c-.9,0-1.2-.2-1.3-.7l-2.7-9a15.2,15.2,0,0,1-.6-4.7h.2c0-.1,0-.2.1-.2s1-.9,1.9-.8l2.7.2a2.8,2.8,0,0,1,1.3.1h.3l1-.2h3.2a3.6,3.6,0,0,1,2.3-.1h2.5l2.1.2a4.8,4.8,0,0,1,2.3.8,6.6,6.6,0,0,1,4.1,5.2,25.1,25.1,0,0,0,3.2,9.3Z"/><path class="cls-3" d="M51.6,138.8a17.7,17.7,0,0,1,0,4.6,10.9,10.9,0,0,0,.3,4.4c.4,1.4,1.9,2.2,4.1,2.4a63.7,63.7,0,0,0,7.6.2c2.8-.1,4.4-1.3,3.9-3a60.2,60.2,0,0,1-2.4-14.5c0-.5-.5-.7-1.2-.8a31.7,31.7,0,0,0-4.4-.2l-6,.3h-2c-.9-.1-1.2.2-1,.7A31.6,31.6,0,0,1,51.6,138.8Z"/><path class="cls-3" d="M102.4,121.2l9.2-.2c1,0,1.4-1.1,1.6-.5a30.1,30.1,0,0,1,1.6,3.1c.6,1.4-.1,2.2-2.2,2.9a24.5,24.5,0,0,1-8.6,1c-2.9,0-5.8-.2-8.7-.4s-3.9-2.5-4.3-3.6a6.4,6.4,0,0,1-.5-1.7c-.2-.5.7-.6,1.2-.6Z"/><path class="cls-3" d="M75.8,107.5h1.8a3,3,0,0,1,2.4.9c.8,1.2.8,2.5,1.1,3.8s1.3,4.4,1.9,6.7l.6,2.2H61.1c-.8.1-1.2,0-1.2-.7.1-4.1.1-8.2,0-12.4,0-.5.2-.7,1.1-.7,2.6.1,5.1-.2,7.7.2S73.4,107.7,75.8,107.5Z"/><path class="cls-3" d="M82.6,124.5a20.3,20.3,0,0,1-4.3-.2,32.5,32.5,0,0,0-6.3.3c-1.4.2-2.7,0-4,.1H66.2c-.4,0-.5-.1-.5-.3v-3.8c0-.4.3-.3.7-.3H82.7c.6,0,.8.1.9.4s.4,1.7.5,2.5S83.7,124.3,82.6,124.5Z"/><path class="cls-3" d="M66.4,120.8v3.5c.1.5-.3.6-1.3.5-2.7-.4-4.6-1.5-5-3.1s0-3.1,0-4.6-.1-.2,0-.2c1.6-.7,3.5-.1,5.2-.3s1.1.2,1.1.6Z"/></g><rect class="cls-2" x="-60" y="105" width="120" height="70.97"/><g id="Un01e8.tif-8" data-name="Un01e8.tif"><path class="cls-3" d="M-9.8,152.1a50.8,50.8,0,0,0,6.7-.7A3.6,3.6,0,0,0,0,148.7c1.1-3.9,1.1-7.8,1.7-11.7a4.3,4.3,0,0,0-.1-1.6c-.3-1.3-.8-1.8-2.4-2.1l-4.1-.7a12.4,12.4,0,0,0-4.7.1,8.3,8.3,0,0,1-3.5.1,3.5,3.5,0,0,0-3.3.7,4.7,4.7,0,0,1-.9.6,1.3,1.3,0,0,0-.7,1.5c.2,1.5.4,3,.7,4.5a54.3,54.3,0,0,1,.4,8,4.9,4.9,0,0,0,.1,1.2c.3,1.7,1.7,2.4,3.6,2.6A18.8,18.8,0,0,0-9.8,152.1Z"/><path class="cls-3" d="M19.9,113.2c-.3,2.6,0,5.1-.2,7.7a22.8,22.8,0,0,0-.2,2.6c0,.4-.2.4-.7.4H2.4c-.5,0-.7-.1-.8-.4A25.7,25.7,0,0,1-1,112.1a3.7,3.7,0,0,1,.6-2.2h0a5.4,5.4,0,0,1,1.8-1.1h.2a1.1,1.1,0,0,1,.8-.1c1.8-.4,3.5.2,5.2-.1H8a3.2,3.2,0,0,1,1.4-.1c.1-.1.2-.1.4,0h1.7c1.2.1,2.3-.1,3.5.1h1.7c.1.1.2.1.2.2s.9-.1,1.3.2h.2c.1-.1.2-.1.2,0h0c.7.1,1.1.3,1.3.8h.2C20.7,111.1,20,112.1,19.9,113.2ZM9.5,109.3h0Zm.3.4Zm.1-1.1Zm1.7,0h0Z"/><path class="cls-3" d="M23.5,137.9a17.6,17.6,0,0,1,1-3c.2-.5-.2-1-1.1-1.2l-2.4-.3a65.8,65.8,0,0,0-9.9.6c-3.1.6-5.1,2.1-5.4,4.1s-.5,6.1-1.7,9.1a1,1,0,0,0,.4,1.3,2.7,2.7,0,0,0,.8.7c1.8,1.4,1.9,1.4,4.7.9l8.2-1.1c1.6-.3,1.8-.5,1.8-1.4a12.4,12.4,0,0,1,2.1-5.4,6.5,6.5,0,0,0,1.3-3.4c.1-.1.2-.2,0-.3A1.2,1.2,0,0,1,23.5,137.9Z"/><path class="cls-3" d="M42.6,115.3a24.1,24.1,0,0,1-1.1,5.2c-.1.5-.1,2-.8,2.3s-3.1,0-4,0H27.5c-.8,0-3.7.3-4.2-.1s.1-1.7.1-2.2.1-3.5.1-5.2-.1-3.3,1-4.6,5.7-1.9,6.3-1.9a3.8,3.8,0,0,1,1.7.5c1,.4,2.1,0,3.1-.1a18.5,18.5,0,0,1,4.1-.2,6.9,6.9,0,0,1,2.2.3c.3.1.4,0,.7.2s.1.3.2.5A46.1,46.1,0,0,0,42.6,115.3Zm-13.1-5.8"/><path class="cls-3" d="M58,120.3c.3.7-.1.9-1.3.9H44.9c-1,.1-1.1-.1-1-.6a27.4,27.4,0,0,0,1.8-11.2c-.1-1.1.4-1.3,2.1-1.4a64.6,64.6,0,0,1,8.8,0c1.7.1,2.1.4,1.8,1.4s-.1,1-.2,1.5c-.2,2.2-.1,4.5-.1,6.7a3.8,3.8,0,0,1-.1,1Z"/><path class="cls-3" d="M36.3,141.2c0,3,.1,6,0,9,0,.6.4.8,1.8.8,3.9.2,7.3-.1,9.5-1.5.6-.4,1.1-.8.8-1.2-1.4-2.2-.3-4.4-.3-6.7a21.7,21.7,0,0,0-1.8-8.8c-.3-.7-1.3-1.3-3.3-1.4a56.6,56.6,0,0,0-5.8-.1c-1.3,0-.8.4-.8.7C36.3,135.1,36.3,138.1,36.3,141.2Z"/><path class="cls-3" d="M41.4,121.6a12.8,12.8,0,0,0-.5,3.8c0,1-.8,1.5-2.5,1.2a14.1,14.1,0,0,0-2.9-.1c-2.8.3-5.7,0-8.4.4a3.3,3.3,0,0,1-2-.5,2.9,2.9,0,0,1-1.9-3.4c.2-1.4.2-1.4,2.7-1.4H41.4Z"/><path class="cls-3" d="M38.2,141.2c0-3.1,0-6.2.1-9.3,0-.5-.3-.7-1.7-.6a45.7,45.7,0,0,0-5.2.5c-1.6.2-2.4.7-2.1,1.4a32.1,32.1,0,0,1,1.7,7.3,37.5,37.5,0,0,1,.2,6.7v1.1c-.1,2.4,1.4,2.3,5.6,2.7,1.1.1,1.5-.1,1.5-.6C38.2,147.3,38.2,144.3,38.2,141.2Z"/><path class="cls-3" d="M1.1,122.3H18.8c.4,0,.8-.1.8.4a13,13,0,0,1-.7,3.3,1.3,1.3,0,0,1-1.5.7,11,11,0,0,0-5.1,0c-1.4.3-2.9-.2-4.3.1s-2.3.4-3.5.6-1.8-.1-2.2-1.1l-.5-2C1.6,123.7,1.4,123,1.1,122.3Z"/><path class="cls-3" d="M50.1,124.8a29.1,29.1,0,0,0-5.1-.3c-.8,0-1.3-.1-1.3-.6a31.6,31.6,0,0,1,.3-3.2c.1-.3.3-.4.9-.4H57.4c.4,0,.6,0,.6.3a7.6,7.6,0,0,0,.2,3c.1.3-.4.4-.9.6s-2.7.4-4.1.6S51.1,124.8,50.1,124.8Z"/><path class="cls-3" d="M46.8,98.7"/></g><path class="cls-3" d="M52.1,138.8a17.7,17.7,0,0,1,0,4.6,10.9,10.9,0,0,0,.3,4.4c.4,1.4,1.9,2.2,4.1,2.4a63.7,63.7,0,0,0,7.6.2c2.8-.1,4.4-1.3,3.9-3a60.2,60.2,0,0,1-2.4-14.5c0-.5-.5-.7-1.2-.8a31.7,31.7,0,0,0-4.4-.2l-6,.3H52c-.9-.1-1.2.2-1,.7A31.6,31.6,0,0,1,52.1,138.8Z"/><rect class="cls-2" x="118.5" y="35.5" width="120" height="70.97"/><g id="Un01e8.tif-9" data-name="Un01e8.tif"><path class="cls-3" d="M111.1,69.3a17.7,17.7,0,0,1,0,4.6,11.4,11.4,0,0,0,.3,4.5c.4,1.4,1.9,2.2,4.1,2.3a63.5,63.5,0,0,0,7.6.3c2.8-.1,4.4-1.4,3.9-3.1a60.2,60.2,0,0,1-2.4-14.4c0-.5-.5-.7-1.2-.8a21.3,21.3,0,0,0-4.4-.2c-2-.1-4,.1-6,.2a6.7,6.7,0,0,1-2-.1c-.9,0-1.2.3-1,.8A29.3,29.3,0,0,1,111.1,69.3Z"/></g><rect class="cls-2" x="-0.5" y="35.5" width="120" height="70.97"/><g id="Un01e8.tif-10" data-name="Un01e8.tif"><path class="cls-3" d="M22.6,100.7c.6,1.3-5.5.5-6.6.6-3.8.2-6.9,3-10.8,1.2s-1.7-6.8-1.7-9.7c0-1.1-.8-3.9,0-4.9s7.3-.8,10.3-.9c6.8-.2,5.7,3,6.8,6.8C21.3,95.9,22.8,98.7,22.6,100.7Z"/><path class="cls-3" d="M49.7,82.7a50.8,50.8,0,0,0,6.7-.7,3.7,3.7,0,0,0,3.1-2.8c1.1-3.8,1.1-7.8,1.7-11.7a4.5,4.5,0,0,0-.1-1.6c-.3-1.3-.8-1.8-2.4-2.1l-4.1-.7a12.4,12.4,0,0,0-4.7.2,10.3,10.3,0,0,1-3.5,0,3.3,3.3,0,0,0-3.3.8l-.9.6a1.2,1.2,0,0,0-.7,1.4c.2,1.5.4,3,.7,4.5a54.9,54.9,0,0,1,.4,8.1,4.9,4.9,0,0,0,.1,1.2c.3,1.7,1.7,2.3,3.6,2.5A18.7,18.7,0,0,0,49.7,82.7Z"/><path class="cls-3" d="M65.8,100.3c-.1.7-.6,1.2-1.6,1.7l-.5.2h-.3l-6,.4H55.7a19.3,19.3,0,0,1-5.5-.7c-.2,0-.3-.1-.3-.2s-.2,0-.2-.1a5.3,5.3,0,0,1-2.9-4c-.3-1.7-1.2-3.3-1.6-4.9a5.3,5.3,0,0,1,.1-3.9c.7-1.1,2.1-1.7,4.4-1.8l3.6-.2a58.9,58.9,0,0,1,8.4,0c3.1.2,4.6,1.2,4,3s-.2,3.8,0,5.6A12.4,12.4,0,0,1,65.8,100.3ZM57.4,102h0Z"/><path class="cls-3" d="M95.3,86.8c-.3,2-.1,4.1-.5,6.2a35.7,35.7,0,0,1-1.9,6.1,2.9,2.9,0,0,0-.2.9c-.3.4,0,.9-.2,1.3a.1.1,0,0,1-.1.1v.2a3.6,3.6,0,0,1-2.3,1.2l-.3.2H87.2a4.2,4.2,0,0,1-2,.3H77.6c-1.7-.2-3.4-.5-4.1-1.4h-.2A2.9,2.9,0,0,1,72.2,99c.1-2.9-.9-5.8-.7-8.7s4.4-4.5,10.2-4.1a57.7,57.7,0,0,0,7.2-.1l4.8-.2C94.9,85.9,95.3,86.2,95.3,86.8Zm-8.7,16.1h0Z"/><path class="cls-3" d="M37,74.2a22.5,22.5,0,0,0-1.3-8.7c-.1-.2,0-.5,0-.7s-1.7-2.6-4.2-2.7a5.3,5.3,0,0,1-1.2-.3,7.1,7.1,0,0,0-2.5-.2,52.9,52.9,0,0,1-8.9-.1c-2.2-.1-3.4.4-3.6,1.7a16.4,16.4,0,0,0,.4,5.4c.2,2,.6,4,1,6A19.3,19.3,0,0,0,18,79.3c.5,1.1,1.8,1.7,3.6,1.6a19.4,19.4,0,0,1,6.8.5c3.3.6,6.1,0,7.8-1.8a3.2,3.2,0,0,0,1-2.7C37.2,76.1,37.1,75.2,37,74.2Z"/><path class="cls-3" d="M79.4,43.8c-.3,2.5,0,5.1-.2,7.7A21.1,21.1,0,0,0,79,54c0,.4-.2.5-.7.5H61.9c-.5,0-.7-.2-.8-.5a25.2,25.2,0,0,1-2.6-11.3,3.5,3.5,0,0,1,.6-2.2v-.2a5.2,5.2,0,0,1,1.8-1h.2a1.1,1.1,0,0,1,.8-.2c1.8-.4,3.5.3,5.2,0h.4a5.9,5.9,0,0,1,1.4-.2H71a20.6,20.6,0,0,1,3.5.2h1.9a5.1,5.1,0,0,1,1.3.2h.4v.2a1.3,1.3,0,0,1,1.3.7h.2C80.2,41.6,79.5,42.7,79.4,43.8ZM69,39.9Zm.3.4Zm.1-1.1h0a.6.6,0,0,0-.6,0h-.1a.1.1,0,0,0,.1-.1h.6Zm1.7-.1h0Z"/><path class="cls-3" d="M68.3,109.7Z"/><path class="cls-3" d="M33.3,42.9"/><path class="cls-3" d="M83,68.5a18.6,18.6,0,0,1,1-3.1c.2-.5-.2-.9-1.1-1.1a9.9,9.9,0,0,0-2.4-.3,47.1,47.1,0,0,0-9.9.6c-3.1.6-5.1,2.1-5.4,4.1s-.5,6.1-1.7,9.1a1,1,0,0,0,.4,1.3l.8.7c1.8,1.4,1.9,1.3,4.7.9l8.2-1.2c1.6-.2,1.8-.4,1.8-1.4a12.1,12.1,0,0,1,2.1-5.3,6.5,6.5,0,0,0,1.3-3.4c.1-.1.2-.3,0-.3A1.2,1.2,0,0,1,83,68.5Z"/><path class="cls-3" d="M115.5,103h-5a2.3,2.3,0,0,1-1.4-.1h-.3a4.6,4.6,0,0,1-2.6-.1h-2.5c-.2,0-.4,0-.4-.2h-1.1c-.6-.2-1.3-.3-1.5-.8h-.3c.1-.1-.2-.2-.1-.3s.4-2.3.7-3.4a27.4,27.4,0,0,0,1.4-7.9,5.7,5.7,0,0,1,.4-2.2c.4-.9,1.2-1.2,2.8-1a37.5,37.5,0,0,0,6.7,0h1.4c3,0,3.9.5,4.2,2.1s-.2,5.9,0,8.8a17.7,17.7,0,0,0,.5,3.2C118.7,102.2,117.8,102.8,115.5,103Z"/><path class="cls-3" d="M103.2,104.4h0Z"/><path class="cls-3" d="M55.5,54.7H32.8c-.9,0-1.2-.2-1.3-.7l-2.7-9a14.6,14.6,0,0,1-.6-4.6l.2-.2a.3.3,0,0,1,.1-.2c.2-.6,1-.8,1.9-.8l2.7.2a5.3,5.3,0,0,1,1.3.1h.3l1-.2a6.7,6.7,0,0,1,2,0h1.2a3,3,0,0,1,2.3-.2h2.5l2.1.2c.9.2,1.8.2,2.3.8a6.5,6.5,0,0,1,4.1,5.2,25.8,25.8,0,0,0,3.2,9.3C55.5,54.5,55.5,54.6,55.5,54.7Z"/><path class="cls-3" d="M102.1,45.8A22.9,22.9,0,0,1,101,51c-.1.5-.1,2-.8,2.3s-3.1.1-4,.1H87c-.8,0-3.7.2-4.2-.1s.1-1.8.1-2.2.1-3.5.1-5.3-.1-3.2,1-4.6,5.7-1.9,6.3-1.9,1.1.4,1.7.6,2.1,0,3.1-.1a18.4,18.4,0,0,1,4.1-.3l2.2.4c.3.1.4,0,.7.2s.1.3.2.4A47.8,47.8,0,0,0,102.1,45.8ZM89,40.1"/><path class="cls-3" d="M87.2,109.1Z"/><path class="cls-3" d="M-7.9,69.3a17.7,17.7,0,0,1,0,4.6,11.4,11.4,0,0,0,.3,4.5c.4,1.4,1.9,2.2,4.1,2.3a63.5,63.5,0,0,0,7.6.3c2.8-.1,4.4-1.4,3.9-3.1A60.2,60.2,0,0,1,5.6,63.5c0-.5-.5-.7-1.2-.8A21.3,21.3,0,0,0,0,62.5c-2-.1-4,.1-6,.2a6.7,6.7,0,0,1-2-.1c-.9,0-1.2.3-1,.8A29.3,29.3,0,0,1-7.9,69.3Z"/><path class="cls-3" d="M117.5,50.9c.3.6-.1.8-1.3.8H104.4c-1,0-1.1-.2-1-.6a27.9,27.9,0,0,0,1.8-11.3c-.1-1,.4-1.3,2.1-1.4a86.1,86.1,0,0,1,8.8,0c1.7.2,2.1.4,1.8,1.4s-.1,1-.2,1.5c-.2,2.3-.1,4.5-.1,6.8a4.6,4.6,0,0,1-.1,1Z"/><path class="cls-3" d="M42.9,51.8l9.2-.2c1-.1,1.4-1.1,1.6-.6s1.4,2.6,1.6,3.2-.1,2.2-2.2,2.9a30.3,30.3,0,0,1-8.6,1l-8.7-.4c-1.8-.1-3.9-2.6-4.3-3.7a4.8,4.8,0,0,1-.5-1.7c-.2-.5.7-.5,1.2-.5Z"/><path class="cls-3" d="M95.8,71.7c0,3.1.1,6.1,0,9.1,0,.5.4.7,1.8.8,3.9.1,7.3-.1,9.5-1.6.6-.4,1.1-.7.8-1.2-1.4-2.2-.3-4.4-.3-6.6a21,21,0,0,0-1.8-8.8c-.3-.8-1.3-1.3-3.3-1.5s-3.9,0-5.8,0-.8.4-.8.6C95.8,65.6,95.8,68.7,95.8,71.7Z"/><path class="cls-3" d="M100.9,52.2a12,12,0,0,0-.5,3.8c0,1-.8,1.4-2.5,1.2a14.1,14.1,0,0,0-2.9-.1c-2.8.2-5.7,0-8.4.4a3.3,3.3,0,0,1-2-.5,2.9,2.9,0,0,1-1.9-3.4c.2-1.5.2-1.5,2.7-1.5h15.5Z"/><path class="cls-3" d="M97.7,71.7c0-3,0-6.1.1-9.2,0-.6-.3-.8-1.7-.7l-5.2.5c-1.6.3-2.4.7-2.1,1.4a33,33,0,0,1,1.7,7.4,36.4,36.4,0,0,1,.2,6.6v1.2c-.1,2.4,1.4,2.2,5.6,2.6,1.1.1,1.5,0,1.5-.6C97.7,77.9,97.7,74.8,97.7,71.7Z"/><path class="cls-3" d="M60.6,52.9H78.3c.4,0,.8-.1.8.3a12.8,12.8,0,0,1-.7,3.4,1.2,1.2,0,0,1-1.5.6,11,11,0,0,0-5.1,0c-1.4.3-2.9-.1-4.3.2l-3.5.5c-1.3.2-1.8-.1-2.2-1.1s-.3-1.3-.5-1.9A15.9,15.9,0,0,0,60.6,52.9Z"/><path class="cls-3" d="M109.6,55.3c-1.7-.1-3.4-.3-5.1-.3s-1.3-.1-1.3-.5.1-2.2.3-3.3.3-.4.9-.3h12.5c.4,0,.6,0,.6.2a7.6,7.6,0,0,0,.2,3c.1.3-.4.5-.9.6s-2.7.4-4.1.6A16.1,16.1,0,0,1,109.6,55.3Z"/><path class="cls-3" d="M16.3,38h1.8a2.7,2.7,0,0,1,2.4,1c.8,1.2.8,2.5,1.1,3.7s1.3,4.5,1.9,6.7l.6,2.3H1.6C.8,51.7.4,51.6.4,51c.1-4.1.1-8.3,0-12.4,0-.6.2-.8,1.1-.7a49.5,49.5,0,0,1,7.7.1C11.5,37.8,13.9,38.3,16.3,38Z"/><path class="cls-3" d="M23.1,55a20.5,20.5,0,0,1-4.3-.1,32.7,32.7,0,0,0-6.3.2c-1.4.2-2.7,0-4,.1H6.7c-.4.1-.5,0-.5-.3V51.3c0-.4.3-.4.7-.4,2.7.1,5.4,0,8.2,0s5.4.1,8.1,0c.6,0,.8.2.9.5a18.4,18.4,0,0,1,.5,2.5C24.7,54.5,24.2,54.9,23.1,55Z"/><path class="cls-3" d="M6.9,51.4v3.5c.1.4-.3.5-1.3.4C2.9,55,1,53.9.6,52.2s0-3,0-4.6a.1.1,0,0,1,0-.2c1.6-.6,3.5-.1,5.2-.3s1.1.3,1.1.7Z"/><path class="cls-3" d="M68.3,109.7Z"/><path class="cls-3" d="M68.3,109.7Z"/><path class="cls-3" d="M68.5,107.6h-.7a.5.5,0,0,1,.6.1h.1Z"/><path class="cls-3" d="M68.3,102h0Z"/><path class="cls-3" d="M103.2,104.4H103v-.2c0,.1.1.1.1.2h.1Z"/><path class="cls-3" d="M68.3,102h0Z"/><path class="cls-3" d="M105.8,104.7a2,2,0,0,1-1.3.1h1.3Z"/><path class="cls-3" d="M106.3,29.2"/><path class="cls-3" d="M68.5,107.6h-.7a.5.5,0,0,1,.6.1h.1Z"/><path class="cls-3" d="M68.3,102h0Z"/><path class="cls-3" d="M91.3,105.1Z"/><path class="cls-3" d="M91.4,105.2h-.1C91.4,105.1,91.4,105.1,91.4,105.2Z"/><path class="cls-3" d="M103.1,104.4h0Z"/><path class="cls-3" d="M105.8,104.7a2,2,0,0,1-1.3.1h1.3Z"/><path class="cls-3" d="M67.8,107.5h0Z"/><path class="cls-3" d="M68.3,109.7Z"/><path class="cls-3" d="M68.5,107.6h0Z"/><path class="cls-3" d="M91.4,105.2h-.1C91.4,105.1,91.4,105.1,91.4,105.2Z"/></g><path class="cls-3" d="M41.7,92.1a15.6,15.6,0,0,1-1,5.9c-.1.2,0,.4-.1.5s-1.2,1.8-3.1,1.9l-1,.2a6.7,6.7,0,0,1-2,.1,53,53,0,0,0-6.9.1c-1.6.1-2.6-.3-2.8-1.2a11.6,11.6,0,0,1,.3-3.7c.2-1.4.5-2.8.8-4.1a20.7,20.7,0,0,1,1-3.3c.4-.8,1.4-1.2,2.8-1.1a18.5,18.5,0,0,0,5.3-.3,7.2,7.2,0,0,1,6.1,1.2,2.5,2.5,0,0,1,.8,1.9A17.6,17.6,0,0,1,41.7,92.1Z"/><path class="cls-3" d="M111.6,69.3a17.7,17.7,0,0,1,0,4.6,11.4,11.4,0,0,0,.3,4.5c.4,1.4,1.9,2.2,4.1,2.3a63.5,63.5,0,0,0,7.6.3c2.8-.1,4.4-1.4,3.9-3.1a60.2,60.2,0,0,1-2.4-14.4c0-.5-.5-.7-1.2-.8a21.3,21.3,0,0,0-4.4-.2c-2-.1-4,.1-6,.2a6.7,6.7,0,0,1-2-.1c-.9,0-1.2.3-1,.8A29.3,29.3,0,0,1,111.6,69.3Z"/><rect class="cls-2" x="-119.5" y="35.5" width="120" height="70.97"/><path class="cls-3" d="M-7.4,69.3a17.7,17.7,0,0,1,0,4.6,11.4,11.4,0,0,0,.3,4.5c.4,1.4,1.9,2.2,4.1,2.3a63.5,63.5,0,0,0,7.6.3c2.8-.1,4.4-1.4,3.9-3.1A60.2,60.2,0,0,1,6.1,63.5c0-.5-.5-.7-1.2-.8a21.3,21.3,0,0,0-4.4-.2c-2-.1-4,.1-6,.2a6.7,6.7,0,0,1-2-.1c-.9,0-1.2.3-1,.8A29.3,29.3,0,0,1-7.4,69.3Z"/><rect class="cls-2" x="59" y="-33.9" width="120" height="70.97"/><g id="Un01e8.tif-11" data-name="Un01e8.tif"><path class="cls-3" d="M82.1,31.3c.6,1.3-5.5.5-6.6.5-3.8.3-6.9,3-10.8,1.2S63,26.3,63,23.4c0-1.1-.8-3.9,0-4.9s7.3-.9,10.3-.9c6.8-.2,5.7,2.9,6.8,6.8C80.8,26.5,82.3,29.2,82.1,31.3Z"/><path class="cls-3" d="M109.2,13.2a30.5,30.5,0,0,0,6.7-.7A3.6,3.6,0,0,0,119,9.8c1.1-3.9,1.1-7.8,1.7-11.7a4.3,4.3,0,0,0-.1-1.6c-.3-1.3-.8-1.8-2.4-2.1l-4.1-.7a12.4,12.4,0,0,0-4.7.1,8.3,8.3,0,0,1-3.5.1,3.5,3.5,0,0,0-3.3.7,4.7,4.7,0,0,1-.9.6,1.3,1.3,0,0,0-.7,1.5c.2,1.5.4,3,.7,4.5a54.3,54.3,0,0,1,.4,8,4.9,4.9,0,0,0,.1,1.2c.3,1.7,1.7,2.4,3.6,2.6A18.8,18.8,0,0,0,109.2,13.2Z"/><path class="cls-3" d="M125.3,30.9a2.3,2.3,0,0,1-1.6,1.6c-.1.2-.3.2-.5.2l-.3.2-6,.4h-1.7a14.1,14.1,0,0,1-5.5-.7c-.2,0-.3-.1-.3-.2h-.2a5.5,5.5,0,0,1-2.9-4c-.3-1.7-1.2-3.3-1.6-4.9a5.3,5.3,0,0,1,.1-3.9c.7-1.2,2.1-1.8,4.4-1.8a21.9,21.9,0,0,0,3.6-.3,78.5,78.5,0,0,1,8.4.1c3.1.2,4.6,1.1,4,3s-.2,3.7,0,5.6A12.4,12.4,0,0,1,125.3,30.9Zm-8.4,1.6Z"/><path class="cls-3" d="M96.5,4.7a22,22,0,0,0-1.3-8.6c-.1-.2,0-.5,0-.7S93.5-7.2,91-7.4l-1.2-.2a7.2,7.2,0,0,0-2.5-.3,44.1,44.1,0,0,1-8.9,0c-2.2-.2-3.4.4-3.6,1.7a15.7,15.7,0,0,0,.4,5.3,59.7,59.7,0,0,0,1,6.1,22.1,22.1,0,0,0,1.3,4.7c.5,1.1,1.8,1.7,3.6,1.5a25.7,25.7,0,0,1,6.8.5c3.3.7,6.1,0,7.8-1.8a3.1,3.1,0,0,0,1-2.6C96.7,6.6,96.6,5.8,96.5,4.7Z"/><path class="cls-3" d="M51.6-.1a17.7,17.7,0,0,1,0,4.6,10.9,10.9,0,0,0,.3,4.4c.4,1.4,1.9,2.2,4.1,2.4a63.7,63.7,0,0,0,7.6.2c2.8-.1,4.4-1.3,3.9-3A60.2,60.2,0,0,1,65.1-6c0-.5-.5-.7-1.2-.8A31.7,31.7,0,0,0,59.5-7q-3,0-6,.3h-2c-.9,0-1.2.3-1,.7A31.6,31.6,0,0,1,51.6-.1Z"/></g><path class="cls-3" d="M101.2,22.6a16.1,16.1,0,0,1-1,6c-.1.1,0,.3-.1.5S98.9,30.9,97,31H96a4.6,4.6,0,0,1-2,.2,53,53,0,0,0-6.9,0c-1.6.1-2.6-.2-2.8-1.1a11.4,11.4,0,0,1,.3-3.7c.2-1.4.5-2.8.8-4.2a20.7,20.7,0,0,1,1-3.3c.4-.7,1.4-1.1,2.8-1a18.4,18.4,0,0,0,5.3-.4c2.5-.4,4.7,0,6.1,1.3a2.3,2.3,0,0,1,.8,1.8A13.7,13.7,0,0,1,101.2,22.6Z"/><rect class="cls-2" x="-60" y="-33.9" width="120" height="70.97"/><g id="Un01e8.tif-12" data-name="Un01e8.tif"><path class="cls-3" d="M-9.8,13.2a30.5,30.5,0,0,0,6.7-.7A3.6,3.6,0,0,0,0,9.8C1.1,5.9,1.1,2,1.7-1.9a4.3,4.3,0,0,0-.1-1.6C1.3-4.8.8-5.3-.8-5.6l-4.1-.7a12.4,12.4,0,0,0-4.7.1,8.3,8.3,0,0,1-3.5.1,3.5,3.5,0,0,0-3.3.7,4.7,4.7,0,0,1-.9.6A1.3,1.3,0,0,0-18-3.3c.2,1.5.4,3,.7,4.5a54.3,54.3,0,0,1,.4,8,4.9,4.9,0,0,0,.1,1.2c.3,1.7,1.7,2.4,3.6,2.6A18.8,18.8,0,0,0-9.8,13.2Z"/><path class="cls-3" d="M6.3,30.9a2.3,2.3,0,0,1-1.6,1.6c-.1.2-.3.2-.5.2l-.3.2-6,.4H-3.8a14.1,14.1,0,0,1-5.5-.7c-.2,0-.3-.1-.3-.2h-.2a5.5,5.5,0,0,1-2.9-4c-.3-1.7-1.2-3.3-1.6-4.9a5.3,5.3,0,0,1,.1-3.9c.7-1.2,2.1-1.8,4.4-1.8a21.9,21.9,0,0,0,3.6-.3,78.5,78.5,0,0,1,8.4.1c3.1.2,4.6,1.1,4,3s-.2,3.7,0,5.6A12.4,12.4,0,0,1,6.3,30.9Zm-8.4,1.6Z"/><path class="cls-3" d="M35.8,17.3c-.3,2.1-.1,4.2-.5,6.2a36.7,36.7,0,0,1-1.9,6.2,2.4,2.4,0,0,0-.2.8c-.3.5,0,.9-.2,1.4a.1.1,0,0,0-.1.1v.2a4.9,4.9,0,0,1-2.3,1.2H27.7a4.2,4.2,0,0,1-2,.3c-1.2,0-2.4.1-3.6,0H18.4l-.3-.2c-1.7-.2-3.4-.4-4.1-1.3h-.2V32a2.6,2.6,0,0,1-1.1-2.4c.1-3-.9-5.9-.7-8.8s4.4-4.5,10.2-4c2.4.1,4.8-.1,7.2-.2h4.8C35.4,16.5,35.8,16.8,35.8,17.3ZM27.1,33.4Z"/><path class="cls-3" d="M8.8,40.2Z"/><path class="cls-3" d="M23.5-.9a16,16,0,0,1,1-3.1c.2-.5-.2-1-1.1-1.2L21-5.5a65.8,65.8,0,0,0-9.9.6C8-4.3,6-2.8,5.7-.8S5.2,5.3,4,8.3a1,1,0,0,0,.4,1.3,2.7,2.7,0,0,0,.8.7c1.8,1.4,1.9,1.4,4.7.9l8.2-1.1c1.6-.3,1.8-.5,1.8-1.4A12.4,12.4,0,0,1,22,3.3,6.5,6.5,0,0,0,23.3-.1c.1-.1.2-.2,0-.3A.8.8,0,0,1,23.5-.9Z"/><path class="cls-3" d="M56,33.6a11.3,11.3,0,0,1-2.6-.1,7.4,7.4,0,0,1-2.1,0H51a3.3,3.3,0,0,1-1.4-.1H48.2a4,4,0,0,0,1.1,0,3.9,3.9,0,0,1-2.6-.1h0v.2H44.2c-.2.1-.4,0-.4-.1H42.7c-.6-.2-1.3-.3-1.5-.7l-.3-.2c.1-.1-.2-.1-.1-.2s.4-2.4.7-3.5a26.7,26.7,0,0,0,1.4-7.8,6.2,6.2,0,0,1,.4-2.3c.4-.8,1.2-1.1,2.8-.9a37.5,37.5,0,0,0,6.7,0h1.4c3-.1,3.9.5,4.2,2.1s-.2,5.8,0,8.8a19.2,19.2,0,0,0,.5,3.2C59.2,32.8,58.3,33.4,56,33.6Z"/><path class="cls-3" d="M43.7,34.9h-.1A.1.1,0,0,0,43.7,34.9Z"/><path class="cls-3" d="M27.7,39.6h0Z"/><path class="cls-3" d="M36.3,2.3c0,3,.1,6,0,9,0,.6.4.8,1.8.8,3.9.2,7.3-.1,9.5-1.5.6-.4,1.1-.8.8-1.2C47,7.2,48.1,5,48.1,2.7a21.7,21.7,0,0,0-1.8-8.8C46-6.8,45-7.4,43-7.5a56.6,56.6,0,0,0-5.8-.1c-1.3,0-.8.4-.8.7C36.3-3.8,36.3-.8,36.3,2.3Z"/><path class="cls-3" d="M38.2,2.3c0-3.1,0-6.2.1-9.3,0-.5-.3-.7-1.7-.6a45.7,45.7,0,0,0-5.2.5c-1.6.2-2.4.7-2.1,1.4A32.1,32.1,0,0,1,31,1.6a37.5,37.5,0,0,1,.2,6.7V9.5c-.1,2.4,1.4,2.2,5.6,2.6,1.1.1,1.5-.1,1.5-.6C38.2,8.4,38.2,5.4,38.2,2.3Z"/><path class="cls-3" d="M8.8,40.2Z"/><path class="cls-3" d="M8.8,40.2Z"/><path class="cls-3" d="M9,38.2H8.3a.5.5,0,0,1,.6.1H9Z"/><path class="cls-3" d="M8.8,32.5h0Z"/><path class="cls-3" d="M43.7,34.9h0c-.1.1-.2.1-.2,0h0v-.3h0c0,.1.1.2.1.3h0A.1.1,0,0,0,43.7,34.9Z"/><path class="cls-3" d="M8.8,32.5h0Z"/><path class="cls-3" d="M46.3,35.3c-.4,0-.9.2-1.3,0h1.3Z"/><path class="cls-3" d="M9,38.2H8.3a.5.5,0,0,1,.6.1H9Z"/><path class="cls-3" d="M8.8,32.5h0Z"/><path class="cls-3" d="M31.8,35.6Z"/><path class="cls-3" d="M31.9,35.7h-.1v-.2h0A.1.1,0,0,1,31.9,35.7Z"/><path class="cls-3" d="M43.6,35a.1.1,0,0,0,.1-.1h0c-.1.1-.2.1-.2,0Z"/><path class="cls-3" d="M46.3,35.3c-.4,0-.9.2-1.3,0h1.3Z"/><path class="cls-3" d="M8.3,38.1h0Z"/><path class="cls-3" d="M8.8,40.2Z"/><path class="cls-3" d="M9,38.2H9Z"/><path class="cls-3" d="M31.9,35.7h-.1v-.2h0A.1.1,0,0,1,31.9,35.7Z"/></g><path class="cls-3" d="M52.1-.1a17.7,17.7,0,0,1,0,4.6,10.9,10.9,0,0,0,.3,4.4c.4,1.4,1.9,2.2,4.1,2.4a63.7,63.7,0,0,0,7.6.2c2.8-.1,4.4-1.3,3.9-3A60.2,60.2,0,0,1,65.6-6c0-.5-.5-.7-1.2-.8A31.7,31.7,0,0,0,60-7q-3,0-6,.3H52c-.9,0-1.2.3-1,.7A31.6,31.6,0,0,1,52.1-.1Z"/></pattern><pattern id="New_Pattern_7" data-name="New Pattern 7" width="14.4" height="15.88" patternTransform="translate(1.9 4.4) scale(0.8)" patternUnits="userSpaceOnUse" viewBox="0 0 14.4 15.9"><rect class="cls-1" width="14.4" height="15.88"/><ellipse class="cls-4" cx="14.4" cy="16" rx="4.4" ry="1" transform="translate(-7.2 16) rotate(-48)"/><ellipse class="cls-4" cy="16" rx="4.4" ry="1" transform="translate(-11.9 5.3) rotate(-48)"/><ellipse class="cls-4" cx="14.4" cy="15.9" rx="4.4" ry="1" transform="translate(-7.1 15.9) rotate(-48)"/><ellipse class="cls-4" cy="15.9" rx="4.4" ry="1" transform="translate(-11.8 5.3) rotate(-48)"/><ellipse class="cls-4" cx="14.4" cy="0.2" rx="4.4" ry="1" transform="translate(4.6 10.7) rotate(-48)"/><ellipse class="cls-4" cx="14.4" cy="15.9" rx="4.4" ry="1" transform="translate(-7.1 15.9) rotate(-48)"/><polygon class="cls-5" points="0 15.9 14.4 15.9 14.4 0 0 0 0 15.9"/><ellipse class="cls-4" cy="0.2" rx="4.4" ry="1" transform="translate(-0.1 0.1) rotate(-48)"/><ellipse class="cls-4" cx="14.4" cy="15.9" rx="4.4" ry="1" transform="translate(-7.1 15.9) rotate(-48)"/><ellipse class="cls-4" cy="15.9" rx="4.4" ry="1" transform="translate(-11.8 5.3) rotate(-48)"/><ellipse class="cls-4" cx="14.4" rx="4.4" ry="1" transform="translate(4.8 10.7) rotate(-48)"/><ellipse class="cls-4" cx="7.2" cy="8" rx="4.4" ry="1" transform="translate(-3.5 8) rotate(-48)"/><ellipse class="cls-4" cx="10.8" cy="4" rx="4.4" ry="1" transform="translate(0.6 9.3) rotate(-48)"/><ellipse class="cls-4" cx="3.6" cy="11.9" rx="4.4" ry="1" transform="translate(-7.7 6.6) rotate(-48)"/><ellipse class="cls-4" cy="15.9" rx="4.4" ry="1" transform="translate(-11.8 5.3) rotate(-48)"/><ellipse class="cls-4" rx="4.4" ry="1" transform="translate(0 0) rotate(-48)"/><ellipse class="cls-4" cx="14.4" rx="4.4" ry="1" transform="translate(4.7 10.7) rotate(-48)"/><polygon class="cls-5" points="0 0 14.4 0 14.4 -15.9 0 -15.9 0 0"/><ellipse class="cls-4" cx="14.4" rx="4.4" ry="1" transform="translate(4.7 10.7) rotate(-48)"/><ellipse class="cls-4" rx="4.4" ry="1" transform="translate(0 0) rotate(-48)"/><ellipse class="cls-4" rx="4.4" ry="1" transform="translate(0 0) rotate(-48)"/></pattern><pattern id="New_Pattern-5" data-name="New Pattern" width="119" height="138.9" patternTransform="translate(63.5 49.8) scale(0.8)" patternUnits="userSpaceOnUse" viewBox="0 0 119 138.9"><rect class="cls-1" width="119" height="138.9"/><rect class="cls-2" x="59" y="105" width="120" height="70.97"/><g id="Un01e8.tif-13" data-name="Un01e8.tif"><path class="cls-3" d="M109.2,152.1a50.8,50.8,0,0,0,6.7-.7,3.6,3.6,0,0,0,3.1-2.7c1.1-3.9,1.1-7.8,1.7-11.7a4.3,4.3,0,0,0-.1-1.6c-.3-1.3-.8-1.8-2.4-2.1l-4.1-.7a12.4,12.4,0,0,0-4.7.1,8.3,8.3,0,0,1-3.5.1,3.5,3.5,0,0,0-3.3.7,4.7,4.7,0,0,1-.9.6,1.3,1.3,0,0,0-.7,1.5c.2,1.5.4,3,.7,4.5a54.3,54.3,0,0,1,.4,8,4.9,4.9,0,0,0,.1,1.2c.3,1.7,1.7,2.4,3.6,2.6A18.8,18.8,0,0,0,109.2,152.1Z"/><path class="cls-3" d="M96.5,143.6a22,22,0,0,0-1.3-8.6,1.6,1.6,0,0,1,0-.7c0-1.6-1.7-2.7-4.2-2.8l-1.2-.2a7.2,7.2,0,0,0-2.5-.3,44.1,44.1,0,0,1-8.9,0c-2.2-.2-3.4.4-3.6,1.7a15.7,15.7,0,0,0,.4,5.3c.2,2,.6,4.1,1,6.1a22.1,22.1,0,0,0,1.3,4.7c.5,1.1,1.8,1.7,3.6,1.5a25.7,25.7,0,0,1,6.8.5c3.3.7,6.1,0,7.8-1.8a3.1,3.1,0,0,0,1-2.6C96.7,145.5,96.6,144.7,96.5,143.6Z"/><path class="cls-3" d="M138.9,113.2c-.3,2.6,0,5.1-.2,7.7a22.8,22.8,0,0,0-.2,2.6c0,.4-.2.4-.7.4H121.4c-.5,0-.7-.1-.8-.4a25.7,25.7,0,0,1-2.6-11.4,3.7,3.7,0,0,1,.6-2.2h0a5.4,5.4,0,0,1,1.8-1.1h.2a1.1,1.1,0,0,1,.8-.1c1.8-.4,3.5.2,5.2-.1h.4a3.2,3.2,0,0,1,1.4-.1c.1-.1.2-.1.4,0h1.7c1.2.1,2.3-.1,3.5.1h1.7c.1.1.2.1.2.2s.9-.1,1.3.2h.2c.1-.1.2-.1.2,0h0c.7.1,1.1.3,1.3.8h.2C139.7,111.1,139,112.1,138.9,113.2Zm-10.4-3.9h0Zm.3.4Zm.1-1.1Zm1.7,0h0Z"/><path class="cls-3" d="M92.8,112.3"/><path class="cls-3" d="M115,124.1H92.3c-.9,0-1.2-.2-1.3-.7l-2.7-9a15.2,15.2,0,0,1-.6-4.7h.2c0-.1,0-.2.1-.2s1-.9,1.9-.8l2.7.2a2.8,2.8,0,0,1,1.3.1h.3l1-.2h3.2a3.6,3.6,0,0,1,2.3-.1h2.5l2.1.2a4.8,4.8,0,0,1,2.3.8,6.6,6.6,0,0,1,4.1,5.2,25.1,25.1,0,0,0,3.2,9.3Z"/><path class="cls-3" d="M51.6,138.8a17.7,17.7,0,0,1,0,4.6,10.9,10.9,0,0,0,.3,4.4c.4,1.4,1.9,2.2,4.1,2.4a63.7,63.7,0,0,0,7.6.2c2.8-.1,4.4-1.3,3.9-3a60.2,60.2,0,0,1-2.4-14.5c0-.5-.5-.7-1.2-.8a31.7,31.7,0,0,0-4.4-.2l-6,.3h-2c-.9-.1-1.2.2-1,.7A31.6,31.6,0,0,1,51.6,138.8Z"/><path class="cls-3" d="M102.4,121.2l9.2-.2c1,0,1.4-1.1,1.6-.5a30.1,30.1,0,0,1,1.6,3.1c.6,1.4-.1,2.2-2.2,2.9a24.5,24.5,0,0,1-8.6,1c-2.9,0-5.8-.2-8.7-.4s-3.9-2.5-4.3-3.6a6.4,6.4,0,0,1-.5-1.7c-.2-.5.7-.6,1.2-.6Z"/><path class="cls-3" d="M75.8,107.5h1.8a3,3,0,0,1,2.4.9c.8,1.2.8,2.5,1.1,3.8s1.3,4.4,1.9,6.7l.6,2.2H61.1c-.8.1-1.2,0-1.2-.7.1-4.1.1-8.2,0-12.4,0-.5.2-.7,1.1-.7,2.6.1,5.1-.2,7.7.2S73.4,107.7,75.8,107.5Z"/><path class="cls-3" d="M82.6,124.5a20.3,20.3,0,0,1-4.3-.2,32.5,32.5,0,0,0-6.3.3c-1.4.2-2.7,0-4,.1H66.2c-.4,0-.5-.1-.5-.3v-3.8c0-.4.3-.3.7-.3H82.7c.6,0,.8.1.9.4s.4,1.7.5,2.5S83.7,124.3,82.6,124.5Z"/><path class="cls-3" d="M66.4,120.8v3.5c.1.5-.3.6-1.3.5-2.7-.4-4.6-1.5-5-3.1s0-3.1,0-4.6-.1-.2,0-.2c1.6-.7,3.5-.1,5.2-.3s1.1.2,1.1.6Z"/></g><rect class="cls-2" x="-60" y="105" width="120" height="70.97"/><g id="Un01e8.tif-14" data-name="Un01e8.tif"><path class="cls-3" d="M-9.8,152.1a50.8,50.8,0,0,0,6.7-.7A3.6,3.6,0,0,0,0,148.7c1.1-3.9,1.1-7.8,1.7-11.7a4.3,4.3,0,0,0-.1-1.6c-.3-1.3-.8-1.8-2.4-2.1l-4.1-.7a12.4,12.4,0,0,0-4.7.1,8.3,8.3,0,0,1-3.5.1,3.5,3.5,0,0,0-3.3.7,4.7,4.7,0,0,1-.9.6,1.3,1.3,0,0,0-.7,1.5c.2,1.5.4,3,.7,4.5a54.3,54.3,0,0,1,.4,8,4.9,4.9,0,0,0,.1,1.2c.3,1.7,1.7,2.4,3.6,2.6A18.8,18.8,0,0,0-9.8,152.1Z"/><path class="cls-3" d="M19.9,113.2c-.3,2.6,0,5.1-.2,7.7a22.8,22.8,0,0,0-.2,2.6c0,.4-.2.4-.7.4H2.4c-.5,0-.7-.1-.8-.4A25.7,25.7,0,0,1-1,112.1a3.7,3.7,0,0,1,.6-2.2h0a5.4,5.4,0,0,1,1.8-1.1h.2a1.1,1.1,0,0,1,.8-.1c1.8-.4,3.5.2,5.2-.1H8a3.2,3.2,0,0,1,1.4-.1c.1-.1.2-.1.4,0h1.7c1.2.1,2.3-.1,3.5.1h1.7c.1.1.2.1.2.2s.9-.1,1.3.2h.2c.1-.1.2-.1.2,0h0c.7.1,1.1.3,1.3.8h.2C20.7,111.1,20,112.1,19.9,113.2ZM9.5,109.3h0Zm.3.4Zm.1-1.1Zm1.7,0h0Z"/><path class="cls-3" d="M23.5,137.9a17.6,17.6,0,0,1,1-3c.2-.5-.2-1-1.1-1.2l-2.4-.3a65.8,65.8,0,0,0-9.9.6c-3.1.6-5.1,2.1-5.4,4.1s-.5,6.1-1.7,9.1a1,1,0,0,0,.4,1.3,2.7,2.7,0,0,0,.8.7c1.8,1.4,1.9,1.4,4.7.9l8.2-1.1c1.6-.3,1.8-.5,1.8-1.4a12.4,12.4,0,0,1,2.1-5.4,6.5,6.5,0,0,0,1.3-3.4c.1-.1.2-.2,0-.3A1.2,1.2,0,0,1,23.5,137.9Z"/><path class="cls-3" d="M42.6,115.3a24.1,24.1,0,0,1-1.1,5.2c-.1.5-.1,2-.8,2.3s-3.1,0-4,0H27.5c-.8,0-3.7.3-4.2-.1s.1-1.7.1-2.2.1-3.5.1-5.2-.1-3.3,1-4.6,5.7-1.9,6.3-1.9a3.8,3.8,0,0,1,1.7.5c1,.4,2.1,0,3.1-.1a18.5,18.5,0,0,1,4.1-.2,6.9,6.9,0,0,1,2.2.3c.3.1.4,0,.7.2s.1.3.2.5A46.1,46.1,0,0,0,42.6,115.3Zm-13.1-5.8"/><path class="cls-3" d="M58,120.3c.3.7-.1.9-1.3.9H44.9c-1,.1-1.1-.1-1-.6a27.4,27.4,0,0,0,1.8-11.2c-.1-1.1.4-1.3,2.1-1.4a64.6,64.6,0,0,1,8.8,0c1.7.1,2.1.4,1.8,1.4s-.1,1-.2,1.5c-.2,2.2-.1,4.5-.1,6.7a3.8,3.8,0,0,1-.1,1Z"/><path class="cls-3" d="M36.3,141.2c0,3,.1,6,0,9,0,.6.4.8,1.8.8,3.9.2,7.3-.1,9.5-1.5.6-.4,1.1-.8.8-1.2-1.4-2.2-.3-4.4-.3-6.7a21.7,21.7,0,0,0-1.8-8.8c-.3-.7-1.3-1.3-3.3-1.4a56.6,56.6,0,0,0-5.8-.1c-1.3,0-.8.4-.8.7C36.3,135.1,36.3,138.1,36.3,141.2Z"/><path class="cls-3" d="M41.4,121.6a12.8,12.8,0,0,0-.5,3.8c0,1-.8,1.5-2.5,1.2a14.1,14.1,0,0,0-2.9-.1c-2.8.3-5.7,0-8.4.4a3.3,3.3,0,0,1-2-.5,2.9,2.9,0,0,1-1.9-3.4c.2-1.4.2-1.4,2.7-1.4H41.4Z"/><path class="cls-3" d="M38.2,141.2c0-3.1,0-6.2.1-9.3,0-.5-.3-.7-1.7-.6a45.7,45.7,0,0,0-5.2.5c-1.6.2-2.4.7-2.1,1.4a32.1,32.1,0,0,1,1.7,7.3,37.5,37.5,0,0,1,.2,6.7v1.1c-.1,2.4,1.4,2.3,5.6,2.7,1.1.1,1.5-.1,1.5-.6C38.2,147.3,38.2,144.3,38.2,141.2Z"/><path class="cls-3" d="M1.1,122.3H18.8c.4,0,.8-.1.8.4a13,13,0,0,1-.7,3.3,1.3,1.3,0,0,1-1.5.7,11,11,0,0,0-5.1,0c-1.4.3-2.9-.2-4.3.1s-2.3.4-3.5.6-1.8-.1-2.2-1.1l-.5-2C1.6,123.7,1.4,123,1.1,122.3Z"/><path class="cls-3" d="M50.1,124.8a29.1,29.1,0,0,0-5.1-.3c-.8,0-1.3-.1-1.3-.6a31.6,31.6,0,0,1,.3-3.2c.1-.3.3-.4.9-.4H57.4c.4,0,.6,0,.6.3a7.6,7.6,0,0,0,.2,3c.1.3-.4.4-.9.6s-2.7.4-4.1.6S51.1,124.8,50.1,124.8Z"/><path class="cls-3" d="M46.8,98.7"/></g><path class="cls-3" d="M52.1,138.8a17.7,17.7,0,0,1,0,4.6,10.9,10.9,0,0,0,.3,4.4c.4,1.4,1.9,2.2,4.1,2.4a63.7,63.7,0,0,0,7.6.2c2.8-.1,4.4-1.3,3.9-3a60.2,60.2,0,0,1-2.4-14.5c0-.5-.5-.7-1.2-.8a31.7,31.7,0,0,0-4.4-.2l-6,.3H52c-.9-.1-1.2.2-1,.7A31.6,31.6,0,0,1,52.1,138.8Z"/><rect class="cls-2" x="118.5" y="35.5" width="120" height="70.97"/><g id="Un01e8.tif-15" data-name="Un01e8.tif"><path class="cls-3" d="M111.1,69.3a17.7,17.7,0,0,1,0,4.6,11.4,11.4,0,0,0,.3,4.5c.4,1.4,1.9,2.2,4.1,2.3a63.5,63.5,0,0,0,7.6.3c2.8-.1,4.4-1.4,3.9-3.1a60.2,60.2,0,0,1-2.4-14.4c0-.5-.5-.7-1.2-.8a21.3,21.3,0,0,0-4.4-.2c-2-.1-4,.1-6,.2a6.7,6.7,0,0,1-2-.1c-.9,0-1.2.3-1,.8A29.3,29.3,0,0,1,111.1,69.3Z"/></g><rect class="cls-2" x="-0.5" y="35.5" width="120" height="70.97"/><g id="Un01e8.tif-16" data-name="Un01e8.tif"><path class="cls-3" d="M22.6,100.7c.6,1.3-5.5.5-6.6.6-3.8.2-6.9,3-10.8,1.2s-1.7-6.8-1.7-9.7c0-1.1-.8-3.9,0-4.9s7.3-.8,10.3-.9c6.8-.2,5.7,3,6.8,6.8C21.3,95.9,22.8,98.7,22.6,100.7Z"/><path class="cls-3" d="M49.7,82.7a50.8,50.8,0,0,0,6.7-.7,3.7,3.7,0,0,0,3.1-2.8c1.1-3.8,1.1-7.8,1.7-11.7a4.5,4.5,0,0,0-.1-1.6c-.3-1.3-.8-1.8-2.4-2.1l-4.1-.7a12.4,12.4,0,0,0-4.7.2,10.3,10.3,0,0,1-3.5,0,3.3,3.3,0,0,0-3.3.8l-.9.6a1.2,1.2,0,0,0-.7,1.4c.2,1.5.4,3,.7,4.5a54.9,54.9,0,0,1,.4,8.1,4.9,4.9,0,0,0,.1,1.2c.3,1.7,1.7,2.3,3.6,2.5A18.7,18.7,0,0,0,49.7,82.7Z"/><path class="cls-3" d="M65.8,100.3c-.1.7-.6,1.2-1.6,1.7l-.5.2h-.3l-6,.4H55.7a19.3,19.3,0,0,1-5.5-.7c-.2,0-.3-.1-.3-.2s-.2,0-.2-.1a5.3,5.3,0,0,1-2.9-4c-.3-1.7-1.2-3.3-1.6-4.9a5.3,5.3,0,0,1,.1-3.9c.7-1.1,2.1-1.7,4.4-1.8l3.6-.2a58.9,58.9,0,0,1,8.4,0c3.1.2,4.6,1.2,4,3s-.2,3.8,0,5.6A12.4,12.4,0,0,1,65.8,100.3ZM57.4,102h0Z"/><path class="cls-3" d="M95.3,86.8c-.3,2-.1,4.1-.5,6.2a35.7,35.7,0,0,1-1.9,6.1,2.9,2.9,0,0,0-.2.9c-.3.4,0,.9-.2,1.3a.1.1,0,0,1-.1.1v.2a3.6,3.6,0,0,1-2.3,1.2l-.3.2H87.2a4.2,4.2,0,0,1-2,.3H77.6c-1.7-.2-3.4-.5-4.1-1.4h-.2A2.9,2.9,0,0,1,72.2,99c.1-2.9-.9-5.8-.7-8.7s4.4-4.5,10.2-4.1a57.7,57.7,0,0,0,7.2-.1l4.8-.2C94.9,85.9,95.3,86.2,95.3,86.8Zm-8.7,16.1h0Z"/><path class="cls-3" d="M37,74.2a22.5,22.5,0,0,0-1.3-8.7c-.1-.2,0-.5,0-.7s-1.7-2.6-4.2-2.7a5.3,5.3,0,0,1-1.2-.3,7.1,7.1,0,0,0-2.5-.2,52.9,52.9,0,0,1-8.9-.1c-2.2-.1-3.4.4-3.6,1.7a16.4,16.4,0,0,0,.4,5.4c.2,2,.6,4,1,6A19.3,19.3,0,0,0,18,79.3c.5,1.1,1.8,1.7,3.6,1.6a19.4,19.4,0,0,1,6.8.5c3.3.6,6.1,0,7.8-1.8a3.2,3.2,0,0,0,1-2.7C37.2,76.1,37.1,75.2,37,74.2Z"/><path class="cls-3" d="M79.4,43.8c-.3,2.5,0,5.1-.2,7.7A21.1,21.1,0,0,0,79,54c0,.4-.2.5-.7.5H61.9c-.5,0-.7-.2-.8-.5a25.2,25.2,0,0,1-2.6-11.3,3.5,3.5,0,0,1,.6-2.2v-.2a5.2,5.2,0,0,1,1.8-1h.2a1.1,1.1,0,0,1,.8-.2c1.8-.4,3.5.3,5.2,0h.4a5.9,5.9,0,0,1,1.4-.2H71a20.6,20.6,0,0,1,3.5.2h1.9a5.1,5.1,0,0,1,1.3.2h.4v.2a1.3,1.3,0,0,1,1.3.7h.2C80.2,41.6,79.5,42.7,79.4,43.8ZM69,39.9Zm.3.4Zm.1-1.1h0a.6.6,0,0,0-.6,0h-.1a.1.1,0,0,0,.1-.1h.6Zm1.7-.1h0Z"/><path class="cls-3" d="M68.3,109.7Z"/><path class="cls-3" d="M33.3,42.9"/><path class="cls-3" d="M83,68.5a18.6,18.6,0,0,1,1-3.1c.2-.5-.2-.9-1.1-1.1a9.9,9.9,0,0,0-2.4-.3,47.1,47.1,0,0,0-9.9.6c-3.1.6-5.1,2.1-5.4,4.1s-.5,6.1-1.7,9.1a1,1,0,0,0,.4,1.3l.8.7c1.8,1.4,1.9,1.3,4.7.9l8.2-1.2c1.6-.2,1.8-.4,1.8-1.4a12.1,12.1,0,0,1,2.1-5.3,6.5,6.5,0,0,0,1.3-3.4c.1-.1.2-.3,0-.3A1.2,1.2,0,0,1,83,68.5Z"/><path class="cls-3" d="M115.5,103h-5a2.3,2.3,0,0,1-1.4-.1h-.3a4.6,4.6,0,0,1-2.6-.1h-2.5c-.2,0-.4,0-.4-.2h-1.1c-.6-.2-1.3-.3-1.5-.8h-.3c.1-.1-.2-.2-.1-.3s.4-2.3.7-3.4a27.4,27.4,0,0,0,1.4-7.9,5.7,5.7,0,0,1,.4-2.2c.4-.9,1.2-1.2,2.8-1a37.5,37.5,0,0,0,6.7,0h1.4c3,0,3.9.5,4.2,2.1s-.2,5.9,0,8.8a17.7,17.7,0,0,0,.5,3.2C118.7,102.2,117.8,102.8,115.5,103Z"/><path class="cls-3" d="M103.2,104.4h0Z"/><path class="cls-3" d="M55.5,54.7H32.8c-.9,0-1.2-.2-1.3-.7l-2.7-9a14.6,14.6,0,0,1-.6-4.6l.2-.2a.3.3,0,0,1,.1-.2c.2-.6,1-.8,1.9-.8l2.7.2a5.3,5.3,0,0,1,1.3.1h.3l1-.2a6.7,6.7,0,0,1,2,0h1.2a3,3,0,0,1,2.3-.2h2.5l2.1.2c.9.2,1.8.2,2.3.8a6.5,6.5,0,0,1,4.1,5.2,25.8,25.8,0,0,0,3.2,9.3C55.5,54.5,55.5,54.6,55.5,54.7Z"/><path class="cls-3" d="M102.1,45.8A22.9,22.9,0,0,1,101,51c-.1.5-.1,2-.8,2.3s-3.1.1-4,.1H87c-.8,0-3.7.2-4.2-.1s.1-1.8.1-2.2.1-3.5.1-5.3-.1-3.2,1-4.6,5.7-1.9,6.3-1.9,1.1.4,1.7.6,2.1,0,3.1-.1a18.4,18.4,0,0,1,4.1-.3l2.2.4c.3.1.4,0,.7.2s.1.3.2.4A47.8,47.8,0,0,0,102.1,45.8ZM89,40.1"/><path class="cls-3" d="M87.2,109.1Z"/><path class="cls-3" d="M-7.9,69.3a17.7,17.7,0,0,1,0,4.6,11.4,11.4,0,0,0,.3,4.5c.4,1.4,1.9,2.2,4.1,2.3a63.5,63.5,0,0,0,7.6.3c2.8-.1,4.4-1.4,3.9-3.1A60.2,60.2,0,0,1,5.6,63.5c0-.5-.5-.7-1.2-.8A21.3,21.3,0,0,0,0,62.5c-2-.1-4,.1-6,.2a6.7,6.7,0,0,1-2-.1c-.9,0-1.2.3-1,.8A29.3,29.3,0,0,1-7.9,69.3Z"/><path class="cls-3" d="M117.5,50.9c.3.6-.1.8-1.3.8H104.4c-1,0-1.1-.2-1-.6a27.9,27.9,0,0,0,1.8-11.3c-.1-1,.4-1.3,2.1-1.4a86.1,86.1,0,0,1,8.8,0c1.7.2,2.1.4,1.8,1.4s-.1,1-.2,1.5c-.2,2.3-.1,4.5-.1,6.8a4.6,4.6,0,0,1-.1,1Z"/><path class="cls-3" d="M42.9,51.8l9.2-.2c1-.1,1.4-1.1,1.6-.6s1.4,2.6,1.6,3.2-.1,2.2-2.2,2.9a30.3,30.3,0,0,1-8.6,1l-8.7-.4c-1.8-.1-3.9-2.6-4.3-3.7a4.8,4.8,0,0,1-.5-1.7c-.2-.5.7-.5,1.2-.5Z"/><path class="cls-3" d="M95.8,71.7c0,3.1.1,6.1,0,9.1,0,.5.4.7,1.8.8,3.9.1,7.3-.1,9.5-1.6.6-.4,1.1-.7.8-1.2-1.4-2.2-.3-4.4-.3-6.6a21,21,0,0,0-1.8-8.8c-.3-.8-1.3-1.3-3.3-1.5s-3.9,0-5.8,0-.8.4-.8.6C95.8,65.6,95.8,68.7,95.8,71.7Z"/><path class="cls-3" d="M100.9,52.2a12,12,0,0,0-.5,3.8c0,1-.8,1.4-2.5,1.2a14.1,14.1,0,0,0-2.9-.1c-2.8.2-5.7,0-8.4.4a3.3,3.3,0,0,1-2-.5,2.9,2.9,0,0,1-1.9-3.4c.2-1.5.2-1.5,2.7-1.5h15.5Z"/><path class="cls-3" d="M97.7,71.7c0-3,0-6.1.1-9.2,0-.6-.3-.8-1.7-.7l-5.2.5c-1.6.3-2.4.7-2.1,1.4a33,33,0,0,1,1.7,7.4,36.4,36.4,0,0,1,.2,6.6v1.2c-.1,2.4,1.4,2.2,5.6,2.6,1.1.1,1.5,0,1.5-.6C97.7,77.9,97.7,74.8,97.7,71.7Z"/><path class="cls-3" d="M60.6,52.9H78.3c.4,0,.8-.1.8.3a12.8,12.8,0,0,1-.7,3.4,1.2,1.2,0,0,1-1.5.6,11,11,0,0,0-5.1,0c-1.4.3-2.9-.1-4.3.2l-3.5.5c-1.3.2-1.8-.1-2.2-1.1s-.3-1.3-.5-1.9A15.9,15.9,0,0,0,60.6,52.9Z"/><path class="cls-3" d="M109.6,55.3c-1.7-.1-3.4-.3-5.1-.3s-1.3-.1-1.3-.5.1-2.2.3-3.3.3-.4.9-.3h12.5c.4,0,.6,0,.6.2a7.6,7.6,0,0,0,.2,3c.1.3-.4.5-.9.6s-2.7.4-4.1.6A16.1,16.1,0,0,1,109.6,55.3Z"/><path class="cls-3" d="M16.3,38h1.8a2.7,2.7,0,0,1,2.4,1c.8,1.2.8,2.5,1.1,3.7s1.3,4.5,1.9,6.7l.6,2.3H1.6C.8,51.7.4,51.6.4,51c.1-4.1.1-8.3,0-12.4,0-.6.2-.8,1.1-.7a49.5,49.5,0,0,1,7.7.1C11.5,37.8,13.9,38.3,16.3,38Z"/><path class="cls-3" d="M23.1,55a20.5,20.5,0,0,1-4.3-.1,32.7,32.7,0,0,0-6.3.2c-1.4.2-2.7,0-4,.1H6.7c-.4.1-.5,0-.5-.3V51.3c0-.4.3-.4.7-.4,2.7.1,5.4,0,8.2,0s5.4.1,8.1,0c.6,0,.8.2.9.5a18.4,18.4,0,0,1,.5,2.5C24.7,54.5,24.2,54.9,23.1,55Z"/><path class="cls-3" d="M6.9,51.4v3.5c.1.4-.3.5-1.3.4C2.9,55,1,53.9.6,52.2s0-3,0-4.6a.1.1,0,0,1,0-.2c1.6-.6,3.5-.1,5.2-.3s1.1.3,1.1.7Z"/><path class="cls-3" d="M68.3,109.7Z"/><path class="cls-3" d="M68.3,109.7Z"/><path class="cls-3" d="M68.5,107.6h-.7a.5.5,0,0,1,.6.1h.1Z"/><path class="cls-3" d="M68.3,102h0Z"/><path class="cls-3" d="M103.2,104.4H103v-.2c0,.1.1.1.1.2h.1Z"/><path class="cls-3" d="M68.3,102h0Z"/><path class="cls-3" d="M105.8,104.7a2,2,0,0,1-1.3.1h1.3Z"/><path class="cls-3" d="M106.3,29.2"/><path class="cls-3" d="M68.5,107.6h-.7a.5.5,0,0,1,.6.1h.1Z"/><path class="cls-3" d="M68.3,102h0Z"/><path class="cls-3" d="M91.3,105.1Z"/><path class="cls-3" d="M91.4,105.2h-.1C91.4,105.1,91.4,105.1,91.4,105.2Z"/><path class="cls-3" d="M103.1,104.4h0Z"/><path class="cls-3" d="M105.8,104.7a2,2,0,0,1-1.3.1h1.3Z"/><path class="cls-3" d="M67.8,107.5h0Z"/><path class="cls-3" d="M68.3,109.7Z"/><path class="cls-3" d="M68.5,107.6h0Z"/><path class="cls-3" d="M91.4,105.2h-.1C91.4,105.1,91.4,105.1,91.4,105.2Z"/></g><path class="cls-3" d="M41.7,92.1a15.6,15.6,0,0,1-1,5.9c-.1.2,0,.4-.1.5s-1.2,1.8-3.1,1.9l-1,.2a6.7,6.7,0,0,1-2,.1,53,53,0,0,0-6.9.1c-1.6.1-2.6-.3-2.8-1.2a11.6,11.6,0,0,1,.3-3.7c.2-1.4.5-2.8.8-4.1a20.7,20.7,0,0,1,1-3.3c.4-.8,1.4-1.2,2.8-1.1a18.5,18.5,0,0,0,5.3-.3,7.2,7.2,0,0,1,6.1,1.2,2.5,2.5,0,0,1,.8,1.9A17.6,17.6,0,0,1,41.7,92.1Z"/><path class="cls-3" d="M111.6,69.3a17.7,17.7,0,0,1,0,4.6,11.4,11.4,0,0,0,.3,4.5c.4,1.4,1.9,2.2,4.1,2.3a63.5,63.5,0,0,0,7.6.3c2.8-.1,4.4-1.4,3.9-3.1a60.2,60.2,0,0,1-2.4-14.4c0-.5-.5-.7-1.2-.8a21.3,21.3,0,0,0-4.4-.2c-2-.1-4,.1-6,.2a6.7,6.7,0,0,1-2-.1c-.9,0-1.2.3-1,.8A29.3,29.3,0,0,1,111.6,69.3Z"/><rect class="cls-2" x="-119.5" y="35.5" width="120" height="70.97"/><path class="cls-3" d="M-7.4,69.3a17.7,17.7,0,0,1,0,4.6,11.4,11.4,0,0,0,.3,4.5c.4,1.4,1.9,2.2,4.1,2.3a63.5,63.5,0,0,0,7.6.3c2.8-.1,4.4-1.4,3.9-3.1A60.2,60.2,0,0,1,6.1,63.5c0-.5-.5-.7-1.2-.8a21.3,21.3,0,0,0-4.4-.2c-2-.1-4,.1-6,.2a6.7,6.7,0,0,1-2-.1c-.9,0-1.2.3-1,.8A29.3,29.3,0,0,1-7.4,69.3Z"/><rect class="cls-2" x="59" y="-33.9" width="120" height="70.97"/><g id="Un01e8.tif-17" data-name="Un01e8.tif"><path class="cls-3" d="M82.1,31.3c.6,1.3-5.5.5-6.6.5-3.8.3-6.9,3-10.8,1.2S63,26.3,63,23.4c0-1.1-.8-3.9,0-4.9s7.3-.9,10.3-.9c6.8-.2,5.7,2.9,6.8,6.8C80.8,26.5,82.3,29.2,82.1,31.3Z"/><path class="cls-3" d="M109.2,13.2a30.5,30.5,0,0,0,6.7-.7A3.6,3.6,0,0,0,119,9.8c1.1-3.9,1.1-7.8,1.7-11.7a4.3,4.3,0,0,0-.1-1.6c-.3-1.3-.8-1.8-2.4-2.1l-4.1-.7a12.4,12.4,0,0,0-4.7.1,8.3,8.3,0,0,1-3.5.1,3.5,3.5,0,0,0-3.3.7,4.7,4.7,0,0,1-.9.6,1.3,1.3,0,0,0-.7,1.5c.2,1.5.4,3,.7,4.5a54.3,54.3,0,0,1,.4,8,4.9,4.9,0,0,0,.1,1.2c.3,1.7,1.7,2.4,3.6,2.6A18.8,18.8,0,0,0,109.2,13.2Z"/><path class="cls-3" d="M125.3,30.9a2.3,2.3,0,0,1-1.6,1.6c-.1.2-.3.2-.5.2l-.3.2-6,.4h-1.7a14.1,14.1,0,0,1-5.5-.7c-.2,0-.3-.1-.3-.2h-.2a5.5,5.5,0,0,1-2.9-4c-.3-1.7-1.2-3.3-1.6-4.9a5.3,5.3,0,0,1,.1-3.9c.7-1.2,2.1-1.8,4.4-1.8a21.9,21.9,0,0,0,3.6-.3,78.5,78.5,0,0,1,8.4.1c3.1.2,4.6,1.1,4,3s-.2,3.7,0,5.6A12.4,12.4,0,0,1,125.3,30.9Zm-8.4,1.6Z"/><path class="cls-3" d="M96.5,4.7a22,22,0,0,0-1.3-8.6c-.1-.2,0-.5,0-.7S93.5-7.2,91-7.4l-1.2-.2a7.2,7.2,0,0,0-2.5-.3,44.1,44.1,0,0,1-8.9,0c-2.2-.2-3.4.4-3.6,1.7a15.7,15.7,0,0,0,.4,5.3,59.7,59.7,0,0,0,1,6.1,22.1,22.1,0,0,0,1.3,4.7c.5,1.1,1.8,1.7,3.6,1.5a25.7,25.7,0,0,1,6.8.5c3.3.7,6.1,0,7.8-1.8a3.1,3.1,0,0,0,1-2.6C96.7,6.6,96.6,5.8,96.5,4.7Z"/><path class="cls-3" d="M51.6-.1a17.7,17.7,0,0,1,0,4.6,10.9,10.9,0,0,0,.3,4.4c.4,1.4,1.9,2.2,4.1,2.4a63.7,63.7,0,0,0,7.6.2c2.8-.1,4.4-1.3,3.9-3A60.2,60.2,0,0,1,65.1-6c0-.5-.5-.7-1.2-.8A31.7,31.7,0,0,0,59.5-7q-3,0-6,.3h-2c-.9,0-1.2.3-1,.7A31.6,31.6,0,0,1,51.6-.1Z"/></g><path class="cls-3" d="M101.2,22.6a16.1,16.1,0,0,1-1,6c-.1.1,0,.3-.1.5S98.9,30.9,97,31H96a4.6,4.6,0,0,1-2,.2,53,53,0,0,0-6.9,0c-1.6.1-2.6-.2-2.8-1.1a11.4,11.4,0,0,1,.3-3.7c.2-1.4.5-2.8.8-4.2a20.7,20.7,0,0,1,1-3.3c.4-.7,1.4-1.1,2.8-1a18.4,18.4,0,0,0,5.3-.4c2.5-.4,4.7,0,6.1,1.3a2.3,2.3,0,0,1,.8,1.8A13.7,13.7,0,0,1,101.2,22.6Z"/><rect class="cls-2" x="-60" y="-33.9" width="120" height="70.97"/><g id="Un01e8.tif-18" data-name="Un01e8.tif"><path class="cls-3" d="M-9.8,13.2a30.5,30.5,0,0,0,6.7-.7A3.6,3.6,0,0,0,0,9.8C1.1,5.9,1.1,2,1.7-1.9a4.3,4.3,0,0,0-.1-1.6C1.3-4.8.8-5.3-.8-5.6l-4.1-.7a12.4,12.4,0,0,0-4.7.1,8.3,8.3,0,0,1-3.5.1,3.5,3.5,0,0,0-3.3.7,4.7,4.7,0,0,1-.9.6A1.3,1.3,0,0,0-18-3.3c.2,1.5.4,3,.7,4.5a54.3,54.3,0,0,1,.4,8,4.9,4.9,0,0,0,.1,1.2c.3,1.7,1.7,2.4,3.6,2.6A18.8,18.8,0,0,0-9.8,13.2Z"/><path class="cls-3" d="M6.3,30.9a2.3,2.3,0,0,1-1.6,1.6c-.1.2-.3.2-.5.2l-.3.2-6,.4H-3.8a14.1,14.1,0,0,1-5.5-.7c-.2,0-.3-.1-.3-.2h-.2a5.5,5.5,0,0,1-2.9-4c-.3-1.7-1.2-3.3-1.6-4.9a5.3,5.3,0,0,1,.1-3.9c.7-1.2,2.1-1.8,4.4-1.8a21.9,21.9,0,0,0,3.6-.3,78.5,78.5,0,0,1,8.4.1c3.1.2,4.6,1.1,4,3s-.2,3.7,0,5.6A12.4,12.4,0,0,1,6.3,30.9Zm-8.4,1.6Z"/><path class="cls-3" d="M35.8,17.3c-.3,2.1-.1,4.2-.5,6.2a36.7,36.7,0,0,1-1.9,6.2,2.4,2.4,0,0,0-.2.8c-.3.5,0,.9-.2,1.4a.1.1,0,0,0-.1.1v.2a4.9,4.9,0,0,1-2.3,1.2H27.7a4.2,4.2,0,0,1-2,.3c-1.2,0-2.4.1-3.6,0H18.4l-.3-.2c-1.7-.2-3.4-.4-4.1-1.3h-.2V32a2.6,2.6,0,0,1-1.1-2.4c.1-3-.9-5.9-.7-8.8s4.4-4.5,10.2-4c2.4.1,4.8-.1,7.2-.2h4.8C35.4,16.5,35.8,16.8,35.8,17.3ZM27.1,33.4Z"/><path class="cls-3" d="M8.8,40.2Z"/><path class="cls-3" d="M23.5-.9a16,16,0,0,1,1-3.1c.2-.5-.2-1-1.1-1.2L21-5.5a65.8,65.8,0,0,0-9.9.6C8-4.3,6-2.8,5.7-.8S5.2,5.3,4,8.3a1,1,0,0,0,.4,1.3,2.7,2.7,0,0,0,.8.7c1.8,1.4,1.9,1.4,4.7.9l8.2-1.1c1.6-.3,1.8-.5,1.8-1.4A12.4,12.4,0,0,1,22,3.3,6.5,6.5,0,0,0,23.3-.1c.1-.1.2-.2,0-.3A.8.8,0,0,1,23.5-.9Z"/><path class="cls-3" d="M56,33.6a11.3,11.3,0,0,1-2.6-.1,7.4,7.4,0,0,1-2.1,0H51a3.3,3.3,0,0,1-1.4-.1H48.2a4,4,0,0,0,1.1,0,3.9,3.9,0,0,1-2.6-.1h0v.2H44.2c-.2.1-.4,0-.4-.1H42.7c-.6-.2-1.3-.3-1.5-.7l-.3-.2c.1-.1-.2-.1-.1-.2s.4-2.4.7-3.5a26.7,26.7,0,0,0,1.4-7.8,6.2,6.2,0,0,1,.4-2.3c.4-.8,1.2-1.1,2.8-.9a37.5,37.5,0,0,0,6.7,0h1.4c3-.1,3.9.5,4.2,2.1s-.2,5.8,0,8.8a19.2,19.2,0,0,0,.5,3.2C59.2,32.8,58.3,33.4,56,33.6Z"/><path class="cls-3" d="M43.7,34.9h-.1A.1.1,0,0,0,43.7,34.9Z"/><path class="cls-3" d="M27.7,39.6h0Z"/><path class="cls-3" d="M36.3,2.3c0,3,.1,6,0,9,0,.6.4.8,1.8.8,3.9.2,7.3-.1,9.5-1.5.6-.4,1.1-.8.8-1.2C47,7.2,48.1,5,48.1,2.7a21.7,21.7,0,0,0-1.8-8.8C46-6.8,45-7.4,43-7.5a56.6,56.6,0,0,0-5.8-.1c-1.3,0-.8.4-.8.7C36.3-3.8,36.3-.8,36.3,2.3Z"/><path class="cls-3" d="M38.2,2.3c0-3.1,0-6.2.1-9.3,0-.5-.3-.7-1.7-.6a45.7,45.7,0,0,0-5.2.5c-1.6.2-2.4.7-2.1,1.4A32.1,32.1,0,0,1,31,1.6a37.5,37.5,0,0,1,.2,6.7V9.5c-.1,2.4,1.4,2.2,5.6,2.6,1.1.1,1.5-.1,1.5-.6C38.2,8.4,38.2,5.4,38.2,2.3Z"/><path class="cls-3" d="M8.8,40.2Z"/><path class="cls-3" d="M8.8,40.2Z"/><path class="cls-3" d="M9,38.2H8.3a.5.5,0,0,1,.6.1H9Z"/><path class="cls-3" d="M8.8,32.5h0Z"/><path class="cls-3" d="M43.7,34.9h0c-.1.1-.2.1-.2,0h0v-.3h0c0,.1.1.2.1.3h0A.1.1,0,0,0,43.7,34.9Z"/><path class="cls-3" d="M8.8,32.5h0Z"/><path class="cls-3" d="M46.3,35.3c-.4,0-.9.2-1.3,0h1.3Z"/><path class="cls-3" d="M9,38.2H8.3a.5.5,0,0,1,.6.1H9Z"/><path class="cls-3" d="M8.8,32.5h0Z"/><path class="cls-3" d="M31.8,35.6Z"/><path class="cls-3" d="M31.9,35.7h-.1v-.2h0A.1.1,0,0,1,31.9,35.7Z"/><path class="cls-3" d="M43.6,35a.1.1,0,0,0,.1-.1h0c-.1.1-.2.1-.2,0Z"/><path class="cls-3" d="M46.3,35.3c-.4,0-.9.2-1.3,0h1.3Z"/><path class="cls-3" d="M8.3,38.1h0Z"/><path class="cls-3" d="M8.8,40.2Z"/><path class="cls-3" d="M9,38.2H9Z"/><path class="cls-3" d="M31.9,35.7h-.1v-.2h0A.1.1,0,0,1,31.9,35.7Z"/></g><path class="cls-3" d="M52.1-.1a17.7,17.7,0,0,1,0,4.6,10.9,10.9,0,0,0,.3,4.4c.4,1.4,1.9,2.2,4.1,2.4a63.7,63.7,0,0,0,7.6.2c2.8-.1,4.4-1.3,3.9-3A60.2,60.2,0,0,1,65.6-6c0-.5-.5-.7-1.2-.8A31.7,31.7,0,0,0,60-7q-3,0-6,.3H52c-.9,0-1.2.3-1,.7A31.6,31.6,0,0,1,52.1-.1Z"/></pattern><pattern id="New_Pattern-7" data-name="New Pattern" width="119" height="138.9" patternTransform="matrix(-0.62, -0.51, 0.51, -0.62, 3.68, 86.91)" patternUnits="userSpaceOnUse" viewBox="0 0 119 138.9"><rect class="cls-1" width="119" height="138.9"/><rect class="cls-2" x="59" y="105" width="120" height="70.97"/><g id="Un01e8.tif-19" data-name="Un01e8.tif"><path class="cls-3" d="M109.2,152.1a50.8,50.8,0,0,0,6.7-.7,3.6,3.6,0,0,0,3.1-2.7c1.1-3.9,1.1-7.8,1.7-11.7a4.3,4.3,0,0,0-.1-1.6c-.3-1.3-.8-1.8-2.4-2.1l-4.1-.7a12.4,12.4,0,0,0-4.7.1,8.3,8.3,0,0,1-3.5.1,3.5,3.5,0,0,0-3.3.7,4.7,4.7,0,0,1-.9.6,1.3,1.3,0,0,0-.7,1.5c.2,1.5.4,3,.7,4.5a54.3,54.3,0,0,1,.4,8,4.9,4.9,0,0,0,.1,1.2c.3,1.7,1.7,2.4,3.6,2.6A18.8,18.8,0,0,0,109.2,152.1Z"/><path class="cls-3" d="M96.5,143.6a22,22,0,0,0-1.3-8.6,1.6,1.6,0,0,1,0-.7c0-1.6-1.7-2.7-4.2-2.8l-1.2-.2a7.2,7.2,0,0,0-2.5-.3,44.1,44.1,0,0,1-8.9,0c-2.2-.2-3.4.4-3.6,1.7a15.7,15.7,0,0,0,.4,5.3c.2,2,.6,4.1,1,6.1a22.1,22.1,0,0,0,1.3,4.7c.5,1.1,1.8,1.7,3.6,1.5a25.7,25.7,0,0,1,6.8.5c3.3.7,6.1,0,7.8-1.8a3.1,3.1,0,0,0,1-2.6C96.7,145.5,96.6,144.7,96.5,143.6Z"/><path class="cls-3" d="M138.9,113.2c-.3,2.6,0,5.1-.2,7.7a22.8,22.8,0,0,0-.2,2.6c0,.4-.2.4-.7.4H121.4c-.5,0-.7-.1-.8-.4a25.7,25.7,0,0,1-2.6-11.4,3.7,3.7,0,0,1,.6-2.2h0a5.4,5.4,0,0,1,1.8-1.1h.2a1.1,1.1,0,0,1,.8-.1c1.8-.4,3.5.2,5.2-.1h.4a3.2,3.2,0,0,1,1.4-.1c.1-.1.2-.1.4,0h1.7c1.2.1,2.3-.1,3.5.1h1.7c.1.1.2.1.2.2s.9-.1,1.3.2h.2c.1-.1.2-.1.2,0h0c.7.1,1.1.3,1.3.8h.2C139.7,111.1,139,112.1,138.9,113.2Zm-10.4-3.9h0Zm.3.4Zm.1-1.1Zm1.7,0h0Z"/><path class="cls-3" d="M92.8,112.3"/><path class="cls-3" d="M115,124.1H92.3c-.9,0-1.2-.2-1.3-.7l-2.7-9a15.2,15.2,0,0,1-.6-4.7h.2c0-.1,0-.2.1-.2s1-.9,1.9-.8l2.7.2a2.8,2.8,0,0,1,1.3.1h.3l1-.2h3.2a3.6,3.6,0,0,1,2.3-.1h2.5l2.1.2a4.8,4.8,0,0,1,2.3.8,6.6,6.6,0,0,1,4.1,5.2,25.1,25.1,0,0,0,3.2,9.3Z"/><path class="cls-3" d="M51.6,138.8a17.7,17.7,0,0,1,0,4.6,10.9,10.9,0,0,0,.3,4.4c.4,1.4,1.9,2.2,4.1,2.4a63.7,63.7,0,0,0,7.6.2c2.8-.1,4.4-1.3,3.9-3a60.2,60.2,0,0,1-2.4-14.5c0-.5-.5-.7-1.2-.8a31.7,31.7,0,0,0-4.4-.2l-6,.3h-2c-.9-.1-1.2.2-1,.7A31.6,31.6,0,0,1,51.6,138.8Z"/><path class="cls-3" d="M102.4,121.2l9.2-.2c1,0,1.4-1.1,1.6-.5a30.1,30.1,0,0,1,1.6,3.1c.6,1.4-.1,2.2-2.2,2.9a24.5,24.5,0,0,1-8.6,1c-2.9,0-5.8-.2-8.7-.4s-3.9-2.5-4.3-3.6a6.4,6.4,0,0,1-.5-1.7c-.2-.5.7-.6,1.2-.6Z"/><path class="cls-3" d="M75.8,107.5h1.8a3,3,0,0,1,2.4.9c.8,1.2.8,2.5,1.1,3.8s1.3,4.4,1.9,6.7l.6,2.2H61.1c-.8.1-1.2,0-1.2-.7.1-4.1.1-8.2,0-12.4,0-.5.2-.7,1.1-.7,2.6.1,5.1-.2,7.7.2S73.4,107.7,75.8,107.5Z"/><path class="cls-3" d="M82.6,124.5a20.3,20.3,0,0,1-4.3-.2,32.5,32.5,0,0,0-6.3.3c-1.4.2-2.7,0-4,.1H66.2c-.4,0-.5-.1-.5-.3v-3.8c0-.4.3-.3.7-.3H82.7c.6,0,.8.1.9.4s.4,1.7.5,2.5S83.7,124.3,82.6,124.5Z"/><path class="cls-3" d="M66.4,120.8v3.5c.1.5-.3.6-1.3.5-2.7-.4-4.6-1.5-5-3.1s0-3.1,0-4.6-.1-.2,0-.2c1.6-.7,3.5-.1,5.2-.3s1.1.2,1.1.6Z"/></g><rect class="cls-2" x="-60" y="105" width="120" height="70.97"/><g id="Un01e8.tif-20" data-name="Un01e8.tif"><path class="cls-3" d="M-9.8,152.1a50.8,50.8,0,0,0,6.7-.7A3.6,3.6,0,0,0,0,148.7c1.1-3.9,1.1-7.8,1.7-11.7a4.3,4.3,0,0,0-.1-1.6c-.3-1.3-.8-1.8-2.4-2.1l-4.1-.7a12.4,12.4,0,0,0-4.7.1,8.3,8.3,0,0,1-3.5.1,3.5,3.5,0,0,0-3.3.7,4.7,4.7,0,0,1-.9.6,1.3,1.3,0,0,0-.7,1.5c.2,1.5.4,3,.7,4.5a54.3,54.3,0,0,1,.4,8,4.9,4.9,0,0,0,.1,1.2c.3,1.7,1.7,2.4,3.6,2.6A18.8,18.8,0,0,0-9.8,152.1Z"/><path class="cls-3" d="M19.9,113.2c-.3,2.6,0,5.1-.2,7.7a22.8,22.8,0,0,0-.2,2.6c0,.4-.2.4-.7.4H2.4c-.5,0-.7-.1-.8-.4A25.7,25.7,0,0,1-1,112.1a3.7,3.7,0,0,1,.6-2.2h0a5.4,5.4,0,0,1,1.8-1.1h.2a1.1,1.1,0,0,1,.8-.1c1.8-.4,3.5.2,5.2-.1H8a3.2,3.2,0,0,1,1.4-.1c.1-.1.2-.1.4,0h1.7c1.2.1,2.3-.1,3.5.1h1.7c.1.1.2.1.2.2s.9-.1,1.3.2h.2c.1-.1.2-.1.2,0h0c.7.1,1.1.3,1.3.8h.2C20.7,111.1,20,112.1,19.9,113.2ZM9.5,109.3h0Zm.3.4Zm.1-1.1Zm1.7,0h0Z"/><path class="cls-3" d="M23.5,137.9a17.6,17.6,0,0,1,1-3c.2-.5-.2-1-1.1-1.2l-2.4-.3a65.8,65.8,0,0,0-9.9.6c-3.1.6-5.1,2.1-5.4,4.1s-.5,6.1-1.7,9.1a1,1,0,0,0,.4,1.3,2.7,2.7,0,0,0,.8.7c1.8,1.4,1.9,1.4,4.7.9l8.2-1.1c1.6-.3,1.8-.5,1.8-1.4a12.4,12.4,0,0,1,2.1-5.4,6.5,6.5,0,0,0,1.3-3.4c.1-.1.2-.2,0-.3A1.2,1.2,0,0,1,23.5,137.9Z"/><path class="cls-3" d="M42.6,115.3a24.1,24.1,0,0,1-1.1,5.2c-.1.5-.1,2-.8,2.3s-3.1,0-4,0H27.5c-.8,0-3.7.3-4.2-.1s.1-1.7.1-2.2.1-3.5.1-5.2-.1-3.3,1-4.6,5.7-1.9,6.3-1.9a3.8,3.8,0,0,1,1.7.5c1,.4,2.1,0,3.1-.1a18.5,18.5,0,0,1,4.1-.2,6.9,6.9,0,0,1,2.2.3c.3.1.4,0,.7.2s.1.3.2.5A46.1,46.1,0,0,0,42.6,115.3Zm-13.1-5.8"/><path class="cls-3" d="M58,120.3c.3.7-.1.9-1.3.9H44.9c-1,.1-1.1-.1-1-.6a27.4,27.4,0,0,0,1.8-11.2c-.1-1.1.4-1.3,2.1-1.4a64.6,64.6,0,0,1,8.8,0c1.7.1,2.1.4,1.8,1.4s-.1,1-.2,1.5c-.2,2.2-.1,4.5-.1,6.7a3.8,3.8,0,0,1-.1,1Z"/><path class="cls-3" d="M36.3,141.2c0,3,.1,6,0,9,0,.6.4.8,1.8.8,3.9.2,7.3-.1,9.5-1.5.6-.4,1.1-.8.8-1.2-1.4-2.2-.3-4.4-.3-6.7a21.7,21.7,0,0,0-1.8-8.8c-.3-.7-1.3-1.3-3.3-1.4a56.6,56.6,0,0,0-5.8-.1c-1.3,0-.8.4-.8.7C36.3,135.1,36.3,138.1,36.3,141.2Z"/><path class="cls-3" d="M41.4,121.6a12.8,12.8,0,0,0-.5,3.8c0,1-.8,1.5-2.5,1.2a14.1,14.1,0,0,0-2.9-.1c-2.8.3-5.7,0-8.4.4a3.3,3.3,0,0,1-2-.5,2.9,2.9,0,0,1-1.9-3.4c.2-1.4.2-1.4,2.7-1.4H41.4Z"/><path class="cls-3" d="M38.2,141.2c0-3.1,0-6.2.1-9.3,0-.5-.3-.7-1.7-.6a45.7,45.7,0,0,0-5.2.5c-1.6.2-2.4.7-2.1,1.4a32.1,32.1,0,0,1,1.7,7.3,37.5,37.5,0,0,1,.2,6.7v1.1c-.1,2.4,1.4,2.3,5.6,2.7,1.1.1,1.5-.1,1.5-.6C38.2,147.3,38.2,144.3,38.2,141.2Z"/><path class="cls-3" d="M1.1,122.3H18.8c.4,0,.8-.1.8.4a13,13,0,0,1-.7,3.3,1.3,1.3,0,0,1-1.5.7,11,11,0,0,0-5.1,0c-1.4.3-2.9-.2-4.3.1s-2.3.4-3.5.6-1.8-.1-2.2-1.1l-.5-2C1.6,123.7,1.4,123,1.1,122.3Z"/><path class="cls-3" d="M50.1,124.8a29.1,29.1,0,0,0-5.1-.3c-.8,0-1.3-.1-1.3-.6a31.6,31.6,0,0,1,.3-3.2c.1-.3.3-.4.9-.4H57.4c.4,0,.6,0,.6.3a7.6,7.6,0,0,0,.2,3c.1.3-.4.4-.9.6s-2.7.4-4.1.6S51.1,124.8,50.1,124.8Z"/><path class="cls-3" d="M46.8,98.7"/></g><path class="cls-3" d="M52.1,138.8a17.7,17.7,0,0,1,0,4.6,10.9,10.9,0,0,0,.3,4.4c.4,1.4,1.9,2.2,4.1,2.4a63.7,63.7,0,0,0,7.6.2c2.8-.1,4.4-1.3,3.9-3a60.2,60.2,0,0,1-2.4-14.5c0-.5-.5-.7-1.2-.8a31.7,31.7,0,0,0-4.4-.2l-6,.3H52c-.9-.1-1.2.2-1,.7A31.6,31.6,0,0,1,52.1,138.8Z"/><rect class="cls-2" x="118.5" y="35.5" width="120" height="70.97"/><g id="Un01e8.tif-21" data-name="Un01e8.tif"><path class="cls-3" d="M111.1,69.3a17.7,17.7,0,0,1,0,4.6,11.4,11.4,0,0,0,.3,4.5c.4,1.4,1.9,2.2,4.1,2.3a63.5,63.5,0,0,0,7.6.3c2.8-.1,4.4-1.4,3.9-3.1a60.2,60.2,0,0,1-2.4-14.4c0-.5-.5-.7-1.2-.8a21.3,21.3,0,0,0-4.4-.2c-2-.1-4,.1-6,.2a6.7,6.7,0,0,1-2-.1c-.9,0-1.2.3-1,.8A29.3,29.3,0,0,1,111.1,69.3Z"/></g><rect class="cls-2" x="-0.5" y="35.5" width="120" height="70.97"/><g id="Un01e8.tif-22" data-name="Un01e8.tif"><path class="cls-3" d="M22.6,100.7c.6,1.3-5.5.5-6.6.6-3.8.2-6.9,3-10.8,1.2s-1.7-6.8-1.7-9.7c0-1.1-.8-3.9,0-4.9s7.3-.8,10.3-.9c6.8-.2,5.7,3,6.8,6.8C21.3,95.9,22.8,98.7,22.6,100.7Z"/><path class="cls-3" d="M49.7,82.7a50.8,50.8,0,0,0,6.7-.7,3.7,3.7,0,0,0,3.1-2.8c1.1-3.8,1.1-7.8,1.7-11.7a4.5,4.5,0,0,0-.1-1.6c-.3-1.3-.8-1.8-2.4-2.1l-4.1-.7a12.4,12.4,0,0,0-4.7.2,10.3,10.3,0,0,1-3.5,0,3.3,3.3,0,0,0-3.3.8l-.9.6a1.2,1.2,0,0,0-.7,1.4c.2,1.5.4,3,.7,4.5a54.9,54.9,0,0,1,.4,8.1,4.9,4.9,0,0,0,.1,1.2c.3,1.7,1.7,2.3,3.6,2.5A18.7,18.7,0,0,0,49.7,82.7Z"/><path class="cls-3" d="M65.8,100.3c-.1.7-.6,1.2-1.6,1.7l-.5.2h-.3l-6,.4H55.7a19.3,19.3,0,0,1-5.5-.7c-.2,0-.3-.1-.3-.2s-.2,0-.2-.1a5.3,5.3,0,0,1-2.9-4c-.3-1.7-1.2-3.3-1.6-4.9a5.3,5.3,0,0,1,.1-3.9c.7-1.1,2.1-1.7,4.4-1.8l3.6-.2a58.9,58.9,0,0,1,8.4,0c3.1.2,4.6,1.2,4,3s-.2,3.8,0,5.6A12.4,12.4,0,0,1,65.8,100.3ZM57.4,102h0Z"/><path class="cls-3" d="M95.3,86.8c-.3,2-.1,4.1-.5,6.2a35.7,35.7,0,0,1-1.9,6.1,2.9,2.9,0,0,0-.2.9c-.3.4,0,.9-.2,1.3a.1.1,0,0,1-.1.1v.2a3.6,3.6,0,0,1-2.3,1.2l-.3.2H87.2a4.2,4.2,0,0,1-2,.3H77.6c-1.7-.2-3.4-.5-4.1-1.4h-.2A2.9,2.9,0,0,1,72.2,99c.1-2.9-.9-5.8-.7-8.7s4.4-4.5,10.2-4.1a57.7,57.7,0,0,0,7.2-.1l4.8-.2C94.9,85.9,95.3,86.2,95.3,86.8Zm-8.7,16.1h0Z"/><path class="cls-3" d="M37,74.2a22.5,22.5,0,0,0-1.3-8.7c-.1-.2,0-.5,0-.7s-1.7-2.6-4.2-2.7a5.3,5.3,0,0,1-1.2-.3,7.1,7.1,0,0,0-2.5-.2,52.9,52.9,0,0,1-8.9-.1c-2.2-.1-3.4.4-3.6,1.7a16.4,16.4,0,0,0,.4,5.4c.2,2,.6,4,1,6A19.3,19.3,0,0,0,18,79.3c.5,1.1,1.8,1.7,3.6,1.6a19.4,19.4,0,0,1,6.8.5c3.3.6,6.1,0,7.8-1.8a3.2,3.2,0,0,0,1-2.7C37.2,76.1,37.1,75.2,37,74.2Z"/><path class="cls-3" d="M79.4,43.8c-.3,2.5,0,5.1-.2,7.7A21.1,21.1,0,0,0,79,54c0,.4-.2.5-.7.5H61.9c-.5,0-.7-.2-.8-.5a25.2,25.2,0,0,1-2.6-11.3,3.5,3.5,0,0,1,.6-2.2v-.2a5.2,5.2,0,0,1,1.8-1h.2a1.1,1.1,0,0,1,.8-.2c1.8-.4,3.5.3,5.2,0h.4a5.9,5.9,0,0,1,1.4-.2H71a20.6,20.6,0,0,1,3.5.2h1.9a5.1,5.1,0,0,1,1.3.2h.4v.2a1.3,1.3,0,0,1,1.3.7h.2C80.2,41.6,79.5,42.7,79.4,43.8ZM69,39.9Zm.3.4Zm.1-1.1h0a.6.6,0,0,0-.6,0h-.1a.1.1,0,0,0,.1-.1h.6Zm1.7-.1h0Z"/><path class="cls-3" d="M68.3,109.7Z"/><path class="cls-3" d="M33.3,42.9"/><path class="cls-3" d="M83,68.5a18.6,18.6,0,0,1,1-3.1c.2-.5-.2-.9-1.1-1.1a9.9,9.9,0,0,0-2.4-.3,47.1,47.1,0,0,0-9.9.6c-3.1.6-5.1,2.1-5.4,4.1s-.5,6.1-1.7,9.1a1,1,0,0,0,.4,1.3l.8.7c1.8,1.4,1.9,1.3,4.7.9l8.2-1.2c1.6-.2,1.8-.4,1.8-1.4a12.1,12.1,0,0,1,2.1-5.3,6.5,6.5,0,0,0,1.3-3.4c.1-.1.2-.3,0-.3A1.2,1.2,0,0,1,83,68.5Z"/><path class="cls-3" d="M115.5,103h-5a2.3,2.3,0,0,1-1.4-.1h-.3a4.6,4.6,0,0,1-2.6-.1h-2.5c-.2,0-.4,0-.4-.2h-1.1c-.6-.2-1.3-.3-1.5-.8h-.3c.1-.1-.2-.2-.1-.3s.4-2.3.7-3.4a27.4,27.4,0,0,0,1.4-7.9,5.7,5.7,0,0,1,.4-2.2c.4-.9,1.2-1.2,2.8-1a37.5,37.5,0,0,0,6.7,0h1.4c3,0,3.9.5,4.2,2.1s-.2,5.9,0,8.8a17.7,17.7,0,0,0,.5,3.2C118.7,102.2,117.8,102.8,115.5,103Z"/><path class="cls-3" d="M103.2,104.4h0Z"/><path class="cls-3" d="M55.5,54.7H32.8c-.9,0-1.2-.2-1.3-.7l-2.7-9a14.6,14.6,0,0,1-.6-4.6l.2-.2a.3.3,0,0,1,.1-.2c.2-.6,1-.8,1.9-.8l2.7.2a5.3,5.3,0,0,1,1.3.1h.3l1-.2a6.7,6.7,0,0,1,2,0h1.2a3,3,0,0,1,2.3-.2h2.5l2.1.2c.9.2,1.8.2,2.3.8a6.5,6.5,0,0,1,4.1,5.2,25.8,25.8,0,0,0,3.2,9.3C55.5,54.5,55.5,54.6,55.5,54.7Z"/><path class="cls-3" d="M102.1,45.8A22.9,22.9,0,0,1,101,51c-.1.5-.1,2-.8,2.3s-3.1.1-4,.1H87c-.8,0-3.7.2-4.2-.1s.1-1.8.1-2.2.1-3.5.1-5.3-.1-3.2,1-4.6,5.7-1.9,6.3-1.9,1.1.4,1.7.6,2.1,0,3.1-.1a18.4,18.4,0,0,1,4.1-.3l2.2.4c.3.1.4,0,.7.2s.1.3.2.4A47.8,47.8,0,0,0,102.1,45.8ZM89,40.1"/><path class="cls-3" d="M87.2,109.1Z"/><path class="cls-3" d="M-7.9,69.3a17.7,17.7,0,0,1,0,4.6,11.4,11.4,0,0,0,.3,4.5c.4,1.4,1.9,2.2,4.1,2.3a63.5,63.5,0,0,0,7.6.3c2.8-.1,4.4-1.4,3.9-3.1A60.2,60.2,0,0,1,5.6,63.5c0-.5-.5-.7-1.2-.8A21.3,21.3,0,0,0,0,62.5c-2-.1-4,.1-6,.2a6.7,6.7,0,0,1-2-.1c-.9,0-1.2.3-1,.8A29.3,29.3,0,0,1-7.9,69.3Z"/><path class="cls-3" d="M117.5,50.9c.3.6-.1.8-1.3.8H104.4c-1,0-1.1-.2-1-.6a27.9,27.9,0,0,0,1.8-11.3c-.1-1,.4-1.3,2.1-1.4a86.1,86.1,0,0,1,8.8,0c1.7.2,2.1.4,1.8,1.4s-.1,1-.2,1.5c-.2,2.3-.1,4.5-.1,6.8a4.6,4.6,0,0,1-.1,1Z"/><path class="cls-3" d="M42.9,51.8l9.2-.2c1-.1,1.4-1.1,1.6-.6s1.4,2.6,1.6,3.2-.1,2.2-2.2,2.9a30.3,30.3,0,0,1-8.6,1l-8.7-.4c-1.8-.1-3.9-2.6-4.3-3.7a4.8,4.8,0,0,1-.5-1.7c-.2-.5.7-.5,1.2-.5Z"/><path class="cls-3" d="M95.8,71.7c0,3.1.1,6.1,0,9.1,0,.5.4.7,1.8.8,3.9.1,7.3-.1,9.5-1.6.6-.4,1.1-.7.8-1.2-1.4-2.2-.3-4.4-.3-6.6a21,21,0,0,0-1.8-8.8c-.3-.8-1.3-1.3-3.3-1.5s-3.9,0-5.8,0-.8.4-.8.6C95.8,65.6,95.8,68.7,95.8,71.7Z"/><path class="cls-3" d="M100.9,52.2a12,12,0,0,0-.5,3.8c0,1-.8,1.4-2.5,1.2a14.1,14.1,0,0,0-2.9-.1c-2.8.2-5.7,0-8.4.4a3.3,3.3,0,0,1-2-.5,2.9,2.9,0,0,1-1.9-3.4c.2-1.5.2-1.5,2.7-1.5h15.5Z"/><path class="cls-3" d="M97.7,71.7c0-3,0-6.1.1-9.2,0-.6-.3-.8-1.7-.7l-5.2.5c-1.6.3-2.4.7-2.1,1.4a33,33,0,0,1,1.7,7.4,36.4,36.4,0,0,1,.2,6.6v1.2c-.1,2.4,1.4,2.2,5.6,2.6,1.1.1,1.5,0,1.5-.6C97.7,77.9,97.7,74.8,97.7,71.7Z"/><path class="cls-3" d="M60.6,52.9H78.3c.4,0,.8-.1.8.3a12.8,12.8,0,0,1-.7,3.4,1.2,1.2,0,0,1-1.5.6,11,11,0,0,0-5.1,0c-1.4.3-2.9-.1-4.3.2l-3.5.5c-1.3.2-1.8-.1-2.2-1.1s-.3-1.3-.5-1.9A15.9,15.9,0,0,0,60.6,52.9Z"/><path class="cls-3" d="M109.6,55.3c-1.7-.1-3.4-.3-5.1-.3s-1.3-.1-1.3-.5.1-2.2.3-3.3.3-.4.9-.3h12.5c.4,0,.6,0,.6.2a7.6,7.6,0,0,0,.2,3c.1.3-.4.5-.9.6s-2.7.4-4.1.6A16.1,16.1,0,0,1,109.6,55.3Z"/><path class="cls-3" d="M16.3,38h1.8a2.7,2.7,0,0,1,2.4,1c.8,1.2.8,2.5,1.1,3.7s1.3,4.5,1.9,6.7l.6,2.3H1.6C.8,51.7.4,51.6.4,51c.1-4.1.1-8.3,0-12.4,0-.6.2-.8,1.1-.7a49.5,49.5,0,0,1,7.7.1C11.5,37.8,13.9,38.3,16.3,38Z"/><path class="cls-3" d="M23.1,55a20.5,20.5,0,0,1-4.3-.1,32.7,32.7,0,0,0-6.3.2c-1.4.2-2.7,0-4,.1H6.7c-.4.1-.5,0-.5-.3V51.3c0-.4.3-.4.7-.4,2.7.1,5.4,0,8.2,0s5.4.1,8.1,0c.6,0,.8.2.9.5a18.4,18.4,0,0,1,.5,2.5C24.7,54.5,24.2,54.9,23.1,55Z"/><path class="cls-3" d="M6.9,51.4v3.5c.1.4-.3.5-1.3.4C2.9,55,1,53.9.6,52.2s0-3,0-4.6a.1.1,0,0,1,0-.2c1.6-.6,3.5-.1,5.2-.3s1.1.3,1.1.7Z"/><path class="cls-3" d="M68.3,109.7Z"/><path class="cls-3" d="M68.3,109.7Z"/><path class="cls-3" d="M68.5,107.6h-.7a.5.5,0,0,1,.6.1h.1Z"/><path class="cls-3" d="M68.3,102h0Z"/><path class="cls-3" d="M103.2,104.4H103v-.2c0,.1.1.1.1.2h.1Z"/><path class="cls-3" d="M68.3,102h0Z"/><path class="cls-3" d="M105.8,104.7a2,2,0,0,1-1.3.1h1.3Z"/><path class="cls-3" d="M106.3,29.2"/><path class="cls-3" d="M68.5,107.6h-.7a.5.5,0,0,1,.6.1h.1Z"/><path class="cls-3" d="M68.3,102h0Z"/><path class="cls-3" d="M91.3,105.1Z"/><path class="cls-3" d="M91.4,105.2h-.1C91.4,105.1,91.4,105.1,91.4,105.2Z"/><path class="cls-3" d="M103.1,104.4h0Z"/><path class="cls-3" d="M105.8,104.7a2,2,0,0,1-1.3.1h1.3Z"/><path class="cls-3" d="M67.8,107.5h0Z"/><path class="cls-3" d="M68.3,109.7Z"/><path class="cls-3" d="M68.5,107.6h0Z"/><path class="cls-3" d="M91.4,105.2h-.1C91.4,105.1,91.4,105.1,91.4,105.2Z"/></g><path class="cls-3" d="M41.7,92.1a15.6,15.6,0,0,1-1,5.9c-.1.2,0,.4-.1.5s-1.2,1.8-3.1,1.9l-1,.2a6.7,6.7,0,0,1-2,.1,53,53,0,0,0-6.9.1c-1.6.1-2.6-.3-2.8-1.2a11.6,11.6,0,0,1,.3-3.7c.2-1.4.5-2.8.8-4.1a20.7,20.7,0,0,1,1-3.3c.4-.8,1.4-1.2,2.8-1.1a18.5,18.5,0,0,0,5.3-.3,7.2,7.2,0,0,1,6.1,1.2,2.5,2.5,0,0,1,.8,1.9A17.6,17.6,0,0,1,41.7,92.1Z"/><path class="cls-3" d="M111.6,69.3a17.7,17.7,0,0,1,0,4.6,11.4,11.4,0,0,0,.3,4.5c.4,1.4,1.9,2.2,4.1,2.3a63.5,63.5,0,0,0,7.6.3c2.8-.1,4.4-1.4,3.9-3.1a60.2,60.2,0,0,1-2.4-14.4c0-.5-.5-.7-1.2-.8a21.3,21.3,0,0,0-4.4-.2c-2-.1-4,.1-6,.2a6.7,6.7,0,0,1-2-.1c-.9,0-1.2.3-1,.8A29.3,29.3,0,0,1,111.6,69.3Z"/><rect class="cls-2" x="-119.5" y="35.5" width="120" height="70.97"/><path class="cls-3" d="M-7.4,69.3a17.7,17.7,0,0,1,0,4.6,11.4,11.4,0,0,0,.3,4.5c.4,1.4,1.9,2.2,4.1,2.3a63.5,63.5,0,0,0,7.6.3c2.8-.1,4.4-1.4,3.9-3.1A60.2,60.2,0,0,1,6.1,63.5c0-.5-.5-.7-1.2-.8a21.3,21.3,0,0,0-4.4-.2c-2-.1-4,.1-6,.2a6.7,6.7,0,0,1-2-.1c-.9,0-1.2.3-1,.8A29.3,29.3,0,0,1-7.4,69.3Z"/><rect class="cls-2" x="59" y="-33.9" width="120" height="70.97"/><g id="Un01e8.tif-23" data-name="Un01e8.tif"><path class="cls-3" d="M82.1,31.3c.6,1.3-5.5.5-6.6.5-3.8.3-6.9,3-10.8,1.2S63,26.3,63,23.4c0-1.1-.8-3.9,0-4.9s7.3-.9,10.3-.9c6.8-.2,5.7,2.9,6.8,6.8C80.8,26.5,82.3,29.2,82.1,31.3Z"/><path class="cls-3" d="M109.2,13.2a30.5,30.5,0,0,0,6.7-.7A3.6,3.6,0,0,0,119,9.8c1.1-3.9,1.1-7.8,1.7-11.7a4.3,4.3,0,0,0-.1-1.6c-.3-1.3-.8-1.8-2.4-2.1l-4.1-.7a12.4,12.4,0,0,0-4.7.1,8.3,8.3,0,0,1-3.5.1,3.5,3.5,0,0,0-3.3.7,4.7,4.7,0,0,1-.9.6,1.3,1.3,0,0,0-.7,1.5c.2,1.5.4,3,.7,4.5a54.3,54.3,0,0,1,.4,8,4.9,4.9,0,0,0,.1,1.2c.3,1.7,1.7,2.4,3.6,2.6A18.8,18.8,0,0,0,109.2,13.2Z"/><path class="cls-3" d="M125.3,30.9a2.3,2.3,0,0,1-1.6,1.6c-.1.2-.3.2-.5.2l-.3.2-6,.4h-1.7a14.1,14.1,0,0,1-5.5-.7c-.2,0-.3-.1-.3-.2h-.2a5.5,5.5,0,0,1-2.9-4c-.3-1.7-1.2-3.3-1.6-4.9a5.3,5.3,0,0,1,.1-3.9c.7-1.2,2.1-1.8,4.4-1.8a21.9,21.9,0,0,0,3.6-.3,78.5,78.5,0,0,1,8.4.1c3.1.2,4.6,1.1,4,3s-.2,3.7,0,5.6A12.4,12.4,0,0,1,125.3,30.9Zm-8.4,1.6Z"/><path class="cls-3" d="M96.5,4.7a22,22,0,0,0-1.3-8.6c-.1-.2,0-.5,0-.7S93.5-7.2,91-7.4l-1.2-.2a7.2,7.2,0,0,0-2.5-.3,44.1,44.1,0,0,1-8.9,0c-2.2-.2-3.4.4-3.6,1.7a15.7,15.7,0,0,0,.4,5.3,59.7,59.7,0,0,0,1,6.1,22.1,22.1,0,0,0,1.3,4.7c.5,1.1,1.8,1.7,3.6,1.5a25.7,25.7,0,0,1,6.8.5c3.3.7,6.1,0,7.8-1.8a3.1,3.1,0,0,0,1-2.6C96.7,6.6,96.6,5.8,96.5,4.7Z"/><path class="cls-3" d="M51.6-.1a17.7,17.7,0,0,1,0,4.6,10.9,10.9,0,0,0,.3,4.4c.4,1.4,1.9,2.2,4.1,2.4a63.7,63.7,0,0,0,7.6.2c2.8-.1,4.4-1.3,3.9-3A60.2,60.2,0,0,1,65.1-6c0-.5-.5-.7-1.2-.8A31.7,31.7,0,0,0,59.5-7q-3,0-6,.3h-2c-.9,0-1.2.3-1,.7A31.6,31.6,0,0,1,51.6-.1Z"/></g><path class="cls-3" d="M101.2,22.6a16.1,16.1,0,0,1-1,6c-.1.1,0,.3-.1.5S98.9,30.9,97,31H96a4.6,4.6,0,0,1-2,.2,53,53,0,0,0-6.9,0c-1.6.1-2.6-.2-2.8-1.1a11.4,11.4,0,0,1,.3-3.7c.2-1.4.5-2.8.8-4.2a20.7,20.7,0,0,1,1-3.3c.4-.7,1.4-1.1,2.8-1a18.4,18.4,0,0,0,5.3-.4c2.5-.4,4.7,0,6.1,1.3a2.3,2.3,0,0,1,.8,1.8A13.7,13.7,0,0,1,101.2,22.6Z"/><rect class="cls-2" x="-60" y="-33.9" width="120" height="70.97"/><g id="Un01e8.tif-24" data-name="Un01e8.tif"><path class="cls-3" d="M-9.8,13.2a30.5,30.5,0,0,0,6.7-.7A3.6,3.6,0,0,0,0,9.8C1.1,5.9,1.1,2,1.7-1.9a4.3,4.3,0,0,0-.1-1.6C1.3-4.8.8-5.3-.8-5.6l-4.1-.7a12.4,12.4,0,0,0-4.7.1,8.3,8.3,0,0,1-3.5.1,3.5,3.5,0,0,0-3.3.7,4.7,4.7,0,0,1-.9.6A1.3,1.3,0,0,0-18-3.3c.2,1.5.4,3,.7,4.5a54.3,54.3,0,0,1,.4,8,4.9,4.9,0,0,0,.1,1.2c.3,1.7,1.7,2.4,3.6,2.6A18.8,18.8,0,0,0-9.8,13.2Z"/><path class="cls-3" d="M6.3,30.9a2.3,2.3,0,0,1-1.6,1.6c-.1.2-.3.2-.5.2l-.3.2-6,.4H-3.8a14.1,14.1,0,0,1-5.5-.7c-.2,0-.3-.1-.3-.2h-.2a5.5,5.5,0,0,1-2.9-4c-.3-1.7-1.2-3.3-1.6-4.9a5.3,5.3,0,0,1,.1-3.9c.7-1.2,2.1-1.8,4.4-1.8a21.9,21.9,0,0,0,3.6-.3,78.5,78.5,0,0,1,8.4.1c3.1.2,4.6,1.1,4,3s-.2,3.7,0,5.6A12.4,12.4,0,0,1,6.3,30.9Zm-8.4,1.6Z"/><path class="cls-3" d="M35.8,17.3c-.3,2.1-.1,4.2-.5,6.2a36.7,36.7,0,0,1-1.9,6.2,2.4,2.4,0,0,0-.2.8c-.3.5,0,.9-.2,1.4a.1.1,0,0,0-.1.1v.2a4.9,4.9,0,0,1-2.3,1.2H27.7a4.2,4.2,0,0,1-2,.3c-1.2,0-2.4.1-3.6,0H18.4l-.3-.2c-1.7-.2-3.4-.4-4.1-1.3h-.2V32a2.6,2.6,0,0,1-1.1-2.4c.1-3-.9-5.9-.7-8.8s4.4-4.5,10.2-4c2.4.1,4.8-.1,7.2-.2h4.8C35.4,16.5,35.8,16.8,35.8,17.3ZM27.1,33.4Z"/><path class="cls-3" d="M8.8,40.2Z"/><path class="cls-3" d="M23.5-.9a16,16,0,0,1,1-3.1c.2-.5-.2-1-1.1-1.2L21-5.5a65.8,65.8,0,0,0-9.9.6C8-4.3,6-2.8,5.7-.8S5.2,5.3,4,8.3a1,1,0,0,0,.4,1.3,2.7,2.7,0,0,0,.8.7c1.8,1.4,1.9,1.4,4.7.9l8.2-1.1c1.6-.3,1.8-.5,1.8-1.4A12.4,12.4,0,0,1,22,3.3,6.5,6.5,0,0,0,23.3-.1c.1-.1.2-.2,0-.3A.8.8,0,0,1,23.5-.9Z"/><path class="cls-3" d="M56,33.6a11.3,11.3,0,0,1-2.6-.1,7.4,7.4,0,0,1-2.1,0H51a3.3,3.3,0,0,1-1.4-.1H48.2a4,4,0,0,0,1.1,0,3.9,3.9,0,0,1-2.6-.1h0v.2H44.2c-.2.1-.4,0-.4-.1H42.7c-.6-.2-1.3-.3-1.5-.7l-.3-.2c.1-.1-.2-.1-.1-.2s.4-2.4.7-3.5a26.7,26.7,0,0,0,1.4-7.8,6.2,6.2,0,0,1,.4-2.3c.4-.8,1.2-1.1,2.8-.9a37.5,37.5,0,0,0,6.7,0h1.4c3-.1,3.9.5,4.2,2.1s-.2,5.8,0,8.8a19.2,19.2,0,0,0,.5,3.2C59.2,32.8,58.3,33.4,56,33.6Z"/><path class="cls-3" d="M43.7,34.9h-.1A.1.1,0,0,0,43.7,34.9Z"/><path class="cls-3" d="M27.7,39.6h0Z"/><path class="cls-3" d="M36.3,2.3c0,3,.1,6,0,9,0,.6.4.8,1.8.8,3.9.2,7.3-.1,9.5-1.5.6-.4,1.1-.8.8-1.2C47,7.2,48.1,5,48.1,2.7a21.7,21.7,0,0,0-1.8-8.8C46-6.8,45-7.4,43-7.5a56.6,56.6,0,0,0-5.8-.1c-1.3,0-.8.4-.8.7C36.3-3.8,36.3-.8,36.3,2.3Z"/><path class="cls-3" d="M38.2,2.3c0-3.1,0-6.2.1-9.3,0-.5-.3-.7-1.7-.6a45.7,45.7,0,0,0-5.2.5c-1.6.2-2.4.7-2.1,1.4A32.1,32.1,0,0,1,31,1.6a37.5,37.5,0,0,1,.2,6.7V9.5c-.1,2.4,1.4,2.2,5.6,2.6,1.1.1,1.5-.1,1.5-.6C38.2,8.4,38.2,5.4,38.2,2.3Z"/><path class="cls-3" d="M8.8,40.2Z"/><path class="cls-3" d="M8.8,40.2Z"/><path class="cls-3" d="M9,38.2H8.3a.5.5,0,0,1,.6.1H9Z"/><path class="cls-3" d="M8.8,32.5h0Z"/><path class="cls-3" d="M43.7,34.9h0c-.1.1-.2.1-.2,0h0v-.3h0c0,.1.1.2.1.3h0A.1.1,0,0,0,43.7,34.9Z"/><path class="cls-3" d="M8.8,32.5h0Z"/><path class="cls-3" d="M46.3,35.3c-.4,0-.9.2-1.3,0h1.3Z"/><path class="cls-3" d="M9,38.2H8.3a.5.5,0,0,1,.6.1H9Z"/><path class="cls-3" d="M8.8,32.5h0Z"/><path class="cls-3" d="M31.8,35.6Z"/><path class="cls-3" d="M31.9,35.7h-.1v-.2h0A.1.1,0,0,1,31.9,35.7Z"/><path class="cls-3" d="M43.6,35a.1.1,0,0,0,.1-.1h0c-.1.1-.2.1-.2,0Z"/><path class="cls-3" d="M46.3,35.3c-.4,0-.9.2-1.3,0h1.3Z"/><path class="cls-3" d="M8.3,38.1h0Z"/><path class="cls-3" d="M8.8,40.2Z"/><path class="cls-3" d="M9,38.2H9Z"/><path class="cls-3" d="M31.9,35.7h-.1v-.2h0A.1.1,0,0,1,31.9,35.7Z"/></g><path class="cls-3" d="M52.1-.1a17.7,17.7,0,0,1,0,4.6,10.9,10.9,0,0,0,.3,4.4c.4,1.4,1.9,2.2,4.1,2.4a63.7,63.7,0,0,0,7.6.2c2.8-.1,4.4-1.3,3.9-3A60.2,60.2,0,0,1,65.6-6c0-.5-.5-.7-1.2-.8A31.7,31.7,0,0,0,60-7q-3,0-6,.3H52c-.9,0-1.2.3-1,.7A31.6,31.6,0,0,1,52.1-.1Z"/></pattern></defs><title>Tiffany Dunks</title><g id="Quarter_Panel" data-name="Quarter Panel"><path class="cls-6" d="M844,686.4s-147.8-143.9-123.7-164,225.8-91.6,225.8-91.6l223.4,241.1Z" transform="translate(-379.5 -346.8)"/></g><g id="Toe_Box" data-name="Toe Box"><path class="cls-6" d="M449.1,525.3c41.2-7.1,154.7-7.3,190.8-4.9,7.1.5,12.9,25.3,12.9,25.3l27.3,73.6-88.4-4.9L480.8,577.1l-43.8-31S435,527.7,449.1,525.3Z" transform="translate(-379.5 -346.8)"/><g id="Perferations"><ellipse cx="102.3" cy="191.3" rx="2.2" ry="1.4"/><ellipse cx="122" cy="200.5" rx="2.2" ry="1.4"/><ellipse cx="122" cy="182.7" rx="2.2" ry="1.4"/><ellipse cx="157.8" cy="200.5" rx="2.2" ry="1.4"/><ellipse cx="141.3" cy="211" rx="2.2" ry="1.4"/><ellipse cx="236" cy="202" rx="2.2" ry="1.4"/><ellipse cx="213.2" cy="215" rx="2.2" ry="1.4"/><ellipse cx="173.4" cy="211" rx="2.2" ry="1.4"/><ellipse cx="141.3" cy="191.3" rx="2.2" ry="1.4"/><ellipse cx="191.9" cy="182.7" rx="2.2" ry="1.4"/><ellipse cx="191.9" cy="202.1" rx="2.2" ry="1.4"/><ellipse cx="157.8" cy="181.9" rx="2.2" ry="1.4"/><ellipse cx="173.4" cy="191.3" rx="2.2" ry="1.4"/><ellipse cx="214" cy="192.3" rx="2.2" ry="1.4"/><ellipse cx="236" cy="182.7" rx="2.2" ry="1.4"/><ellipse cx="236" cy="221.3" rx="2.2" ry="1.4"/></g></g><path id="Mud_Guard" data-name="Mud Guard" class="cls-7" d="M451.1,524.9c-9.6.8-26,13.9-37,34.4-8.8,16.5-13.2,39.6-14,58.3,143.6,61,303.5,88.9,459.3,81.1-12.7-32.3-40.3-57.7-62.3-84.4s-42.5-58-42.4-92.7c-37,4.9-101.9,2.4-108.5,14.7-10.4,19.1,32.6,46.1,17.9,62.1s-48.6-15.9-62.7-19.7c-42.9-11.5-88.9-8.7-140.7-28.8C438.9,541.4,459.2,524.2,451.1,524.9Z" transform="translate(-379.5 -346.8)"/><g id="Eyestay"><path class="cls-8" d="M644.8,534.4c41.7,1,83.6-4,123.1-17.7,21.1-7.3,38.3-17.5,59.7-23.9,24.3-7.3,52.8-11.5,77.3-18.1s49-16.8,66.5-35.2l-40.7-41c-68,41.9-145.6,70.6-220.9,92C693.7,495.1,619.6,505,644.8,534.4Z" transform="translate(-379.5 -346.8)"/></g><g id="Sock_Liner" data-name="Sock Liner"><path id="Back" class="cls-9" d="M1330.3,392.5h.1c-14.2.3-27.3,7.6-38.7,16s-21.9,18.3-34.4,25.1c-24.5,13.3-54.4,13.3-81.2,6.2-14.9-4-29.1-10-42.8-16.8-6.9-3.4-13.6-7.1-20.4-10.8-1.9-1.1-5.1-3.6-7-.9s2.2,4.7,4.2,6.2a375.2,375.2,0,0,0,77.6,46.6l.7.3c14.1,6.3,29.3,11.8,44.7,10.1,12.8-1.3,24.5-7.5,35.2-14.6A195.1,195.1,0,0,0,1330.3,392.5Z" transform="translate(-379.5 -346.8)"/><path id="Main_Tongue" data-name="Main Tongue" class="cls-10" d="M1040.6,363.4c.2-.7,1.2-1.3,3.4-1.6a50.9,50.9,0,0,1,21.6,1.4c8.6,2.2,16.6,6,24.7,9.8l48,22.8c-6.9,1.9-12.6,6.5-18.6,10.3s-13.4,6.6-20.2,4.7c-4.2-1.1-7.7-4-11.1-6.7l-36.1-29.8-8.9-7.3C1041.6,365.5,1040.4,364.3,1040.6,363.4Z" transform="translate(-379.5 -346.8)"/><path id="Tongue_Rim" data-name="Tongue Rim" class="cls-11" d="M1118.6,424.2c3.6-.3,6.9-2.5,10-4.6,5.6-3.9,11.4-8,15.6-13.4a16.5,16.5,0,0,0,3.6-7.4c.3-2.8-.6-5.8-2.8-7.4a8.2,8.2,0,0,0-7.3-.8,22.8,22.8,0,0,0-6.6,3.7c-7.2,5.1-17.2,9.9-23.2,16.4-3.3,3.5-3.2,4.1.4,8.2,2.3,2.5,5.1,5.1,8.8,5.3A3.8,3.8,0,0,0,1118.6,424.2Z" transform="translate(-379.5 -346.8)"/><path id="Front" class="cls-12" d="M1322.4,395.7a13.6,13.6,0,0,1,3.5-2.4c3.2-1.5,7.3-1.4,9.7,1.1,4.3,4.5.1,11.8-4.1,16.4-22.3,24.6-46.3,50.2-78.1,59.6s-67.1.3-98.4-12.1a478.2,478.2,0,0,1-145-90.1c-2.9-2.6-17.8-13.7-17.8-13.7s15.4-8,23.9-5.8,13.3,5.5,20.2,9.3c23.6,13.1,44.3,30.7,65.4,47.5s42.9,33.3,67.7,43.8,53.4,14.7,79,6.3c28.6-9.4,50.1-32.7,69.8-55.5A43.7,43.7,0,0,1,1322.4,395.7Z" transform="translate(-379.5 -346.8)"/></g><g id="Heel_Cup" data-name="Heel Cup"><path class="cls-6" d="M996.7,354.1c9-4.8,29.3,7.8,37.4,13.6,25.9,18.4,76.6,60.5,103.2,78.1,33.5,22.3,89.8,33.5,114.5,24.8,7.5-2.6,28.6-12.4,28.6-12.4s36,4,45.5,7.6,39.4,5.6,42.9,20.1c5.2,21.7,11.1,49.7,11.3,74.2-84.6-18-171.4-43.3-253.8-69.4-10.5-3.3-21.1-6.8-30.6-12.5-13.1-7.8-23.3-19.6-33-31.3-17.3-20.8-33.7-42.4-49.1-64.6C1010.3,377.7,995.5,354.7,996.7,354.1Z" transform="translate(-379.5 -346.8)"/></g><g id="Upper"><path class="cls-13" d="M1126.9,675.9s-1.3-31.9-8-39.4c-42.1-46.6-128-132.8-166.4-180.8-10.2-12.7-34.5-48.2-27.3-58.6s57.9-41.8,70.7-43.4,52.6,46.9,69.9,62.7c20.9,19,68.4,50.2,92.4,65.1,31.1,19.1,78.2,40.5,136.6,51.4,26,4.8,76.6,11,84.4,20.9,4,5.1.5,33.5-2.4,46.6-3.6,16.2,0,60.1,0,60.1Z" transform="translate(-379.5 -346.8)"/><ellipse class="cls-14" cx="603.3" cy="84.6" rx="7.2" ry="6.7"/><ellipse class="cls-14" cx="636.2" cy="65.3" rx="7.2" ry="6.7"/><ellipse class="cls-14" cx="614" cy="39" rx="7.8" ry="6.2"/></g><g id="Sole"><path id="Mid_Sole" data-name="Mid Sole" class="cls-15" d="M1378,718.1l-13.7,10.8-15.2,6.6-20.1,5-53,5-34.6.8-36.2.8h-36.5l-37-.4-18.9-.4-8.4,10.8-45-.8-40.6-.9-41.4-.4-43.4-.8-41.3.8L879,745.9l-29.7-.4-43.8-.9-48.2-2.4-32.2-2.1-31.7,7.4-32.2-4.1-32.5-5.8L598.1,733l-28.5-21.5-67.9-22.8-79.1-30.3L392,639s-9.8-11.5-10.4-16.2,5.8-8.5,7.2-11.6,2.5-13,4.8-16.6,11-10.9,11.3-7.4c.8,10.7,2.4,18.2,31.3,31.5,13.3,6.1,54.7,20.7,54.7,20.7s66.5,20.8,89.2,25.7c24.4,5.2,73.9,12.2,98.8,14.1,27.1,2,108.5,3.3,108.5,3.3s94-1.9,125.3-3.3,92.2-6.8,123-8.3c37.5-1.9,112.7-2.9,150.3-4.2,31.1-1,93.6-1.4,124.5-5.8,11.6-1.6,35.4-5.1,45.8-10.7,5.1-2.8,14.8-13.1,19.7-12.1,3,.7.6,19.5.8,22.4C1378,675,1377.8,703.2,1378,718.1Z" transform="translate(-379.5 -346.8)"/><path id="Sole-2" data-name="Sole" class="cls-16" d="M1376,736.2c-4.1,6.7-21.6,15.4-29.3,17.3-17.8,4.3-53.1,10.4-71.1,10.8s-80.5,1.1-107.3,1.2c-20.1.1-60.3.2-80.4,0-48.4-.4-145.2-.9-193.6-1.6-35.8-.5-107.4.6-143.1-1.6-30.8-1.9-92.7-7-122.9-13.7-54.7-12-165.6-38.7-213.8-67.5-8.1-4.8-23.3-17.4-28.1-25.7-6.2-10.8-6.3-36-4-33.7s6.4,12.4,9.6,15.7c6.4,6.3,22.4,15.2,30.6,18.8,19.3,8.6,59.1,22.6,79.1,29.4,16.9,5.7,52,14,67.9,22.1,7.9,4,20.5,16.5,28.5,20.1s22.9,5,30.6,6,24.4,3.7,32.5,4.8,24.1,4.4,32.2,4,22.8-7.1,30.9-8,25.5,1.2,33.8,2c12,1.2,35.5,2,47.4,2.4s32.8.5,43.8.8c7.4.2,22.6-1.1,29.7,1.2,3.9,1.3,14.5,7.2,18.5,8,9.8,2.2,26.2.8,36.5.8h43.4l41.4.5c10.2.1,30.5.6,40.6.8s41.3,2.8,44.2,0,6.2-8.2,9.2-9.7,17.4-.4,22.1-.4c9.4,0,25.3.3,33.8.4s27.4,0,36.5,0,27.2.1,36.2,0,27.5-.3,36.2-.8c13.3-.8,39.5-2.6,52.2-4.8a170.1,170.1,0,0,0,19.3-4.8c3.9-1.4,11.7-4.3,15.2-6.5s13.7-10.4,13.7-10.4C1378.1,719.1,1378.6,731.9,1376,736.2Z" transform="translate(-379.5 -346.8)"/></g><g id="Layer_12" data-name="Layer 12"><path class="cls-17" d="M1331,473.6s-37,12.7-53,18.8c-91.1,35.1-183.9,66.7-280.7,79.4-19.6,2.6-41.5,4.1-57.3-7.8-10.7-8.1-16.7-21.2-19-34.4s.1-26.2,1.3-39.6c-13.4,7.6-23.3,12.9-33.9,21.6a193.7,193.7,0,0,0-27.5,28.3c-11.7,15-17.4,39.2-12.5,57.5a58.3,58.3,0,0,0,36,39.2c19.4,7,40.9,3,61.1-1.3a1881.6,1881.6,0,0,0,422.7-145.2C1359.6,480,1331,473.6,1331,473.6Z" transform="translate(-379.5 -346.8)"/></g><g id="Heel_Tab" data-name="Heel Tab"><path class="cls-18" d="M1279.2,458.6s89,42.3,91.2,34.5c6.4-22.5-28.4-98.3-33.4-93.1-7.6,8.1-18.1,19.8-25,26.5Z" transform="translate(-379.5 -346.8)"/></g><g id="Laces"><path class="cls-19" d="M679.1,520.1c9.4-2.3,13.5-6.1,14.6-10.9s-2.8-8.9-1-15.7-28.9,2.8-32.4,10.6S672.3,521.7,679.1,520.1Z" transform="translate(-379.5 -346.8)"/><path class="cls-19" d="M723.5,502.4c.8,3.3,2.3,9.4,9.5,9.8s14.9-7,16.4-9.6,7.8-26.7,15.1-30.8-23.7,3.3-29.9,7S722.7,499.3,723.5,502.4Z" transform="translate(-379.5 -346.8)"/><path class="cls-19" d="M783,483.9c.8,3.2,5.3,9.1,11.2,6.9s15-10.1,16.6-12.3-.5-19.3,3.8-23-8.6-3.2-19.8,3.2S779.7,472,783,483.9Z" transform="translate(-379.5 -346.8)"/><path class="cls-19" d="M838.1,459.5c1.5,4.9,5.9,12.3,17.2,11.2s15-12.7,15-18.7-4.3-19.3,7.5-25.2-24.4,2.4-31.1,6.7S834.6,447.6,838.1,459.5Z" transform="translate(-379.5 -346.8)"/><path class="cls-19" d="M917,403.5c.1,1.9,3.6-.9,8-1.5,6.9-.9,19.8,7.7,30,6s22.6-4.2,12.9-28.7C961.6,363.3,915.7,376.9,917,403.5Z" transform="translate(-379.5 -346.8)"/><path class="cls-19" d="M886.9,423.4c1.3,6.7-2.4,22,7.4,26.2S916.9,437.7,919,434s1.8-28.5-1.9-33S885.2,415.4,886.9,423.4Z" transform="translate(-379.5 -346.8)"/></g></svg>