<svg id="Illustration" xmlns="http://www.w3.org/2000/svg" xmlns:xlink="http://www.w3.org/1999/xlink" width="1003" height="498.8" viewBox="0 0 1003 498.8"><defs><style>.cls-1,.cls-3{fill:none;}.cls-2{fill:#4b6667;}.cls-3{stroke:#314b4e;stroke-width:2px;}.cls-11,.cls-12,.cls-13,.cls-14,.cls-16,.cls-17,.cls-18,.cls-19,.cls-21,.cls-22,.cls-24,.cls-3{stroke-miterlimit:10;}.cls-4{fill:#504e4a;}.cls-5{fill:#cdcbca;}.cls-6{fill:#6b6869;}.cls-7{fill:#c6c3bf;}.cls-8{fill:#878380;}.cls-9{fill:#bdbab7;}.cls-10{fill:url(#New_Pattern);}.cls-11,.cls-12,.cls-13,.cls-14,.cls-16,.cls-17,.cls-18,.cls-19,.cls-21,.cls-22,.cls-24{stroke:#000;stroke-width:3px;}.cls-11{fill:url(#New_Pattern_6);}.cls-12{fill:url(#New_Pattern_7);}.cls-13{fill:url(#New_Pattern_3);}.cls-14{fill:#e4e1dc;}.cls-15{fill:url(#New_Pattern_2);}.cls-16{fill:#aaa6a5;}.cls-17{fill:#22272f;}.cls-18{fill:#d9d6d2;}.cls-19{fill:#f0efe3;}.cls-20{fill:#e0dcd1;}.cls-21{fill:#333;}.cls-22{fill:#191a21;}.cls-23{fill:#ff824e;}.cls-24{fill:#e2ff9b;}</style><pattern id="New_Pattern" data-name="New Pattern" width="18" height="23" patternTransform="translate(17.8 34.7) scale(0.72)" patternUnits="userSpaceOnUse" viewBox="0 0 18 23"><rect class="cls-1" width="18" height="23"/><rect class="cls-2" x="13.5" y="22" width="9" height="24.47"/><line class="cls-3" x1="15.5" y1="23" x2="20.5" y2="23"/><rect class="cls-2" x="4.5" y="22" width="9" height="24.47"/><line class="cls-3" x1="6.5" y1="23" x2="11.5" y2="23"/><rect class="cls-2" x="-4.5" y="22" width="9" height="24.47"/><line class="cls-3" x1="-2.5" y1="23" x2="2.5" y2="23"/><rect class="cls-2" x="13.5" y="-1" width="9" height="24.47"/><line class="cls-3" x1="15.5" y1="9.2" x2="20.5" y2="9.2"/><line class="cls-3" x1="15.5" y1="4.6" x2="20.5" y2="4.6"/><line class="cls-3" x1="15.5" y1="18.4" x2="20.5" y2="18.4"/><line class="cls-3" x1="15.5" y1="13.8" x2="20.5" y2="13.8"/><line class="cls-3" x1="15.5" y1="23" x2="20.5" y2="23"/><line class="cls-3" x1="15.5" x2="20.5"/><rect class="cls-2" x="4.5" y="-1" width="9" height="24.47"/><line class="cls-3" x1="6.5" y1="9.2" x2="11.5" y2="9.2"/><line class="cls-3" x1="6.5" y1="4.6" x2="11.5" y2="4.6"/><line class="cls-3" x1="6.5" y1="18.4" x2="11.5" y2="18.4"/><line class="cls-3" x1="6.5" y1="13.8" x2="11.5" y2="13.8"/><line class="cls-3" x1="6.5" y1="23" x2="11.5" y2="23"/><line class="cls-3" x1="6.5" x2="11.5"/><rect class="cls-2" x="-4.5" y="-1" width="9" height="24.47"/><line class="cls-3" x1="-2.5" y1="9.2" x2="2.5" y2="9.2"/><line class="cls-3" x1="-2.5" y1="4.6" x2="2.5" y2="4.6"/><line class="cls-3" x1="-2.5" y1="18.4" x2="2.5" y2="18.4"/><line class="cls-3" x1="-2.5" y1="13.8" x2="2.5" y2="13.8"/><line class="cls-3" x1="-2.5" y1="23" x2="2.5" y2="23"/><line class="cls-3" x1="-2.5" x2="2.5"/><rect class="cls-2" x="13.5" y="-24" width="9" height="24.47"/><line class="cls-3" x1="15.5" x2="20.5"/><rect class="cls-2" x="4.5" y="-24" width="9" height="24.47"/><line class="cls-3" x1="6.5" x2="11.5"/><rect class="cls-2" x="-4.5" y="-24" width="9" height="24.47"/><line class="cls-3" x1="-2.5" x2="2.5"/></pattern><pattern id="New_Pattern_6" data-name="New Pattern 6" width="14.4" height="15.88" patternTransform="translate(2 -0.1) scale(0.72)" patternUnits="userSpaceOnUse" viewBox="0 0 14.4 15.9"><rect class="cls-1" width="14.4" height="15.88"/><ellipse class="cls-8" cx="14.4" cy="15.9" rx="1" ry="4.4" transform="translate(-6.9 13.7) rotate(-42)"/><ellipse class="cls-8" cx="14.4" cy="16" rx="1" ry="4.4" transform="translate(-7 13.7) rotate(-42)"/><ellipse class="cls-8" cy="15.9" rx="1" ry="4.4" transform="translate(-10.6 4.1) rotate(-42)"/><ellipse class="cls-8" cy="16" rx="1" ry="4.4" transform="translate(-10.7 4.1) rotate(-42)"/><ellipse class="cls-8" cx="14.4" cy="15.9" rx="1" ry="4.4" transform="translate(-7 13.7) rotate(-42)"/><ellipse class="cls-8" cx="14.4" rx="1" ry="4.4" transform="translate(3.7 9.6) rotate(-42)"/><rect class="cls-9" width="14.4" height="15.92"/><ellipse class="cls-8" cx="14.4" cy="0.2" rx="1" ry="4.4" transform="translate(3.6 9.6) rotate(-42)"/><ellipse class="cls-8" cy="15.9" rx="1" ry="4.4" transform="translate(-10.6 4.1) rotate(-42)"/><ellipse class="cls-8" cx="14.4" cy="15.9" rx="1" ry="4.4" transform="translate(-7 13.7) rotate(-42)"/><ellipse class="cls-8" rx="1" ry="4.4" transform="translate(0 0) rotate(-42)"/><ellipse class="cls-8" cx="7.2" cy="8" rx="1" ry="4.4" transform="translate(-3.5 6.8) rotate(-42)"/><ellipse class="cls-8" cx="3.6" cy="4" rx="1" ry="4.4" transform="translate(-1.7 3.4) rotate(-42)"/><ellipse class="cls-8" cx="10.8" cy="11.9" rx="1" ry="4.4" transform="translate(-5.2 10.3) rotate(-42)"/><ellipse class="cls-8" cy="0.2" rx="1" ry="4.4" transform="translate(-0.1 0) rotate(-42)"/><ellipse class="cls-8" cy="15.9" rx="1" ry="4.4" transform="translate(-10.6 4.1) rotate(-42)"/><ellipse class="cls-8" cx="14.4" rx="1" ry="4.4" transform="translate(3.7 9.6) rotate(-42)"/><rect class="cls-9" y="-15.9" width="14.4" height="15.92"/><ellipse class="cls-8" rx="1" ry="4.4" transform="translate(0 0) rotate(-42)"/><ellipse class="cls-8" cx="14.4" rx="1" ry="4.4" transform="translate(3.7 9.6) rotate(-42)"/><ellipse class="cls-8" rx="1" ry="4.4" transform="translate(0 0) rotate(-42)"/></pattern><pattern id="New_Pattern_7" data-name="New Pattern 7" width="14.4" height="15.88" patternTransform="translate(2 -0.1) scale(0.72)" patternUnits="userSpaceOnUse" viewBox="0 0 14.4 15.9"><rect class="cls-1" width="14.4" height="15.88"/><ellipse class="cls-8" cx="14.4" cy="16" rx="4.4" ry="1" transform="translate(-7.2 16) rotate(-48)"/><ellipse class="cls-8" cy="16" rx="4.4" ry="1" transform="translate(-11.9 5.3) rotate(-48)"/><ellipse class="cls-8" cx="14.4" cy="15.9" rx="4.4" ry="1" transform="translate(-7.1 15.9) rotate(-48)"/><ellipse class="cls-8" cy="15.9" rx="4.4" ry="1" transform="translate(-11.8 5.3) rotate(-48)"/><ellipse class="cls-8" cx="14.4" cy="0.2" rx="4.4" ry="1" transform="translate(4.6 10.7) rotate(-48)"/><ellipse class="cls-8" cx="14.4" cy="15.9" rx="4.4" ry="1" transform="translate(-7.1 15.9) rotate(-48)"/><polygon class="cls-9" points="0 15.9 14.4 15.9 14.4 0 0 0 0 15.9"/><ellipse class="cls-8" cy="0.2" rx="4.4" ry="1" transform="translate(-0.1 0.1) rotate(-48)"/><ellipse class="cls-8" cx="14.4" cy="15.9" rx="4.4" ry="1" transform="translate(-7.1 15.9) rotate(-48)"/><ellipse class="cls-8" cy="15.9" rx="4.4" ry="1" transform="translate(-11.8 5.3) rotate(-48)"/><ellipse class="cls-8" cx="14.4" rx="4.4" ry="1" transform="translate(4.8 10.7) rotate(-48)"/><ellipse class="cls-8" cx="7.2" cy="8" rx="4.4" ry="1" transform="translate(-3.5 8) rotate(-48)"/><ellipse class="cls-8" cx="10.8" cy="4" rx="4.4" ry="1" transform="translate(0.6 9.3) rotate(-48)"/><ellipse class="cls-8" cx="3.6" cy="11.9" rx="4.4" ry="1" transform="translate(-7.7 6.6) rotate(-48)"/><ellipse class="cls-8" cy="15.9" rx="4.4" ry="1" transform="translate(-11.8 5.3) rotate(-48)"/><ellipse class="cls-8" rx="4.4" ry="1" transform="translate(0 0) rotate(-48)"/><ellipse class="cls-8" cx="14.4" rx="4.4" ry="1" transform="translate(4.7 10.7) rotate(-48)"/><polygon class="cls-9" points="0 0 14.4 0 14.4 -15.9 0 -15.9 0 0"/><ellipse class="cls-8" cx="14.4" rx="4.4" ry="1" transform="translate(4.7 10.7) rotate(-48)"/><ellipse class="cls-8" rx="4.4" ry="1" transform="translate(0 0) rotate(-48)"/><ellipse class="cls-8" rx="4.4" ry="1" transform="translate(0 0) rotate(-48)"/></pattern><pattern id="New_Pattern_3" data-name="New Pattern 3" width="50" height="50" patternTransform="translate(53.9 54.9) scale(0.72)" patternUnits="userSpaceOnUse" viewBox="0 0 50 50"><rect class="cls-1" width="50" height="50"/><ellipse class="cls-6" cx="12.5" cy="50" rx="1.8" ry="4.7" transform="translate(-38.9 46.3) rotate(-71.8)"/><ellipse class="cls-6" cx="25.1" cy="50" rx="1.8" ry="4.7" transform="translate(-30.3 58.2) rotate(-71.8)"/><ellipse class="cls-6" cx="37.6" cy="50" rx="1.8" ry="4.7" transform="translate(-21.6 70.1) rotate(-71.8)"/><ellipse class="cls-6" cx="50.2" cy="50" rx="1.8" ry="4.7" transform="translate(-13 82) rotate(-71.8)"/><ellipse class="cls-6" cx="0.2" cy="50" rx="1.8" ry="4.7" transform="translate(-47.4 34.5) rotate(-71.8)"/><rect class="cls-7" width="50" height="50.04"/><ellipse class="cls-6" cx="12.5" rx="1.8" ry="4.7" transform="translate(8.6 11.9) rotate(-71.8)"/><ellipse class="cls-6" cx="25.1" rx="1.8" ry="4.7" transform="translate(17.2 23.8) rotate(-71.8)"/><ellipse class="cls-6" cx="37.6" rx="1.8" ry="4.7" transform="translate(25.9 35.7) rotate(-71.8)"/><ellipse class="cls-6" cx="12.6" cy="8.3" rx="1.7" ry="4.7" transform="translate(0.7 17.7) rotate(-71.8)"/><ellipse class="cls-6" cx="25.2" cy="8.3" rx="1.8" ry="4.7" transform="translate(9.4 29.6) rotate(-71.8)"/><ellipse class="cls-6" cx="37.7" cy="8.3" rx="1.7" ry="4.7" transform="translate(18 41.5) rotate(-71.8)"/><ellipse class="cls-6" cx="12.5" cy="16.7" rx="1.8" ry="4.7" transform="translate(-7.2 23.4) rotate(-71.8)"/><ellipse class="cls-6" cx="25.1" cy="16.7" rx="1.8" ry="4.7" transform="translate(1.4 35.3) rotate(-71.8)"/><ellipse class="cls-6" cx="37.6" cy="16.7" rx="1.8" ry="4.7" transform="translate(10 47.2) rotate(-71.8)"/><ellipse class="cls-6" cx="12.6" cy="25" rx="1.7" ry="4.7" transform="translate(-15.1 29.2) rotate(-71.8)"/><ellipse class="cls-6" cx="25.2" cy="25" rx="1.8" ry="4.7" transform="translate(-6.5 41.1) rotate(-71.8)"/><ellipse class="cls-6" cx="37.7" cy="25" rx="1.7" ry="4.7" transform="translate(2.1 53) rotate(-71.8)"/><ellipse class="cls-6" cx="12.4" cy="33.4" rx="1.8" ry="4.7" transform="translate(-23.2 34.7) rotate(-71.8)"/><ellipse class="cls-6" cx="24.9" cy="33.4" rx="1.8" ry="4.7" transform="translate(-14.6 46.6) rotate(-71.8)"/><ellipse class="cls-6" cx="37.5" cy="33.4" rx="1.8" ry="4.7" transform="translate(-5.9 58.5) rotate(-71.8)"/><ellipse class="cls-6" cx="12.4" cy="41.7" rx="1.7" ry="4.7" transform="translate(-31.1 40.5) rotate(-71.8)"/><ellipse class="cls-6" cx="25" cy="41.7" rx="1.8" ry="4.7" transform="translate(-22.4 52.4) rotate(-71.8)"/><ellipse class="cls-6" cx="37.5" cy="41.7" rx="1.7" ry="4.7" transform="translate(-13.8 64.3) rotate(-71.8)"/><ellipse class="cls-6" cx="12.4" cy="50" rx="1.7" ry="4.7" transform="translate(-39 46.2) rotate(-71.8)"/><ellipse class="cls-6" cx="25" cy="50" rx="1.8" ry="4.7" transform="translate(-30.4 58.1) rotate(-71.8)"/><ellipse class="cls-6" cx="37.5" cy="50" rx="1.7" ry="4.7" transform="translate(-21.7 70) rotate(-71.8)"/><ellipse class="cls-6" cx="50.2" rx="1.8" ry="4.7" transform="translate(34.5 47.6) rotate(-71.8)"/><ellipse class="cls-6" cx="50.2" cy="8.3" rx="1.8" ry="4.7" transform="translate(26.6 53.4) rotate(-71.8)"/><ellipse class="cls-6" cx="50.2" cy="16.7" rx="1.8" ry="4.7" transform="translate(18.6 59.1) rotate(-71.8)"/><ellipse class="cls-6" cx="50.2" cy="25" rx="1.7" ry="4.7" transform="translate(10.8 64.9) rotate(-71.8)"/><ellipse class="cls-6" cx="50" cy="33.4" rx="1.8" ry="4.7" transform="translate(2.7 70.4) rotate(-71.8)"/><ellipse class="cls-6" cx="50.1" cy="41.7" rx="1.7" ry="4.7" transform="translate(-5.2 76.2) rotate(-71.8)"/><ellipse class="cls-6" cx="50.1" cy="50" rx="1.7" ry="4.7" transform="translate(-13.1 81.9) rotate(-71.8)"/><rect class="cls-7" x="-50" width="50" height="50.04"/><ellipse class="cls-6" cx="0.2" rx="1.8" ry="4.7" transform="translate(0.1 0.2) rotate(-71.8)"/><ellipse class="cls-6" cx="0.2" cy="8.3" rx="1.8" ry="4.7" transform="translate(-7.8 6) rotate(-71.8)"/><ellipse class="cls-6" cx="0.2" cy="16.7" rx="1.8" ry="4.7" transform="translate(-15.7 11.6) rotate(-71.8)"/><ellipse class="cls-6" cx="0.2" cy="25" rx="1.7" ry="4.7" transform="translate(-23.6 17.4) rotate(-71.8)"/><ellipse class="cls-6" cy="33.4" rx="1.8" ry="4.7" transform="translate(-31.7 22.9) rotate(-71.8)"/><ellipse class="cls-6" cx="0.1" cy="41.7" rx="1.7" ry="4.7" transform="translate(-39.6 28.7) rotate(-71.8)"/><ellipse class="cls-6" cx="0.1" cy="50" rx="1.7" ry="4.7" transform="translate(-47.5 34.5) rotate(-71.8)"/><rect class="cls-7" y="-50" width="50" height="50.04"/><ellipse class="cls-6" cx="12.4" rx="1.7" ry="4.7" transform="translate(8.5 11.8) rotate(-71.8)"/><ellipse class="cls-6" cx="25" rx="1.8" ry="4.7" transform="translate(17.1 23.8) rotate(-71.8)"/><ellipse class="cls-6" cx="37.5" rx="1.7" ry="4.7" transform="translate(25.8 35.7) rotate(-71.8)"/><ellipse class="cls-6" cx="50.1" rx="1.7" ry="4.7" transform="translate(34.4 47.6) rotate(-71.8)"/><rect class="cls-7" x="-50" y="-50" width="50" height="50.04"/><ellipse class="cls-6" cx="0.1" rx="1.7" ry="4.7" transform="translate(0 0.1) rotate(-71.8)"/></pattern><pattern id="New_Pattern_2" data-name="New Pattern 2" width="40" height="43" patternTransform="translate(39.4 -35.3) scale(0.72)" patternUnits="userSpaceOnUse" viewBox="0 0 40 43"><rect class="cls-1" width="40" height="43"/><circle class="cls-4" cx="40" cy="43" r="2"/><circle class="cls-4" cy="43" r="2"/><circle class="cls-4" cx="13.3" cy="43" r="2"/><circle class="cls-4" cx="26.7" cy="43" r="2"/><circle class="cls-4" cx="40" cy="43" r="2"/><circle class="cls-4" cy="43" r="2"/><circle class="cls-4" cx="40" r="2"/><circle class="cls-4" cx="40" cy="21.5" r="2"/><circle class="cls-4" cx="40" cy="10.7" r="2"/><circle class="cls-4" cx="40" cy="21.5" r="2"/><circle class="cls-4" cx="40" cy="43" r="2"/><circle class="cls-4" cx="40" cy="32.3" r="2"/><rect class="cls-5" width="40" height="43"/><circle class="cls-4" r="2"/><circle class="cls-4" cx="13.3" r="2"/><circle class="cls-4" cx="26.7" r="2"/><circle class="cls-4" cx="40" r="2"/><circle class="cls-4" cy="21.5" r="2"/><circle class="cls-4" cx="13.3" cy="21.5" r="2"/><circle class="cls-4" cx="26.7" cy="21.5" r="2"/><circle class="cls-4" cx="40" cy="21.5" r="2"/><circle class="cls-4" cy="10.7" r="2"/><circle class="cls-4" cx="13.3" cy="10.7" r="2"/><circle class="cls-4" cx="26.7" cy="10.7" r="2"/><circle class="cls-4" cx="40" cy="10.8" r="2"/><circle class="cls-4" cy="21.5" r="2"/><circle class="cls-4" cx="13.3" cy="21.5" r="2"/><circle class="cls-4" cx="26.7" cy="21.5" r="2"/><circle class="cls-4" cx="40" cy="21.5" r="2"/><circle class="cls-4" cy="43" r="2"/><circle class="cls-4" cx="13.3" cy="43" r="2"/><circle class="cls-4" cx="26.7" cy="43" r="2"/><circle class="cls-4" cx="40" cy="43" r="2"/><circle class="cls-4" cy="32.3" r="2"/><circle class="cls-4" cx="13.3" cy="32.3" r="2"/><circle class="cls-4" cx="26.7" cy="32.3" r="2"/><circle class="cls-4" cx="40" cy="32.3" r="2"/><circle class="cls-4" r="2"/><circle class="cls-4" cy="21.5" r="2"/><circle class="cls-4" cy="10.8" r="2"/><circle class="cls-4" cy="21.5" r="2"/><circle class="cls-4" cy="43" r="2"/><circle class="cls-4" cy="32.3" r="2"/><circle class="cls-4" cx="40" r="2"/><circle class="cls-4" r="2"/><circle class="cls-4" cx="13.3" r="2"/><circle class="cls-4" cx="26.7" r="2"/><circle class="cls-4" cx="40" r="2"/><circle class="cls-4" r="2"/></pattern></defs><title>Yeezy 700 illustration</title><g id="Toe_Box" data-name="Toe Box"><path class="cls-10" d="M943,625.8s28.3,38.1-13.1,34.9-409.3,6.5-394.1-3.3,185.1-72.9,196-79.5,55.5-48.9,118.6-6.5S943,625.8,943,625.8Z" transform="translate(-483.9 -321.2)"/></g><g id="Tongue"><path class="cls-11" d="M1149.8,398.3s18.8,2.2,24,5.5c3.3,2,8.2,8.4,9.7,11.9s4.6,13.8,4.4,18.6a33.7,33.7,0,0,1-2.2,8.7c-1.4,3.3-3.1,11.8-6.5,13-6.9,2.5-27.2-10.9-27.2-10.9Z" transform="translate(-483.9 -321.2)"/><path class="cls-11" d="M1146,443.2c8.3-3.9,22.6-17.7,25.6-26.4s3.9-25.5,0-32.6c-4.9-8.9-22.5-22.2-30.5-28.3-10.4-8-27.4-37.4-39.2-32.7-21.8,8.7-179.1,135.5-178.5,137.3C923.4,460.5,1095.5,467,1146,443.2Z" transform="translate(-483.9 -321.2)"/></g><g id="Sock_Liner" data-name="Sock Liner"><path class="cls-12" d="M1366.4,393c.7-3.6-13.7-6.6-18.5-3.4-3,2.1-14.5,9.6-18.5,19.6-2.9,7.2-7.7,19.3-14.1,28.3s-17.5,18.9-26.2,22.9c-12.9,5.9-31.5,9.5-38.1,9.8-10.4.3-33.7-1.5-44.6-5.5s-21.7-6.9-32.7-15.2c-9-6.9-21.8-16.1-32.6-25-9.2-7.7-21.7-14.2-29.3-23.2,12.4,4.8,16.2,33.4,18.4,44.9l69.7,46.8,63.1,5.5,54.4-13.1,30.5-27.2,9.8-31.6,5.5-26.1-1.1-8.7" transform="translate(-483.9 -321.2)"/></g><g id="Collar"><path class="cls-13" d="M1116,416.8c-1.5,2.5,53.3,50.7,77.3,58.8,14,4.8,42.4,8.8,57.7,6.6s41-5.4,54.5-13.1c10.8-6.3,27.2-28.3,32.6-40.3,6.9-15.2,13-36,24-37,7.6-.7,17.8,15.7,20.7,22.9,6.5,16.3,15.2,58.7,19.5,67.5,10.7,21.3-87,39.1-87,39.1s-89.9,5.8-118.8-1c-14.7-3.4-42.5-16.8-54.3-26.2-9.1-7.2-27.6-22.9-31.6-33.7C1107.2,451.2,1116,416.8,1116,416.8Z" transform="translate(-483.9 -321.2)"/></g><g id="Heel_Cup" data-name="Heel Cup"><path class="cls-14" d="M1300,523.5c3.3-6.5,23.8-12,30.5-19.6s13.4-35.4,17.4-45.7c2.3-5.8,5.9-20.7,12-21.8,9.7-1.6,24.9,16.9,30.5,25.1,7.7,11.2,22.5,34.4,28.3,46.8,5,10.7,13.9,33,16.3,44.6,3.2,15.3,5.5,62.1,5.5,62.1s-46,17.1-62.1,19.6-59.9,0-59.9,0S1287.4,548.7,1300,523.5Z" transform="translate(-483.9 -321.2)"/><circle cx="898.3" cy="223.5" r="3.3"/><circle cx="921.1" cy="213.7" r="3.3"/><circle cx="911.3" cy="246.4" r="2.7"/><circle cx="929.8" cy="239.9" r="2.7"/><circle cx="921.1" cy="270.3" r="2.2"/><circle cx="938.5" cy="263.8" r="2.2"/><circle cx="886.8" cy="200.1" r="4.4"/><circle cx="911.9" cy="190.3" r="4.4"/></g><g id="Grey_Upper" data-name="Grey Upper"><path class="cls-15" d="M824.3,566s184.8,86.4,223,65.5,58.2-25.7,71.1-52.1-24.1-70-36.1-88.5S982.1,456,937.5,469.1s-113.2,58.8-108.8,69.7S824.3,566,824.3,566Z" transform="translate(-483.9 -321.2)"/><path class="cls-16" d="M845.5,565.4s1.9-26.1,8.2-31c25-19.6,108.9-52.2,144.8-56.6s101.7,80.7,101.7,80.7,68.1,108.7,149.7,60.8,80.6-55.5,80.6-55.5l-133.9-45.7s-93.4-19.2-69.7-90.4c5.5-16.3-29.4-42.4-65.3-47.9-18.5-2.8-64.5,39.8-83.8,52.3-42.1,27.1-179.3,81.9-179.5,89.4S845.5,565.4,845.5,565.4Z" transform="translate(-483.9 -321.2)"/></g><g id="Black_upper" data-name="Black upper"><path class="cls-17" d="M530.7,695.6s19.3-38.2,37.8-39.3S747,623.7,762.2,621.5c67.5-9.8,127.2,18.4,168.8,28.3,7.4,1.8,40.3,4.3-7.6-29.4S762.2,563.8,759,567.1s-28.3,19.6-38.1,20.6-14.2-1-14.2-1,36-27.3,45.8-28.3,32.6-15.3,32.6-19.6-2.2-17.5,16.3-17.5-2.1,34.9,102.4,47.9,154.5,67.5,151.3,76.2C1008.8,768.7,530.7,695.6,530.7,695.6Z" transform="translate(-483.9 -321.2)"/><path class="cls-17" d="M1286.4,512.1c-16.4-1.9-112.1,7.6-146.9,21.8s-125.8,96.3-126.3,99c-14.6,72.9,297.2-4.3,297.2-4.3,10.3-9.3,34.3-28.9,34.8-47.9C1346.3,540.9,1309.8,514.8,1286.4,512.1Zm-80,66.9c-1.1,19.6-27.3,26.2-39.2,28.3-5.9,1.1-28.9,3.8-18.5-15.2,7-12.8,33.8-40.3,41.4-41.4S1207.5,559.4,1206.4,579Zm53.3,21.8c-10.4-1.3-23.9-5.4-25-33.7,0,0-2.2-26.2,8.7-25.1s44.6,22.9,47.9,41.4S1268.7,602,1259.7,600.8Z" transform="translate(-483.9 -321.2)"/></g><g id="Mud_Guard" data-name="Mud Guard"><path class="cls-18" d="M495.5,709.7c-4.2.7-11.5-38.1,18.5-54.5,36-19.6,88.4-35.2,118.7-44.6,18.6-5.8,88.2-34.8,88.2-20.7,0,10.9-104.5,47.1-138.3,57.7-38.1,12-51.9,48-51.9,48S508,707.5,495.5,709.7Z" transform="translate(-483.9 -321.2)"/></g><g id="Midsole"><path class="cls-19" d="M1441.5,615c5.6,3.4,8.7,16.3,8.7,25,0,4.4,9.8,5.4,6.6,26.1-.9,5.3,10.9,3.3,10.9,18.5s12.9,29.2,16.3,39.2c2.4,7,.9,13.9,0,29.4-1.1,19.6-141.7,63.4-199.2,64.2-71.9,1.1-64.9-10.3-72.4-9.2-3.8.5-2.7-7.1-7.1-8.2-2.7-.7-2.2,4.4-10.9,4.4-35.4,0-117.8,4.6-146.9,4.3-31.1-.3-37.2-3.1-47.9-9.8-2.5-1.5-8.3-9.2-15.8-8.1s-5.5,3.2-12,5.4c-10.8,3.6-185.1,18.5-202.5,5.5-23.9-18-28.7-7.1-34.3-.6-14.6,17.2-190.5-19.5-203.5-46.8-5.9-12.3-40.3-13-40.3-42.5,0-11.9,155.7-43.5,166.5-41.3,0,0,126.3,9.8,131.2,10.3,26,2.9,91.5-26.1,91.5-26.1s50.6-.6,74.5,7.1,215-37.2,229.7-42.5,34.6.4,53.4,4.4c13.1,2.7,25.3-8.7,47.9-2.2,0,0,28.3,2.2,35.9,7.6S1427.4,606.3,1441.5,615Z" transform="translate(-483.9 -321.2)"/><path class="cls-20" d="M571.2,760.3s23.3,9.2,31.6,9.8c11,.7,33.2-15.3,45.1-16.9,5.4-.7,16.5,1.9,21.3,4.4,8.4,4.3,18.9,23.6,30.5,22.8,44.2-3.1,134.1-24.4,177.9-39.7,77.9-27.2,237.7-94,237.7-94s-159.1,73.9-237.7,99.4c-43.5,14.2-134.4,39.5-179,39.2-13.2-.1-23.5-17.7-32.1-22.3-4.5-2.4-14.6-5.4-19.6-4.9-11.9,1.2-34,17.8-44.7,16.9C593.7,774.3,571.2,760.3,571.2,760.3Z" transform="translate(-483.9 -321.2)"/><path class="cls-20" d="M1182.3,633.3c4.3-.3-265.4,126-278.7,133.5C893.7,772.4,970.4,722.6,1182.3,633.3Z" transform="translate(-483.9 -321.2)"/><path class="cls-20" d="M1219.3,787.3c-.3-2.3,66.6-26.2,90-26.8s68.1-3.7,90-9.5,78.1-36.4,78.1-36.4c-.5-2.9-6.1-11.9-6.2-11.2-.8,5.8-56.5,30.5-77.7,36.7s-68,9.1-90.8,11.7C1274.8,754.9,1215.5,785.8,1219.3,787.3Z" transform="translate(-483.9 -321.2)"/><path class="cls-20" d="M1362.3,647.5c7.7,1.7,76-6.4,86-7,1.2,0,0-4.9,0-4.9S1358.6,646.7,1362.3,647.5Z" transform="translate(-483.9 -321.2)"/></g><g id="Out_sole" data-name="Out sole"><path class="cls-21" d="M1485.1,738s3.2,11.9-9.8,25-44.6,22.9-57.7,25-45.7,21.8-77.3,25.1-88.2,7.5-108.9,4.3c-17.9-2.7-20.1-9.2-20.1-9.2,15.9-15.9,56.7-18.6,87.6-19.1,8.8-.1,18.5-3.2,34.9,4.4s45.7,2.2,45.7,2.2,21.8-6.6,28.3-12,17.4-10.9,17.4-10.9S1481.8,754.3,1485.1,738Z" transform="translate(-483.9 -321.2)"/><path class="cls-21" d="M1208,801.7c3.3,3.2-5.4,13-21.7,13s-178.9.2-187.3-15.2c-6.5-12,113.2-34.9,127.4-32.7C1144.7,769.6,1193.3,787,1208,801.7Z" transform="translate(-483.9 -321.2)"/><path class="cls-21" d="M971.8,796.2c3.8,2.7-5.4,9.8-26.1,10.9,0,0-149.2,6.5-164.4,2.2s-13.1-6.6-14.2-8.7,56.7-22.9,95.8-22.9S964.1,790.7,971.8,796.2Z" transform="translate(-483.9 -321.2)"/><path class="cls-21" d="M722.5,809.3c10.7-2.4,16.3-13.1,16.3-13.1s-8.1,6-17.9,2.7S693,791,620.2,785.3c-55.5-4.3-118.7-45.7-126.3-76.2-3.2-12.7-2.7-31,9.3-44.1,0,0-14.7,10.4-17.5,34.9-4.3,39.1,40.3,65.3,61,75.1C573.5,787.7,670.8,820.7,722.5,809.3Z" transform="translate(-483.9 -321.2)"/><path class="cls-22" d="M657.2,669.9c-12.6,1.4-48.3,26.6-50.6,28.9s-7.6,5.4-8.2,14.7c-.6,10.8,36.4,19.4,46.8,15.2s24.5-22.3,33.2-23.4,0,12,0,12-2.2,5.4,6.6,2.2,15.2-20.7,45.7-19.6,81.6-2.2,109.9-19.6c30.6-18.9,34.9-16.4,39.2-22.9,0,0-46.8,16.3-87.1,20.7S741.6,660.7,657.2,669.9Z" transform="translate(-483.9 -321.2)"/><ellipse class="cls-22" cx="717.6" cy="721.1" rx="31.7" ry="8.8" transform="translate(-702.9 2.8) rotate(-22.2)"/><path class="cls-22" d="M917.9,656.3c-6.6.3-68.1,30.9-90.3,39.2-11.4,4.3-35.6,8.5-46.8,13.1-6.3,2.5-8.6,15.5,5.4,13,16.1-2.8,75.1-25,114.3-41.3S960.4,665,956,661.8,924.6,656,917.9,656.3Z" transform="translate(-483.9 -321.2)"/><path class="cls-21" d="M1283.7,621.5c-3.4-.3,29.7,14,39.2,19.6,11.7,6.9,32.5,24.7,43.5,32.6,12.7,9.2,37,24,57.7,24s34.2-2.9,41.4-12c4.3-5.4-6.5-22.8-9.8-19.6s-21.1,12.3-58.8,9.8c-16.3-1.1-24.5-10.9-30.5-17.4C1356.8,648,1323.1,624.4,1283.7,621.5Z" transform="translate(-483.9 -321.2)"/><ellipse class="cls-23" cx="1086.3" cy="707.4" rx="76.8" ry="12.4" transform="translate(-688.6 268.3) rotate(-27.9)"/><ellipse class="cls-23" cx="1233.5" cy="695.9" rx="79.4" ry="17.3" transform="translate(-648.5 601.3) rotate(-38.6)"/></g><g id="Laces"><path class="cls-24" d="M784,534.4c8.7,1.1-2.2,22.9-8.7,17.4s-18,9.7-21.8,5.5C747.2,550.1,775.3,533.3,784,534.4Z" transform="translate(-483.9 -321.2)"/><path class="cls-24" d="M829.2,506.6s1.1,9.8,5.4,10.9,12-3.2,13.1-5.4,2.6-12.6,7.6-17.4C868.6,481.6,838.5,489.8,829.2,506.6Z" transform="translate(-483.9 -321.2)"/><path class="cls-24" d="M915.7,461.5c0,4.6,71-32.7,74.1-38.1s17.4-14.2,18.5-15.3,3.2-10.9-1.1-7.6S915.7,449.5,915.7,461.5Z" transform="translate(-483.9 -321.2)"/><path class="cls-24" d="M881.5,483.8s2.1,8.7,5.4,9.8,12-3.3,14.1-12,13.7-17.1,26.2-25C944.1,445.8,874.8,465.3,881.5,483.8Z" transform="translate(-483.9 -321.2)"/><path class="cls-24" d="M939.7,450.6c-2,4.5-1.6,16.4,2.2,19.6s13,1.1,14.1-6.6,3.5-18.5,6.6-23.9,15.2-17.4,16.3-18.5,3.2-10.9-1.1-7.6S945.2,438.5,939.7,450.6Z" transform="translate(-483.9 -321.2)"/><path class="cls-24" d="M986.5,446.2s6.5,5.5,13.1,2.2,4.3-16.3,3.2-20.7-6.9-11.8-7.6-14.1c-1.4-5.2-1.2-11.6,1.1-13.1s-18.5,7.6-17.4,13.1S980,436.4,986.5,446.2Z" transform="translate(-483.9 -321.2)"/><path class="cls-24" d="M1035.5,424.5s12,5.4,18.5,0-6.5-21.8-22.9-34.9S983.2,407,980,411.4,1008.3,386.4,1035.5,424.5Z" transform="translate(-483.9 -321.2)"/><circle cx="596.2" cy="132.3" r="6.2"/></g></svg>